<svg width="70" height="69" viewBox="0 0 70 69" fill="none" xmlns="http://www.w3.org/2000/svg">
<path d="M36.1209 11.584C33.9028 11.584 31.7575 12.3632 30.126 13.8022C27.9079 15.7549 26.6388 18.9293 27.4422 23.0033C28.6553 29.1907 31.6853 36.0292 36.9243 36.0292C42.0111 36.0292 46.1657 29.5842 46.3823 23.5171C46.3986 23.3487 46.3986 23.1717 46.3986 23.0026V22.9226C46.3582 16.6545 41.328 11.584 36.1209 11.584ZM36.8839 31.6658C33.2516 31.6658 31.1545 27.6958 30.3108 23.0033C29.3468 17.6348 32.6974 14.3401 36.3297 14.3401C39.9543 14.3401 43.4578 18.2137 43.4578 23.0026C43.4578 27.7843 40.5162 31.6658 36.8839 31.6658Z" fill="#23364E"/>
<path d="M36.1209 11.584C33.9027 11.584 31.7574 12.3632 30.126 13.8022C31.6208 12.7575 33.4447 12.2033 35.3175 12.2033C40.5487 12.2033 45.5952 17.3142 45.5952 23.6226C45.5952 26.9413 44.4217 29.9225 42.5496 32.0119C44.7352 30.0591 46.206 26.9973 46.3829 23.5178C46.3907 23.3253 46.3992 23.1243 46.3992 22.9233C46.3582 16.6545 41.328 11.584 36.1209 11.584Z" fill="#394A60"/>
<path d="M55.6888 56.6829L18.1964 57.3907C17.6804 57.3907 17.168 57.3036 16.681 57.1344L13.6567 55.6191C13.0409 55.4046 12.605 54.8533 12.537 54.205L9.97485 28.1828C9.87151 27.1933 10.0548 26.1954 10.5021 25.3071L13.3602 19.6307L57.8121 20.2974L55.6888 56.6829Z" fill="#33726E"/>
<path d="M56.7262 56.6829L17.9464 57.3907C16.9583 57.3907 16.1408 56.6206 16.0821 55.634L13.3557 19.5904L60.6431 20.2982L58.5919 54.8908C58.5516 55.8923 57.7277 56.6829 56.7262 56.6829Z" fill="#509A8F"/>
<path d="M13.3557 19.5904C13.3557 19.5904 21.8512 41.4798 37.5334 43.4786C53.2156 45.4774 60.6431 20.3633 60.6431 20.3633L13.3557 19.5904Z" fill="#23364E"/>
<path d="M13.3557 19.5904C13.3557 19.5904 21.8512 39.4485 37.5334 41.4473C53.2156 43.446 60.6431 20.364 60.6431 20.364L13.3557 19.5904Z" fill="#6DC7B6"/>
<path d="M42.0183 45.6345L36.2386 45.8942C36.0779 45.9013 35.9406 45.7817 35.9257 45.6217L35.419 40.1131C35.4027 39.9326 35.5478 39.779 35.729 39.7854L42.5385 40.0296C42.7126 40.0359 42.845 40.1881 42.8266 40.3608L42.3042 45.3655C42.2887 45.5134 42.1669 45.6281 42.0183 45.6345Z" fill="#23364E"/>
<path d="M42.8264 40.3594L42.7698 40.869C42.7202 40.7911 42.7627 40.6057 42.5362 40.5951L35.7274 40.3544C35.5306 40.3516 35.5151 40.5505 35.4655 40.6425L35.416 40.1117C35.4018 39.9347 35.5505 39.779 35.7274 39.7861L42.5362 40.0268C42.7132 40.0338 42.8476 40.1895 42.8264 40.3594Z" fill="#394A60"/>
<path d="M40.4701 44.3392L37.7798 44.4602C37.7055 44.4638 37.6411 44.4079 37.634 44.3336L37.3983 41.77C37.3905 41.6858 37.4585 41.6143 37.5427 41.6171L40.7121 41.7311C40.7928 41.7339 40.8544 41.8047 40.8459 41.8853L40.6024 44.2146C40.5961 44.2826 40.5394 44.3357 40.4701 44.3392Z" fill="white"/>
</svg>
