<svg width="182" height="167" viewBox="0 0 182 167" fill="none" xmlns="http://www.w3.org/2000/svg">
<path d="M18.0069 71.9618C3.91377 106.45 33.7938 144.428 67.6781 150.789C105.142 157.824 144.357 135.94 159.324 101.44C175.523 64.0912 160.305 26.9679 124.673 14.7322C89.9932 2.80919 58.9841 28.2478 60.7794 62.4619C62.0632 86.9933 80.6395 100.798 92.798 97.2638C102.274 94.5043 105.055 82.1084 95.7422 77.3742C92.0153 75.4881 87.3358 76.6185 84.4251 79.0948C76.6634 73.443 72.6056 55.661 82.7255 40.2077C95.6285 20.4635 123.472 26.3303 137.86 40.8028C156.182 59.2282 152.223 87.7037 138.379 107.639C123.841 128.556 96.1283 140.859 70.7831 136.18C42.0724 130.885 22.9952 103.052 28.1894 74.6223C29.3999 67.907 20.5339 65.7787 18.0069 71.9618Z" fill="#FFB550"/>
</svg>
