<svg xmlns="http://www.w3.org/2000/svg" xmlns:xlink="http://www.w3.org/1999/xlink" viewBox="0 0 350 350" width="350" height="350" preserveAspectRatio="xMidYMid meet" style="width: 100%; height: 100%; transform: translate3d(0px, 0px, 0px); content-visibility: visible;"><defs><clipPath id="__lottie_element_907"><rect width="350" height="350" x="0" y="0"/></clipPath><g id="__lottie_element_1601"><g transform="matrix(1,0,0,1,175.00050354003906,174.99899291992188)" opacity="1" style="display: block;"><g opacity="1" transform="matrix(1,0,0,1,0,0)"><path fill="rgb(2,24,30)" fill-opacity="1" d=" M-191,-237 C-191,-237 -159.25,-1.75 -159.25,-1.75 C-159.25,-1.75 -122.27400207519531,26.81100082397461 -122.27400207519531,26.81100082397461 C-122.27400207519531,26.81100082397461 -30,81.5 -30,81.5 C-30,81.5 -6.75,64.5 -6.75,64.5 C-6.75,64.5 15.5,78.25 15.5,78.25 C15.5,78.25 133.26499938964844,20.756999969482422 133.26499938964844,20.756999969482422 C133.26499938964844,20.756999969482422 177,-6 177,-6 C177,-6 178,-204 178,-204 C178,-204 -191,-237 -191,-237z"/><path stroke-linecap="butt" stroke-linejoin="miter" fill-opacity="0" stroke-miterlimit="4" stroke="rgb(255,255,255)" stroke-opacity="1" stroke-width="0" d=" M-191,-237 C-191,-237 -159.25,-1.75 -159.25,-1.75 C-159.25,-1.75 -122.27400207519531,26.81100082397461 -122.27400207519531,26.81100082397461 C-122.27400207519531,26.81100082397461 -30,81.5 -30,81.5 C-30,81.5 -6.75,64.5 -6.75,64.5 C-6.75,64.5 15.5,78.25 15.5,78.25 C15.5,78.25 133.26499938964844,20.756999969482422 133.26499938964844,20.756999969482422 C133.26499938964844,20.756999969482422 177,-6 177,-6 C177,-6 178,-204 178,-204 C178,-204 -191,-237 -191,-237z"/></g></g></g><clipPath id="__lottie_element_1605"><path d="M0,0 L500,0 L500,500 L0,500z"/></clipPath><g id="__lottie_element_1608"><g transform="matrix(1,0,0,1,175.00050354003906,174.99899291992188)" opacity="1" style="display: block;"><g opacity="1" transform="matrix(1,0,0,1,0,0)"><path fill="rgb(2,24,30)" fill-opacity="1" d=" M-191,-237 C-191,-237 -159.25,-1.75 -159.25,-1.75 C-159.25,-1.75 -122.27400207519531,26.81100082397461 -122.27400207519531,26.81100082397461 C-122.27400207519531,26.81100082397461 -30,81.5 -30,81.5 C-30,81.5 -6.75,64.5 -6.75,64.5 C-6.75,64.5 15.5,78.25 15.5,78.25 C15.5,78.25 133.26499938964844,20.756999969482422 133.26499938964844,20.756999969482422 C133.26499938964844,20.756999969482422 177,-6 177,-6 C177,-6 178,-204 178,-204 C178,-204 -191,-237 -191,-237z"/><path stroke-linecap="butt" stroke-linejoin="miter" fill-opacity="0" stroke-miterlimit="4" stroke="rgb(255,255,255)" stroke-opacity="1" stroke-width="0" d=" M-191,-237 C-191,-237 -159.25,-1.75 -159.25,-1.75 C-159.25,-1.75 -122.27400207519531,26.81100082397461 -122.27400207519531,26.81100082397461 C-122.27400207519531,26.81100082397461 -30,81.5 -30,81.5 C-30,81.5 -6.75,64.5 -6.75,64.5 C-6.75,64.5 15.5,78.25 15.5,78.25 C15.5,78.25 133.26499938964844,20.756999969482422 133.26499938964844,20.756999969482422 C133.26499938964844,20.756999969482422 177,-6 177,-6 C177,-6 178,-204 178,-204 C178,-204 -191,-237 -191,-237z"/></g></g></g><mask id="__lottie_element_1608_1" mask-type="alpha"><use xmlns:ns1="http://www.w3.org/1999/xlink" ns1:href="#__lottie_element_1608"/></mask><mask id="__lottie_element_1601_1" mask-type="alpha"><use xmlns:ns2="http://www.w3.org/1999/xlink" ns2:href="#__lottie_element_1601"/></mask></defs><g clip-path="url(#__lottie_element_907)"><g transform="matrix(2.5,0,0,2.5,176.4980010986328,250.48399353027344)" opacity="1" style="display: none;"><g opacity="1" transform="matrix(4,0,0,4,0,0)"><path fill="rgb(192,230,249)" fill-opacity="1" d=" M12.439000129699707,7.747000217437744 C13.435999870300293,1.75 16.149999618530273,-7.447999954223633 16.149999618530273,-7.447999954223633 C12.769000053405762,-5.230999946594238 5.589000225067139,-1.6380000114440918 1.4470000267028809,0.2240000069141388 C1.3639999628067017,0.2630000114440918 1.284000039100647,0.296999990940094 1.2039999961853027,0.33399999141693115 C-0.4350000023841858,1.069000005722046 -1.5080000162124634,1.5299999713897705 -1.5080000162124634,1.5299999713897705 C-1.9800000190734863,1.3660000562667847 -2.48799991607666,1.1540000438690186 -3.0239999294281006,0.902999997138977 C-3.1449999809265137,0.8460000157356262 -3.2669999599456787,0.7889999747276306 -3.3929998874664307,0.7260000109672546 C-8.663000106811523,-1.8459999561309814 -16.149999618530273,-7.747000217437744 -16.149999618530273,-7.747000217437744 C-16.149999618530273,-7.747000217437744 -11.597000122070312,7.747000217437744 -11.597000122070312,7.747000217437744 C-11.597000122070312,7.747000217437744 12.439000129699707,7.747000217437744 12.439000129699707,7.747000217437744z"/></g></g><g transform="matrix(2.5,0,0,2.5,176.50599670410156,157.26199340820312)" opacity="1" style="display: none;"><g opacity="1" transform="matrix(4,0,0,4,0,0)"><path fill="rgb(150,206,234)" fill-opacity="1" d=" M0.859000027179718,-12.72599983215332 C0.859000027179718,-12.72599983215332 -16.149999618530273,1.5759999752044678 -16.149999618530273,1.5759999752044678 C-16.149999618530273,1.5759999752044678 -1.2130000591278076,12.72599983215332 -1.2130000591278076,12.72599983215332 C-1.2130000591278076,12.72599983215332 16.149999618530273,1.875 16.149999618530273,1.875 C16.149999618530273,1.875 0.859000027179718,-12.72599983215332 0.859000027179718,-12.72599983215332z"/></g></g><g transform="matrix(2.5,0,0,2.5,179.61500549316406,165.56399536132812)" opacity="1" style="display: none;"><g opacity="1" transform="matrix(4,0,0,4,0,0)"><path fill="rgb(233,248,255)" fill-opacity="1" d=" M-15.539999961853027,-8.831000328063965 C-15.539999961853027,-8.831000328063965 -13.402000427246094,-0.5720000267028809 -12.611000061035156,3.624000072479248 C-12.611000061035156,3.624000072479248 -1.819000005722046,10.019000053405762 -1.819000005722046,10.019000053405762 C-1.819000005722046,10.019000053405762 12.79800033569336,2.989000082015991 12.79800033569336,2.989000082015991 C12.79800033569336,2.989000082015991 15.539999961853027,-10.019000053405762 15.539999961853027,-10.019000053405762 C10.553000450134277,-9.781000137329102 -15.539999961853027,-8.831000328063965 -15.539999961853027,-8.831000328063965z"/></g></g><g transform="matrix(2.5,0,0,2.5,113.11900329589844,283.5509948730469)" opacity="1" style="display: none;"><g opacity="1" transform="matrix(4,0,0,4,0,0)"><path fill="rgb(150,206,234)" fill-opacity="1" d=" M3.312999963760376,-2.4030001163482666 C3.312999963760376,-2.4030001163482666 5.520999908447266,-4.440000057220459 5.520999908447266,-4.440000057220459 C5.520999908447266,-4.440000057220459 2.944000005722046,-2.5810000896453857 2.944000005722046,-2.5810000896453857 C2.944000005722046,-2.5810000896453857 -5.520999908447266,3.5320000648498535 -5.520999908447266,3.5320000648498535 C-5.520999908447266,3.5320000648498535 -5.252999782562256,4.440000057220459 -5.252999782562256,4.440000057220459 C-5.252999782562256,4.440000057220459 3.312999963760376,-2.4030001163482666 3.312999963760376,-2.4030001163482666z"/></g></g><g transform="matrix(2.5,0,0,2.5,235.41700744628906,283.54400634765625)" opacity="1" style="display: none;"><g opacity="1" transform="matrix(4,0,0,4,0,0)"><path fill="rgb(150,206,234)" fill-opacity="1" d=" M6.5879998207092285,4.439000129699707 C6.5879998207092285,4.439000129699707 6.706999778747559,3.5220000743865967 6.706999778747559,3.5220000743865967 C6.706999778747559,3.5220000743865967 -4.445000171661377,-3.0810000896453857 -4.445000171661377,-3.0810000896453857 C-4.445000171661377,-3.0810000896453857 -6.706999778747559,-4.439000129699707 -6.706999778747559,-4.439000129699707 C-6.706999778747559,-4.439000129699707 -4.685999870300293,-2.9700000286102295 -4.685999870300293,-2.9700000286102295 C-4.685999870300293,-2.9700000286102295 6.5879998207092285,4.439000129699707 6.5879998207092285,4.439000129699707z"/></g></g><g transform="matrix(2.5,0,0,2.5,180.91099548339844,283.5509948730469)" opacity="1" style="display: none;"><g opacity="1" transform="matrix(4,0,0,4,0,0)"><path fill="rgb(192,230,249)" fill-opacity="1" d=" M-12.038000106811523,4.440000057220459 C-12.038000106811523,4.440000057220459 12.038000106811523,4.439000129699707 12.038000106811523,4.439000129699707 C12.038000106811523,4.439000129699707 0.7639999985694885,-2.9709999561309814 0.7639999985694885,-2.9709999561309814 C0.7639999985694885,-2.9709999561309814 -1.2569999694824219,-4.440000057220459 -1.2569999694824219,-4.440000057220459 C-1.2569999694824219,-4.440000057220459 -3.4639999866485596,-2.4030001163482666 -3.4639999866485596,-2.4030001163482666 C-3.4639999866485596,-2.4030001163482666 -12.038000106811523,4.440000057220459 -12.038000106811523,4.440000057220459z"/></g></g><g transform="matrix(2.5,0,0,2.5,97.71499633789062,143.62100219726562)" opacity="1" style="display: none;"><g opacity="1" transform="matrix(4,0,0,4,0,0)"><path fill="rgb(35,53,78)" fill-opacity="1" d=" M1.3910000324249268,-1.1670000553131104 C1.4119999408721924,-1.1670000553131104 1.468000054359436,-1.1959999799728394 1.468000054359436,-1.2170000076293945 C1.468000054359436,-1.2170000076293945 1.437000036239624,-2.138000011444092 1.437000036239624,-2.138000011444092 C1.437000036239624,-2.178999900817871 1.4290000200271606,-2.193000078201294 1.3799999952316284,-2.193000078201294 C1.281000018119812,-2.193000078201294 0.7480000257492065,-2.1510000228881836 -0.0020000000949949026,-2.1510000228881836 C-0.8799999952316284,-2.1510000228881836 -1.2580000162124634,-2.193000078201294 -1.371000051498413,-2.193000078201294 C-1.4129999876022339,-2.193000078201294 -1.4199999570846558,-2.177999973297119 -1.4199999570846558,-2.1440000534057617 C-1.4199999570846558,-2.1440000534057617 -1.468000054359436,-1.218000054359436 -1.468000054359436,-1.218000054359436 C-1.468000054359436,-1.1970000267028809 -1.4199999570846558,-1.1829999685287476 -1.3990000486373901,-1.1829999685287476 C-1.3910000324249268,-1.1829999685287476 -1.3839999437332153,-1.1829999685287476 -1.3760000467300415,-1.1970000267028809 C-1.3760000467300415,-1.1970000267028809 -1.0470000505447388,-1.9129999876022339 -1.0470000505447388,-1.9129999876022339 C-1.0180000066757202,-1.9759999513626099 -0.9900000095367432,-1.9830000400543213 -0.9269999861717224,-1.996999979019165 C-0.8149999976158142,-2.0179998874664307 -0.527999997138977,-2.0390000343322754 -0.4580000042915344,-2.0390000343322754 C-0.4440000057220459,-1.6109999418258667 -0.4230000078678131,-0.38999998569488525 -0.41600000858306885,-0.09600000083446503 C-0.4090000092983246,0.1770000010728836 -0.38100001215934753,1.694000005722046 -0.3880000114440918,1.9249999523162842 C-0.3880000114440918,2.003000020980835 -0.3959999978542328,2.0169999599456787 -0.4449999928474426,2.0239999294281006 C-0.4449999928474426,2.0239999294281006 -0.6970000267028809,2.1010000705718994 -0.6970000267028809,2.1010000705718994 C-0.7170000076293945,2.1089999675750732 -0.7250000238418579,2.1579999923706055 -0.7250000238418579,2.178999900817871 C-0.7250000238418579,2.187000036239624 -0.7239999771118164,2.193000078201294 -0.7099999785423279,2.193000078201294 C-0.5899999737739563,2.184999942779541 -0.3310000002384186,2.178999900817871 -0.050999999046325684,2.178999900817871 C0.257999986410141,2.178999900817871 0.5540000200271606,2.186000108718872 0.7009999752044678,2.193000078201294 C0.7080000042915344,2.193000078201294 0.7149999737739563,2.186000108718872 0.7149999737739563,2.171999931335449 C0.7149999737739563,2.130000114440918 0.7020000219345093,2.1019999980926514 0.6880000233650208,2.1019999980926514 C0.6880000233650208,2.1019999980926514 0.4359999895095825,2.0390000343322754 0.4359999895095825,2.0390000343322754 C0.38600000739097595,2.0250000953674316 0.36500000953674316,2.01200008392334 0.36500000953674316,1.940999984741211 C0.36500000953674316,1.8020000457763672 0.3919999897480011,0.3619999885559082 0.39899998903274536,-0.003000000026077032 C0.40700000524520874,-0.5350000262260437 0.4339999854564667,-1.7009999752044678 0.45500001311302185,-2.0369999408721924 C0.546999990940094,-2.0369999408721924 0.8830000162124634,-2.009000062942505 0.9610000252723694,-1.9880000352859497 C1.0240000486373901,-1.9739999771118164 1.0449999570846558,-1.9529999494552612 1.0729999542236328,-1.8830000162124634 C1.0729999542236328,-1.8830000162124634 1.36899995803833,-1.180999994277954 1.36899995803833,-1.180999994277954 C1.3769999742507935,-1.1670000553131104 1.3830000162124634,-1.1670000553131104 1.3910000324249268,-1.1670000553131104z"/></g></g><g transform="matrix(2.5,0,0,2.5,129.88600158691406,141.81700134277344)" opacity="1" style="display: none;"><g opacity="1" transform="matrix(4,0,0,4,0,0)"><path fill="rgb(35,53,78)" fill-opacity="1" d=" M-0.29899999499320984,-2.305999994277954 C-0.29899999499320984,-2.3410000801086426 -0.3059999942779541,-2.384000062942505 -0.3630000054836273,-2.377000093460083 C-0.3630000054836273,-2.377000093460083 -1.5579999685287476,-2.253999948501587 -1.5579999685287476,-2.253999948501587 C-1.5800000429153442,-2.253999948501587 -1.5800000429153442,-2.246999979019165 -1.5800000429153442,-2.2330000400543213 C-1.5800000429153442,-2.2049999237060547 -1.5670000314712524,-2.1640000343322754 -1.5449999570846558,-2.1640000343322754 C-1.5449999570846558,-2.1640000343322754 -1.215000033378601,-2.128000020980835 -1.215000033378601,-2.128000020980835 C-1.1660000085830688,-2.121000051498413 -1.159999966621399,-2.072000026702881 -1.159999966621399,-2.0230000019073486 C-1.152999997138977,-1.5880000591278076 -1.1390000581741333,-0.28200000524520874 -1.1319999694824219,0.05400000140070915 C-1.1239999532699585,0.5950000286102295 -1.1030000448226929,1.9769999980926514 -1.1100000143051147,2.131999969482422 C-1.1100000143051147,2.1740000247955322 -1.1239999532699585,2.2019999027252197 -1.1660000085830688,2.2160000801086426 C-1.1660000085830688,2.2160000801086426 -1.4049999713897705,2.2929999828338623 -1.4049999713897705,2.2929999828338623 C-1.4190000295639038,2.3010001182556152 -1.4279999732971191,2.3420000076293945 -1.4279999732971191,2.3559999465942383 C-1.4279999732971191,2.369999885559082 -1.4270000457763672,2.377000093460083 -1.4129999876022339,2.377000093460083 C-1.3279999494552612,2.36899995803833 -1.1030000448226929,2.36299991607666 -0.8019999861717224,2.36299991607666 C-0.5210000276565552,2.36299991607666 -0.28999999165534973,2.369999885559082 -0.13500000536441803,2.377000093460083 C-0.12099999934434891,2.377000093460083 -0.11999999731779099,2.369999885559082 -0.11999999731779099,2.3559999465942383 C-0.11999999731779099,2.313999891281128 -0.1340000033378601,2.299999952316284 -0.14800000190734863,2.2929999828338623 C-0.14800000190734863,2.2929999828338623 -0.3659999966621399,2.2219998836517334 -0.3659999966621399,2.2219998836517334 C-0.41600000858306885,2.2149999141693115 -0.4429999887943268,2.194999933242798 -0.4429999887943268,2.138000011444092 C-0.44999998807907104,1.878000020980835 -0.414000004529953,1.3589999675750732 -0.3799999952316284,1.1339999437332153 C-0.2669999897480011,0.35600000619888306 0.014000000432133675,-0.26899999380111694 0.3019999861717224,-0.26899999380111694 C0.6110000014305115,-0.26899999380111694 0.6460000276565552,0.45399999618530273 0.6460000276565552,1.0779999494552612 C0.6460000276565552,1.5210000276565552 0.6389999985694885,1.9199999570846558 0.6179999709129333,2.1089999675750732 C0.6100000143051147,2.180000066757202 0.6039999723434448,2.2149999141693115 0.546999990940094,2.2290000915527344 C0.546999990940094,2.2290000915527344 0.3449999988079071,2.2920000553131104 0.3449999988079071,2.2920000553131104 C0.3240000009536743,2.2990000247955322 0.31700000166893005,2.3340001106262207 0.31700000166893005,2.361999988555908 C0.31700000166893005,2.369999885559082 0.3179999887943268,2.375999927520752 0.3319999873638153,2.375999927520752 C0.49900001287460327,2.368000030517578 0.6539999842643738,2.361999988555908 0.9629999995231628,2.361999988555908 C1.24399995803833,2.361999988555908 1.4270000457763672,2.36899995803833 1.565999984741211,2.375999927520752 C1.5800000429153442,2.375999927520752 1.5800000429153442,2.36899995803833 1.5800000429153442,2.3550000190734863 C1.5800000429153442,2.3259999752044678 1.5750000476837158,2.2990000247955322 1.5529999732971191,2.2920000553131104 C1.5529999732971191,2.2920000553131104 1.3279999494552612,2.2139999866485596 1.3279999494552612,2.2139999866485596 C1.2710000276565552,2.200000047683716 1.2710000276565552,2.1649999618530273 1.2790000438690186,2.052999973297119 C1.3070000410079956,1.7860000133514404 1.3630000352859497,1.090999960899353 1.3630000352859497,0.46700000762939453 C1.3630000352859497,-0.41100001335144043 1.1180000305175781,-0.8880000114440918 0.6620000004768372,-0.8880000114440918 C0.16300000250339508,-0.8880000114440918 -0.20900000631809235,-0.06700000166893005 -0.335999995470047,0.36800000071525574 C-0.34299999475479126,0.4099999964237213 -0.3630000054836273,0.46000000834465027 -0.3840000033378601,0.5509999990463257 C-0.3840000033378601,0.5509999990463257 -0.41200000047683716,0.5509999990463257 -0.41200000047683716,0.5509999990463257 C-0.41200000047683716,0.47999998927116394 -0.4050000011920929,0.4020000100135803 -0.4050000011920929,0.36800000071525574 C-0.382999986410141,-0.08100000023841858 -0.29899999499320984,-2.2720000743865967 -0.29899999499320984,-2.305999994277954z"/></g></g><g transform="matrix(2.5,0,0,2.5,161.62399291992188,149.44900512695312)" opacity="1" style="display: none;"><g opacity="1" transform="matrix(4,0,0,4,0,0)"><path fill="rgb(35,53,78)" fill-opacity="1" d=" M0.28200000524520874,0.5789999961853027 C0.19699999690055847,0.9929999709129333 -0.006000000052154064,1.2740000486373901 -0.18199999630451202,1.2740000486373901 C-0.18199999630451202,1.2740000486373901 -0.18199999630451202,1.2740000486373901 -0.18199999630451202,1.2740000486373901 C-0.18199999630451202,1.2740000486373901 -0.1899999976158142,1.2740000486373901 -0.1899999976158142,1.2740000486373901 C-0.37299999594688416,1.2740000486373901 -0.48399999737739563,1.00600004196167 -0.48399999737739563,0.5640000104904175 C-0.48399999737739563,0.07400000095367432 -0.4000000059604645,-0.38999998569488525 -0.14000000059604645,-0.38999998569488525 C0.12700000405311584,-0.38999998569488525 0.2529999911785126,-0.017999999225139618 0.28700000047683716,0.17900000512599945 C0.29499998688697815,0.23399999737739563 0.3089999854564667,0.32499998807907104 0.3089999854564667,0.375 C0.3089999854564667,0.43799999356269836 0.29600000381469727,0.5090000033378601 0.28200000524520874,0.5789999961853027z M0.23199999332427979,-0.6919999718666077 C0.24500000476837158,-0.5920000076293945 0.25999999046325684,-0.47999998927116394 0.25999999046325684,-0.31200000643730164 C0.25999999046325684,-0.31200000643730164 0.23100000619888306,-0.30399999022483826 0.23100000619888306,-0.30399999022483826 C0.2029999941587448,-0.33899998664855957 0.16699999570846558,-0.375 0.13899999856948853,-0.40299999713897705 C0.041999999433755875,-0.5019999742507935 -0.12099999934434891,-0.5849999785423279 -0.35199999809265137,-0.5849999785423279 C-0.9760000109672546,-0.5849999785423279 -1.2710000276565552,0.0820000022649765 -1.2710000276565552,0.6710000038146973 C-1.2710000276565552,1.315999984741211 -0.9269999861717224,1.6540000438690186 -0.5410000085830688,1.6540000438690186 C-0.14000000059604645,1.6540000438690186 0.09099999815225601,1.3589999675750732 0.23800000548362732,1.0360000133514404 C0.2669999897480011,0.9869999885559082 0.28700000047683716,0.9309999942779541 0.3089999854564667,0.8889999985694885 C0.3089999854564667,0.8889999985694885 0.3240000009536743,0.8960000276565552 0.3240000009536743,0.8960000276565552 C0.3240000009536743,0.925000011920929 0.3160000145435333,1.0299999713897705 0.3160000145435333,1.0720000267028809 C0.3160000145435333,1.2480000257492065 0.3230000138282776,1.4930000305175781 0.33000001311302185,1.562999963760376 C0.33000001311302185,1.590999960899353 0.3440000116825104,1.6050000190734863 0.3580000102519989,1.6050000190734863 C0.4359999895095825,1.6050000190734863 0.5830000042915344,1.5980000495910645 0.7590000033378601,1.5980000495910645 C0.9610000252723694,1.5980000495910645 1.1660000085830688,1.5980000495910645 1.25,1.6050000190734863 C1.2630000114440918,1.6050000190734863 1.2710000276565552,1.6050000190734863 1.2710000276565552,1.590999960899353 C1.2710000276565552,1.562000036239624 1.2630000114440918,1.5269999504089355 1.2289999723434448,1.5130000114440918 C1.2289999723434448,1.5130000114440918 1.0470000505447388,1.4420000314712524 1.0470000505447388,1.4420000314712524 C0.9900000095367432,1.4210000038146973 0.984000027179718,1.406999945640564 0.984000027179718,1.3650000095367432 C0.984000027179718,1.2239999771118164 1.003999948501587,0.8600000143051147 1.0180000066757202,0.515999972820282 C1.0260000228881836,0.2980000078678131 1.0390000343322754,-0.1940000057220459 1.0390000343322754,-0.3199999928474426 C1.0390000343322754,-1.0230000019073486 0.8709999918937683,-1.6540000438690186 0.2529999911785126,-1.6540000438690186 C-0.210999995470047,-1.6540000438690186 -0.6460000276565552,-1.465000033378601 -1.031999945640564,-0.9380000233650208 C-1.059999942779541,-0.902999997138977 -0.996999979019165,-0.8389999866485596 -0.9760000109672546,-0.8389999866485596 C-0.968999981880188,-0.8389999866485596 -0.9620000123977661,-0.8460000157356262 -0.9549999833106995,-0.8529999852180481 C-0.6880000233650208,-1.1549999713897705 -0.44200000166893005,-1.309000015258789 -0.210999995470047,-1.309000015258789 C0.07699999958276749,-1.309000015258789 0.20399999618530273,-0.9860000014305115 0.23199999332427979,-0.6919999718666077z"/></g></g><g transform="matrix(2.5,0,0,2.5,192.0330047607422,149.24000549316406)" opacity="1" style="display: none;"><g opacity="1" transform="matrix(4,0,0,4,0,0)"><path fill="rgb(35,53,78)" fill-opacity="1" d=" M1.5579999685287476,1.6180000305175781 C1.5579999685287476,1.597000002861023 1.5449999570846558,1.5549999475479126 1.531000018119812,1.5479999780654907 C1.531000018119812,1.5479999780654907 1.2970000505447388,1.4630000591278076 1.2970000505447388,1.4630000591278076 C1.2419999837875366,1.4429999589920044 1.2269999980926514,1.4149999618530273 1.2339999675750732,1.3240000009536743 C1.2630000114440918,1.027999997138977 1.3049999475479126,0.18700000643730164 1.3049999475479126,-0.2770000100135803 C1.3049999475479126,-1.1549999713897705 1.0729999542236328,-1.6319999694824219 0.5889999866485596,-1.6319999694824219 C0.15399999916553497,-1.6319999694824219 -0.20499999821186066,-0.9860000014305115 -0.367000013589859,-0.453000009059906 C-0.38100001215934753,-0.4180000126361847 -0.4009999930858612,-0.3400000035762787 -0.421999990940094,-0.25600001215934753 C-0.421999990940094,-0.25600001215934753 -0.4490000009536743,-0.25600001215934753 -0.4490000009536743,-0.25600001215934753 C-0.44200000166893005,-0.33500000834465027 -0.4350000023841858,-0.40400001406669617 -0.4350000023841858,-0.4740000069141388 C-0.421999990940094,-0.8040000200271606 -0.4009999930858612,-1.5479999780654907 -0.4009999930858612,-1.5759999752044678 C-0.4009999930858612,-1.6100000143051147 -0.41499999165534973,-1.6390000581741333 -0.4490000009536743,-1.6319999694824219 C-0.4490000009536743,-1.6319999694824219 -1.5369999408721924,-1.4359999895095825 -1.5369999408721924,-1.4359999895095825 C-1.5579999685287476,-1.4290000200271606 -1.5579999685287476,-1.4220000505447388 -1.5579999685287476,-1.4149999618530273 C-1.5579999685287476,-1.3799999952316284 -1.5390000343322754,-1.3240000009536743 -1.5180000066757202,-1.3240000009536743 C-1.5180000066757202,-1.3240000009536743 -1.2790000438690186,-1.3029999732971191 -1.2790000438690186,-1.3029999732971191 C-1.2289999723434448,-1.2960000038146973 -1.2139999866485596,-1.2610000371932983 -1.2139999866485596,-1.2120000123977661 C-1.2070000171661377,-0.9660000205039978 -1.1799999475479126,-0.11800000071525574 -1.1799999475479126,0.09399999678134918 C-1.1799999475479126,0.35899999737739563 -1.1660000085830688,1.2029999494552612 -1.1660000085830688,1.3990000486373901 C-1.1660000085830688,1.4420000314712524 -1.194000005722046,1.4620000123977661 -1.2359999418258667,1.4759999513626099 C-1.2359999418258667,1.4759999513626099 -1.4889999628067017,1.5390000343322754 -1.4889999628067017,1.5390000343322754 C-1.5089999437332153,1.5470000505447388 -1.5230000019073486,1.5820000171661377 -1.5230000019073486,1.6169999837875366 C-1.5230000019073486,1.625 -1.5219999551773071,1.63100004196167 -1.5080000162124634,1.63100004196167 C-1.2979999780654907,1.6230000257492065 -1.1369999647140503,1.6169999837875366 -0.8489999771118164,1.6169999837875366 C-0.5899999737739563,1.6169999837875366 -0.414000004529953,1.6239999532699585 -0.19599999487400055,1.63100004196167 C-0.18299999833106995,1.63100004196167 -0.18299999833106995,1.6239999532699585 -0.18299999833106995,1.6169999837875366 C-0.18299999833106995,1.5959999561309814 -0.1889999955892563,1.5540000200271606 -0.20999999344348907,1.5470000505447388 C-0.20999999344348907,1.5470000505447388 -0.42800000309944153,1.4759999513626099 -0.42800000309944153,1.4759999513626099 C-0.46299999952316284,1.4630000591278076 -0.4909999966621399,1.4420000314712524 -0.4909999966621399,1.3849999904632568 C-0.49799999594688416,1.0700000524520874 -0.44200000166893005,0.45899999141693115 -0.414000004529953,0.2630000114440918 C-0.2879999876022339,-0.453000009059906 -0.035999998450279236,-1.0140000581741333 0.23899999260902405,-1.0140000581741333 C0.5889999866485596,-1.0140000581741333 0.6029999852180481,-0.19300000369548798 0.6029999852180481,0.34700000286102295 C0.6029999852180481,0.621999979019165 0.5759999752044678,1.2730000019073486 0.5690000057220459,1.371999979019165 C0.5609999895095825,1.4290000200271606 0.5460000038146973,1.4559999704360962 0.4909999966621399,1.4769999980926514 C0.4909999966621399,1.4769999980926514 0.27300000190734863,1.5479999780654907 0.27300000190734863,1.5479999780654907 C0.2529999911785126,1.5549999475479126 0.2460000067949295,1.5829999446868896 0.2460000067949295,1.6180000305175781 C0.2460000067949295,1.6260000467300415 0.2460000067949295,1.6319999694824219 0.25999999046325684,1.6319999694824219 C0.4410000145435333,1.6239999532699585 0.6039999723434448,1.6180000305175781 0.9049999713897705,1.6180000305175781 C1.1720000505447388,1.6180000305175781 1.3259999752044678,1.625 1.5440000295639038,1.6319999694824219 C1.5579999685287476,1.6319999694824219 1.5579999685287476,1.625 1.5579999685287476,1.6180000305175781z"/></g></g><g transform="matrix(2.5,0,0,2.5,224.7550048828125,141.822998046875)" opacity="1" style="display: none;"><g opacity="1" transform="matrix(4,0,0,4,0,0)"><path fill="rgb(35,53,78)" fill-opacity="1" d=" M1.3609999418258667,-0.8119999766349792 C1.3609999418258667,-0.8190000057220459 1.3539999723434448,-0.8330000042915344 1.340000033378601,-0.8330000042915344 C1.340000033378601,-0.8330000042915344 0.28999999165534973,-0.8330000042915344 0.28999999165534973,-0.8330000042915344 C0.2759999930858612,-0.8330000042915344 0.2759999930858612,-0.8259999752044678 0.2759999930858612,-0.8190000057220459 C0.2759999930858612,-0.7689999938011169 0.2980000078678131,-0.734000027179718 0.3319999873638153,-0.7269999980926514 C0.3319999873638153,-0.7269999980926514 0.5230000019073486,-0.6779999732971191 0.5230000019073486,-0.6779999732971191 C0.578000009059906,-0.6639999747276306 0.5910000205039978,-0.609000027179718 0.5569999814033508,-0.5590000152587891 C0.28999999165534973,-0.1860000044107437 -0.08100000023841858,0.25600001215934753 -0.2639999985694885,0.48100000619888306 C-0.31299999356269836,0.5379999876022339 -0.3540000021457672,0.593999981880188 -0.4320000112056732,0.6990000009536743 C-0.4320000112056732,0.6990000009536743 -0.45500001311302185,0.6990000009536743 -0.45500001311302185,0.6990000009536743 C-0.45500001311302185,0.628000020980835 -0.44699999690055847,0.5299999713897705 -0.44699999690055847,0.4390000104904175 C-0.4339999854564667,-0.04500000178813934 -0.3700000047683716,-1.8980000019073486 -0.35600000619888306,-2.312000036239624 C-0.35600000619888306,-2.3469998836517334 -0.3619999885559082,-2.381999969482422 -0.4189999997615814,-2.375 C-0.4189999997615814,-2.375 -1.5980000495910645,-2.263000011444092 -1.5980000495910645,-2.263000011444092 C-1.6119999885559082,-2.263000011444092 -1.6119999885559082,-2.25600004196167 -1.6119999885559082,-2.242000102996826 C-1.6119999885559082,-2.2139999866485596 -1.5920000076293945,-2.171999931335449 -1.5779999494552612,-2.171999931335449 C-1.5779999494552612,-2.171999931335449 -1.281999945640564,-2.130000114440918 -1.281999945640564,-2.130000114440918 C-1.2330000400543213,-2.121999979019165 -1.2120000123977661,-2.1019999980926514 -1.2120000123977661,-2.052999973297119 C-1.1990000009536743,-1.6180000305175781 -1.1770000457763672,-0.13699999451637268 -1.1770000457763672,0.0729999989271164 C-1.1770000457763672,0.4090000092983246 -1.1549999713897705,1.9470000267028809 -1.1629999876022339,2.1570000648498535 C-1.1629999876022339,2.1989998817443848 -1.1920000314712524,2.2130000591278076 -1.2339999675750732,2.2269999980926514 C-1.2339999675750732,2.2269999980926514 -1.465000033378601,2.2899999618530273 -1.465000033378601,2.2899999618530273 C-1.4859999418258667,2.296999931335449 -1.4930000305175781,2.3389999866485596 -1.4930000305175781,2.359999895095825 C-1.4930000305175781,2.368000030517578 -1.4919999837875366,2.374000072479248 -1.4780000448226929,2.374000072479248 C-1.3309999704360962,2.365999937057495 -1.1419999599456787,2.359999895095825 -0.8330000042915344,2.359999895095825 C-0.5519999861717224,2.359999895095825 -0.3619999885559082,2.367000102996826 -0.17299999296665192,2.374000072479248 C-0.1589999943971634,2.374000072479248 -0.1509999930858612,2.367000102996826 -0.1509999930858612,2.359999895095825 C-0.1509999930858612,2.3389999866485596 -0.1589999943971634,2.296999931335449 -0.18700000643730164,2.2899999618530273 C-0.18700000643730164,2.2899999618530273 -0.3970000147819519,2.2269999980926514 -0.3970000147819519,2.2269999980926514 C-0.44600000977516174,2.2130000591278076 -0.46000000834465027,2.2060000896453857 -0.46799999475479126,2.1570000648498535 C-0.48100000619888306,2.0789999961853027 -0.46000000834465027,1.440999984741211 -0.453000009059906,1.1950000524520874 C-0.453000009059906,1.1319999694824219 -0.4449999928474426,1.0199999809265137 -0.4449999928474426,0.9079999923706055 C-0.4449999928474426,0.9079999923706055 -0.4309999942779541,0.9079999923706055 -0.4309999942779541,0.9079999923706055 C-0.38199999928474426,0.9710000157356262 -0.34700000286102295,1.0130000114440918 -0.3050000071525574,1.062999963760376 C0.004999999888241291,1.4129999876022339 0.37700000405311584,1.8550000190734863 0.5870000123977661,2.121999979019165 C0.6209999918937683,2.178999900817871 0.6150000095367432,2.2060000896453857 0.5649999976158142,2.2269999980926514 C0.5649999976158142,2.2269999980926514 0.38199999928474426,2.2980000972747803 0.38199999928474426,2.2980000972747803 C0.3619999885559082,2.305000066757202 0.35499998927116394,2.3329999446868896 0.35499998927116394,2.3610000610351562 C0.35499998927116394,2.375 0.3619999885559082,2.375 0.36899998784065247,2.375 C0.4959999918937683,2.367000102996826 0.7699999809265137,2.3610000610351562 1.0290000438690186,2.3610000610351562 C1.2760000228881836,2.3610000610351562 1.4639999866485596,2.368000030517578 1.5980000495910645,2.375 C1.6119999885559082,2.375 1.6119999885559082,2.375 1.6119999885559082,2.3610000610351562 C1.6119999885559082,2.3399999141693115 1.6069999933242798,2.2980000972747803 1.5850000381469727,2.2909998893737793 C1.5850000381469727,2.2909998893737793 1.3680000305175781,2.2070000171661377 1.3680000305175781,2.2070000171661377 C1.3259999752044678,2.186000108718872 1.2899999618530273,2.1440000534057617 1.2549999952316284,2.1019999980926514 C0.9380000233650208,1.5750000476837158 0.6309999823570251,1.0640000104904175 0.25099998712539673,0.4740000069141388 C0.20900000631809235,0.4099999964237213 0.15399999916553497,0.33399999141693115 0.1120000034570694,0.2840000092983246 C0.1120000034570694,0.2840000092983246 0.1120000034570694,0.2630000114440918 0.1120000034570694,0.2630000114440918 C0.14100000262260437,0.23499999940395355 0.1550000011920929,0.21299999952316284 0.18299999833106995,0.1850000023841858 C0.44999998807907104,-0.05299999937415123 0.7850000262260437,-0.3700000047683716 1.0809999704360962,-0.621999979019165 C1.1360000371932983,-0.6790000200271606 1.1720000505447388,-0.6930000185966492 1.25,-0.7139999866485596 C1.25,-0.7139999866485596 1.3270000219345093,-0.7350000143051147 1.3270000219345093,-0.7350000143051147 C1.347000002861023,-0.7419999837875366 1.3609999418258667,-0.7910000085830688 1.3609999418258667,-0.8119999766349792z"/></g></g><g transform="matrix(2.5,0,0,2.5,251.67999267578125,149.44900512695312)" opacity="1" style="display: none;"><g opacity="1" transform="matrix(4,0,0,4,0,0)"><path fill="rgb(35,53,78)" fill-opacity="1" d=" M0.32899999618530273,-1.6519999504089355 C-0.4230000078678131,-1.6519999504089355 -0.8989999890327454,-1.1039999723434448 -0.8989999890327454,-0.6269999742507935 C-0.8989999890327454,-0.6269999742507935 -0.8980000019073486,-0.6269999742507935 -0.8980000019073486,-0.6269999742507935 C-0.8980000019073486,-0.6269999742507935 -0.8980000019073486,-0.621999979019165 -0.8980000019073486,-0.621999979019165 C-0.8980000019073486,-0.25699999928474426 -0.7089999914169312,0.02500000037252903 -0.24500000476837158,0.2980000078678131 C0.1899999976158142,0.5569999814033508 0.3440000116825104,0.7540000081062317 0.3440000116825104,1.0269999504089355 C0.3440000116825104,1.3489999771118164 0.07100000232458115,1.503999948501587 -0.19599999487400055,1.503999948501587 C-0.26600000262260437,1.503999948501587 -0.3499999940395355,1.4759999513626099 -0.40700000524520874,1.440999984741211 C-0.44999998807907104,1.4129999876022339 -0.49900001287460327,1.3860000371932983 -0.5329999923706055,1.3289999961853027 C-0.6380000114440918,1.1690000295639038 -0.7369999885559082,0.9800000190734863 -0.828000009059906,0.824999988079071 C-0.8349999785423279,0.8109999895095825 -0.8429999947547913,0.8100000023841858 -0.8500000238418579,0.8100000023841858 C-0.8709999918937683,0.8100000023841858 -0.9399999976158142,0.8460000157356262 -0.9399999976158142,0.8799999952316284 C-0.9399999976158142,0.8799999952316284 -0.8849999904632568,1.5329999923706055 -0.8849999904632568,1.5329999923706055 C-0.8769999742507935,1.5750000476837158 -0.8569999933242798,1.5889999866485596 -0.8349999785423279,1.5959999561309814 C-0.7149999737739563,1.6380000114440918 -0.48500001430511475,1.6519999504089355 -0.38600000739097595,1.6519999504089355 C0.3930000066757202,1.6519999504089355 0.9399999976158142,1.218000054359436 0.9399999976158142,0.6209999918937683 C0.9399999976158142,0.2070000022649765 0.6729999780654907,-0.08799999952316284 0.27399998903274536,-0.3479999899864197 C-0.10700000077486038,-0.593999981880188 -0.2460000067949295,-0.7549999952316284 -0.2460000067949295,-1.0490000247955322 C-0.2460000067949295,-1.2799999713897705 -0.09799999743700027,-1.4989999532699585 0.16099999845027924,-1.4989999532699585 C0.25200000405311584,-1.4989999532699585 0.3370000123977661,-1.4780000448226929 0.38600000739097595,-1.4359999895095825 C0.42800000309944153,-1.4010000228881836 0.4480000138282776,-1.371999979019165 0.4699999988079071,-1.3370000123977661 C0.5820000171661377,-1.1690000295639038 0.6669999957084656,-1.0140000581741333 0.7580000162124634,-0.8460000157356262 C0.7649999856948853,-0.8320000171661377 0.7720000147819519,-0.8309999704360962 0.7789999842643738,-0.8309999704360962 C0.8069999814033508,-0.8309999704360962 0.8709999918937683,-0.8740000128746033 0.8709999918937683,-0.9089999794960022 C0.8709999918937683,-0.9089999794960022 0.8059999942779541,-1.5540000200271606 0.8059999942779541,-1.5540000200271606 C0.8059999942779541,-1.5829999446868896 0.8009999990463257,-1.590000033378601 0.7789999842643738,-1.6039999723434448 C0.6949999928474426,-1.6319999694824219 0.5410000085830688,-1.6519999504089355 0.32899999618530273,-1.6519999504089355z"/></g></g><g transform="matrix(2.5,0,0,2.5,269.447998046875,143.697998046875)" opacity="1" style="display: none;"><g opacity="1" transform="matrix(4,0,0,4,0,0)"><path fill="rgb(35,53,78)" fill-opacity="1" d=" M0.2630000114440918,1.9470000267028809 C0.2630000114440918,1.7430000305175781 0.13500000536441803,1.6239999532699585 -0.01899999938905239,1.6239999532699585 C-0.01899999938905239,1.6239999532699585 -0.027000000700354576,1.6239999532699585 -0.027000000700354576,1.6239999532699585 C-0.20999999344348907,1.6239999532699585 -0.32100000977516174,1.7640000581741333 -0.32100000977516174,1.9390000104904175 C-0.32100000977516174,2.0940001010894775 -0.19499999284744263,2.2209999561309814 -0.027000000700354576,2.2209999561309814 C0.14300000667572021,2.2209999561309814 0.2630000114440918,2.0880000591278076 0.2630000114440918,1.9470000267028809z M-0.10400000214576721,1.1059999465942383 C-0.10400000214576721,1.11899995803833 -0.09700000286102295,1.1200000047683716 -0.09000000357627869,1.1200000047683716 C-0.09000000357627869,1.1200000047683716 -0.08299999684095383,1.1200000047683716 -0.08299999684095383,1.1200000047683716 C-0.06199999898672104,1.1200000047683716 0.028999999165534973,1.0920000076293945 0.028999999165534973,1.0709999799728394 C0.1420000046491623,-0.1080000028014183 0.3089999854564667,-1.4559999704360962 0.3580000102519989,-2.184999942779541 C0.3580000102519989,-2.2060000896453857 0.3449999988079071,-2.2209999561309814 0.3240000009536743,-2.2209999561309814 C0.2669999897480011,-2.2209999561309814 0.05700000002980232,-2.178999900817871 -0.09000000357627869,-2.1510000228881836 C-0.3709999918937683,-2.1010000705718994 -0.3630000054836273,-1.9459999799728394 -0.35600000619888306,-1.75 C-0.34299999475479126,-1.3509999513626099 -0.2160000056028366,-0.04500000178813934 -0.10400000214576721,1.1059999465942383z"/></g></g><g transform="matrix(2.5,0,0,2.5,176.4980010986328,250.48399353027344)" opacity="1" style="display: block;"><g opacity="1" transform="matrix(4,0,0,4,0,0)"><path fill="rgb(192,230,249)" fill-opacity="1" d=" M12.439000129699707,7.747000217437744 C13.435999870300293,1.75 16.149999618530273,-7.447999954223633 16.149999618530273,-7.447999954223633 C12.769000053405762,-5.230999946594238 5.589000225067139,-1.6380000114440918 1.4470000267028809,0.2240000069141388 C1.3639999628067017,0.2630000114440918 1.284000039100647,0.296999990940094 1.2039999961853027,0.33399999141693115 C-0.4350000023841858,1.069000005722046 -1.5080000162124634,1.5299999713897705 -1.5080000162124634,1.5299999713897705 C-1.9800000190734863,1.3660000562667847 -2.48799991607666,1.1540000438690186 -3.0239999294281006,0.902999997138977 C-3.1449999809265137,0.8460000157356262 -3.2669999599456787,0.7889999747276306 -3.3929998874664307,0.7260000109672546 C-8.663000106811523,-1.8459999561309814 -16.149999618530273,-7.747000217437744 -16.149999618530273,-7.747000217437744 C-16.149999618530273,-7.747000217437744 -11.597000122070312,7.747000217437744 -11.597000122070312,7.747000217437744 C-11.597000122070312,7.747000217437744 12.439000129699707,7.747000217437744 12.439000129699707,7.747000217437744z"/></g></g><g transform="matrix(2.5,0,0,2.5,113.11800384521484,283.5514831542969)" opacity="1" style="display: block;"><g opacity="1" transform="matrix(4,0,0,4,0,0)"><path fill="rgb(150,206,234)" fill-opacity="1" d=" M3.312999963760376,-2.4030001163482666 C3.312999963760376,-2.4030001163482666 5.520999908447266,-4.440000057220459 5.520999908447266,-4.440000057220459 C5.520999908447266,-4.440000057220459 2.944000005722046,-2.5810000896453857 2.944000005722046,-2.5810000896453857 C2.944000005722046,-2.5810000896453857 -5.520999908447266,3.5320000648498535 -5.520999908447266,3.5320000648498535 C-5.520999908447266,3.5320000648498535 -5.252999782562256,4.440000057220459 -5.252999782562256,4.440000057220459 C-5.252999782562256,4.440000057220459 3.312999963760376,-2.4030001163482666 3.312999963760376,-2.4030001163482666z"/></g></g><g transform="matrix(2.5,0,0,2.5,235.41799926757812,283.54400634765625)" opacity="1" style="display: block;"><g opacity="1" transform="matrix(4,0,0,4,0,0)"><path fill="rgb(150,206,234)" fill-opacity="1" d=" M6.5879998207092285,4.439000129699707 C6.5879998207092285,4.439000129699707 6.706999778747559,3.5220000743865967 6.706999778747559,3.5220000743865967 C6.706999778747559,3.5220000743865967 -4.445000171661377,-3.0810000896453857 -4.445000171661377,-3.0810000896453857 C-4.445000171661377,-3.0810000896453857 -6.706999778747559,-4.439000129699707 -6.706999778747559,-4.439000129699707 C-6.706999778747559,-4.439000129699707 -4.685999870300293,-2.9700000286102295 -4.685999870300293,-2.9700000286102295 C-4.685999870300293,-2.9700000286102295 6.5879998207092285,4.439000129699707 6.5879998207092285,4.439000129699707z"/></g></g><g transform="matrix(2.5,0,0,2.5,180.91050720214844,283.5514831542969)" opacity="1" style="display: block;"><g opacity="1" transform="matrix(4,0,0,4,0,0)"><path fill="rgb(192,230,249)" fill-opacity="1" d=" M-12.038000106811523,4.440000057220459 C-12.038000106811523,4.440000057220459 12.038000106811523,4.439000129699707 12.038000106811523,4.439000129699707 C12.038000106811523,4.439000129699707 0.7639999985694885,-2.9709999561309814 0.7639999985694885,-2.9709999561309814 C0.7639999985694885,-2.9709999561309814 -1.2569999694824219,-4.440000057220459 -1.2569999694824219,-4.440000057220459 C-1.2569999694824219,-4.440000057220459 -3.4639999866485596,-2.4030001163482666 -3.4639999866485596,-2.4030001163482666 C-3.4639999866485596,-2.4030001163482666 -12.038000106811523,4.440000057220459 -12.038000106811523,4.440000057220459z"/></g></g><g transform="matrix(2.5,0,0,2.5,176.50550842285156,157.26148986816406)" opacity="1" style="display: block;"><g opacity="1" transform="matrix(4,0,0,4,0,0)"><path fill="rgb(150,206,234)" fill-opacity="1" d=" M0.859000027179718,-12.72599983215332 C0.859000027179718,-12.72599983215332 -16.149999618530273,1.5759999752044678 -16.149999618530273,1.5759999752044678 C-16.149999618530273,1.5759999752044678 -1.2130000591278076,12.72599983215332 -1.2130000591278076,12.72599983215332 C-1.2130000591278076,12.72599983215332 16.149999618530273,1.875 16.149999618530273,1.875 C16.149999618530273,1.875 0.859000027179718,-12.72599983215332 0.859000027179718,-12.72599983215332z"/></g></g><g mask="url(#__lottie_element_1601_1)" style="display: block;"><g transform="matrix(2.5,0,0,2.5,179.61549377441406,165.56399536132812)" opacity="1"><g opacity="1" transform="matrix(4,0,0,4,0,0)"><path fill="rgb(233,248,255)" fill-opacity="1" d=" M-15.539999961853027,-8.831000328063965 C-15.539999961853027,-8.831000328063965 -13.402000427246094,-0.5720000267028809 -12.611000061035156,3.624000072479248 C-12.611000061035156,3.624000072479248 -1.819000005722046,10.019000053405762 -1.819000005722046,10.019000053405762 C-1.819000005722046,10.019000053405762 12.79800033569336,2.989000082015991 12.79800033569336,2.989000082015991 C12.79800033569336,2.989000082015991 15.539999961853027,-10.019000053405762 15.539999961853027,-10.019000053405762 C10.553000450134277,-9.781000137329102 -15.539999961853027,-8.831000328063965 -15.539999961853027,-8.831000328063965z"/></g></g></g><g mask="url(#__lottie_element_1608_1)" style="display: block;"><g clip-path="url(#__lottie_element_1605)" transform="matrix(1,0,0,1,-74.99949645996094,-75.00100708007812)" opacity="1"><g transform="matrix(2.5,0,0,2.5,172.71499633789062,218.62100219726562)" opacity="1" style="display: block;"><g opacity="1" transform="matrix(4,0,0,4,0,0)"><path fill="rgb(35,53,78)" fill-opacity="1" d=" M1.3910000324249268,-1.1670000553131104 C1.4119999408721924,-1.1670000553131104 1.468000054359436,-1.1959999799728394 1.468000054359436,-1.2170000076293945 C1.468000054359436,-1.2170000076293945 1.437000036239624,-2.138000011444092 1.437000036239624,-2.138000011444092 C1.437000036239624,-2.178999900817871 1.4290000200271606,-2.193000078201294 1.3799999952316284,-2.193000078201294 C1.281000018119812,-2.193000078201294 0.7480000257492065,-2.1510000228881836 -0.0020000000949949026,-2.1510000228881836 C-0.8799999952316284,-2.1510000228881836 -1.2580000162124634,-2.193000078201294 -1.371000051498413,-2.193000078201294 C-1.4129999876022339,-2.193000078201294 -1.4199999570846558,-2.177999973297119 -1.4199999570846558,-2.1440000534057617 C-1.4199999570846558,-2.1440000534057617 -1.468000054359436,-1.218000054359436 -1.468000054359436,-1.218000054359436 C-1.468000054359436,-1.1970000267028809 -1.4199999570846558,-1.1829999685287476 -1.3990000486373901,-1.1829999685287476 C-1.3910000324249268,-1.1829999685287476 -1.3839999437332153,-1.1829999685287476 -1.3760000467300415,-1.1970000267028809 C-1.3760000467300415,-1.1970000267028809 -1.0470000505447388,-1.9129999876022339 -1.0470000505447388,-1.9129999876022339 C-1.0180000066757202,-1.9759999513626099 -0.9900000095367432,-1.9830000400543213 -0.9269999861717224,-1.996999979019165 C-0.8149999976158142,-2.0179998874664307 -0.527999997138977,-2.0390000343322754 -0.4580000042915344,-2.0390000343322754 C-0.4440000057220459,-1.6109999418258667 -0.4230000078678131,-0.38999998569488525 -0.41600000858306885,-0.09600000083446503 C-0.4090000092983246,0.1770000010728836 -0.38100001215934753,1.694000005722046 -0.3880000114440918,1.9249999523162842 C-0.3880000114440918,2.003000020980835 -0.3959999978542328,2.0169999599456787 -0.4449999928474426,2.0239999294281006 C-0.4449999928474426,2.0239999294281006 -0.6970000267028809,2.1010000705718994 -0.6970000267028809,2.1010000705718994 C-0.7170000076293945,2.1089999675750732 -0.7250000238418579,2.1579999923706055 -0.7250000238418579,2.178999900817871 C-0.7250000238418579,2.187000036239624 -0.7239999771118164,2.193000078201294 -0.7099999785423279,2.193000078201294 C-0.5899999737739563,2.184999942779541 -0.3310000002384186,2.178999900817871 -0.050999999046325684,2.178999900817871 C0.257999986410141,2.178999900817871 0.5540000200271606,2.186000108718872 0.7009999752044678,2.193000078201294 C0.7080000042915344,2.193000078201294 0.7149999737739563,2.186000108718872 0.7149999737739563,2.171999931335449 C0.7149999737739563,2.130000114440918 0.7020000219345093,2.1019999980926514 0.6880000233650208,2.1019999980926514 C0.6880000233650208,2.1019999980926514 0.4359999895095825,2.0390000343322754 0.4359999895095825,2.0390000343322754 C0.38600000739097595,2.0250000953674316 0.36500000953674316,2.01200008392334 0.36500000953674316,1.940999984741211 C0.36500000953674316,1.8020000457763672 0.3919999897480011,0.3619999885559082 0.39899998903274536,-0.003000000026077032 C0.40700000524520874,-0.5350000262260437 0.4339999854564667,-1.7009999752044678 0.45500001311302185,-2.0369999408721924 C0.546999990940094,-2.0369999408721924 0.8830000162124634,-2.009000062942505 0.9610000252723694,-1.9880000352859497 C1.0240000486373901,-1.9739999771118164 1.0449999570846558,-1.9529999494552612 1.0729999542236328,-1.8830000162124634 C1.0729999542236328,-1.8830000162124634 1.36899995803833,-1.180999994277954 1.36899995803833,-1.180999994277954 C1.3769999742507935,-1.1670000553131104 1.3830000162124634,-1.1670000553131104 1.3910000324249268,-1.1670000553131104z"/></g></g><g transform="matrix(2.5,0,0,2.5,204.88600158691406,216.81700134277344)" opacity="1" style="display: block;"><g opacity="1" transform="matrix(4,0,0,4,0,0)"><path fill="rgb(35,53,78)" fill-opacity="1" d=" M-0.29899999499320984,-2.305999994277954 C-0.29899999499320984,-2.3410000801086426 -0.3059999942779541,-2.384000062942505 -0.3630000054836273,-2.377000093460083 C-0.3630000054836273,-2.377000093460083 -1.5579999685287476,-2.253999948501587 -1.5579999685287476,-2.253999948501587 C-1.5800000429153442,-2.253999948501587 -1.5800000429153442,-2.246999979019165 -1.5800000429153442,-2.2330000400543213 C-1.5800000429153442,-2.2049999237060547 -1.5670000314712524,-2.1640000343322754 -1.5449999570846558,-2.1640000343322754 C-1.5449999570846558,-2.1640000343322754 -1.215000033378601,-2.128000020980835 -1.215000033378601,-2.128000020980835 C-1.1660000085830688,-2.121000051498413 -1.159999966621399,-2.072000026702881 -1.159999966621399,-2.0230000019073486 C-1.152999997138977,-1.5880000591278076 -1.1390000581741333,-0.28200000524520874 -1.1319999694824219,0.05400000140070915 C-1.1239999532699585,0.5950000286102295 -1.1030000448226929,1.9769999980926514 -1.1100000143051147,2.131999969482422 C-1.1100000143051147,2.1740000247955322 -1.1239999532699585,2.2019999027252197 -1.1660000085830688,2.2160000801086426 C-1.1660000085830688,2.2160000801086426 -1.4049999713897705,2.2929999828338623 -1.4049999713897705,2.2929999828338623 C-1.4190000295639038,2.3010001182556152 -1.4279999732971191,2.3420000076293945 -1.4279999732971191,2.3559999465942383 C-1.4279999732971191,2.369999885559082 -1.4270000457763672,2.377000093460083 -1.4129999876022339,2.377000093460083 C-1.3279999494552612,2.36899995803833 -1.1030000448226929,2.36299991607666 -0.8019999861717224,2.36299991607666 C-0.5210000276565552,2.36299991607666 -0.28999999165534973,2.369999885559082 -0.13500000536441803,2.377000093460083 C-0.12099999934434891,2.377000093460083 -0.11999999731779099,2.369999885559082 -0.11999999731779099,2.3559999465942383 C-0.11999999731779099,2.313999891281128 -0.1340000033378601,2.299999952316284 -0.14800000190734863,2.2929999828338623 C-0.14800000190734863,2.2929999828338623 -0.3659999966621399,2.2219998836517334 -0.3659999966621399,2.2219998836517334 C-0.41600000858306885,2.2149999141693115 -0.4429999887943268,2.194999933242798 -0.4429999887943268,2.138000011444092 C-0.44999998807907104,1.878000020980835 -0.414000004529953,1.3589999675750732 -0.3799999952316284,1.1339999437332153 C-0.2669999897480011,0.35600000619888306 0.014000000432133675,-0.26899999380111694 0.3019999861717224,-0.26899999380111694 C0.6110000014305115,-0.26899999380111694 0.6460000276565552,0.45399999618530273 0.6460000276565552,1.0779999494552612 C0.6460000276565552,1.5210000276565552 0.6389999985694885,1.9199999570846558 0.6179999709129333,2.1089999675750732 C0.6100000143051147,2.180000066757202 0.6039999723434448,2.2149999141693115 0.546999990940094,2.2290000915527344 C0.546999990940094,2.2290000915527344 0.3449999988079071,2.2920000553131104 0.3449999988079071,2.2920000553131104 C0.3240000009536743,2.2990000247955322 0.31700000166893005,2.3340001106262207 0.31700000166893005,2.361999988555908 C0.31700000166893005,2.369999885559082 0.3179999887943268,2.375999927520752 0.3319999873638153,2.375999927520752 C0.49900001287460327,2.368000030517578 0.6539999842643738,2.361999988555908 0.9629999995231628,2.361999988555908 C1.24399995803833,2.361999988555908 1.4270000457763672,2.36899995803833 1.565999984741211,2.375999927520752 C1.5800000429153442,2.375999927520752 1.5800000429153442,2.36899995803833 1.5800000429153442,2.3550000190734863 C1.5800000429153442,2.3259999752044678 1.5750000476837158,2.2990000247955322 1.5529999732971191,2.2920000553131104 C1.5529999732971191,2.2920000553131104 1.3279999494552612,2.2139999866485596 1.3279999494552612,2.2139999866485596 C1.2710000276565552,2.200000047683716 1.2710000276565552,2.1649999618530273 1.2790000438690186,2.052999973297119 C1.3070000410079956,1.7860000133514404 1.3630000352859497,1.090999960899353 1.3630000352859497,0.46700000762939453 C1.3630000352859497,-0.41100001335144043 1.1180000305175781,-0.8880000114440918 0.6620000004768372,-0.8880000114440918 C0.16300000250339508,-0.8880000114440918 -0.20900000631809235,-0.06700000166893005 -0.335999995470047,0.36800000071525574 C-0.34299999475479126,0.4099999964237213 -0.3630000054836273,0.46000000834465027 -0.3840000033378601,0.5509999990463257 C-0.3840000033378601,0.5509999990463257 -0.41200000047683716,0.5509999990463257 -0.41200000047683716,0.5509999990463257 C-0.41200000047683716,0.47999998927116394 -0.4050000011920929,0.4020000100135803 -0.4050000011920929,0.36800000071525574 C-0.382999986410141,-0.08100000023841858 -0.29899999499320984,-2.2720000743865967 -0.29899999499320984,-2.305999994277954z"/></g></g><g transform="matrix(2.5,0,0,2.5,236.62399291992188,224.44900512695312)" opacity="1" style="display: block;"><g opacity="1" transform="matrix(4,0,0,4,0,0)"><path fill="rgb(35,53,78)" fill-opacity="1" d=" M0.28200000524520874,0.5789999961853027 C0.19699999690055847,0.9929999709129333 -0.006000000052154064,1.2740000486373901 -0.18199999630451202,1.2740000486373901 C-0.18199999630451202,1.2740000486373901 -0.18199999630451202,1.2740000486373901 -0.18199999630451202,1.2740000486373901 C-0.18199999630451202,1.2740000486373901 -0.1899999976158142,1.2740000486373901 -0.1899999976158142,1.2740000486373901 C-0.37299999594688416,1.2740000486373901 -0.48399999737739563,1.00600004196167 -0.48399999737739563,0.5640000104904175 C-0.48399999737739563,0.07400000095367432 -0.4000000059604645,-0.38999998569488525 -0.14000000059604645,-0.38999998569488525 C0.12700000405311584,-0.38999998569488525 0.2529999911785126,-0.017999999225139618 0.28700000047683716,0.17900000512599945 C0.29499998688697815,0.23399999737739563 0.3089999854564667,0.32499998807907104 0.3089999854564667,0.375 C0.3089999854564667,0.43799999356269836 0.29600000381469727,0.5090000033378601 0.28200000524520874,0.5789999961853027z M0.23199999332427979,-0.6919999718666077 C0.24500000476837158,-0.5920000076293945 0.25999999046325684,-0.47999998927116394 0.25999999046325684,-0.31200000643730164 C0.25999999046325684,-0.31200000643730164 0.23100000619888306,-0.30399999022483826 0.23100000619888306,-0.30399999022483826 C0.2029999941587448,-0.33899998664855957 0.16699999570846558,-0.375 0.13899999856948853,-0.40299999713897705 C0.041999999433755875,-0.5019999742507935 -0.12099999934434891,-0.5849999785423279 -0.35199999809265137,-0.5849999785423279 C-0.9760000109672546,-0.5849999785423279 -1.2710000276565552,0.0820000022649765 -1.2710000276565552,0.6710000038146973 C-1.2710000276565552,1.315999984741211 -0.9269999861717224,1.6540000438690186 -0.5410000085830688,1.6540000438690186 C-0.14000000059604645,1.6540000438690186 0.09099999815225601,1.3589999675750732 0.23800000548362732,1.0360000133514404 C0.2669999897480011,0.9869999885559082 0.28700000047683716,0.9309999942779541 0.3089999854564667,0.8889999985694885 C0.3089999854564667,0.8889999985694885 0.3240000009536743,0.8960000276565552 0.3240000009536743,0.8960000276565552 C0.3240000009536743,0.925000011920929 0.3160000145435333,1.0299999713897705 0.3160000145435333,1.0720000267028809 C0.3160000145435333,1.2480000257492065 0.3230000138282776,1.4930000305175781 0.33000001311302185,1.562999963760376 C0.33000001311302185,1.590999960899353 0.3440000116825104,1.6050000190734863 0.3580000102519989,1.6050000190734863 C0.4359999895095825,1.6050000190734863 0.5830000042915344,1.5980000495910645 0.7590000033378601,1.5980000495910645 C0.9610000252723694,1.5980000495910645 1.1660000085830688,1.5980000495910645 1.25,1.6050000190734863 C1.2630000114440918,1.6050000190734863 1.2710000276565552,1.6050000190734863 1.2710000276565552,1.590999960899353 C1.2710000276565552,1.562000036239624 1.2630000114440918,1.5269999504089355 1.2289999723434448,1.5130000114440918 C1.2289999723434448,1.5130000114440918 1.0470000505447388,1.4420000314712524 1.0470000505447388,1.4420000314712524 C0.9900000095367432,1.4210000038146973 0.984000027179718,1.406999945640564 0.984000027179718,1.3650000095367432 C0.984000027179718,1.2239999771118164 1.003999948501587,0.8600000143051147 1.0180000066757202,0.515999972820282 C1.0260000228881836,0.2980000078678131 1.0390000343322754,-0.1940000057220459 1.0390000343322754,-0.3199999928474426 C1.0390000343322754,-1.0230000019073486 0.8709999918937683,-1.6540000438690186 0.2529999911785126,-1.6540000438690186 C-0.210999995470047,-1.6540000438690186 -0.6460000276565552,-1.465000033378601 -1.031999945640564,-0.9380000233650208 C-1.059999942779541,-0.902999997138977 -0.996999979019165,-0.8389999866485596 -0.9760000109672546,-0.8389999866485596 C-0.968999981880188,-0.8389999866485596 -0.9620000123977661,-0.8460000157356262 -0.9549999833106995,-0.8529999852180481 C-0.6880000233650208,-1.1549999713897705 -0.44200000166893005,-1.309000015258789 -0.210999995470047,-1.309000015258789 C0.07699999958276749,-1.309000015258789 0.20399999618530273,-0.9860000014305115 0.23199999332427979,-0.6919999718666077z"/></g></g><g transform="matrix(2.5,0,0,2.5,267.0329895019531,224.24000549316406)" opacity="1" style="display: block;"><g opacity="1" transform="matrix(4,0,0,4,0,0)"><path fill="rgb(35,53,78)" fill-opacity="1" d=" M1.5579999685287476,1.6180000305175781 C1.5579999685287476,1.597000002861023 1.5449999570846558,1.5549999475479126 1.531000018119812,1.5479999780654907 C1.531000018119812,1.5479999780654907 1.2970000505447388,1.4630000591278076 1.2970000505447388,1.4630000591278076 C1.2419999837875366,1.4429999589920044 1.2269999980926514,1.4149999618530273 1.2339999675750732,1.3240000009536743 C1.2630000114440918,1.027999997138977 1.3049999475479126,0.18700000643730164 1.3049999475479126,-0.2770000100135803 C1.3049999475479126,-1.1549999713897705 1.0729999542236328,-1.6319999694824219 0.5889999866485596,-1.6319999694824219 C0.15399999916553497,-1.6319999694824219 -0.20499999821186066,-0.9860000014305115 -0.367000013589859,-0.453000009059906 C-0.38100001215934753,-0.4180000126361847 -0.4009999930858612,-0.3400000035762787 -0.421999990940094,-0.25600001215934753 C-0.421999990940094,-0.25600001215934753 -0.4490000009536743,-0.25600001215934753 -0.4490000009536743,-0.25600001215934753 C-0.44200000166893005,-0.33500000834465027 -0.4350000023841858,-0.40400001406669617 -0.4350000023841858,-0.4740000069141388 C-0.421999990940094,-0.8040000200271606 -0.4009999930858612,-1.5479999780654907 -0.4009999930858612,-1.5759999752044678 C-0.4009999930858612,-1.6100000143051147 -0.41499999165534973,-1.6390000581741333 -0.4490000009536743,-1.6319999694824219 C-0.4490000009536743,-1.6319999694824219 -1.5369999408721924,-1.4359999895095825 -1.5369999408721924,-1.4359999895095825 C-1.5579999685287476,-1.4290000200271606 -1.5579999685287476,-1.4220000505447388 -1.5579999685287476,-1.4149999618530273 C-1.5579999685287476,-1.3799999952316284 -1.5390000343322754,-1.3240000009536743 -1.5180000066757202,-1.3240000009536743 C-1.5180000066757202,-1.3240000009536743 -1.2790000438690186,-1.3029999732971191 -1.2790000438690186,-1.3029999732971191 C-1.2289999723434448,-1.2960000038146973 -1.2139999866485596,-1.2610000371932983 -1.2139999866485596,-1.2120000123977661 C-1.2070000171661377,-0.9660000205039978 -1.1799999475479126,-0.11800000071525574 -1.1799999475479126,0.09399999678134918 C-1.1799999475479126,0.35899999737739563 -1.1660000085830688,1.2029999494552612 -1.1660000085830688,1.3990000486373901 C-1.1660000085830688,1.4420000314712524 -1.194000005722046,1.4620000123977661 -1.2359999418258667,1.4759999513626099 C-1.2359999418258667,1.4759999513626099 -1.4889999628067017,1.5390000343322754 -1.4889999628067017,1.5390000343322754 C-1.5089999437332153,1.5470000505447388 -1.5230000019073486,1.5820000171661377 -1.5230000019073486,1.6169999837875366 C-1.5230000019073486,1.625 -1.5219999551773071,1.63100004196167 -1.5080000162124634,1.63100004196167 C-1.2979999780654907,1.6230000257492065 -1.1369999647140503,1.6169999837875366 -0.8489999771118164,1.6169999837875366 C-0.5899999737739563,1.6169999837875366 -0.414000004529953,1.6239999532699585 -0.19599999487400055,1.63100004196167 C-0.18299999833106995,1.63100004196167 -0.18299999833106995,1.6239999532699585 -0.18299999833106995,1.6169999837875366 C-0.18299999833106995,1.5959999561309814 -0.1889999955892563,1.5540000200271606 -0.20999999344348907,1.5470000505447388 C-0.20999999344348907,1.5470000505447388 -0.42800000309944153,1.4759999513626099 -0.42800000309944153,1.4759999513626099 C-0.46299999952316284,1.4630000591278076 -0.4909999966621399,1.4420000314712524 -0.4909999966621399,1.3849999904632568 C-0.49799999594688416,1.0700000524520874 -0.44200000166893005,0.45899999141693115 -0.414000004529953,0.2630000114440918 C-0.2879999876022339,-0.453000009059906 -0.035999998450279236,-1.0140000581741333 0.23899999260902405,-1.0140000581741333 C0.5889999866485596,-1.0140000581741333 0.6029999852180481,-0.19300000369548798 0.6029999852180481,0.34700000286102295 C0.6029999852180481,0.621999979019165 0.5759999752044678,1.2730000019073486 0.5690000057220459,1.371999979019165 C0.5609999895095825,1.4290000200271606 0.5460000038146973,1.4559999704360962 0.4909999966621399,1.4769999980926514 C0.4909999966621399,1.4769999980926514 0.27300000190734863,1.5479999780654907 0.27300000190734863,1.5479999780654907 C0.2529999911785126,1.5549999475479126 0.2460000067949295,1.5829999446868896 0.2460000067949295,1.6180000305175781 C0.2460000067949295,1.6260000467300415 0.2460000067949295,1.6319999694824219 0.25999999046325684,1.6319999694824219 C0.4410000145435333,1.6239999532699585 0.6039999723434448,1.6180000305175781 0.9049999713897705,1.6180000305175781 C1.1720000505447388,1.6180000305175781 1.3259999752044678,1.625 1.5440000295639038,1.6319999694824219 C1.5579999685287476,1.6319999694824219 1.5579999685287476,1.625 1.5579999685287476,1.6180000305175781z"/></g></g><g transform="matrix(2.5,0,0,2.5,299.7550048828125,216.822998046875)" opacity="1" style="display: block;"><g opacity="1" transform="matrix(4,0,0,4,0,0)"><path fill="rgb(35,53,78)" fill-opacity="1" d=" M1.3609999418258667,-0.8119999766349792 C1.3609999418258667,-0.8190000057220459 1.3539999723434448,-0.8330000042915344 1.340000033378601,-0.8330000042915344 C1.340000033378601,-0.8330000042915344 0.28999999165534973,-0.8330000042915344 0.28999999165534973,-0.8330000042915344 C0.2759999930858612,-0.8330000042915344 0.2759999930858612,-0.8259999752044678 0.2759999930858612,-0.8190000057220459 C0.2759999930858612,-0.7689999938011169 0.2980000078678131,-0.734000027179718 0.3319999873638153,-0.7269999980926514 C0.3319999873638153,-0.7269999980926514 0.5230000019073486,-0.6779999732971191 0.5230000019073486,-0.6779999732971191 C0.578000009059906,-0.6639999747276306 0.5910000205039978,-0.609000027179718 0.5569999814033508,-0.5590000152587891 C0.28999999165534973,-0.1860000044107437 -0.08100000023841858,0.25600001215934753 -0.2639999985694885,0.48100000619888306 C-0.31299999356269836,0.5379999876022339 -0.3540000021457672,0.593999981880188 -0.4320000112056732,0.6990000009536743 C-0.4320000112056732,0.6990000009536743 -0.45500001311302185,0.6990000009536743 -0.45500001311302185,0.6990000009536743 C-0.45500001311302185,0.628000020980835 -0.44699999690055847,0.5299999713897705 -0.44699999690055847,0.4390000104904175 C-0.4339999854564667,-0.04500000178813934 -0.3700000047683716,-1.8980000019073486 -0.35600000619888306,-2.312000036239624 C-0.35600000619888306,-2.3469998836517334 -0.3619999885559082,-2.381999969482422 -0.4189999997615814,-2.375 C-0.4189999997615814,-2.375 -1.5980000495910645,-2.263000011444092 -1.5980000495910645,-2.263000011444092 C-1.6119999885559082,-2.263000011444092 -1.6119999885559082,-2.25600004196167 -1.6119999885559082,-2.242000102996826 C-1.6119999885559082,-2.2139999866485596 -1.5920000076293945,-2.171999931335449 -1.5779999494552612,-2.171999931335449 C-1.5779999494552612,-2.171999931335449 -1.281999945640564,-2.130000114440918 -1.281999945640564,-2.130000114440918 C-1.2330000400543213,-2.121999979019165 -1.2120000123977661,-2.1019999980926514 -1.2120000123977661,-2.052999973297119 C-1.1990000009536743,-1.6180000305175781 -1.1770000457763672,-0.13699999451637268 -1.1770000457763672,0.0729999989271164 C-1.1770000457763672,0.4090000092983246 -1.1549999713897705,1.9470000267028809 -1.1629999876022339,2.1570000648498535 C-1.1629999876022339,2.1989998817443848 -1.1920000314712524,2.2130000591278076 -1.2339999675750732,2.2269999980926514 C-1.2339999675750732,2.2269999980926514 -1.465000033378601,2.2899999618530273 -1.465000033378601,2.2899999618530273 C-1.4859999418258667,2.296999931335449 -1.4930000305175781,2.3389999866485596 -1.4930000305175781,2.359999895095825 C-1.4930000305175781,2.368000030517578 -1.4919999837875366,2.374000072479248 -1.4780000448226929,2.374000072479248 C-1.3309999704360962,2.365999937057495 -1.1419999599456787,2.359999895095825 -0.8330000042915344,2.359999895095825 C-0.5519999861717224,2.359999895095825 -0.3619999885559082,2.367000102996826 -0.17299999296665192,2.374000072479248 C-0.1589999943971634,2.374000072479248 -0.1509999930858612,2.367000102996826 -0.1509999930858612,2.359999895095825 C-0.1509999930858612,2.3389999866485596 -0.1589999943971634,2.296999931335449 -0.18700000643730164,2.2899999618530273 C-0.18700000643730164,2.2899999618530273 -0.3970000147819519,2.2269999980926514 -0.3970000147819519,2.2269999980926514 C-0.44600000977516174,2.2130000591278076 -0.46000000834465027,2.2060000896453857 -0.46799999475479126,2.1570000648498535 C-0.48100000619888306,2.0789999961853027 -0.46000000834465027,1.440999984741211 -0.453000009059906,1.1950000524520874 C-0.453000009059906,1.1319999694824219 -0.4449999928474426,1.0199999809265137 -0.4449999928474426,0.9079999923706055 C-0.4449999928474426,0.9079999923706055 -0.4309999942779541,0.9079999923706055 -0.4309999942779541,0.9079999923706055 C-0.38199999928474426,0.9710000157356262 -0.34700000286102295,1.0130000114440918 -0.3050000071525574,1.062999963760376 C0.004999999888241291,1.4129999876022339 0.37700000405311584,1.8550000190734863 0.5870000123977661,2.121999979019165 C0.6209999918937683,2.178999900817871 0.6150000095367432,2.2060000896453857 0.5649999976158142,2.2269999980926514 C0.5649999976158142,2.2269999980926514 0.38199999928474426,2.2980000972747803 0.38199999928474426,2.2980000972747803 C0.3619999885559082,2.305000066757202 0.35499998927116394,2.3329999446868896 0.35499998927116394,2.3610000610351562 C0.35499998927116394,2.375 0.3619999885559082,2.375 0.36899998784065247,2.375 C0.4959999918937683,2.367000102996826 0.7699999809265137,2.3610000610351562 1.0290000438690186,2.3610000610351562 C1.2760000228881836,2.3610000610351562 1.4639999866485596,2.368000030517578 1.5980000495910645,2.375 C1.6119999885559082,2.375 1.6119999885559082,2.375 1.6119999885559082,2.3610000610351562 C1.6119999885559082,2.3399999141693115 1.6069999933242798,2.2980000972747803 1.5850000381469727,2.2909998893737793 C1.5850000381469727,2.2909998893737793 1.3680000305175781,2.2070000171661377 1.3680000305175781,2.2070000171661377 C1.3259999752044678,2.186000108718872 1.2899999618530273,2.1440000534057617 1.2549999952316284,2.1019999980926514 C0.9380000233650208,1.5750000476837158 0.6309999823570251,1.0640000104904175 0.25099998712539673,0.4740000069141388 C0.20900000631809235,0.4099999964237213 0.15399999916553497,0.33399999141693115 0.1120000034570694,0.2840000092983246 C0.1120000034570694,0.2840000092983246 0.1120000034570694,0.2630000114440918 0.1120000034570694,0.2630000114440918 C0.14100000262260437,0.23499999940395355 0.1550000011920929,0.21299999952316284 0.18299999833106995,0.1850000023841858 C0.44999998807907104,-0.05299999937415123 0.7850000262260437,-0.3700000047683716 1.0809999704360962,-0.621999979019165 C1.1360000371932983,-0.6790000200271606 1.1720000505447388,-0.6930000185966492 1.25,-0.7139999866485596 C1.25,-0.7139999866485596 1.3270000219345093,-0.7350000143051147 1.3270000219345093,-0.7350000143051147 C1.347000002861023,-0.7419999837875366 1.3609999418258667,-0.7910000085830688 1.3609999418258667,-0.8119999766349792z"/></g></g><g transform="matrix(2.5,0,0,2.5,326.67999267578125,224.35537719726562)" opacity="1" style="display: block;"><g opacity="1" transform="matrix(4,0,0,4,0,0)"><path fill="rgb(35,53,78)" fill-opacity="1" d=" M0.32899999618530273,-1.6519999504089355 C-0.4230000078678131,-1.6519999504089355 -0.8989999890327454,-1.1039999723434448 -0.8989999890327454,-0.6269999742507935 C-0.8989999890327454,-0.6269999742507935 -0.8980000019073486,-0.6269999742507935 -0.8980000019073486,-0.6269999742507935 C-0.8980000019073486,-0.6269999742507935 -0.8980000019073486,-0.621999979019165 -0.8980000019073486,-0.621999979019165 C-0.8980000019073486,-0.25699999928474426 -0.7089999914169312,0.02500000037252903 -0.24500000476837158,0.2980000078678131 C0.1899999976158142,0.5569999814033508 0.3440000116825104,0.7540000081062317 0.3440000116825104,1.0269999504089355 C0.3440000116825104,1.3489999771118164 0.07100000232458115,1.503999948501587 -0.19599999487400055,1.503999948501587 C-0.26600000262260437,1.503999948501587 -0.3499999940395355,1.4759999513626099 -0.40700000524520874,1.440999984741211 C-0.44999998807907104,1.4129999876022339 -0.49900001287460327,1.3860000371932983 -0.5329999923706055,1.3289999961853027 C-0.6380000114440918,1.1690000295639038 -0.7369999885559082,0.9800000190734863 -0.828000009059906,0.824999988079071 C-0.8349999785423279,0.8109999895095825 -0.8429999947547913,0.8100000023841858 -0.8500000238418579,0.8100000023841858 C-0.8709999918937683,0.8100000023841858 -0.9399999976158142,0.8460000157356262 -0.9399999976158142,0.8799999952316284 C-0.9399999976158142,0.8799999952316284 -0.8849999904632568,1.5329999923706055 -0.8849999904632568,1.5329999923706055 C-0.8769999742507935,1.5750000476837158 -0.8569999933242798,1.5889999866485596 -0.8349999785423279,1.5959999561309814 C-0.7149999737739563,1.6380000114440918 -0.48500001430511475,1.6519999504089355 -0.38600000739097595,1.6519999504089355 C0.3930000066757202,1.6519999504089355 0.9399999976158142,1.218000054359436 0.9399999976158142,0.6209999918937683 C0.9399999976158142,0.2070000022649765 0.6729999780654907,-0.08799999952316284 0.27399998903274536,-0.3479999899864197 C-0.10700000077486038,-0.593999981880188 -0.2460000067949295,-0.7549999952316284 -0.2460000067949295,-1.0490000247955322 C-0.2460000067949295,-1.2799999713897705 -0.09799999743700027,-1.4989999532699585 0.16099999845027924,-1.4989999532699585 C0.25200000405311584,-1.4989999532699585 0.3370000123977661,-1.4780000448226929 0.38600000739097595,-1.4359999895095825 C0.42800000309944153,-1.4010000228881836 0.4480000138282776,-1.371999979019165 0.4699999988079071,-1.3370000123977661 C0.5820000171661377,-1.1690000295639038 0.6669999957084656,-1.0140000581741333 0.7580000162124634,-0.8460000157356262 C0.7649999856948853,-0.8320000171661377 0.7720000147819519,-0.8309999704360962 0.7789999842643738,-0.8309999704360962 C0.8069999814033508,-0.8309999704360962 0.8709999918937683,-0.8740000128746033 0.8709999918937683,-0.9089999794960022 C0.8709999918937683,-0.9089999794960022 0.8059999942779541,-1.5540000200271606 0.8059999942779541,-1.5540000200271606 C0.8059999942779541,-1.5829999446868896 0.8009999990463257,-1.590000033378601 0.7789999842643738,-1.6039999723434448 C0.6949999928474426,-1.6319999694824219 0.5410000085830688,-1.6519999504089355 0.32899999618530273,-1.6519999504089355z"/></g></g><g transform="matrix(2.5,0,0,2.5,344.447998046875,217.92654418945312)" opacity="1" style="display: block;"><g opacity="1" transform="matrix(4,0,0,4,0,0)"><path fill="rgb(35,53,78)" fill-opacity="1" d=" M0.2630000114440918,1.9470000267028809 C0.2630000114440918,1.7430000305175781 0.13500000536441803,1.6239999532699585 -0.01899999938905239,1.6239999532699585 C-0.01899999938905239,1.6239999532699585 -0.027000000700354576,1.6239999532699585 -0.027000000700354576,1.6239999532699585 C-0.20999999344348907,1.6239999532699585 -0.32100000977516174,1.7640000581741333 -0.32100000977516174,1.9390000104904175 C-0.32100000977516174,2.0940001010894775 -0.19499999284744263,2.2209999561309814 -0.027000000700354576,2.2209999561309814 C0.14300000667572021,2.2209999561309814 0.2630000114440918,2.0880000591278076 0.2630000114440918,1.9470000267028809z M-0.10400000214576721,1.1059999465942383 C-0.10400000214576721,1.11899995803833 -0.09700000286102295,1.1200000047683716 -0.09000000357627869,1.1200000047683716 C-0.09000000357627869,1.1200000047683716 -0.08299999684095383,1.1200000047683716 -0.08299999684095383,1.1200000047683716 C-0.06199999898672104,1.1200000047683716 0.028999999165534973,1.0920000076293945 0.028999999165534973,1.0709999799728394 C0.1420000046491623,-0.1080000028014183 0.3089999854564667,-1.4559999704360962 0.3580000102519989,-2.184999942779541 C0.3580000102519989,-2.2060000896453857 0.3449999988079071,-2.2209999561309814 0.3240000009536743,-2.2209999561309814 C0.2669999897480011,-2.2209999561309814 0.05700000002980232,-2.178999900817871 -0.09000000357627869,-2.1510000228881836 C-0.3709999918937683,-2.1010000705718994 -0.3630000054836273,-1.9459999799728394 -0.35600000619888306,-1.75 C-0.34299999475479126,-1.3509999513626099 -0.2160000056028366,-0.04500000178813934 -0.10400000214576721,1.1059999465942383z"/></g></g></g></g></g></svg>