<svg width="1" height="1" viewBox="0 0 1 1" fill="none" xmlns="http://www.w3.org/2000/svg">
<path fill-rule="evenodd" clip-rule="evenodd" d="M0.968709 0.500025C0.968709 0.7019 0.841209 0.873963 0.662272 0.939775L0.666647 0.937525C0.739584 0.875025 0.780022 0.752086 0.791647 0.697899C0.805022 0.635399 0.810584 0.616649 0.760397 0.575399C0.741022 0.559587 0.718084 0.56315 0.695397 0.54565C0.680022 0.533775 0.673147 0.508775 0.657522 0.500025C0.620397 0.478962 0.588335 0.506899 0.535397 0.513962C0.511165 0.51669 0.486629 0.514066 0.463522 0.506275C0.463084 0.506275 0.463084 0.506275 0.462709 0.506025L0.457522 0.50415C0.447272 0.499025 0.45271 0.491274 0.457897 0.481649H0.457522C0.462897 0.471024 0.462897 0.45815 0.454397 0.448587C0.442522 0.435212 0.420647 0.435212 0.404147 0.434587C0.397522 0.4344 0.391022 0.434587 0.384584 0.434837L0.384397 0.434587C0.381897 0.434587 0.379147 0.434837 0.376647 0.434837H0.374334C0.354147 0.435275 0.332709 0.432713 0.318522 0.415213C0.302084 0.39315 0.300397 0.3694 0.324584 0.347088C0.342084 0.330838 0.378522 0.297088 0.437522 0.333338C0.475209 0.356463 0.510397 0.375025 0.541647 0.364588C0.562272 0.357713 0.571647 0.345651 0.547522 0.310213C0.537915 0.297012 0.533188 0.280886 0.534147 0.264587C0.538334 0.216087 0.577084 0.212087 0.606897 0.189587C0.636022 0.167337 0.649397 0.130649 0.641022 0.0985241C0.634397 0.0727116 0.609147 0.0439629 0.561022 0.0354004C0.673839 0.0500732 0.777453 0.105329 0.852495 0.190838C0.927537 0.276347 0.968871 0.386257 0.968772 0.500025" fill="#66676B"/>
<path fill-rule="evenodd" clip-rule="evenodd" d="M0.631688 0.949738C0.561819 0.970217 0.48814 0.974132 0.416494 0.961178C0.344847 0.948223 0.277205 0.918754 0.218932 0.875105C0.160658 0.831456 0.113357 0.77483 0.0807789 0.709717C0.0482012 0.644604 0.0312434 0.572795 0.0312504 0.499987C0.0311548 0.421962 0.0505896 0.345153 0.0877827 0.276564C0.124976 0.207974 0.178744 0.149786 0.244188 0.1073C0.197431 0.14591 0.161777 0.196253 0.140875 0.253174C0.0938127 0.391736 0.127313 0.507862 0.284 0.507862C0.336063 0.507862 0.3715 0.542925 0.367313 0.6563C0.3665 0.681487 0.399813 0.767549 0.520438 0.774424C0.564188 0.776924 0.594438 0.840237 0.603563 0.883175C0.607313 0.9013 0.6115 0.9238 0.619625 0.9438C0.620669 0.94601 0.622427 0.947804 0.624616 0.948893C0.626804 0.949981 0.629296 0.9503 0.631688 0.949799" fill="#66676B"/>
<path d="M1 0.5C1 0.632608 0.947321 0.759786 0.853553 0.853554C0.759785 0.947322 0.632608 1 0.5 1C0.367392 1 0.240215 0.947322 0.146447 0.853554C0.0526785 0.759786 0 0.632608 0 0.5C0 0.367392 0.0526785 0.240214 0.146447 0.146446C0.240215 0.052678 0.367392 0 0.5 0C0.632608 0 0.759785 0.052678 0.853553 0.146446C0.947321 0.240214 1 0.367392 1 0.5ZM0.9375 0.5C0.9375 0.383968 0.891406 0.272689 0.809359 0.190641C0.727312 0.108594 0.616032 0.0625 0.5 0.0625C0.383968 0.0625 0.272688 0.108594 0.190641 0.190641C0.108594 0.272689 0.0625 0.383968 0.0625 0.5C0.0625 0.616032 0.108594 0.727311 0.190641 0.809359C0.272688 0.891406 0.383968 0.9375 0.5 0.9375C0.616032 0.9375 0.727312 0.891406 0.809359 0.809359C0.891406 0.727311 0.9375 0.616032 0.9375 0.5V0.5Z" fill="#66676B"/>
</svg>
