<svg width="486" height="123" viewBox="0 0 486 123" fill="none" xmlns="http://www.w3.org/2000/svg">
<path fill-rule="evenodd" clip-rule="evenodd" d="M410.796 64.4999C410.496 64.4999 410.296 64.199 410.296 63.9984C410.296 63.7977 410.296 63.4968 410.296 63.1959C410.296 61.29 409.996 58.8825 409.496 56.1741C409.396 55.8732 409.596 55.5722 409.896 55.5722C410.196 55.4719 410.396 55.6726 410.496 55.9735C411.096 58.6819 411.396 61.1897 411.396 63.1959C411.396 63.4968 411.396 63.7977 411.396 63.9984C411.296 64.199 410.996 64.4999 410.796 64.4999ZM408.296 50.3561C408.096 50.3561 407.896 50.2558 407.796 49.9548C406.996 47.4471 406.096 44.9393 405.096 42.5318C404.996 42.2309 405.096 41.9299 405.296 41.8296C405.596 41.7293 405.796 41.8296 405.996 42.1306C407.096 44.6383 407.996 47.1461 408.796 49.6539C408.896 49.9548 408.696 50.2558 408.496 50.3561C408.396 50.3561 408.396 50.3561 408.296 50.3561ZM402.096 46.9455C400.096 46.9455 398.196 46.8452 396.296 46.6446C395.996 46.6446 395.797 46.3436 395.897 46.0427C395.897 45.7418 396.097 45.5411 396.396 45.5411C398.796 45.7418 401.396 45.8421 403.996 45.7418C404.196 45.7418 404.496 45.9424 404.496 46.2433C404.496 46.5442 404.296 46.7449 403.996 46.7449C403.396 46.9455 402.796 46.9455 402.096 46.9455ZM410.096 46.4439C409.796 46.4439 409.596 46.2433 409.596 45.9424C409.596 45.6415 409.796 45.4408 409.996 45.3405C412.396 45.0396 414.996 44.6383 417.496 44.1368C417.796 44.0365 417.996 44.2371 418.096 44.538C418.196 44.839 417.996 45.1399 417.696 45.1399C415.196 45.7418 412.596 46.143 410.096 46.4439ZM390.397 45.7418C390.297 45.7418 390.297 45.7418 390.397 45.7418C387.697 45.1399 385.197 44.4377 382.897 43.4346C382.597 43.3343 382.497 43.0334 382.597 42.7324C382.697 42.4315 382.997 42.3312 383.197 42.4315C385.397 43.3343 387.797 44.1368 390.397 44.6383C390.697 44.7387 390.797 44.9393 390.797 45.2402C390.797 45.5411 390.597 45.7418 390.397 45.7418ZM423.596 43.8359C423.396 43.8359 423.196 43.6352 423.096 43.4346C422.996 43.1337 423.196 42.8327 423.496 42.8327C425.996 42.1306 428.396 41.4284 430.796 40.5256C431.096 40.4253 431.296 40.6259 431.396 40.8265C431.496 41.1275 431.396 41.4284 431.096 41.5287C428.696 42.4315 426.196 43.1337 423.796 43.8359C423.696 43.8359 423.596 43.8359 423.596 43.8359ZM377.597 40.6259C377.497 40.6259 377.397 40.6259 377.297 40.5256C374.897 38.9206 372.997 37.115 371.497 35.1088C371.297 34.9082 371.397 34.5069 371.597 34.4066C371.797 34.206 372.097 34.3063 372.297 34.5069C373.697 36.4128 375.597 38.1181 377.897 39.6228C378.097 39.8234 378.197 40.1244 378.097 40.325C377.897 40.5256 377.797 40.6259 377.597 40.6259ZM436.596 39.2215C436.396 39.2215 436.196 39.1212 436.096 38.9206C435.996 38.6197 436.096 38.3187 436.396 38.2184C438.896 37.115 441.096 36.0116 443.196 34.8079C443.396 34.7076 443.696 34.8079 443.896 35.0085C443.996 35.3094 443.896 35.6103 443.696 35.7107C441.596 36.9144 439.296 38.1181 436.796 39.2215C436.696 39.2215 436.596 39.2215 436.596 39.2215ZM402.796 37.115C402.596 37.115 402.496 37.0147 402.396 36.8141C401.096 34.4066 399.696 32.1998 398.196 30.1936C397.996 29.9929 398.096 29.5917 398.296 29.4914C398.496 29.2908 398.796 29.3911 398.996 29.5917C400.496 31.5979 401.896 33.9051 403.296 36.3125C403.396 36.5132 403.396 36.9144 403.096 37.0147C402.996 37.115 402.896 37.115 402.796 37.115ZM369.197 29.692C368.997 29.692 368.797 29.4914 368.697 29.2908C368.497 28.4883 368.397 27.6858 368.297 26.8833C368.297 26.6827 368.297 26.5824 368.297 26.3818C368.297 24.7768 368.897 22.9712 369.997 21.2659C370.197 21.0653 370.497 20.9649 370.697 21.1656C370.897 21.3662 370.997 21.6671 370.797 21.8678C369.797 23.3724 369.297 24.8771 369.297 26.3818C369.297 26.4821 369.297 26.6827 369.297 26.783C369.397 27.5855 369.497 28.2877 369.697 29.0901C369.797 29.3911 369.597 29.692 369.297 29.692H369.197ZM394.497 25.6796C394.397 25.6796 394.297 25.6796 394.197 25.5793C392.297 23.6734 390.297 22.0684 388.197 20.8647C387.997 20.7643 387.897 20.3631 387.997 20.1625C388.097 19.8615 388.397 19.8615 388.697 19.9618C390.797 21.1656 392.897 22.8709 394.897 24.8771C395.097 25.0777 395.097 25.3786 394.897 25.5793C394.797 25.6796 394.597 25.6796 394.497 25.6796ZM382.797 18.5575H382.697C380.697 18.0559 378.597 17.8553 376.497 18.0559C376.097 18.0559 375.797 18.1562 375.397 18.2566C375.097 18.3569 374.897 18.1563 374.797 17.8553C374.697 17.5544 374.897 17.2535 375.097 17.2535C375.497 17.1531 375.897 17.0528 376.297 17.0528C378.497 16.8522 380.697 17.0528 382.897 17.5544C383.197 17.6547 383.297 17.8553 383.297 18.1562C383.197 18.4572 382.997 18.5575 382.797 18.5575Z" fill="#102A18"/>
<path fill-rule="evenodd" clip-rule="evenodd" d="M450.296 40.325L462.896 29.1905L463.696 20.3632L454.296 29.7924L450.296 40.325Z" fill="#981312"/>
<mask id="mask0_618_9" style="mask-type:alpha" maskUnits="userSpaceOnUse" x="434" y="0" width="52" height="36">
<path fill-rule="evenodd" clip-rule="evenodd" d="M434.12 0.80249H485.92V35.5101H434.12V0.80249Z" fill="white"/>
</mask>
<g mask="url(#mask0_618_9)">
<path fill-rule="evenodd" clip-rule="evenodd" d="M456.62 27.8865C456.92 32.1999 470.42 40.5257 479.72 31.3974C485.12 26.0809 485.92 0.902832 485.92 0.902832C485.92 0.902832 442.02 12.238 435.62 18.8585C433.32 21.266 431.22 28.9899 449.92 26.7831C449.92 26.7831 456.32 23.5731 456.62 27.8865Z" fill="#FF6E6C"/>
</g>
<path fill-rule="evenodd" clip-rule="evenodd" d="M479.696 8.42615L450.296 26.2815V40.325L456.396 28.5887L479.696 8.42615Z" fill="#C22A29"/>
<path fill-rule="evenodd" clip-rule="evenodd" d="M411.396 70.9199C410.096 70.9199 409.896 72.7255 409.896 74.5311C409.896 87.8724 391.997 114.154 366.897 114.154C359.397 114.154 357.397 105.327 358.697 95.6967C359.897 97.101 362.297 98.2044 365.597 98.2044C382.697 98.2044 386.597 85.2643 386.597 77.741C386.597 69.2146 378.097 67.7099 374.997 67.7099C357.897 67.8102 347.897 81.4525 345.797 94.9945C340.697 102.819 332.797 113.251 326.297 113.251C321.097 113.251 327.097 88.6749 332.197 69.5155C339.197 69.3149 345.797 69.014 347.797 69.014C352.597 69.014 354.197 64.6003 353.997 62.9953C353.697 61.3903 349.097 61.3903 338.497 61.9922C337.097 62.0925 335.697 62.0925 334.197 62.1928C336.297 54.5692 337.797 48.7511 337.797 47.5474C337.797 45.14 336.197 43.7356 334.497 43.4347C332.997 43.2341 331.497 43.7356 330.697 44.0365C327.697 45.4409 324.397 52.262 321.397 61.8919C317.297 61.6913 314.497 61.3903 314.497 61.3903C310.597 61.0894 309.497 63.4969 309.597 65.5031C309.697 67.3087 310.397 68.6127 311.297 69.2146C311.797 69.6158 314.997 69.7161 319.197 69.7161C318.397 72.9261 317.697 76.3367 316.997 79.9479C316.097 84.7628 315.397 89.5777 314.897 94.192C310.897 100.712 301.597 114.154 293.797 113.552C287.997 113.151 293.597 92.0855 297.397 78.5435C297.397 78.5435 298.797 73.8289 298.897 72.2239C299.197 69.5155 297.097 67.5093 295.097 67.5093C293.097 67.5093 288.797 67.8102 285.597 77.0388C281.997 87.3709 272.098 114.254 261.798 113.452C255.998 112.95 262.898 87.2706 265.398 78.4432C267.298 71.7224 264.198 67.0077 257.998 67.0077C248.398 67.0077 239.698 87.0699 229.398 101.715C236.698 85.7659 236.598 66.2053 221.498 66.2053C204.298 66.2053 194.998 85.3647 192.198 92.0855C193.298 82.7566 195.398 72.8258 198.098 63.4969C225.198 62.2931 237.698 45.6415 237.698 32.3002C237.698 18.4572 226.698 16.752 223.698 16.752C206.598 16.752 195.998 33.6042 189.398 53.2651C181.498 51.2589 176.898 47.748 174.298 44.3375C178.298 43.1337 180.698 39.1213 180.698 36.0117C180.698 31.3973 177.498 26.8834 172.598 26.8834C164.399 26.8834 161.799 34.2061 161.799 39.2216C161.799 44.2371 166.799 59.4844 186.498 62.895C183.498 74.3304 181.598 85.9665 180.498 95.2954C176.298 102.117 167.999 113.953 160.699 113.351C152.599 112.75 166.599 73.1267 166.899 68.9137C167.099 66.4059 165.099 64.2993 162.599 64.0987C160.099 64.0987 158.299 65.2022 155.399 71.0202C152.299 77.3398 149.299 86.3678 147.999 93.5902V93.6905C142.899 103.12 135.599 113.251 127.899 113.251C119.299 113.251 134.699 87.6718 134.899 76.2364C134.999 72.9261 133.299 70.9199 129.999 70.9199C118.199 70.9199 112.899 68.0108 107.699 65.6034C105.599 64.6003 104.999 62.6944 102.699 62.6944C100.799 62.6944 99.6991 63.8981 99.5991 65.3025C98.0991 90.7814 89.9992 107.634 83.0993 114.655C81.8993 115.859 78.8993 117.665 78.7993 119.069C78.6993 120.774 80.8993 121.778 82.8993 121.778C90.3992 121.778 102.999 90.9821 102.599 71.4214C106.099 75.7348 112.499 80.1485 120.699 81.6531C115.499 95.2954 110.599 121.778 124.399 121.778C132.299 121.778 141.899 112.248 147.099 101.916C146.599 112.148 149.199 121.176 157.099 121.778C167.599 122.58 175.798 110.242 179.798 102.618C179.198 109.239 178.998 113.753 178.998 114.555C178.998 116.561 179.298 121.778 183.098 121.778C188.098 121.778 190.398 115.257 191.098 109.038V108.938C191.098 108.637 191.198 108.336 191.198 108.035C192.898 89.979 209.098 72.8258 216.898 72.8258C222.798 72.8258 224.398 79.6469 221.698 90.9821C219.198 101.615 210.498 123.483 197.198 113.151C194.898 111.345 193.298 110.743 192.498 112.148C191.398 114.154 193.998 117.063 196.898 118.869C199.998 120.875 203.098 121.778 206.198 121.778C206.398 121.778 206.698 121.778 206.898 121.778C230.998 121.778 247.598 73.8289 253.198 74.6314C255.598 74.9323 251.198 84.5622 249.298 93.5902C245.098 113.753 248.998 121.778 257.998 121.778C267.598 121.778 275.798 107.634 280.498 97.402C278.598 109.54 281.897 121.778 289.997 121.778C302.697 121.778 311.697 106.029 314.297 100.913C313.797 112.85 315.797 121.778 322.397 121.778C331.597 121.778 340.297 109.64 345.297 101.013C345.597 112.148 351.397 121.778 363.197 121.778C385.497 121.778 414.196 95.4961 414.196 75.2332C414.296 74.3304 413.596 70.9199 411.396 70.9199ZM174.198 34.3064C175.098 34.3064 175.998 35.5101 175.998 36.8141C175.998 39.1213 174.498 40.8266 172.898 42.0303C171.998 40.2247 171.698 38.6197 171.698 37.5163C171.798 35.9113 172.398 34.3064 174.198 34.3064ZM223.898 22.9712C229.798 22.9712 232.698 27.7862 232.698 32.8017C232.698 39.021 229.598 56.4751 200.998 55.0707C207.398 37.1151 215.998 22.9712 223.898 22.9712ZM373.897 71.7224C377.097 71.7224 378.097 74.4308 377.997 77.6407C377.997 82.6562 373.897 93.6905 364.997 93.6905C362.397 93.8911 360.497 93.1889 359.297 92.3864C361.497 82.0544 367.297 71.7224 373.897 71.7224Z" fill="#102A18"/>
<mask id="mask1_618_9" style="mask-type:alpha" maskUnits="userSpaceOnUse" x="0" y="0" width="147" height="123">
<path fill-rule="evenodd" clip-rule="evenodd" d="M0 0H146.199V122.078H0V0Z" fill="white"/>
</mask>
<g mask="url(#mask1_618_9)">
<path fill-rule="evenodd" clip-rule="evenodd" d="M125.099 50.958C137.699 50.958 146.199 42.0303 146.199 33.6042C146.199 30.5948 145.199 27.8864 143.999 27.4852C142.599 26.9836 141.799 28.388 141.799 29.993C141.799 34.7076 138.199 40.325 127.599 40.2247C111.799 40.2247 58.4995 0.100311 25.0998 0C9.29992 0 0 11.7364 0 23.5731C0 35.6104 9.29992 45.6415 22.7998 45.6415C35.5997 45.6415 40.9996 36.9144 40.9996 29.8927C40.9996 23.0715 36.2997 18.4572 31.5997 18.4572C26.0998 18.5575 23.8998 23.4728 23.8998 26.3818C23.8998 30.2939 26.7998 31.5979 26.7998 33.8048C26.7998 37.416 23.6998 39.4222 21.0998 39.4222C13.1999 39.4222 7.49993 31.7986 7.49993 24.9774V24.8771C7.49993 15.6485 12.1999 5.81803 25.1998 5.81803C36.5997 5.81803 55.6995 17.6547 75.0993 29.2908C58.0995 58.2807 62.3994 116.06 41.2996 116.06C34.4997 116.06 31.8997 109.54 29.1997 112.248C26.7998 114.756 34.6997 122.078 41.2996 122.078C52.9995 122.078 60.0995 112.749 60.0995 112.749C75.0993 98.1041 75.2993 58.7822 82.9993 33.8048C98.7991 43.0334 114.199 50.8577 125.099 50.958Z" fill="#102A18"/>
</g>
</svg>
