<svg width="1027" height="982" viewBox="0 0 1027 982" fill="none" xmlns="http://www.w3.org/2000/svg">
<path d="M283.406 849.374L187.654 809.71C167.513 801.367 157.442 797.195 151.921 799.241C147.145 801.011 143.595 805.083 142.494 810.054C141.221 815.8 146.734 825.199 157.76 843.997L202.041 919.495L202.041 919.495C206.603 927.273 208.883 931.162 212.123 933.129C214.969 934.858 218.31 935.591 221.618 935.215C225.383 934.786 229.083 932.21 236.481 927.059L287.953 891.225C299.68 883.061 305.543 878.979 307.113 874.246C308.48 870.121 307.989 865.606 305.768 861.869C303.219 857.581 296.615 854.845 283.406 849.374Z" fill="#FFB550"/>
<path d="M65.5168 888.333L108.874 908.16C128.699 917.225 138.611 921.758 144.203 919.913C149.04 918.316 152.735 914.376 154.015 909.448C155.495 903.752 150.326 894.16 139.989 874.975L120.89 839.532C116.613 831.594 114.475 827.625 111.309 825.542C108.527 823.711 105.215 822.857 101.896 823.114C98.1175 823.407 94.3274 825.847 86.7472 830.727L86.7471 830.727L62.488 846.344C50.4726 854.079 44.465 857.947 42.7255 862.62C41.2096 866.692 41.5364 871.222 43.6212 875.037C46.0135 879.415 52.5146 882.388 65.5168 888.333Z" fill="#509A8F"/>
<path d="M125.653 702.765L107.015 746.597C98.4853 766.659 94.2203 776.69 96.221 782.228C97.9518 787.019 101.997 790.606 106.963 791.753C112.703 793.078 122.16 787.651 141.075 776.797L176.005 756.752C183.827 752.264 187.738 750.02 189.733 746.8C191.486 743.971 192.247 740.638 191.896 737.328C191.497 733.561 188.948 729.84 183.851 722.399L183.851 722.399L167.557 698.612C159.487 686.831 155.452 680.94 150.731 679.329C146.617 677.925 142.097 678.373 138.34 680.557C134.03 683.063 131.237 689.63 125.653 702.765Z" fill="#FFCB85"/>
<path d="M233.34 214.925L87.3106 147.662C60.9094 135.501 47.7088 129.42 40.2464 131.86C33.7911 133.971 28.8502 139.211 27.1256 145.777C25.1319 153.366 31.9889 166.175 45.703 191.792L109.785 311.494C115.459 322.093 118.296 327.393 122.51 330.182C126.212 332.633 130.625 333.783 135.052 333.453C140.091 333.077 145.153 329.837 155.278 323.358L237.226 270.92C253.274 260.651 261.298 255.516 263.634 249.292C265.67 243.868 265.251 237.827 262.485 232.732C259.311 226.887 250.654 222.9 233.34 214.925Z" fill="#FFB550"/>
<path d="M920.037 243.254L960.774 225.096L960.774 225.096C980.686 216.22 990.642 211.782 992.956 206.367C994.958 201.683 994.445 196.306 991.596 192.087C988.301 187.21 977.688 184.744 956.46 179.811L919.772 171.286C910.989 169.245 906.597 168.225 902.941 169.222C899.728 170.098 896.898 172.018 894.895 174.678C892.616 177.705 891.939 182.162 890.587 191.075L886.538 217.759C884.394 231.887 883.322 238.951 885.677 243.346C887.729 247.176 891.343 249.926 895.584 250.885C900.449 251.986 906.979 249.075 920.037 243.254Z" fill="#509A8F"/>
<path d="M930.792 54.2513L927.714 101.781C926.305 123.536 925.601 134.413 929.322 138.977C932.541 142.925 937.545 144.97 942.611 144.409C948.466 143.76 955.594 135.508 969.849 119.005L996.176 88.5279C1002.07 81.7033 1005.02 78.291 1005.84 74.5923C1006.55 71.3423 1006.17 67.9462 1004.74 64.9389C1003.12 61.5162 999.481 58.8489 992.208 53.5142L992.208 53.5141L968.959 36.4614C957.445 28.0153 951.687 23.7922 946.699 23.835C942.352 23.8723 938.235 25.7913 935.413 29.0954C932.175 32.8866 931.714 40.0082 930.792 54.2513Z" fill="#FFCB85"/>
</svg>
