<svg width="491" height="132" viewBox="0 0 491 132" fill="none" xmlns="http://www.w3.org/2000/svg">
<path fill-rule="evenodd" clip-rule="evenodd" d="M410.796 73.5C410.496 73.5 410.296 73.1991 410.296 72.9985C410.296 72.7979 410.296 72.4969 410.296 72.196C410.296 70.2901 409.997 67.8826 409.497 65.1742C409.397 64.8733 409.596 64.5724 409.896 64.5724C410.196 64.472 410.396 64.6727 410.496 64.9736C411.096 67.682 411.396 70.1898 411.396 72.196C411.396 72.4969 411.396 72.7979 411.396 72.9985C411.296 73.1991 410.996 73.5 410.796 73.5ZM408.297 59.3562C408.097 59.3562 407.897 59.2559 407.797 58.955C406.997 56.4472 406.097 53.9394 405.097 51.5319C404.997 51.231 405.097 50.9301 405.297 50.8298C405.597 50.7294 405.797 50.8298 405.997 51.1307C407.097 53.6385 407.997 56.1462 408.796 58.654C408.896 58.9549 408.697 59.2559 408.497 59.3562C408.397 59.3562 408.397 59.3562 408.297 59.3562ZM402.097 55.9456C400.097 55.9456 398.197 55.8453 396.297 55.6447C395.997 55.6447 395.797 55.3437 395.897 55.0428C395.897 54.7419 396.097 54.5413 396.397 54.5413C398.797 54.7419 401.397 54.8422 403.997 54.7419C404.197 54.7419 404.497 54.9425 404.497 55.2434C404.497 55.5444 404.297 55.745 403.997 55.745C403.397 55.9456 402.797 55.9456 402.097 55.9456ZM410.096 55.4441C409.796 55.4441 409.596 55.2434 409.596 54.9425C409.596 54.6416 409.797 54.441 409.997 54.3406C412.396 54.0397 414.996 53.6385 417.496 53.1369C417.796 53.0366 417.996 53.2372 418.096 53.5381C418.196 53.8391 417.996 54.14 417.696 54.14C415.196 54.7419 412.596 55.1431 410.096 55.4441ZM390.397 54.7419C390.297 54.7419 390.297 54.7419 390.397 54.7419C387.697 54.14 385.197 53.4378 382.897 52.4347C382.597 52.3344 382.497 52.0335 382.597 51.7325C382.697 51.4316 382.997 51.3313 383.197 51.4316C385.397 52.3344 387.797 53.1369 390.397 53.6385C390.697 53.7388 390.797 53.9394 390.797 54.2403C390.797 54.5413 390.597 54.7419 390.397 54.7419ZM423.596 52.836C423.396 52.836 423.196 52.6354 423.096 52.4347C422.996 52.1338 423.196 51.8329 423.496 51.8329C425.996 51.1307 428.396 50.4285 430.796 49.5257C431.096 49.4254 431.296 49.626 431.396 49.8266C431.496 50.1276 431.396 50.4285 431.096 50.5288C428.696 51.4316 426.196 52.1338 423.796 52.836C423.696 52.836 423.596 52.836 423.596 52.836ZM377.597 49.626C377.497 49.626 377.397 49.626 377.297 49.5257C374.897 47.9207 372.997 46.1151 371.497 44.1089C371.297 43.9083 371.397 43.5071 371.597 43.4068C371.797 43.2061 372.097 43.3064 372.297 43.5071C373.697 45.413 375.597 47.1183 377.897 48.6229C378.097 48.8235 378.197 49.1245 378.097 49.3251C377.897 49.5257 377.797 49.626 377.597 49.626ZM436.596 48.2217C436.396 48.2217 436.196 48.1214 436.096 47.9207C435.996 47.6198 436.096 47.3189 436.396 47.2186C438.896 46.1151 441.096 45.0117 443.196 43.808C443.396 43.7077 443.696 43.808 443.896 44.0086C443.996 44.3095 443.896 44.6105 443.696 44.7108C441.596 45.9145 439.296 47.1182 436.796 48.2217C436.696 48.2217 436.596 48.2217 436.596 48.2217ZM402.797 46.1151C402.597 46.1151 402.497 46.0148 402.397 45.8142C401.097 43.4067 399.697 41.1999 398.197 39.1937C397.997 38.9931 398.097 38.5918 398.297 38.4915C398.497 38.2909 398.797 38.3912 398.997 38.5918C400.497 40.598 401.897 42.9052 403.297 45.3127C403.397 45.5133 403.397 45.9145 403.097 46.0148C402.997 46.1151 402.897 46.1151 402.797 46.1151ZM369.197 38.6921C368.997 38.6921 368.797 38.4915 368.697 38.2909C368.497 37.4884 368.397 36.6859 368.297 35.8834C368.297 35.6828 368.297 35.5825 368.297 35.3819C368.297 33.7769 368.897 31.9713 369.997 30.266C370.197 30.0654 370.497 29.9651 370.697 30.1657C370.897 30.3663 370.997 30.6673 370.797 30.8679C369.797 32.3725 369.297 33.8772 369.297 35.3819C369.297 35.4822 369.297 35.6828 369.297 35.7831C369.397 36.5856 369.497 37.2878 369.697 38.0903C369.797 38.3912 369.597 38.6921 369.297 38.6921H369.197ZM394.497 34.6797C394.397 34.6797 394.297 34.6797 394.197 34.5794C392.297 32.6735 390.297 31.0685 388.197 29.8648C387.997 29.7645 387.897 29.3632 387.997 29.1626C388.097 28.8617 388.397 28.8617 388.697 28.962C390.797 30.1657 392.897 31.871 394.897 33.8772C395.097 34.0778 395.097 34.3788 394.897 34.5794C394.797 34.6797 394.597 34.6797 394.497 34.6797ZM382.797 27.5576H382.697C380.697 27.0561 378.597 26.8554 376.497 27.0561C376.097 27.0561 375.797 27.1564 375.397 27.2567C375.097 27.357 374.897 27.1564 374.797 26.8554C374.697 26.5545 374.897 26.2536 375.097 26.2536C375.497 26.1533 375.897 26.053 376.297 26.053C378.497 25.8523 380.697 26.053 382.897 26.5545C383.197 26.6548 383.297 26.8554 383.297 27.1564C383.197 27.4573 382.997 27.5576 382.797 27.5576Z" fill="#141D23"/>
<path fill-rule="evenodd" clip-rule="evenodd" d="M411.396 79.9199C410.096 79.9199 409.896 81.7255 409.896 83.5311C409.896 96.8724 391.996 123.154 366.897 123.154C359.397 123.154 357.397 114.327 358.697 104.697C359.897 106.101 362.297 107.204 365.597 107.204C382.696 107.204 386.596 94.2643 386.596 86.741C386.596 78.2146 378.097 76.7099 374.997 76.7099C357.897 76.8102 347.897 90.4525 345.797 103.995C340.697 111.819 332.797 122.251 326.297 122.251C321.097 122.251 327.097 97.6749 332.197 78.5155C339.197 78.3149 345.797 78.014 347.797 78.014C352.597 78.014 354.197 73.6003 353.997 71.9953C353.697 70.3903 349.097 70.3903 338.497 70.9922C337.097 71.0925 335.697 71.0925 334.197 71.1928C336.297 63.5692 337.797 57.7511 337.797 56.5474C337.797 54.14 336.197 52.7356 334.497 52.4347C332.997 52.2341 331.497 52.7356 330.697 53.0365C327.697 54.4409 324.397 61.262 321.397 70.8919C317.297 70.6913 314.497 70.3903 314.497 70.3903C310.597 70.0894 309.497 72.4969 309.597 74.5031C309.697 76.3087 310.397 77.6127 311.297 78.2146C311.797 78.6158 314.997 78.7161 319.197 78.7161C318.397 81.9261 317.697 85.3367 316.997 88.9479C316.097 93.7628 315.397 98.5777 314.897 103.192C310.897 109.712 301.597 123.154 293.797 122.552C287.997 122.151 293.597 101.085 297.397 87.5435C297.397 87.5435 298.797 82.8289 298.897 81.2239C299.197 78.5155 297.097 76.5093 295.097 76.5093C293.097 76.5093 288.797 76.8102 285.597 86.0388C281.997 96.3709 272.097 123.254 261.798 122.452C255.998 121.95 262.898 96.2706 265.398 87.4432C267.298 80.7224 264.198 76.0077 257.998 76.0077C248.398 76.0077 239.698 96.0699 229.398 110.715C236.698 94.7659 236.598 75.2053 221.498 75.2053C204.298 75.2053 194.998 94.3647 192.198 101.085C193.298 91.7566 195.398 81.8258 198.098 72.4969C225.198 71.2931 237.698 54.6415 237.698 41.3002C237.698 27.4572 226.698 25.752 223.698 25.752C206.598 25.752 195.998 42.6042 189.398 62.2651C181.498 60.2589 176.898 56.748 174.298 53.3375C178.298 52.1337 180.698 48.1213 180.698 45.0117C180.698 40.3973 177.498 35.8834 172.598 35.8834C164.398 35.8834 161.798 43.2061 161.798 48.2216C161.798 53.2371 166.798 68.4844 186.498 71.895C183.498 83.3304 181.598 94.9665 180.498 104.295C176.298 111.117 167.998 122.953 160.698 122.351C152.599 121.75 166.598 82.1267 166.898 77.9137C167.098 75.4059 165.098 73.2993 162.598 73.0987C160.098 73.0987 158.298 74.2022 155.399 80.0202C152.299 86.3398 149.299 95.3678 147.999 102.59V102.69C142.899 112.12 135.599 122.251 127.899 122.251C119.299 122.251 134.699 96.6718 134.899 85.2364C134.999 81.9261 133.299 79.9199 129.999 79.9199C118.199 79.9199 112.899 77.0108 107.699 74.6034C105.599 73.6003 104.999 71.6944 102.699 71.6944C100.799 71.6944 99.699 72.8981 99.599 74.3025C98.099 99.7814 89.9991 116.634 83.0991 123.655C81.8992 124.859 78.8992 126.665 78.7992 128.069C78.6992 129.774 80.8992 130.778 82.8992 130.778C90.3991 130.778 102.999 99.9821 102.599 80.4214C106.099 84.7348 112.499 89.1485 120.699 90.6531C115.499 104.295 110.599 130.778 124.399 130.778C132.299 130.778 141.899 121.248 147.099 110.916C146.599 121.148 149.199 130.176 157.098 130.778C167.598 131.58 175.798 119.242 179.798 111.618C179.198 118.239 178.998 122.753 178.998 123.555C178.998 125.561 179.298 130.778 183.098 130.778C188.098 130.778 190.398 124.257 191.098 118.038V117.938C191.098 117.637 191.198 117.336 191.198 117.035C192.898 98.979 209.098 81.8258 216.898 81.8258C222.798 81.8258 224.398 88.6469 221.698 99.9821C219.198 110.615 210.498 132.483 197.198 122.151C194.898 120.345 193.298 119.743 192.498 121.148C191.398 123.154 193.998 126.063 196.898 127.869C199.998 129.875 203.098 130.778 206.198 130.778C206.398 130.778 206.698 130.778 206.898 130.778C230.998 130.778 247.598 82.8289 253.198 83.6314C255.598 83.9323 251.198 93.5622 249.298 102.59C245.098 122.753 248.998 130.778 257.998 130.778C267.597 130.778 275.797 116.634 280.497 106.402C278.597 118.54 281.897 130.778 289.997 130.778C302.697 130.778 311.697 115.029 314.297 109.913C313.797 121.85 315.797 130.778 322.397 130.778C331.597 130.778 340.297 118.64 345.297 110.013C345.597 121.148 351.397 130.778 363.197 130.778C385.496 130.778 414.196 104.496 414.196 84.2332C414.296 83.3304 413.596 79.9199 411.396 79.9199ZM174.198 43.3064C175.098 43.3064 175.998 44.5101 175.998 45.8141C175.998 48.1213 174.498 49.8266 172.898 51.0303C171.998 49.2247 171.698 47.6197 171.698 46.5163C171.798 44.9113 172.398 43.3064 174.198 43.3064ZM223.898 31.9712C229.798 31.9712 232.698 36.7862 232.698 41.8017C232.698 48.021 229.598 65.4751 200.998 64.0707C207.398 46.1151 215.998 31.9712 223.898 31.9712ZM373.897 80.7224C377.097 80.7224 378.097 83.4308 377.997 86.6407C377.997 91.6562 373.897 102.69 364.997 102.69C362.397 102.891 360.497 102.189 359.297 101.386C361.497 91.0544 367.297 80.7224 373.897 80.7224Z" fill="#141D23"/>
<mask id="mask0_2431_3200" style="mask-type:alpha" maskUnits="userSpaceOnUse" x="0" y="9" width="147" height="123">
<path fill-rule="evenodd" clip-rule="evenodd" d="M0 9H146.199V131.078H0V9Z" fill="white"/>
</mask>
<g mask="url(#mask0_2431_3200)">
<path fill-rule="evenodd" clip-rule="evenodd" d="M125.099 59.958C137.699 59.958 146.199 51.0303 146.199 42.6042C146.199 39.5948 145.199 36.8864 143.999 36.4852C142.599 35.9836 141.799 37.388 141.799 38.993C141.799 43.7076 138.199 49.325 127.599 49.2247C111.799 49.2247 58.4995 9.10031 25.0998 9C9.29992 9 0 20.7364 0 32.5731C0 44.6104 9.29992 54.6415 22.7998 54.6415C35.5997 54.6415 40.9996 45.9144 40.9996 38.8927C40.9996 32.0715 36.2997 27.4572 31.5997 27.4572C26.0998 27.5575 23.8998 32.4728 23.8998 35.3818C23.8998 39.2939 26.7998 40.5979 26.7998 42.8048C26.7998 46.416 23.6998 48.4222 21.0998 48.4222C13.1999 48.4222 7.49993 40.7986 7.49993 33.9774V33.8771C7.49993 24.6485 12.1999 14.818 25.1998 14.818C36.5997 14.818 55.6995 26.6547 75.0993 38.2908C58.0995 67.2807 62.3994 125.06 41.2996 125.06C34.4997 125.06 31.8997 118.54 29.1997 121.248C26.7998 123.756 34.6997 131.078 41.2996 131.078C52.9995 131.078 60.0995 121.749 60.0995 121.749C75.0993 107.104 75.2993 67.7822 82.9993 42.8048C98.7991 52.0334 114.199 59.8577 125.099 59.958Z" fill="#141D23"/>
</g>
<path fill-rule="evenodd" clip-rule="evenodd" d="M490.999 0.000488281C490.999 0.000488281 487.203 0.511957 479.651 2.31979C479.628 2.32461 479.614 2.32944 479.591 2.33426C479.586 2.33587 479.581 2.33748 479.578 2.33748C478.655 2.54657 477.686 2.77335 476.685 3.00979C476.544 3.04195 476.407 3.07412 476.265 3.1079C474.202 3.60007 472.003 4.1437 469.705 4.74363C469.481 4.80153 469.255 4.86265 469.027 4.92216C468.13 5.1586 467.224 5.40307 466.302 5.65559C465.994 5.74083 465.687 5.82608 465.375 5.91132C464.292 6.2137 463.204 6.52251 462.103 6.84419C462.028 6.86671 461.956 6.88601 461.883 6.90692C460.726 7.2479 459.563 7.60174 458.399 7.96524C458.075 8.06496 457.753 8.1695 457.429 8.27244C456.552 8.54908 455.68 8.83216 454.808 9.12167C454.461 9.23747 454.119 9.35006 453.775 9.46747C452.613 9.86153 451.455 10.262 450.314 10.677C431.845 17.4161 430.875 26.2945 438.433 28.5462C445.972 30.7819 450.314 28.884 450.314 28.884L449.845 42.9091V42.9413C449.845 42.9976 449.883 43.0346 449.891 43.086C449.897 43.1021 449.9 43.1166 449.907 43.1343C449.957 43.3289 450.086 43.4688 450.233 43.5798C450.299 43.6345 450.37 43.6812 450.451 43.7117C450.48 43.7214 450.506 43.7246 450.535 43.731C450.632 43.7551 450.732 43.76 450.834 43.7423C450.866 43.7374 450.897 43.7342 450.926 43.7262C451.053 43.6908 451.177 43.6297 451.284 43.5203L458.515 36.1539C458.661 36.3951 458.806 36.6364 458.969 36.8937C460.404 39.0812 463.214 41.3651 468.575 42.4588C480.28 44.8231 485.3 37.6336 487.996 23.898C488.204 22.838 488.393 21.8038 488.571 20.7873C488.587 20.6892 488.606 20.5879 488.624 20.4898C488.79 19.5167 488.944 18.571 489.086 17.6461C489.104 17.5287 489.121 17.4129 489.139 17.2971C489.278 16.3739 489.406 15.4764 489.52 14.6063C489.53 14.5291 489.541 14.4519 489.551 14.3747C489.669 13.4708 489.777 12.599 489.871 11.7626C489.871 11.7626 489.871 11.761 489.872 11.7594V11.761C491.064 1.31454 490.999 0.000488281 490.999 0.000488281Z" fill="#FC5A56"/>
<path fill-rule="evenodd" clip-rule="evenodd" d="M458.448 36.1937L451.269 43.5214C450.932 43.8734 450.418 43.8254 450.145 43.5214C450.321 43.6494 450.562 43.5694 450.914 42.9134C451.652 41.5215 457.31 30.8339 458.015 29.522C457.711 30.1619 457.502 30.8499 457.374 31.5379C457.374 31.5379 457.358 31.6979 457.358 31.9859C457.344 32.0339 457.344 32.0659 457.358 32.0979C457.374 32.9138 457.534 34.4658 458.448 36.1937" fill="#FB3935"/>
<path fill-rule="evenodd" clip-rule="evenodd" d="M490.999 0C490.999 0 487.202 0.511468 479.651 2.3193C479.628 2.32412 479.612 2.32895 479.591 2.33377C471.58 4.15286 460.44 6.99328 450.314 10.6765C431.844 17.4157 430.875 26.294 438.431 28.5457C445.971 30.7814 450.314 28.8835 450.314 28.8835L476.582 11.0625L486.689 3.50307L482.717 7.31496C482.62 7.41146 482.523 7.49188 482.426 7.5723C469.559 19.2331 461.196 23.9457 458.403 28.8674C458.403 28.8674 458.387 28.8674 458.387 28.8835C458.29 29.0282 458.225 29.173 458.144 29.3177C458.128 29.366 458.096 29.3982 458.08 29.4464C457.773 30.0898 457.563 30.7814 457.434 31.473C457.434 31.473 457.418 31.6338 457.418 31.9233C457.402 31.9716 457.402 32.0038 457.418 32.0359C457.434 32.8562 457.595 34.4163 458.516 36.1534C458.661 36.3947 458.806 36.6359 458.968 36.8933C460.405 39.0807 463.214 41.3646 468.574 42.4583C480.279 44.8226 485.3 37.6331 487.996 23.8975C488.881 19.3843 489.474 15.2652 489.872 11.7589V11.7606C491.064 1.31405 490.999 0 490.999 0" fill="#FC7A78"/>
</svg>
