<svg width="99" height="140" viewBox="0 0 99 140" fill="none" xmlns="http://www.w3.org/2000/svg">
<path d="M71.7881 93.103C99.1799 83.0251 104.45 109.711 93.3132 121.316C82.0303 134.9 45.224 140.955 45.8569 138.715C13.56 68.0542 69.4938 61.9563 71.7881 93.103Z" fill="#FE4A49"/>
<path d="M24.6485 47.2687C43.4302 40.3586 47.0438 58.6562 39.4076 66.6137C31.6713 75.9273 6.43438 80.0792 6.86835 78.5437C-15.2766 30.0936 23.0754 25.9124 24.6485 47.2687Z" fill="#FE4A49"/>
<path d="M62.3666 9.75095C77.2939 4.25891 80.166 18.8015 74.0969 25.126C67.9482 32.5283 47.8903 35.8282 48.2352 34.6077C30.6348 -3.89956 61.1163 -7.22264 62.3666 9.75095Z" fill="#FE4A49"/>
</svg>
