<?xml version="1.0" encoding="utf-8"?>
<!-- Generator: Adobe Illustrator 25.2.1, SVG Export Plug-In . SVG Version: 6.00 Build 0)  -->
<svg version="1.1" id="layer" xmlns="http://www.w3.org/2000/svg" xmlns:xlink="http://www.w3.org/1999/xlink" x="0px" y="0px"
	 viewBox="0 0 600.1 125.3" style="enable-background:new 0 0 600.1 125.3;" xml:space="preserve">
<style type="text/css">
	.st0{fill:#FD6D6C;}
</style>
<g id="Page-1">
	<g>
		<path id="Fill-1" class="st0" d="M34,88.9H14.9v-23H0v58.5h14.9v-23.1H34v23.1h12.8V65.9H34V88.9"/>
		<path id="Fill-2" class="st0" d="M365.4,124.4h35.5V112h-22.7v-10.8h22.7V88.8h-22.7V78.2h22.7V65.8h-35.5V124.4"/>
		<path id="Fill-3" class="st0" d="M152,104.5c0,4.8-3.8,8.6-8.7,8.6c-4.8,0-8.4-3.7-8.4-8.6V65.9h-12.8v37.9
			c0,13.2,8.2,21.4,21.4,21.4s21.4-8.2,21.4-21.4V65.9h-12.8L152,104.5"/>
		<path id="Fill-4" class="st0" d="M84.4,65.1c-16.5,0-29.8,13.5-29.8,30s13.4,30,29.8,30c16.5,0,29.9-13.5,29.9-30
			S100.9,65.1,84.4,65.1L84.4,65.1z M84.4,112.5c-9.4,0-17.1-7.8-17.1-17.3c0-9.6,7.7-17.3,17.1-17.3c9.5,0,17.2,7.8,17.2,17.3
			C101.5,104.7,93.8,112.5,84.4,112.5L84.4,112.5z"/>
		<path id="Fill-5" class="st0" d="M568.6,90.5v12.4h17.3c-2.2,6.1-7.6,9.7-14.5,9.7c-10,0-17.5-7.5-17.5-17.5
			c0-9.6,7.7-17.5,17.2-17.5c6.9,0,11.9,3,15.2,9.2l0.5,1L598,81l-0.5-0.9c-5.3-9.4-15.2-15-26.5-15c-17,0-29.8,12.9-29.8,30
			s13,30,30.3,30c16.3,0,28.6-12.6,28.6-29.2v-5.4L568.6,90.5"/>
		<path id="Fill-6" class="st0" d="M520.1,101.2l-22.3-35.3H484v58.5h12.8V87.8l23.1,36.6H533V65.9h-12.8L520.1,101.2"/>
		<path id="Fill-7" class="st0" d="M460.4,65.9h12.8v58.5h-12.8V65.9z"/>
		<path id="Fill-8" class="st0" d="M319.8,124.4h35.5V112h-22.7v-10.8h22.7V88.8h-22.7V78.2h22.7V65.8h-35.5V124.4"/>
		<path id="Fill-9" class="st0" d="M197.5,88.8l-1.2-0.4c-5.9-1.9-9.5-3.3-9.5-6.4c0-3.2,2.6-5.2,6.7-5.2c4,0,7,1.6,9.2,4.9l0.6,0.9
			l10.7-8.1l-0.8-0.9c-4.1-4.2-9.6-8.5-19.7-8.5c-11.3,0-19.8,7.4-19.8,17.3c0,11.9,9.7,14.9,16.7,17.1l0.9,0.3c5.4,1.6,10,3,10,6.7
			c0,3.1-2.3,6.4-7.4,6.4c-4.6,0-8.7-2.6-11.3-7l-0.6-1.1l-11.6,9.2l0.7,0.8c6.2,7,13.7,10.5,22.9,10.5c10,0,20.6-6.5,20.6-18.7
			C214.5,94.3,203.8,90.9,197.5,88.8"/>
		<path id="Fill-10" class="st0" d="M431.4,65.9H411v58.5h12.8v-16.1h7.5c12,0,21.4-9.3,21.4-21.2C452.8,75.2,443.4,65.9,431.4,65.9
			L431.4,65.9z M423.8,78h6.8c5.3,0,9.2,3.8,9.2,9.1c0,5.3-3.9,9.1-9.2,9.1h-6.8V78L423.8,78z"/>
		<path id="Fill-11" class="st0" d="M222.4,124.4h35.5V112h-22.6v-10.8H258V88.8h-22.7V78.2H258V65.8h-35.5v58.6"/>
		<path id="Fill-12" class="st0" d="M313.3,65.9h-15.8l-16.7,20.8V65.9H268v58.5h12.8v-20.3l4.6-5.8l14.3,26.1h14.6L294.5,89
			L313.3,65.9"/>
		<path id="Fill-13" class="st0" d="M422.9,30.1c0-17.5-12.4-29.2-30.8-29.2h-16.4v58.5h16.9C410.1,59.3,422.9,47,422.9,30.1
			L422.9,30.1z M390.8,12.9c12.2,0,19.2,6.3,19.2,17.2c0,10.3-7.5,17.2-18.8,17.2h-2.8V13h2.4V12.9z"/>
		<path id="Fill-14" class="st0" d="M272.2,60.1c16.5,0,29.9-13.5,29.9-30c0-16.6-13.4-30-29.9-30s-29.8,13.5-29.8,30
			C242.3,46.6,255.7,60.1,272.2,60.1L272.2,60.1z M272.2,12.7c9.5,0,17.2,7.8,17.2,17.3s-7.7,17.3-17.2,17.3
			c-9.4,0-17.1-7.8-17.1-17.3S262.7,12.7,272.2,12.7L272.2,12.7z"/>
		<path id="Fill-15" class="st0" d="M337.7,0c-16.5,0-29.8,13.5-29.8,30s13.4,30,29.8,30c16.5,0,29.9-13.5,29.9-30S354.2,0,337.7,0
			L337.7,0z M337.7,47.4c-9.4,0-17.1-7.8-17.1-17.3s7.7-17.3,17.1-17.3c9.5,0,17.2,7.8,17.2,17.3S347.2,47.4,337.7,47.4L337.7,47.4z
			"/>
		<path id="Fill-16" class="st0" d="M207.9,60.1c16.3,0,28.6-12.6,28.6-29.2v-5.5h-31.4v12.4h17.3c-2.3,6.1-7.6,9.7-14.5,9.7
			c-10,0-17.5-7.5-17.5-17.5c0-9.6,7.7-17.5,17.2-17.5c6.9,0,11.9,3,15.2,9.2l0.5,1l11.2-6.8L234,15c-5.3-9.4-15.2-15-26.5-15
			c-17,0-29.8,12.9-29.8,30C177.6,47.2,190.6,60.1,207.9,60.1"/>
	</g>
</g>
</svg>
