<svg width="82" height="88" viewBox="0 0 82 88" fill="none" xmlns="http://www.w3.org/2000/svg">
<path d="M22.629 88C21.769 88 20.93 87.833 20.136 87.502C17.705 86.497 16.13 84.139 16.13 81.5V69H10.5C4.71 69 0 64.29 0 58.5V10.5C0 4.71 4.71 0 10.5 0H71.5C77.29 0 82 4.71 82 10.5V58.5C82 64.29 77.29 69 71.5 69H44.322L27.226 86.096C26.001 87.323 24.367 88 22.629 88Z" fill="#F46B7F"/>
<path d="M54.4157 38.9348L65.2008 30.1755C66.7263 28.9315 65.9373 26.4953 63.9381 26.3919L50.049 25.5625C49.2072 25.5108 48.4706 24.9923 48.155 24.215L43.0519 11.3607C42.3153 9.54643 39.7373 9.54643 39.0008 11.3607L33.8976 24.1631C33.582 24.9405 32.8455 25.4589 32.0037 25.5107L18.062 26.3401C16.0627 26.4438 15.2736 28.8799 16.7992 30.1237L27.5843 38.8312C28.2155 39.3497 28.5311 40.2308 28.3208 41.0082L24.796 54.3289C24.3225 56.1948 26.3744 57.6978 28.0577 56.6612L39.7897 49.2495C40.5263 48.7831 41.4206 48.7831 42.1047 49.2495L53.8893 56.6612C55.5731 57.6978 57.6248 56.1948 57.1511 54.3289L53.6262 41.06C53.4684 40.2827 53.7315 39.4533 54.4156 38.9348H54.4157Z" fill="white"/>
</svg>
