<svg xmlns="http://www.w3.org/2000/svg" xmlns:xlink="http://www.w3.org/1999/xlink" viewBox="0 0 450 340" width="450" height="340" preserveAspectRatio="xMidYMid meet" style="width: 100%; height: 100%; transform: translate3d(0px, 0px, 0px); content-visibility: visible;"><defs><clipPath id="__lottie_element_882"><rect width="450" height="340" x="0" y="0"/></clipPath></defs><g clip-path="url(#__lottie_element_882)"><g transform="matrix(2.5,0,0,2.5,244.7969970703125,194.1730194091797)" opacity="1" style="display: block;"><g opacity="1" transform="matrix(4,0,0,4,0,0)"><path fill="rgb(27,44,63)" fill-opacity="1" d=" M9.496000289916992,1.559999942779541 C9.496000289916992,1.559999942779541 9.496000289916992,-7.835999965667725 9.496000289916992,-7.835999965667725 C9.496000289916992,-7.835999965667725 -9.496000289916992,-6.578000068664551 -9.496000289916992,-6.578000068664551 C-9.496000289916992,-6.578000068664551 -9.496000289916992,3.181999921798706 -9.496000289916992,3.181999921798706 C-7.760000228881836,3.559000015258789 -5.4710001945495605,4.276000022888184 -3.055999994277954,5.697000026702881 C-1.8739999532699585,6.401000022888184 -0.8679999709129333,7.144000053405762 -0.05000000074505806,7.835999965667725 C1.0820000171661377,6.6539998054504395 2.6540000438690186,5.232999801635742 4.742000102996826,3.9119999408721924 C6.489999771118164,2.818000078201294 8.125,2.062999963760376 9.496000289916992,1.559999942779541z"/></g></g><g transform="matrix(2.5,0,0,2.5,244.86199951171875,172.2055206298828)" opacity="1" style="display: block;"><g opacity="1" transform="matrix(4,0,0,4,0,0)"><path fill="rgb(150,206,234)" fill-opacity="1" d=" M9.48799991607666,0.3059999942779541 C9.48799991607666,0.3059999942779541 9.510000228881836,-5.605000019073486 9.510000228881836,-5.605000019073486 C9.510000228881836,-5.605000019073486 -9.487000465393066,-4.414000034332275 -9.487000465393066,-4.414000034332275 C-9.487000465393066,-4.414000034332275 -9.510000228881836,1.8869999647140503 -9.510000228881836,1.8869999647140503 C-9.510000228881836,1.8869999647140503 -0.26499998569488525,5.605000019073486 -0.26499998569488525,5.605000019073486 C-0.26499998569488525,5.605000019073486 9.48799991607666,0.3059999942779541 9.48799991607666,0.3059999942779541z"/></g></g><g transform="matrix(2.5,0,0,2.5,244.69699096679688,128.37301635742188)" opacity="1" style="display: block;"><g opacity="1" transform="matrix(4,0,0,4,0,0)"><path fill="rgb(27,44,63)" fill-opacity="1" d=" M-0.9679999947547913,-7.760000228881836 C-0.9679999947547913,-7.760000228881836 -16.459999084472656,1.3009999990463257 -16.459999084472656,1.3009999990463257 C-16.459999084472656,1.3009999990463257 -0.23000000417232513,7.760000228881836 -0.23000000417232513,7.760000228881836 C-0.23000000417232513,7.760000228881836 16.459999084472656,-1.3869999647140503 16.459999084472656,-1.3869999647140503 C16.459999084472656,-1.3869999647140503 -0.9679999947547913,-7.760000228881836 -0.9679999947547913,-7.760000228881836z"/></g></g><g transform="matrix(2.5,0,0,2.5,244.69699096679688,164.1505126953125)" opacity="1" style="display: block;"><g opacity="1" transform="matrix(4,0,0,4,0,0)"><path fill="rgb(57,74,96)" fill-opacity="1" d=" M-16.459999084472656,-2.2760000228881836 C-16.459999084472656,-2.2760000228881836 -16.459999084472656,-1.4950000047683716 -16.459999084472656,-1.4950000047683716 C-16.459999084472656,-1.4950000047683716 -0.23000000417232513,4.964000225067139 -0.23000000417232513,4.964000225067139 C-0.23000000417232513,4.964000225067139 16.459999084472656,-4.182000160217285 16.459999084472656,-4.182000160217285 C16.459999084472656,-4.182000160217285 16.459999084472656,-4.964000225067139 16.459999084472656,-4.964000225067139 C16.459999084472656,-4.964000225067139 -0.23000000417232513,4.182000160217285 -0.23000000417232513,4.182000160217285 C-0.23000000417232513,4.182000160217285 -16.459999084472656,-2.2760000228881836 -16.459999084472656,-2.2760000228881836z"/></g></g><g transform="matrix(2.5,0,0,2.5,159.75450134277344,194.4730224609375)" opacity="1" style="display: block;"><g opacity="1" transform="matrix(4,0,0,4,0,0)"><path stroke-linecap="round" stroke-linejoin="miter" fill-opacity="0" stroke-miterlimit="4" stroke="rgb(254,74,73)" stroke-opacity="1" stroke-width="0.5" d=" M-8.508000373840332,6.709000110626221 C-2.1640000343322754,3.3410000801086426 -2.3929998874664307,-3.2019999027252197 -2.3929998874664307,-3.2019999027252197 C-2.3929998874664307,-3.2019999027252197 8.508000373840332,-6.709000110626221 8.508000373840332,-6.709000110626221"/></g></g><g transform="matrix(2.5,0,0,2.5,68.36699676513672,266.49700927734375)" opacity="1" style="display: block;"><g opacity="1" transform="matrix(4,0,0,4,0,0)"><path fill="rgb(150,206,234)" fill-opacity="1" d=" M2.5209999084472656,-1.1260000467300415 C2.5209999084472656,-1.1260000467300415 1.6519999504089355,1.975000023841858 -1.187000036239624,2.1689999103546143 C-1.187000036239624,2.1689999103546143 -1.3869999647140503,1.9429999589920044 -2.0439999103546143,0.7870000004768372 C-2.687000036239624,-0.34200000762939453 -2.49399995803833,-0.9010000228881836 -2.49399995803833,-0.9010000228881836 C-1.4259999990463257,-0.8169999718666077 -0.37700000405311584,-1.1970000267028809 -0.37700000405311584,-1.1970000267028809 C-1.4229999780654907,-1.0470000505447388 -2.4590001106262207,-1.3839999437332153 -2.4590001106262207,-1.3839999437332153 C-2.4590001106262207,-1.3839999437332153 -2.437000036239624,-2.1559998989105225 -2.437000036239624,-2.1559998989105225 C-0.22499999403953552,-1.4129999876022339 2.059999942779541,-2.1689999103546143 2.059999942779541,-2.1689999103546143 C2.059999942779541,-2.1689999103546143 2.5209999084472656,-1.1260000467300415 2.5209999084472656,-1.1260000467300415z"/></g></g><g transform="matrix(2.5,0,0,2.5,97.89199829101562,246.01951599121094)" opacity="1" style="display: block;"><g opacity="1" transform="matrix(4,0,0,4,0,0)"><path fill="rgb(150,206,234)" fill-opacity="1" d=" M0.6980000138282776,-0.6510000228881836 C-0.10100000351667404,-1.4859999418258667 -0.8920000195503235,-0.12099999934434891 -0.8920000195503235,-0.12099999934434891 C-0.8920000195503235,-0.12099999934434891 -0.4309999942779541,0.9210000038146973 -0.4309999942779541,0.9210000038146973 C-0.4309999942779541,0.9210000038146973 1.496999979019165,0.18400000035762787 0.6980000138282776,-0.6510000228881836z"/></g></g><g transform="matrix(2.5,0,0,2.5,90.15950012207031,250.8520050048828)" opacity="1" style="display: block;"><g opacity="1" transform="matrix(4,0,0,4,0,0)"><path fill="rgb(255,72,67)" fill-opacity="1" d=" M0.6050000190734863,0.30399999022483826 C0.6050000190734863,0.30399999022483826 -0.041999999433755875,-0.7620000243186951 -0.041999999433755875,-0.7620000243186951 C-0.041999999433755875,-0.7620000243186951 -0.6050000190734863,-0.5070000290870667 -0.6050000190734863,-0.5070000290870667 C-0.6050000190734863,-0.5070000290870667 0.13199999928474426,0.7620000243186951 0.13199999928474426,0.7620000243186951 C0.13199999928474426,0.7620000243186951 0.6050000190734863,0.30399999022483826 0.6050000190734863,0.30399999022483826z"/></g></g></g></svg>