<svg width="818" height="507" viewBox="0 0 818 507" fill="none" xmlns="http://www.w3.org/2000/svg">
<path d="M661.792 374.703C681.513 369.953 707.074 369.22 732.349 356.073C773.346 334.749 796.132 307.644 810.888 267.675C826.713 224.814 815.017 187.976 786.811 153.708C769.936 133.21 740.613 118.114 717.156 106.169C689.884 92.284 671.854 84.3257 640.419 84.3257C613.162 84.3257 588.549 85.1974 561.75 90.1089C535.025 95.0063 511.238 106.147 485.142 112.08C440.852 122.151 384.954 117.64 343.513 99.1026C317.327 87.3894 289.896 73.5998 265.231 58.8878C242.844 45.5327 222.507 25.5932 198.794 14.9464C149.22 -7.31775 81.1374 -7.20491 39.1397 32.4203C21.1543 49.3892 -1.52689e-05 67.3145 -1.52689e-05 93.5789C-1.52689e-05 163.68 47.2447 239.627 83.693 293.395C107.298 328.215 134.019 359.718 154.246 396.417C185.988 454.009 218.676 488.929 282.227 502.931C334.436 514.435 376.869 499.908 417.162 479.804C471.426 452.729 528.726 432.507 584.025 407.981C609.96 396.478 633.95 381.41 661.792 374.703Z" fill="#8EABDE"/>
</svg>
