<svg xmlns="http://www.w3.org/2000/svg" xmlns:xlink="http://www.w3.org/1999/xlink" viewBox="0 0 300 370" width="300" height="370" preserveAspectRatio="xMidYMid meet" style="width: 100%; height: 100%; transform: translate3d(0px, 0px, 0px); content-visibility: visible;"><defs><clipPath id="__lottie_element_416"><rect width="300" height="370" x="0" y="0"/></clipPath></defs><g clip-path="url(#__lottie_element_416)"><g transform="matrix(10,0,0,10,157.12399291992188,121.57099914550781)" opacity="1" style="display: none;"><g opacity="1" transform="matrix(1,0,0,1,0,0)"><path fill="rgb(227,87,88)" fill-opacity="1" d=" M0.7799999713897705,-2.0999999046325684 C0.7799999713897705,-2.0999999046325684 -0.7799999713897705,-1.7170000076293945 -0.7799999713897705,-1.7170000076293945 C-0.7799999713897705,-1.7170000076293945 -0.6079999804496765,2.0999999046325684 -0.6079999804496765,2.0999999046325684 C-0.6079999804496765,2.0999999046325684 0.5519999861717224,2.0999999046325684 0.5519999861717224,2.0999999046325684 C0.5519999861717224,2.0999999046325684 0.7799999713897705,-2.0999999046325684 0.7799999713897705,-2.0999999046325684z"/></g></g><g transform="matrix(10,0,0,10,119.47899627685547,133.82200622558594)" opacity="1" style="display: none;"><g opacity="1" transform="matrix(0.9954095482826233,-0.0957067683339119,0.0957067683339119,0.9954095482826233,0,0)"><path fill="rgb(227,87,88)" fill-opacity="1" d=" M0.6669999957084656,-1.5490000247955322 C0.6669999957084656,-1.5490000247955322 -0.6669999957084656,-1.777999997138977 -0.6669999957084656,-1.777999997138977 C-0.6669999957084656,-1.777999997138977 -0.4440000057220459,1.777999997138977 -0.4440000057220459,1.777999997138977 C-0.4440000057220459,1.777999997138977 0.5989999771118164,1.777999997138977 0.5989999771118164,1.777999997138977 C0.5989999771118164,1.777999997138977 0.6669999957084656,-1.5490000247955322 0.6669999957084656,-1.5490000247955322z"/></g></g><g transform="matrix(-10,0,0,-10,192.30599975585938,132.3179931640625)" opacity="1" style="display: none;"><g opacity="1" transform="matrix(0.9954095482826233,0.0957067683339119,-0.0957067683339119,0.9954095482826233,0,0)"><path fill="rgb(227,87,88)" fill-opacity="1" d=" M0.5830000042915344,-1.7410000562667847 C0.5830000042915344,-1.7410000562667847 -0.46000000834465027,-1.7410000562667847 -0.46000000834465027,-1.7410000562667847 C-0.46000000834465027,-1.7410000562667847 -0.718999981880188,1.7410000562667847 -0.718999981880188,1.7410000562667847 C-0.718999981880188,1.7410000562667847 0.718999981880188,1.4980000257492065 0.718999981880188,1.4980000257492065 C0.718999981880188,1.4980000257492065 0.5830000042915344,-1.7410000562667847 0.5830000042915344,-1.7410000562667847z"/></g></g><g transform="matrix(10,0,0,10,155.52099609375,188.85299682617188)" opacity="1" style="display: none;"><g opacity="1" transform="matrix(1,0,0,1,0,0)"><path fill="rgb(249,155,155)" fill-opacity="1" d=" M8.29699993133545,-1.7130000591278076 C8.29699993133545,-1.7130000591278076 8.902000427246094,-5.176000118255615 8.902000427246094,-5.176000118255615 C8.902000427246094,-5.176000118255615 -8.902000427246094,-4.414999961853027 -8.902000427246094,-4.414999961853027 C-8.902000427246094,-4.414999961853027 -8.543000221252441,-2.0980000495910645 -8.543000221252441,-2.0980000495910645 C-8.543000221252441,-2.0980000495910645 -8.388999938964844,-1.184000015258789 -8.388999938964844,-1.184000015258789 C-8.388999938964844,-1.184000015258789 -8.350000381469727,-0.9259999990463257 -8.350000381469727,-0.9259999990463257 C-8.350000381469727,-0.9259999990463257 -8.180999755859375,0.1550000011920929 -8.180999755859375,0.1550000011920929 C-8.180999755859375,0.1550000011920929 -8.104999542236328,0.6299999952316284 -8.104999542236328,0.6299999952316284 C-8.104999542236328,0.6299999952316284 -8.00100040435791,1.3380000591278076 -8.00100040435791,1.3380000591278076 C-8.00100040435791,1.3380000591278076 -7.949999809265137,1.6360000371932983 -7.949999809265137,1.6360000371932983 C-7.949999809265137,1.6360000371932983 -7.885000228881836,2.0350000858306885 -7.885000228881836,2.0350000858306885 C-7.885000228881836,2.0350000858306885 -7.396999835968018,5.176000118255615 -7.396999835968018,5.176000118255615 C-7.396999835968018,5.176000118255615 7.139999866485596,4.932000160217285 7.139999866485596,4.932000160217285 C7.139999866485596,4.932000160217285 7.5,2.869999885559082 7.5,2.869999885559082 C7.5,2.869999885559082 7.691999912261963,1.7769999504089355 7.691999912261963,1.7769999504089355 C7.691999912261963,1.7769999504089355 7.7179999351501465,1.6230000257492065 7.7179999351501465,1.6230000257492065 C7.7179999351501465,1.6230000257492065 7.88700008392334,0.7070000171661377 7.88700008392334,0.7070000171661377 C7.88700008392334,0.7070000171661377 7.9120001792907715,0.5289999842643738 7.9120001792907715,0.5289999842643738 C7.9120001792907715,0.5289999842643738 8.104999542236328,-0.6299999952316284 8.104999542236328,-0.6299999952316284 C8.104999542236328,-0.6299999952316284 8.170000076293945,-1.003999948501587 8.170000076293945,-1.003999948501587 C8.170000076293945,-1.003999948501587 8.29699993133545,-1.7130000591278076 8.29699993133545,-1.7130000591278076z"/></g></g><g transform="matrix(10,0,0,10,219.74000549316406,183.00100708007812)" opacity="1" style="display: none;"><g opacity="1" transform="matrix(1,0,0,1,0,0)"><path fill="rgb(238,138,138)" fill-opacity="1" d=" M0.9549999833106995,4.5229997634887695 C0.9549999833106995,4.5229997634887695 2.441999912261963,-4.5229997634887695 2.441999912261963,-4.5229997634887695 C2.441999912261963,-4.5229997634887695 0.9819999933242798,-4.5229997634887695 0.9819999933242798,-4.5229997634887695 C0.9819999933242798,-4.5229997634887695 -2.441999912261963,3.687999963760376 -2.441999912261963,3.687999963760376 C-2.441999912261963,3.687999963760376 0.9549999833106995,4.5229997634887695 0.9549999833106995,4.5229997634887695z"/></g></g><g transform="matrix(10,0,0,10,154.42599487304688,186.47300720214844)" opacity="1" style="display: none;"><g opacity="1" transform="matrix(1,0,0,1,0,0)"><path fill="rgb(255,233,233)" fill-opacity="1" d=" M8.21500015258789,-0.3919999897480011 C8.21500015258789,-0.3919999897480011 8.279000282287598,-0.7649999856948853 8.279000282287598,-0.7649999856948853 C8.279000282287598,-0.7649999856948853 -8.279000282287598,-0.9459999799728394 -8.279000282287598,-0.9459999799728394 C-8.279000282287598,-0.9459999799728394 -8.241000175476074,-0.6880000233650208 -8.241000175476074,-0.6880000233650208 C-8.241000175476074,-0.6880000233650208 -8.071999549865723,0.3930000066757202 -8.071999549865723,0.3930000066757202 C-8.071999549865723,0.3930000066757202 -8.031000137329102,0.6330000162124634 -8.031000137329102,0.6330000162124634 C-8.031000137329102,0.6330000162124634 7.995999813079834,0.9459999799728394 7.995999813079834,0.9459999799728394 C7.995999813079834,0.9459999799728394 8.022000312805176,0.7670000195503235 8.022000312805176,0.7670000195503235 C8.022000312805176,0.7670000195503235 8.21500015258789,-0.3919999897480011 8.21500015258789,-0.3919999897480011z"/></g></g><g transform="matrix(10,0,0,10,155.5500030517578,151.66299438476562)" opacity="1" style="display: none;"><g opacity="1" transform="matrix(1,0,0,1,0,0)"><path fill="rgb(238,138,138)" fill-opacity="1" d=" M-6.314000129699707,1.2860000133514404 C-6.314000129699707,1.2860000133514404 -8.89900016784668,-0.746999979019165 -8.89900016784668,-0.746999979019165 C-8.89900016784668,-0.746999979019165 8.89900016784668,-1.5069999694824219 8.89900016784668,-1.5069999694824219 C8.89900016784668,-1.5069999694824219 6.76800012588501,0.6970000267028809 6.76800012588501,0.6970000267028809 C6.361000061035156,1.0880000591278076 5.795000076293945,1.1660000085830688 5.318999767303467,0.9010000228881836 C5.318999767303467,0.9010000228881836 3.5290000438690186,-0.09799999743700027 3.5290000438690186,-0.09799999743700027 C3.072000026702881,-0.3529999852180481 2.5280001163482666,-0.28999999165534973 2.124000072479248,0.06499999761581421 C2.124000072479248,0.06499999761581421 1.0110000371932983,1.0429999828338623 1.0110000371932983,1.0429999828338623 C0.5839999914169312,1.4190000295639038 0.004000000189989805,1.4670000076293945 -0.4650000035762787,1.1640000343322754 C-0.4650000035762787,1.1640000343322754 -2.114000082015991,0.10100000351667404 -2.114000082015991,0.10100000351667404 C-2.565000057220459,-0.18799999356269836 -3.118000030517578,-0.1589999943971634 -3.5420000553131104,0.1809999942779541 C-3.5420000553131104,0.1809999942779541 -4.85099983215332,1.2289999723434448 -4.85099983215332,1.2289999723434448 C-5.2870001792907715,1.5779999494552612 -5.860000133514404,1.6009999513626099 -6.314000129699707,1.2860000133514404z"/></g></g><g transform="matrix(10,0,0,10,155.79400634765625,149.51100158691406)" opacity="1" style="display: none;"><g opacity="1" transform="matrix(1,0,0,1,0,0)"><path fill="rgb(255,187,187)" fill-opacity="1" d=" M-6.334000110626221,1.0509999990463257 C-6.334000110626221,1.0509999990463257 -8.904000282287598,-0.4819999933242798 -8.904000282287598,-0.4819999933242798 C-8.904000282287598,-0.4819999933242798 8.904000282287598,-1.2419999837875366 8.904000282287598,-1.2419999837875366 C8.904000282287598,-1.2419999837875366 6.748000144958496,0.5419999957084656 6.748000144958496,0.5419999957084656 C6.341000080108643,0.8790000081062317 5.77400016784668,0.9480000138282776 5.297999858856201,0.718999981880188 C5.297999858856201,0.718999981880188 3.507999897003174,-0.14399999380111694 3.507999897003174,-0.14399999380111694 C3.0510001182556152,-0.36399999260902405 2.507999897003174,-0.3100000023841858 2.1040000915527344,-0.004000000189989805 C2.1040000915527344,-0.004000000189989805 0.9900000095367432,0.8410000205039978 0.9900000095367432,0.8410000205039978 C0.5630000233650208,1.1649999618530273 -0.01600000075995922,1.2059999704360962 -0.48500001430511475,0.9449999928474426 C-0.48500001430511475,0.9449999928474426 -2.134999990463257,0.027000000700354576 -2.134999990463257,0.027000000700354576 C-2.5859999656677246,-0.22300000488758087 -3.138000011444092,-0.19699999690055847 -3.562000036239624,0.09700000286102295 C-3.562000036239624,0.09700000286102295 -4.872000217437744,1.0019999742507935 -4.872000217437744,1.0019999742507935 C-5.308000087738037,1.3029999732971191 -5.880000114440918,1.3229999542236328 -6.334000110626221,1.0509999990463257z"/></g></g><g transform="matrix(10,0,0,10,154.23699951171875,223.91299438476562)" opacity="1" style="display: none;"><g opacity="1" transform="matrix(1,0,0,1,0,0)"><path fill="rgb(227,87,88)" fill-opacity="1" d=" M7.629000186920166,-0.5360000133514404 C7.629000186920166,-0.5360000133514404 7.821000099182129,-1.628999948501587 7.821000099182129,-1.628999948501587 C7.821000099182129,-1.628999948501587 -7.821000099182129,-1.7699999809265137 -7.821000099182129,-1.7699999809265137 C-7.821000099182129,-1.7699999809265137 -7.75600004196167,-1.371000051498413 -7.75600004196167,-1.371000051498413 C-7.75600004196167,-1.371000051498413 -7.269000053405762,1.7699999809265137 -7.269000053405762,1.7699999809265137 C-7.269000053405762,1.7699999809265137 7.269000053405762,1.5260000228881836 7.269000053405762,1.5260000228881836 C7.269000053405762,1.5260000228881836 7.629000186920166,-0.5360000133514404 7.629000186920166,-0.5360000133514404z"/></g></g><g transform="matrix(10,0,0,10,155.5240020751953,257.52899169921875)" opacity="1" style="display: none;"><g opacity="1" transform="matrix(1,0,0,1,0,0)"><path fill="rgb(249,155,155)" fill-opacity="1" d=" M12.006999969482422,-0.46399998664855957 C12.006999969482422,-0.46399998664855957 12.72700023651123,-3.861999988555908 12.72700023651123,-3.861999988555908 C12.72700023651123,-3.861999988555908 7.500999927520752,-4.146999835968018 7.500999927520752,-4.146999835968018 C7.500999927520752,-4.146999835968018 -7.885000228881836,-4.982999801635742 -7.885000228881836,-4.982999801635742 C-7.885000228881836,-4.982999801635742 -12.72700023651123,-5.239999771118164 -12.72700023651123,-5.239999771118164 C-12.72700023651123,-5.239999771118164 -11.928999900817871,-0.593999981880188 -11.928999900817871,-0.593999981880188 C-11.928999900817871,-0.593999981880188 -11.824000358581543,-0.013000000268220901 -11.824000358581543,-0.013000000268220901 C-11.824000358581543,-0.013000000268220901 -11.720999717712402,0.6039999723434448 -11.720999717712402,0.6039999723434448 C-11.720999717712402,0.6039999723434448 -11.567999839782715,1.5190000534057617 -11.567999839782715,1.5190000534057617 C-11.567999839782715,1.5190000534057617 -11.46399974822998,2.0989999771118164 -11.46399974822998,2.0989999771118164 C-11.46399974822998,2.0989999771118164 -11.362000465393066,2.7170000076293945 -11.362000465393066,2.7170000076293945 C-11.362000465393066,2.7170000076293945 -11.206000328063965,3.5910000801086426 -11.206000328063965,3.5910000801086426 C-11.206000328063965,3.5910000801086426 -10.923999786376953,5.239999771118164 -10.923999786376953,5.239999771118164 C-10.923999786376953,5.239999771118164 10.8100004196167,5.239999771118164 10.8100004196167,5.239999771118164 C10.8100004196167,5.239999771118164 11.092000007629395,3.9130001068115234 11.092000007629395,3.9130001068115234 C11.092000007629395,3.9130001068115234 11.338000297546387,2.7170000076293945 11.338000297546387,2.7170000076293945 C11.338000297546387,2.7170000076293945 11.46500015258789,2.0989999771118164 11.46500015258789,2.0989999771118164 C11.46500015258789,2.0989999771118164 11.567999839782715,1.6349999904632568 11.567999839782715,1.6349999904632568 C11.567999839782715,1.6349999904632568 11.786999702453613,0.6039999723434448 11.786999702453613,0.6039999723434448 C11.786999702453613,0.6039999723434448 11.876999855041504,0.16699999570846558 11.876999855041504,0.16699999570846558 C11.876999855041504,0.16699999570846558 12.006999969482422,-0.46399998664855957 12.006999969482422,-0.46399998664855957z"/></g></g><g transform="matrix(10,0,0,10,254.19500732421875,263.9159851074219)" opacity="1" style="display: none;"><g opacity="1" transform="matrix(1,0,0,1,0,0)"><path fill="rgb(238,138,138)" fill-opacity="1" d=" M2.140000104904175,-1.1519999504089355 C2.140000104904175,-1.1519999504089355 2.859999895095825,-4.551000118255615 2.859999895095825,-4.551000118255615 C2.859999895095825,-4.551000118255615 0.6060000061988831,-4.551000118255615 0.6060000061988831,-4.551000118255615 C0.6060000061988831,-4.551000118255615 -2.859999895095825,4.551000118255615 -2.859999895095825,4.551000118255615 C-2.859999895095825,4.551000118255615 0.9419999718666077,4.551000118255615 0.9419999718666077,4.551000118255615 C0.9419999718666077,4.551000118255615 1.2239999771118164,3.2239999771118164 1.2239999771118164,3.2239999771118164 C1.2239999771118164,3.2239999771118164 1.4700000286102295,2.0280001163482666 1.4700000286102295,2.0280001163482666 C1.4700000286102295,2.0280001163482666 1.5980000495910645,1.409999966621399 1.5980000495910645,1.409999966621399 C1.5980000495910645,1.409999966621399 1.7009999752044678,0.9459999799728394 1.7009999752044678,0.9459999799728394 C1.7009999752044678,0.9459999799728394 1.9199999570846558,-0.08500000089406967 1.9199999570846558,-0.08500000089406967 C1.9199999570846558,-0.08500000089406967 2.009999990463257,-0.5210000276565552 2.009999990463257,-0.5210000276565552 C2.009999990463257,-0.5210000276565552 2.140000104904175,-1.1519999504089355 2.140000104904175,-1.1519999504089355z"/></g></g><g transform="matrix(10,0,0,10,155.78599548339844,269.9590148925781)" opacity="1" style="display: none;"><g opacity="1" transform="matrix(1,0,0,1,0,0)"><path fill="rgb(255,233,233)" fill-opacity="1" d=" M11.76099967956543,-0.4390000104904175 C11.76099967956543,-0.4390000104904175 11.85099983215332,-0.875 11.85099983215332,-0.875 C11.85099983215332,-0.875 -11.85099983215332,-1.055999994277954 -11.85099983215332,-1.055999994277954 C-11.85099983215332,-1.055999994277954 -11.748000144958496,-0.4390000104904175 -11.748000144958496,-0.4390000104904175 C-11.748000144958496,-0.4390000104904175 -11.593999862670898,0.47600001096725464 -11.593999862670898,0.47600001096725464 C-11.593999862670898,0.47600001096725464 -11.489999771118164,1.055999994277954 -11.489999771118164,1.055999994277954 C-11.489999771118164,1.055999994277954 11.48799991607666,0.8429999947547913 11.48799991607666,0.8429999947547913 C11.48799991607666,0.8429999947547913 11.541999816894531,0.5920000076293945 11.541999816894531,0.5920000076293945 C11.541999816894531,0.5920000076293945 11.76099967956543,-0.4390000104904175 11.76099967956543,-0.4390000104904175z"/></g></g><g transform="matrix(10,0,0,10,154.9409942626953,303.6830139160156)" opacity="1" style="display: none;"><g opacity="1" transform="matrix(1,0,0,1,0,0)"><path fill="rgb(227,87,88)" fill-opacity="1" d=" M10.866999626159668,0.824999988079071 C10.866999626159668,0.824999988079071 11.14900016784668,-0.503000020980835 11.14900016784668,-0.503000020980835 C11.14900016784668,-0.503000020980835 -11.14900016784668,-0.824999988079071 -11.14900016784668,-0.824999988079071 C-11.14900016784668,-0.824999988079071 -10.866999626159668,0.824999988079071 -10.866999626159668,0.824999988079071 C-10.866999626159668,0.824999988079071 10.866999626159668,0.824999988079071 10.866999626159668,0.824999988079071z"/></g></g><g transform="matrix(10,0,0,10,156.55299377441406,227.34500122070312)" opacity="1" style="display: none;"><g opacity="1" transform="matrix(1,0,0,1,0,0)"><path fill="rgb(238,138,138)" fill-opacity="1" d=" M-8.946999549865723,1.3040000200271606 C-8.946999549865723,1.3040000200271606 -12.732000350952148,-2.0769999027252197 -12.732000350952148,-2.0769999027252197 C-12.732000350952148,-2.0769999027252197 12.732000350952148,-0.6850000023841858 12.732000350952148,-0.6850000023841858 C12.732000350952148,-0.6850000023841858 9.406999588012695,1.7640000581741333 9.406999588012695,1.7640000581741333 C8.72700023651123,2.183000087738037 7.889999866485596,2.180999994277954 7.210999965667725,1.7580000162124634 C7.210999965667725,1.7580000162124634 5.192999839782715,0.4970000088214874 5.192999839782715,0.4970000088214874 C4.480000019073486,0.052000001072883606 3.5959999561309814,0.07199999690055847 2.9019999504089355,0.5509999990463257 C2.9019999504089355,0.5509999990463257 1.6100000143051147,1.4420000314712524 1.6100000143051147,1.4420000314712524 C0.843999981880188,1.9709999561309814 -0.1469999998807907,1.9359999895095825 -0.8799999952316284,1.3559999465942383 C-0.8799999952316284,1.3559999465942383 -2.2139999866485596,0.3009999990463257 -2.2139999866485596,0.3009999990463257 C-2.944000005722046,-0.2770000100135803 -3.928999900817871,-0.3149999976158142 -4.693999767303467,0.2070000022649765 C-4.693999767303467,0.2070000022649765 -6.455999851226807,1.406000018119812 -6.455999851226807,1.406000018119812 C-7.22599983215332,1.9299999475479126 -8.217000007629395,1.8890000581741333 -8.946999549865723,1.3040000200271606z"/></g></g><g transform="matrix(10,0,0,10,155.53700256347656,224.427001953125)" opacity="1" style="display: none;"><g opacity="1" transform="matrix(1,0,0,1,0,0)"><path fill="rgb(255,187,187)" fill-opacity="1" d=" M-8.923999786376953,1.059999942779541 C-8.923999786376953,1.059999942779541 -12.727999687194824,-1.7799999713897705 -12.727999687194824,-1.7799999713897705 C-12.727999687194824,-1.7799999713897705 12.727999687194824,-0.4000000059604645 12.727999687194824,-0.4000000059604645 C12.727999687194824,-0.4000000059604645 9.430000305175781,1.4889999628067017 9.430000305175781,1.4889999628067017 C8.75,1.878999948501587 7.913000106811523,1.8769999742507935 7.234000205993652,1.4830000400543213 C7.234000205993652,1.4830000400543213 5.216000080108643,0.3100000023841858 5.216000080108643,0.3100000023841858 C4.502999782562256,-0.10499999672174454 3.61899995803833,-0.08500000089406967 2.924999952316284,0.36000001430511475 C2.924999952316284,0.36000001430511475 1.6330000162124634,1.1890000104904175 1.6330000162124634,1.1890000104904175 C0.8669999837875366,1.680999994277954 -0.12399999797344208,1.6480000019073486 -0.8569999933242798,1.1089999675750732 C-0.8569999933242798,1.1089999675750732 -2.190999984741211,0.12700000405311584 -2.190999984741211,0.12700000405311584 C-2.9210000038146973,-0.41100001335144043 -3.9059998989105225,-0.44600000977516174 -4.671000003814697,0.039000000804662704 C-4.671000003814697,0.039000000804662704 -6.434000015258789,1.156000018119812 -6.434000015258789,1.156000018119812 C-7.203999996185303,1.6440000534057617 -8.194000244140625,1.6050000190734863 -8.923999786376953,1.059999942779541z"/></g></g><g transform="matrix(10,0,0,10,150.5,311.8840026855469)" opacity="1" style="display: none;"><g opacity="1" transform="matrix(1,0,0,1,0,0)"><path fill="rgb(35,54,78)" fill-opacity="1" d=" M13.338000297546387,-0.8529999852180481 C13.338000297546387,-0.8529999852180481 -13.338000297546387,-0.8529999852180481 -13.338000297546387,-0.8529999852180481 C-13.338000297546387,-0.8529999852180481 -13.338000297546387,0.8529999852180481 -13.338000297546387,0.8529999852180481 C-13.338000297546387,0.8529999852180481 13.338000297546387,0.8529999852180481 13.338000297546387,0.8529999852180481 C13.338000297546387,0.8529999852180481 13.338000297546387,-0.8529999852180481 13.338000297546387,-0.8529999852180481z"/></g></g><g transform="matrix(10,0,0,10,117.9000015258789,101.73799896240234)" opacity="1" style="display: none;"><g opacity="1" transform="matrix(1,0,0,1,0,0)"><path fill="rgb(255,203,133)" fill-opacity="1" d=" M-0.6359999775886536,0.8220000267028809 C-0.2849999964237213,1.1729999780654907 0.2849999964237213,1.1729999780654907 0.6359999775886536,0.8220000267028809 C0.9869999885559082,0.47099998593330383 0.9869999885559082,-0.0989999994635582 0.6359999775886536,-0.44999998807907104 C0.6359999775886536,-0.44999998807907104 0,-1.0859999656677246 0,-1.0859999656677246 C0,-1.0859999656677246 -0.6359999775886536,-0.44999998807907104 -0.6359999775886536,-0.44999998807907104 C-0.9869999885559082,-0.0989999994635582 -0.9869999885559082,0.47099998593330383 -0.6359999775886536,0.8220000267028809z"/></g></g><g transform="matrix(10,0,0,10,117.90499877929688,105.4280014038086)" opacity="1" style="display: none;"><g opacity="1" transform="matrix(1,0,0,1,0,0)"><path fill="rgb(255,232,204)" fill-opacity="1" d=" M-0.3580000102519989,0.4620000123977661 C-0.16099999845027924,0.6589999794960022 0.1599999964237213,0.6589999794960022 0.3569999933242798,0.4620000123977661 C0.5550000071525574,0.26499998569488525 0.5550000071525574,-0.054999999701976776 0.3580000102519989,-0.25200000405311584 C0.3580000102519989,-0.25200000405311584 0,-0.6100000143051147 0,-0.6100000143051147 C0,-0.6100000143051147 -0.3580000102519989,-0.25200000405311584 -0.3580000102519989,-0.25200000405311584 C-0.5550000071525574,-0.054999999701976776 -0.5550000071525574,0.26499998569488525 -0.3580000102519989,0.4620000123977661z"/></g></g><g transform="matrix(10,0,0,10,157.13800048828125,85.14099884033203)" opacity="1" style="display: none;"><g opacity="1" transform="matrix(1,0,0,1,0,0)"><path fill="rgb(255,203,133)" fill-opacity="1" d=" M-0.6359999775886536,0.8220000267028809 C-0.2849999964237213,1.1729999780654907 0.2849999964237213,1.1729999780654907 0.6359999775886536,0.8220000267028809 C0.9869999885559082,0.47099998593330383 0.9869999885559082,-0.0989999994635582 0.6359999775886536,-0.44999998807907104 C0.6359999775886536,-0.44999998807907104 0,-1.0859999656677246 0,-1.0859999656677246 C0,-1.0859999656677246 -0.6359999775886536,-0.44999998807907104 -0.6359999775886536,-0.44999998807907104 C-0.9869999885559082,-0.0989999994635582 -0.9869999885559082,0.47099998593330383 -0.6359999775886536,0.8220000267028809z"/></g></g><g transform="matrix(10,0,0,10,157.1580047607422,88.8290023803711)" opacity="1" style="display: none;"><g opacity="1" transform="matrix(1,0,0,1,0,0)"><path fill="rgb(255,232,204)" fill-opacity="1" d=" M-0.3569999933242798,0.4620000123977661 C-0.1599999964237213,0.6589999794960022 0.1599999964237213,0.6589999794960022 0.3569999933242798,0.4620000123977661 C0.5540000200271606,0.2639999985694885 0.5540000200271606,-0.054999999701976776 0.3580000102519989,-0.25200000405311584 C0.3580000102519989,-0.25200000405311584 0.0010000000474974513,-0.6100000143051147 0.0010000000474974513,-0.6100000143051147 C0.0010000000474974513,-0.6100000143051147 -0.3569999933242798,-0.25200000405311584 -0.3569999933242798,-0.25200000405311584 C-0.5540000200271606,-0.054999999701976776 -0.5540000200271606,0.26499998569488525 -0.3569999933242798,0.4620000123977661z"/></g></g><g transform="matrix(10,0,0,10,194.25599670410156,101.48799896240234)" opacity="1" style="display: none;"><g opacity="1" transform="matrix(1,0,0,1,0,0)"><path fill="rgb(255,203,133)" fill-opacity="1" d=" M-0.6359999775886536,0.8220000267028809 C-0.2849999964237213,1.1729999780654907 0.2849999964237213,1.1729999780654907 0.6359999775886536,0.8220000267028809 C0.9869999885559082,0.47099998593330383 0.9869999885559082,-0.0989999994635582 0.6359999775886536,-0.44999998807907104 C0.6359999775886536,-0.44999998807907104 0,-1.0859999656677246 0,-1.0859999656677246 C0,-1.0859999656677246 -0.6359999775886536,-0.44999998807907104 -0.6359999775886536,-0.44999998807907104 C-0.9869999885559082,-0.0989999994635582 -0.9869999885559082,0.47099998593330383 -0.6359999775886536,0.8220000267028809z"/></g></g><g transform="matrix(10,0,0,10,194.24099731445312,105.1780014038086)" opacity="1" style="display: none;"><g opacity="1" transform="matrix(1,0,0,1,0,0)"><path fill="rgb(255,232,204)" fill-opacity="1" d=" M-0.3580000102519989,0.4620000123977661 C-0.16099999845027924,0.6589999794960022 0.1599999964237213,0.6589999794960022 0.3569999933242798,0.4620000123977661 C0.5550000071525574,0.26499998569488525 0.5550000071525574,-0.054999999701976776 0.3580000102519989,-0.25200000405311584 C0.3580000102519989,-0.25200000405311584 0,-0.6100000143051147 0,-0.6100000143051147 C0,-0.6100000143051147 -0.3580000102519989,-0.25200000405311584 -0.3580000102519989,-0.25200000405311584 C-0.5550000071525574,-0.054999999701976776 -0.5550000071525574,0.26499998569488525 -0.3580000102519989,0.4620000123977661z"/></g></g><g transform="matrix(10,0,0,10,156.03700256347656,60.262001037597656)" opacity="1" style="display: none;"><g opacity="1" transform="matrix(1,0,0,1,0,0)"><path fill="rgb(255,203,133)" fill-opacity="1" d=" M0.16099999845027924,-0.45649999380111694 C0.16099999845027924,-0.45649999380111694 0.16099999845027924,0.45649999380111694 0.16099999845027924,0.45649999380111694 C0.16099999845027924,0.5453559160232544 0.08885589987039566,0.6175000071525574 0,0.6175000071525574 C0,0.6175000071525574 0,0.6175000071525574 0,0.6175000071525574 C-0.08885589987039566,0.6175000071525574 -0.16099999845027924,0.5453559160232544 -0.16099999845027924,0.45649999380111694 C-0.16099999845027924,0.45649999380111694 -0.16099999845027924,-0.45649999380111694 -0.16099999845027924,-0.45649999380111694 C-0.16099999845027924,-0.5453559160232544 -0.08885589987039566,-0.6175000071525574 0,-0.6175000071525574 C0,-0.6175000071525574 0,-0.6175000071525574 0,-0.6175000071525574 C0.08885589987039566,-0.6175000071525574 0.16099999845027924,-0.5453559160232544 0.16099999845027924,-0.45649999380111694z"/></g></g><g transform="matrix(10,0,0,10,172.5749969482422,74.84200286865234)" opacity="1" style="display: none;"><g opacity="1" transform="matrix(0.250988245010376,0.9679901599884033,-0.9679901599884033,0.250988245010376,0,0)"><path fill="rgb(255,203,133)" fill-opacity="1" d=" M0.16099999845027924,-0.45649999380111694 C0.16099999845027924,-0.45649999380111694 0.16099999845027924,0.45649999380111694 0.16099999845027924,0.45649999380111694 C0.16099999845027924,0.5453559160232544 0.08885589987039566,0.6175000071525574 0,0.6175000071525574 C0,0.6175000071525574 0,0.6175000071525574 0,0.6175000071525574 C-0.08885589987039566,0.6175000071525574 -0.16099999845027924,0.5453559160232544 -0.16099999845027924,0.45649999380111694 C-0.16099999845027924,0.45649999380111694 -0.16099999845027924,-0.45649999380111694 -0.16099999845027924,-0.45649999380111694 C-0.16099999845027924,-0.5453559160232544 -0.08885589987039566,-0.6175000071525574 0,-0.6175000071525574 C0,-0.6175000071525574 0,-0.6175000071525574 0,-0.6175000071525574 C0.08885589987039566,-0.6175000071525574 0.16099999845027924,-0.5453559160232544 0.16099999845027924,-0.45649999380111694z"/></g></g><g transform="matrix(-10,0,0,10,177.32200622558594,94.09200286865234)" opacity="1" style="display: none;"><g opacity="1" transform="matrix(0.250988245010376,0.9679901599884033,-0.9679901599884033,0.250988245010376,0,0)"><path fill="rgb(255,203,133)" fill-opacity="1" d=" M0.16099999845027924,-0.45649999380111694 C0.16099999845027924,-0.45649999380111694 0.16099999845027924,0.45649999380111694 0.16099999845027924,0.45649999380111694 C0.16099999845027924,0.5453559160232544 0.08885589987039566,0.6175000071525574 0,0.6175000071525574 C0,0.6175000071525574 0,0.6175000071525574 0,0.6175000071525574 C-0.08885589987039566,0.6175000071525574 -0.16099999845027924,0.5453559160232544 -0.16099999845027924,0.45649999380111694 C-0.16099999845027924,0.45649999380111694 -0.16099999845027924,-0.45649999380111694 -0.16099999845027924,-0.45649999380111694 C-0.16099999845027924,-0.5453559160232544 -0.08885589987039566,-0.6175000071525574 0,-0.6175000071525574 C0,-0.6175000071525574 0,-0.6175000071525574 0,-0.6175000071525574 C0.08885589987039566,-0.6175000071525574 0.16099999845027924,-0.5453559160232544 0.16099999845027924,-0.45649999380111694z"/></g></g><g transform="matrix(10,0,0,10,166.19500732421875,64.83200073242188)" opacity="1" style="display: none;"><g opacity="1" transform="matrix(0.7685404419898987,0.6398012638092041,-0.6398012638092041,0.7685404419898987,0,0)"><path fill="rgb(255,232,204)" fill-opacity="1" d=" M0.16099999845027924,-0.45649999380111694 C0.16099999845027924,-0.45649999380111694 0.16099999845027924,0.45649999380111694 0.16099999845027924,0.45649999380111694 C0.16099999845027924,0.5453559160232544 0.08885589987039566,0.6175000071525574 0,0.6175000071525574 C0,0.6175000071525574 0,0.6175000071525574 0,0.6175000071525574 C-0.08885589987039566,0.6175000071525574 -0.16099999845027924,0.5453559160232544 -0.16099999845027924,0.45649999380111694 C-0.16099999845027924,0.45649999380111694 -0.16099999845027924,-0.45649999380111694 -0.16099999845027924,-0.45649999380111694 C-0.16099999845027924,-0.5453559160232544 -0.08885589987039566,-0.6175000071525574 0,-0.6175000071525574 C0,-0.6175000071525574 0,-0.6175000071525574 0,-0.6175000071525574 C0.08885589987039566,-0.6175000071525574 0.16099999845027924,-0.5453559160232544 0.16099999845027924,-0.45649999380111694z"/></g></g><g transform="matrix(-10,0,0,10,145.7550048828125,64.94000244140625)" opacity="1" style="display: none;"><g opacity="1" transform="matrix(0.7685404419898987,0.6398012638092041,-0.6398012638092041,0.7685404419898987,0,0)"><path fill="rgb(255,232,204)" fill-opacity="1" d=" M0.16099999845027924,-0.45649999380111694 C0.16099999845027924,-0.45649999380111694 0.16099999845027924,0.45649999380111694 0.16099999845027924,0.45649999380111694 C0.16099999845027924,0.5453559160232544 0.08885589987039566,0.6175000071525574 0,0.6175000071525574 C0,0.6175000071525574 0,0.6175000071525574 0,0.6175000071525574 C-0.08885589987039566,0.6175000071525574 -0.16099999845027924,0.5453559160232544 -0.16099999845027924,0.45649999380111694 C-0.16099999845027924,0.45649999380111694 -0.16099999845027924,-0.45649999380111694 -0.16099999845027924,-0.45649999380111694 C-0.16099999845027924,-0.5453559160232544 -0.08885589987039566,-0.6175000071525574 0,-0.6175000071525574 C0,-0.6175000071525574 0,-0.6175000071525574 0,-0.6175000071525574 C0.08885589987039566,-0.6175000071525574 0.16099999845027924,-0.5453559160232544 0.16099999845027924,-0.45649999380111694z"/></g></g><g transform="matrix(10,0,0,10,194.48699951171875,80.33300018310547)" opacity="1" style="display: none;"><g opacity="1" transform="matrix(1,0,0,1,0,0)"><path fill="rgb(255,203,133)" fill-opacity="1" d=" M0.16099999845027924,-0.45649999380111694 C0.16099999845027924,-0.45649999380111694 0.16099999845027924,0.45649999380111694 0.16099999845027924,0.45649999380111694 C0.16099999845027924,0.5453559160232544 0.08885589987039566,0.6175000071525574 0,0.6175000071525574 C0,0.6175000071525574 0,0.6175000071525574 0,0.6175000071525574 C-0.08885589987039566,0.6175000071525574 -0.16099999845027924,0.5453559160232544 -0.16099999845027924,0.45649999380111694 C-0.16099999845027924,0.45649999380111694 -0.16099999845027924,-0.45649999380111694 -0.16099999845027924,-0.45649999380111694 C-0.16099999845027924,-0.5453559160232544 -0.08885589987039566,-0.6175000071525574 0,-0.6175000071525574 C0,-0.6175000071525574 0,-0.6175000071525574 0,-0.6175000071525574 C0.08885589987039566,-0.6175000071525574 0.16099999845027924,-0.5453559160232544 0.16099999845027924,-0.45649999380111694z"/></g></g><g transform="matrix(10,0,0,10,210.5240020751953,94.91300201416016)" opacity="1" style="display: none;"><g opacity="1" transform="matrix(0.250988245010376,0.9679901599884033,-0.9679901599884033,0.250988245010376,0,0)"><path fill="rgb(255,203,133)" fill-opacity="1" d=" M0.16099999845027924,-0.45649999380111694 C0.16099999845027924,-0.45649999380111694 0.16099999845027924,0.45649999380111694 0.16099999845027924,0.45649999380111694 C0.16099999845027924,0.5453559160232544 0.08885589987039566,0.6175000071525574 0,0.6175000071525574 C0,0.6175000071525574 0,0.6175000071525574 0,0.6175000071525574 C-0.08885589987039566,0.6175000071525574 -0.16099999845027924,0.5453559160232544 -0.16099999845027924,0.45649999380111694 C-0.16099999845027924,0.45649999380111694 -0.16099999845027924,-0.45649999380111694 -0.16099999845027924,-0.45649999380111694 C-0.16099999845027924,-0.5453559160232544 -0.08885589987039566,-0.6175000071525574 0,-0.6175000071525574 C0,-0.6175000071525574 0,-0.6175000071525574 0,-0.6175000071525574 C0.08885589987039566,-0.6175000071525574 0.16099999845027924,-0.5453559160232544 0.16099999845027924,-0.45649999380111694z"/></g></g><g transform="matrix(-10,0,0,10,139.64700317382812,74.41300201416016)" opacity="1" style="display: none;"><g opacity="1" transform="matrix(0.250988245010376,0.9679901599884033,-0.9679901599884033,0.250988245010376,0,0)"><path fill="rgb(255,203,133)" fill-opacity="1" d=" M0.16099999845027924,-0.45649999380111694 C0.16099999845027924,-0.45649999380111694 0.16099999845027924,0.45649999380111694 0.16099999845027924,0.45649999380111694 C0.16099999845027924,0.5453559160232544 0.08885589987039566,0.6175000071525574 0,0.6175000071525574 C0,0.6175000071525574 0,0.6175000071525574 0,0.6175000071525574 C-0.08885589987039566,0.6175000071525574 -0.16099999845027924,0.5453559160232544 -0.16099999845027924,0.45649999380111694 C-0.16099999845027924,0.45649999380111694 -0.16099999845027924,-0.45649999380111694 -0.16099999845027924,-0.45649999380111694 C-0.16099999845027924,-0.5453559160232544 -0.08885589987039566,-0.6175000071525574 0,-0.6175000071525574 C0,-0.6175000071525574 0,-0.6175000071525574 0,-0.6175000071525574 C0.08885589987039566,-0.6175000071525574 0.16099999845027924,-0.5453559160232544 0.16099999845027924,-0.45649999380111694z"/></g></g><g transform="matrix(10,0,0,10,204.1439971923828,84.90299987792969)" opacity="1" style="display: none;"><g opacity="1" transform="matrix(0.7685404419898987,0.6398012638092041,-0.6398012638092041,0.7685404419898987,0,0)"><path fill="rgb(255,232,204)" fill-opacity="1" d=" M0.16099999845027924,-0.45649999380111694 C0.16099999845027924,-0.45649999380111694 0.16099999845027924,0.45649999380111694 0.16099999845027924,0.45649999380111694 C0.16099999845027924,0.5453559160232544 0.08885589987039566,0.6175000071525574 0,0.6175000071525574 C0,0.6175000071525574 0,0.6175000071525574 0,0.6175000071525574 C-0.08885589987039566,0.6175000071525574 -0.16099999845027924,0.5453559160232544 -0.16099999845027924,0.45649999380111694 C-0.16099999845027924,0.45649999380111694 -0.16099999845027924,-0.45649999380111694 -0.16099999845027924,-0.45649999380111694 C-0.16099999845027924,-0.5453559160232544 -0.08885589987039566,-0.6175000071525574 0,-0.6175000071525574 C0,-0.6175000071525574 0,-0.6175000071525574 0,-0.6175000071525574 C0.08885589987039566,-0.6175000071525574 0.16099999845027924,-0.5453559160232544 0.16099999845027924,-0.45649999380111694z"/></g></g><g transform="matrix(-10,0,0,10,183.57899475097656,85.26100158691406)" opacity="1" style="display: none;"><g opacity="1" transform="matrix(0.7685404419898987,0.6398012638092041,-0.6398012638092041,0.7685404419898987,0,0)"><path fill="rgb(255,232,204)" fill-opacity="1" d=" M0.16099999845027924,-0.45649999380111694 C0.16099999845027924,-0.45649999380111694 0.16099999845027924,0.45649999380111694 0.16099999845027924,0.45649999380111694 C0.16099999845027924,0.5453559160232544 0.08885589987039566,0.6175000071525574 0,0.6175000071525574 C0,0.6175000071525574 0,0.6175000071525574 0,0.6175000071525574 C-0.08885589987039566,0.6175000071525574 -0.16099999845027924,0.5453559160232544 -0.16099999845027924,0.45649999380111694 C-0.16099999845027924,0.45649999380111694 -0.16099999845027924,-0.45649999380111694 -0.16099999845027924,-0.45649999380111694 C-0.16099999845027924,-0.5453559160232544 -0.08885589987039566,-0.6175000071525574 0,-0.6175000071525574 C0,-0.6175000071525574 0,-0.6175000071525574 0,-0.6175000071525574 C0.08885589987039566,-0.6175000071525574 0.16099999845027924,-0.5453559160232544 0.16099999845027924,-0.45649999380111694z"/></g></g><g transform="matrix(10,0,0,10,117.7760009765625,80.08300018310547)" opacity="1" style="display: none;"><g opacity="1" transform="matrix(1,0,0,1,0,0)"><path fill="rgb(255,203,133)" fill-opacity="1" d=" M0.16099999845027924,-0.45649999380111694 C0.16099999845027924,-0.45649999380111694 0.16099999845027924,0.45649999380111694 0.16099999845027924,0.45649999380111694 C0.16099999845027924,0.5453559160232544 0.08885589987039566,0.6175000071525574 0,0.6175000071525574 C0,0.6175000071525574 0,0.6175000071525574 0,0.6175000071525574 C-0.08885589987039566,0.6175000071525574 -0.16099999845027924,0.5453559160232544 -0.16099999845027924,0.45649999380111694 C-0.16099999845027924,0.45649999380111694 -0.16099999845027924,-0.45649999380111694 -0.16099999845027924,-0.45649999380111694 C-0.16099999845027924,-0.5453559160232544 -0.08885589987039566,-0.6175000071525574 0,-0.6175000071525574 C0,-0.6175000071525574 0,-0.6175000071525574 0,-0.6175000071525574 C0.08885589987039566,-0.6175000071525574 0.16099999845027924,-0.5453559160232544 0.16099999845027924,-0.45649999380111694z"/></g></g><g transform="matrix(10,0,0,10,134.18800354003906,94.53800201416016)" opacity="1" style="display: none;"><g opacity="1" transform="matrix(0.250988245010376,0.9679901599884033,-0.9679901599884033,0.250988245010376,0,0)"><path fill="rgb(255,203,133)" fill-opacity="1" d=" M0.16099999845027924,-0.45649999380111694 C0.16099999845027924,-0.45649999380111694 0.16099999845027924,0.45649999380111694 0.16099999845027924,0.45649999380111694 C0.16099999845027924,0.5453559160232544 0.08885589987039566,0.6175000071525574 0,0.6175000071525574 C0,0.6175000071525574 0,0.6175000071525574 0,0.6175000071525574 C-0.08885589987039566,0.6175000071525574 -0.16099999845027924,0.5453559160232544 -0.16099999845027924,0.45649999380111694 C-0.16099999845027924,0.45649999380111694 -0.16099999845027924,-0.45649999380111694 -0.16099999845027924,-0.45649999380111694 C-0.16099999845027924,-0.5453559160232544 -0.08885589987039566,-0.6175000071525574 0,-0.6175000071525574 C0,-0.6175000071525574 0,-0.6175000071525574 0,-0.6175000071525574 C0.08885589987039566,-0.6175000071525574 0.16099999845027924,-0.5453559160232544 0.16099999845027924,-0.45649999380111694z"/></g></g><g transform="matrix(-10,0,0,10,100.18599700927734,95.03800201416016)" opacity="1" style="display: none;"><g opacity="1" transform="matrix(0.250988245010376,0.9679901599884033,-0.9679901599884033,0.250988245010376,0,0)"><path fill="rgb(255,203,133)" fill-opacity="1" d=" M0.16099999845027924,-0.45649999380111694 C0.16099999845027924,-0.45649999380111694 0.16099999845027924,0.45649999380111694 0.16099999845027924,0.45649999380111694 C0.16099999845027924,0.5453559160232544 0.08885589987039566,0.6175000071525574 0,0.6175000071525574 C0,0.6175000071525574 0,0.6175000071525574 0,0.6175000071525574 C-0.08885589987039566,0.6175000071525574 -0.16099999845027924,0.5453559160232544 -0.16099999845027924,0.45649999380111694 C-0.16099999845027924,0.45649999380111694 -0.16099999845027924,-0.45649999380111694 -0.16099999845027924,-0.45649999380111694 C-0.16099999845027924,-0.5453559160232544 -0.08885589987039566,-0.6175000071525574 0,-0.6175000071525574 C0,-0.6175000071525574 0,-0.6175000071525574 0,-0.6175000071525574 C0.08885589987039566,-0.6175000071525574 0.16099999845027924,-0.5453559160232544 0.16099999845027924,-0.45649999380111694z"/></g></g><g transform="matrix(10,0,0,10,128.68299865722656,84.52799987792969)" opacity="1" style="display: none;"><g opacity="1" transform="matrix(0.7685404419898987,0.6398012638092041,-0.6398012638092041,0.7685404419898987,0,0)"><path fill="rgb(255,232,204)" fill-opacity="1" d=" M0.16099999845027924,-0.45649999380111694 C0.16099999845027924,-0.45649999380111694 0.16099999845027924,0.45649999380111694 0.16099999845027924,0.45649999380111694 C0.16099999845027924,0.5453559160232544 0.08885589987039566,0.6175000071525574 0,0.6175000071525574 C0,0.6175000071525574 0,0.6175000071525574 0,0.6175000071525574 C-0.08885589987039566,0.6175000071525574 -0.16099999845027924,0.5453559160232544 -0.16099999845027924,0.45649999380111694 C-0.16099999845027924,0.45649999380111694 -0.16099999845027924,-0.45649999380111694 -0.16099999845027924,-0.45649999380111694 C-0.16099999845027924,-0.5453559160232544 -0.08885589987039566,-0.6175000071525574 0,-0.6175000071525574 C0,-0.6175000071525574 0,-0.6175000071525574 0,-0.6175000071525574 C0.08885589987039566,-0.6175000071525574 0.16099999845027924,-0.5453559160232544 0.16099999845027924,-0.45649999380111694z"/></g></g><g transform="matrix(-10,0,0,10,107.11799621582031,85.26100158691406)" opacity="1" style="display: none;"><g opacity="1" transform="matrix(0.7685404419898987,0.6398012638092041,-0.6398012638092041,0.7685404419898987,0,0)"><path fill="rgb(255,232,204)" fill-opacity="1" d=" M0.16099999845027924,-0.45649999380111694 C0.16099999845027924,-0.45649999380111694 0.16099999845027924,0.45649999380111694 0.16099999845027924,0.45649999380111694 C0.16099999845027924,0.5453559160232544 0.08885589987039566,0.6175000071525574 0,0.6175000071525574 C0,0.6175000071525574 0,0.6175000071525574 0,0.6175000071525574 C-0.08885589987039566,0.6175000071525574 -0.16099999845027924,0.5453559160232544 -0.16099999845027924,0.45649999380111694 C-0.16099999845027924,0.45649999380111694 -0.16099999845027924,-0.45649999380111694 -0.16099999845027924,-0.45649999380111694 C-0.16099999845027924,-0.5453559160232544 -0.08885589987039566,-0.6175000071525574 0,-0.6175000071525574 C0,-0.6175000071525574 0,-0.6175000071525574 0,-0.6175000071525574 C0.08885589987039566,-0.6175000071525574 0.16099999845027924,-0.5453559160232544 0.16099999845027924,-0.45649999380111694z"/></g></g><g transform="matrix(10,0,0,10,119.47899627685547,133.82200622558594)" opacity="1" style="display: block;"><g opacity="1" transform="matrix(0.9954095482826233,-0.0957067683339119,0.0957067683339119,0.9954095482826233,0,0)"><path fill="rgb(227,87,88)" fill-opacity="1" d=" M0.6669999957084656,-1.5490000247955322 C0.6669999957084656,-1.5490000247955322 -0.6669999957084656,-1.777999997138977 -0.6669999957084656,-1.777999997138977 C-0.6669999957084656,-1.777999997138977 -0.4440000057220459,1.777999997138977 -0.4440000057220459,1.777999997138977 C-0.4440000057220459,1.777999997138977 0.5989999771118164,1.777999997138977 0.5989999771118164,1.777999997138977 C0.5989999771118164,1.777999997138977 0.6669999957084656,-1.5490000247955322 0.6669999957084656,-1.5490000247955322z"/></g></g><g transform="matrix(10,0,0,10,117.89899444580078,101.74200439453125)" opacity="1" style="display: block;"><g opacity="1" transform="matrix(1,0,0,1,0,0)"><path fill="rgb(255,203,133)" fill-opacity="1" d=" M-0.6359999775886536,0.8220000267028809 C-0.2849999964237213,1.1729999780654907 0.2849999964237213,1.1729999780654907 0.6359999775886536,0.8220000267028809 C0.9869999885559082,0.47099998593330383 0.9869999885559082,-0.0989999994635582 0.6359999775886536,-0.44999998807907104 C0.6359999775886536,-0.44999998807907104 0,-1.0859999656677246 0,-1.0859999656677246 C0,-1.0859999656677246 -0.6359999775886536,-0.44999998807907104 -0.6359999775886536,-0.44999998807907104 C-0.9869999885559082,-0.0989999994635582 -0.9869999885559082,0.47099998593330383 -0.6359999775886536,0.8220000267028809z"/></g></g><g transform="matrix(10,0,0,10,117.90899658203125,105.4320068359375)" opacity="1" style="display: block;"><g opacity="1" transform="matrix(1,0,0,1,0,0)"><path fill="rgb(255,232,204)" fill-opacity="1" d=" M-0.3580000102519989,0.4620000123977661 C-0.16099999845027924,0.6589999794960022 0.1599999964237213,0.6589999794960022 0.3569999933242798,0.4620000123977661 C0.5550000071525574,0.26499998569488525 0.5550000071525574,-0.054999999701976776 0.3580000102519989,-0.25200000405311584 C0.3580000102519989,-0.25200000405311584 0,-0.6100000143051147 0,-0.6100000143051147 C0,-0.6100000143051147 -0.3580000102519989,-0.25200000405311584 -0.3580000102519989,-0.25200000405311584 C-0.5550000071525574,-0.054999999701976776 -0.5550000071525574,0.26499998569488525 -0.3580000102519989,0.4620000123977661z"/></g></g><g transform="matrix(10,0,0,10,117.77899932861328,80.0820083618164)" opacity="1" style="display: block;"><g opacity="1" transform="matrix(1,0,0,1,0,0)"><path fill="rgb(255,203,133)" fill-opacity="1" d=" M0.16099999845027924,-0.45649999380111694 C0.16099999845027924,-0.45649999380111694 0.16099999845027924,0.45649999380111694 0.16099999845027924,0.45649999380111694 C0.16099999845027924,0.5453559160232544 0.08885589987039566,0.6175000071525574 0,0.6175000071525574 C0,0.6175000071525574 0,0.6175000071525574 0,0.6175000071525574 C-0.08885589987039566,0.6175000071525574 -0.16099999845027924,0.5453559160232544 -0.16099999845027924,0.45649999380111694 C-0.16099999845027924,0.45649999380111694 -0.16099999845027924,-0.45649999380111694 -0.16099999845027924,-0.45649999380111694 C-0.16099999845027924,-0.5453559160232544 -0.08885589987039566,-0.6175000071525574 0,-0.6175000071525574 C0,-0.6175000071525574 0,-0.6175000071525574 0,-0.6175000071525574 C0.08885589987039566,-0.6175000071525574 0.16099999845027924,-0.5453559160232544 0.16099999845027924,-0.45649999380111694z"/></g></g><g transform="matrix(10,0,0,10,134.18899536132812,94.54200744628906)" opacity="1" style="display: block;"><g opacity="1" transform="matrix(0.250988245010376,0.9679901599884033,-0.9679901599884033,0.250988245010376,0,0)"><path fill="rgb(255,203,133)" fill-opacity="1" d=" M0.16099999845027924,-0.45649999380111694 C0.16099999845027924,-0.45649999380111694 0.16099999845027924,0.45649999380111694 0.16099999845027924,0.45649999380111694 C0.16099999845027924,0.5453559160232544 0.08885589987039566,0.6175000071525574 0,0.6175000071525574 C0,0.6175000071525574 0,0.6175000071525574 0,0.6175000071525574 C-0.08885589987039566,0.6175000071525574 -0.16099999845027924,0.5453559160232544 -0.16099999845027924,0.45649999380111694 C-0.16099999845027924,0.45649999380111694 -0.16099999845027924,-0.45649999380111694 -0.16099999845027924,-0.45649999380111694 C-0.16099999845027924,-0.5453559160232544 -0.08885589987039566,-0.6175000071525574 0,-0.6175000071525574 C0,-0.6175000071525574 0,-0.6175000071525574 0,-0.6175000071525574 C0.08885589987039566,-0.6175000071525574 0.16099999845027924,-0.5453559160232544 0.16099999845027924,-0.45649999380111694z"/></g></g><g transform="matrix(-10,0,0,10,100.18899536132812,95.04200744628906)" opacity="1" style="display: block;"><g opacity="1" transform="matrix(0.250988245010376,0.9679901599884033,-0.9679901599884033,0.250988245010376,0,0)"><path fill="rgb(255,203,133)" fill-opacity="1" d=" M0.16099999845027924,-0.45649999380111694 C0.16099999845027924,-0.45649999380111694 0.16099999845027924,0.45649999380111694 0.16099999845027924,0.45649999380111694 C0.16099999845027924,0.5453559160232544 0.08885589987039566,0.6175000071525574 0,0.6175000071525574 C0,0.6175000071525574 0,0.6175000071525574 0,0.6175000071525574 C-0.08885589987039566,0.6175000071525574 -0.16099999845027924,0.5453559160232544 -0.16099999845027924,0.45649999380111694 C-0.16099999845027924,0.45649999380111694 -0.16099999845027924,-0.45649999380111694 -0.16099999845027924,-0.45649999380111694 C-0.16099999845027924,-0.5453559160232544 -0.08885589987039566,-0.6175000071525574 0,-0.6175000071525574 C0,-0.6175000071525574 0,-0.6175000071525574 0,-0.6175000071525574 C0.08885589987039566,-0.6175000071525574 0.16099999845027924,-0.5453559160232544 0.16099999845027924,-0.45649999380111694z"/></g></g><g transform="matrix(10,0,0,10,128.6790008544922,84.5320053100586)" opacity="1" style="display: block;"><g opacity="1" transform="matrix(0.7685404419898987,0.6398012638092041,-0.6398012638092041,0.7685404419898987,0,0)"><path fill="rgb(255,232,204)" fill-opacity="1" d=" M0.16099999845027924,-0.45649999380111694 C0.16099999845027924,-0.45649999380111694 0.16099999845027924,0.45649999380111694 0.16099999845027924,0.45649999380111694 C0.16099999845027924,0.5453559160232544 0.08885589987039566,0.6175000071525574 0,0.6175000071525574 C0,0.6175000071525574 0,0.6175000071525574 0,0.6175000071525574 C-0.08885589987039566,0.6175000071525574 -0.16099999845027924,0.5453559160232544 -0.16099999845027924,0.45649999380111694 C-0.16099999845027924,0.45649999380111694 -0.16099999845027924,-0.45649999380111694 -0.16099999845027924,-0.45649999380111694 C-0.16099999845027924,-0.5453559160232544 -0.08885589987039566,-0.6175000071525574 0,-0.6175000071525574 C0,-0.6175000071525574 0,-0.6175000071525574 0,-0.6175000071525574 C0.08885589987039566,-0.6175000071525574 0.16099999845027924,-0.5453559160232544 0.16099999845027924,-0.45649999380111694z"/></g></g><g transform="matrix(-10,0,0,10,107.1189956665039,85.26200866699219)" opacity="1" style="display: block;"><g opacity="1" transform="matrix(0.7685404419898987,0.6398012638092041,-0.6398012638092041,0.7685404419898987,0,0)"><path fill="rgb(255,232,204)" fill-opacity="1" d=" M0.16099999845027924,-0.45649999380111694 C0.16099999845027924,-0.45649999380111694 0.16099999845027924,0.45649999380111694 0.16099999845027924,0.45649999380111694 C0.16099999845027924,0.5453559160232544 0.08885589987039566,0.6175000071525574 0,0.6175000071525574 C0,0.6175000071525574 0,0.6175000071525574 0,0.6175000071525574 C-0.08885589987039566,0.6175000071525574 -0.16099999845027924,0.5453559160232544 -0.16099999845027924,0.45649999380111694 C-0.16099999845027924,0.45649999380111694 -0.16099999845027924,-0.45649999380111694 -0.16099999845027924,-0.45649999380111694 C-0.16099999845027924,-0.5453559160232544 -0.08885589987039566,-0.6175000071525574 0,-0.6175000071525574 C0,-0.6175000071525574 0,-0.6175000071525574 0,-0.6175000071525574 C0.08885589987039566,-0.6175000071525574 0.16099999845027924,-0.5453559160232544 0.16099999845027924,-0.45649999380111694z"/></g></g><g transform="matrix(10,0,0,10,157.12399291992188,121.57099914550781)" opacity="1" style="display: block;"><g opacity="1" transform="matrix(1,0,0,1,0,0)"><path fill="rgb(227,87,88)" fill-opacity="1" d=" M0.7799999713897705,-2.0999999046325684 C0.7799999713897705,-2.0999999046325684 -0.7799999713897705,-1.7170000076293945 -0.7799999713897705,-1.7170000076293945 C-0.7799999713897705,-1.7170000076293945 -0.6079999804496765,2.0999999046325684 -0.6079999804496765,2.0999999046325684 C-0.6079999804496765,2.0999999046325684 0.5519999861717224,2.0999999046325684 0.5519999861717224,2.0999999046325684 C0.5519999861717224,2.0999999046325684 0.7799999713897705,-2.0999999046325684 0.7799999713897705,-2.0999999046325684z"/></g></g><g transform="matrix(10,0,0,10,157.1339874267578,85.14099884033203)" opacity="1" style="display: block;"><g opacity="1" transform="matrix(1,0,0,1,0,0)"><path fill="rgb(255,203,133)" fill-opacity="1" d=" M-0.6359999775886536,0.8220000267028809 C-0.2849999964237213,1.1729999780654907 0.2849999964237213,1.1729999780654907 0.6359999775886536,0.8220000267028809 C0.9869999885559082,0.47099998593330383 0.9869999885559082,-0.0989999994635582 0.6359999775886536,-0.44999998807907104 C0.6359999775886536,-0.44999998807907104 0,-1.0859999656677246 0,-1.0859999656677246 C0,-1.0859999656677246 -0.6359999775886536,-0.44999998807907104 -0.6359999775886536,-0.44999998807907104 C-0.9869999885559082,-0.0989999994635582 -0.9869999885559082,0.47099998593330383 -0.6359999775886536,0.8220000267028809z"/></g></g><g transform="matrix(10,0,0,10,157.15399169921875,88.83100128173828)" opacity="1" style="display: block;"><g opacity="1" transform="matrix(1,0,0,1,0,0)"><path fill="rgb(255,232,204)" fill-opacity="1" d=" M-0.3569999933242798,0.4620000123977661 C-0.1599999964237213,0.6589999794960022 0.1599999964237213,0.6589999794960022 0.3569999933242798,0.4620000123977661 C0.5540000200271606,0.2639999985694885 0.5540000200271606,-0.054999999701976776 0.3580000102519989,-0.25200000405311584 C0.3580000102519989,-0.25200000405311584 0.0010000000474974513,-0.6100000143051147 0.0010000000474974513,-0.6100000143051147 C0.0010000000474974513,-0.6100000143051147 -0.3569999933242798,-0.25200000405311584 -0.3569999933242798,-0.25200000405311584 C-0.5540000200271606,-0.054999999701976776 -0.5540000200271606,0.26499998569488525 -0.3569999933242798,0.4620000123977661z"/></g></g><g transform="matrix(10,0,0,10,156.03399658203125,60.2609977722168)" opacity="1" style="display: block;"><g opacity="1" transform="matrix(1,0,0,1,0,0)"><path fill="rgb(255,203,133)" fill-opacity="1" d=" M0.16099999845027924,-0.45649999380111694 C0.16099999845027924,-0.45649999380111694 0.16099999845027924,0.45649999380111694 0.16099999845027924,0.45649999380111694 C0.16099999845027924,0.5453559160232544 0.08885589987039566,0.6175000071525574 0,0.6175000071525574 C0,0.6175000071525574 0,0.6175000071525574 0,0.6175000071525574 C-0.08885589987039566,0.6175000071525574 -0.16099999845027924,0.5453559160232544 -0.16099999845027924,0.45649999380111694 C-0.16099999845027924,0.45649999380111694 -0.16099999845027924,-0.45649999380111694 -0.16099999845027924,-0.45649999380111694 C-0.16099999845027924,-0.5453559160232544 -0.08885589987039566,-0.6175000071525574 0,-0.6175000071525574 C0,-0.6175000071525574 0,-0.6175000071525574 0,-0.6175000071525574 C0.08885589987039566,-0.6175000071525574 0.16099999845027924,-0.5453559160232544 0.16099999845027924,-0.45649999380111694z"/></g></g><g transform="matrix(10,0,0,10,172.57398986816406,74.84100341796875)" opacity="1" style="display: block;"><g opacity="1" transform="matrix(0.250988245010376,0.9679901599884033,-0.9679901599884033,0.250988245010376,0,0)"><path fill="rgb(255,203,133)" fill-opacity="1" d=" M0.16099999845027924,-0.45649999380111694 C0.16099999845027924,-0.45649999380111694 0.16099999845027924,0.45649999380111694 0.16099999845027924,0.45649999380111694 C0.16099999845027924,0.5453559160232544 0.08885589987039566,0.6175000071525574 0,0.6175000071525574 C0,0.6175000071525574 0,0.6175000071525574 0,0.6175000071525574 C-0.08885589987039566,0.6175000071525574 -0.16099999845027924,0.5453559160232544 -0.16099999845027924,0.45649999380111694 C-0.16099999845027924,0.45649999380111694 -0.16099999845027924,-0.45649999380111694 -0.16099999845027924,-0.45649999380111694 C-0.16099999845027924,-0.5453559160232544 -0.08885589987039566,-0.6175000071525574 0,-0.6175000071525574 C0,-0.6175000071525574 0,-0.6175000071525574 0,-0.6175000071525574 C0.08885589987039566,-0.6175000071525574 0.16099999845027924,-0.5453559160232544 0.16099999845027924,-0.45649999380111694z"/></g></g><g transform="matrix(10,0,0,10,166.19400024414062,64.83100128173828)" opacity="1" style="display: block;"><g opacity="1" transform="matrix(0.7685404419898987,0.6398012638092041,-0.6398012638092041,0.7685404419898987,0,0)"><path fill="rgb(255,232,204)" fill-opacity="1" d=" M0.16099999845027924,-0.45649999380111694 C0.16099999845027924,-0.45649999380111694 0.16099999845027924,0.45649999380111694 0.16099999845027924,0.45649999380111694 C0.16099999845027924,0.5453559160232544 0.08885589987039566,0.6175000071525574 0,0.6175000071525574 C0,0.6175000071525574 0,0.6175000071525574 0,0.6175000071525574 C-0.08885589987039566,0.6175000071525574 -0.16099999845027924,0.5453559160232544 -0.16099999845027924,0.45649999380111694 C-0.16099999845027924,0.45649999380111694 -0.16099999845027924,-0.45649999380111694 -0.16099999845027924,-0.45649999380111694 C-0.16099999845027924,-0.5453559160232544 -0.08885589987039566,-0.6175000071525574 0,-0.6175000071525574 C0,-0.6175000071525574 0,-0.6175000071525574 0,-0.6175000071525574 C0.08885589987039566,-0.6175000071525574 0.16099999845027924,-0.5453559160232544 0.16099999845027924,-0.45649999380111694z"/></g></g><g transform="matrix(-10,0,0,10,145.75399780273438,64.94099426269531)" opacity="1" style="display: block;"><g opacity="1" transform="matrix(0.7685404419898987,0.6398012638092041,-0.6398012638092041,0.7685404419898987,0,0)"><path fill="rgb(255,232,204)" fill-opacity="1" d=" M0.16099999845027924,-0.45649999380111694 C0.16099999845027924,-0.45649999380111694 0.16099999845027924,0.45649999380111694 0.16099999845027924,0.45649999380111694 C0.16099999845027924,0.5453559160232544 0.08885589987039566,0.6175000071525574 0,0.6175000071525574 C0,0.6175000071525574 0,0.6175000071525574 0,0.6175000071525574 C-0.08885589987039566,0.6175000071525574 -0.16099999845027924,0.5453559160232544 -0.16099999845027924,0.45649999380111694 C-0.16099999845027924,0.45649999380111694 -0.16099999845027924,-0.45649999380111694 -0.16099999845027924,-0.45649999380111694 C-0.16099999845027924,-0.5453559160232544 -0.08885589987039566,-0.6175000071525574 0,-0.6175000071525574 C0,-0.6175000071525574 0,-0.6175000071525574 0,-0.6175000071525574 C0.08885589987039566,-0.6175000071525574 0.16099999845027924,-0.5453559160232544 0.16099999845027924,-0.45649999380111694z"/></g></g><g transform="matrix(-10,0,0,10,139.6439971923828,74.41099548339844)" opacity="1" style="display: block;"><g opacity="1" transform="matrix(0.250988245010376,0.9679901599884033,-0.9679901599884033,0.250988245010376,0,0)"><path fill="rgb(255,203,133)" fill-opacity="1" d=" M0.16099999845027924,-0.45649999380111694 C0.16099999845027924,-0.45649999380111694 0.16099999845027924,0.45649999380111694 0.16099999845027924,0.45649999380111694 C0.16099999845027924,0.5453559160232544 0.08885589987039566,0.6175000071525574 0,0.6175000071525574 C0,0.6175000071525574 0,0.6175000071525574 0,0.6175000071525574 C-0.08885589987039566,0.6175000071525574 -0.16099999845027924,0.5453559160232544 -0.16099999845027924,0.45649999380111694 C-0.16099999845027924,0.45649999380111694 -0.16099999845027924,-0.45649999380111694 -0.16099999845027924,-0.45649999380111694 C-0.16099999845027924,-0.5453559160232544 -0.08885589987039566,-0.6175000071525574 0,-0.6175000071525574 C0,-0.6175000071525574 0,-0.6175000071525574 0,-0.6175000071525574 C0.08885589987039566,-0.6175000071525574 0.16099999845027924,-0.5453559160232544 0.16099999845027924,-0.45649999380111694z"/></g></g><g transform="matrix(-10,0,0,-10,192.30599975585938,132.3179931640625)" opacity="1" style="display: block;"><g opacity="1" transform="matrix(0.9954095482826233,0.0957067683339119,-0.0957067683339119,0.9954095482826233,0,0)"><path fill="rgb(227,87,88)" fill-opacity="1" d=" M0.5830000042915344,-1.7410000562667847 C0.5830000042915344,-1.7410000562667847 -0.46000000834465027,-1.7410000562667847 -0.46000000834465027,-1.7410000562667847 C-0.46000000834465027,-1.7410000562667847 -0.718999981880188,1.7410000562667847 -0.718999981880188,1.7410000562667847 C-0.718999981880188,1.7410000562667847 0.718999981880188,1.4980000257492065 0.718999981880188,1.4980000257492065 C0.718999981880188,1.4980000257492065 0.5830000042915344,-1.7410000562667847 0.5830000042915344,-1.7410000562667847z"/></g></g><g transform="matrix(10,0,0,10,194.25599670410156,101.48799133300781)" opacity="1" style="display: block;"><g opacity="1" transform="matrix(1,0,0,1,0,0)"><path fill="rgb(255,203,133)" fill-opacity="1" d=" M-0.6359999775886536,0.8220000267028809 C-0.2849999964237213,1.1729999780654907 0.2849999964237213,1.1729999780654907 0.6359999775886536,0.8220000267028809 C0.9869999885559082,0.47099998593330383 0.9869999885559082,-0.0989999994635582 0.6359999775886536,-0.44999998807907104 C0.6359999775886536,-0.44999998807907104 0,-1.0859999656677246 0,-1.0859999656677246 C0,-1.0859999656677246 -0.6359999775886536,-0.44999998807907104 -0.6359999775886536,-0.44999998807907104 C-0.9869999885559082,-0.0989999994635582 -0.9869999885559082,0.47099998593330383 -0.6359999775886536,0.8220000267028809z"/></g></g><g transform="matrix(10,0,0,10,194.24600219726562,105.17799377441406)" opacity="1" style="display: block;"><g opacity="1" transform="matrix(1,0,0,1,0,0)"><path fill="rgb(255,232,204)" fill-opacity="1" d=" M-0.3580000102519989,0.4620000123977661 C-0.16099999845027924,0.6589999794960022 0.1599999964237213,0.6589999794960022 0.3569999933242798,0.4620000123977661 C0.5550000071525574,0.26499998569488525 0.5550000071525574,-0.054999999701976776 0.3580000102519989,-0.25200000405311584 C0.3580000102519989,-0.25200000405311584 0,-0.6100000143051147 0,-0.6100000143051147 C0,-0.6100000143051147 -0.3580000102519989,-0.25200000405311584 -0.3580000102519989,-0.25200000405311584 C-0.5550000071525574,-0.054999999701976776 -0.5550000071525574,0.26499998569488525 -0.3580000102519989,0.4620000123977661z"/></g></g><g transform="matrix(-10,0,0,10,177.3260040283203,94.08799743652344)" opacity="1" style="display: block;"><g opacity="1" transform="matrix(0.250988245010376,0.9679901599884033,-0.9679901599884033,0.250988245010376,0,0)"><path fill="rgb(255,203,133)" fill-opacity="1" d=" M0.16099999845027924,-0.45649999380111694 C0.16099999845027924,-0.45649999380111694 0.16099999845027924,0.45649999380111694 0.16099999845027924,0.45649999380111694 C0.16099999845027924,0.5453559160232544 0.08885589987039566,0.6175000071525574 0,0.6175000071525574 C0,0.6175000071525574 0,0.6175000071525574 0,0.6175000071525574 C-0.08885589987039566,0.6175000071525574 -0.16099999845027924,0.5453559160232544 -0.16099999845027924,0.45649999380111694 C-0.16099999845027924,0.45649999380111694 -0.16099999845027924,-0.45649999380111694 -0.16099999845027924,-0.45649999380111694 C-0.16099999845027924,-0.5453559160232544 -0.08885589987039566,-0.6175000071525574 0,-0.6175000071525574 C0,-0.6175000071525574 0,-0.6175000071525574 0,-0.6175000071525574 C0.08885589987039566,-0.6175000071525574 0.16099999845027924,-0.5453559160232544 0.16099999845027924,-0.45649999380111694z"/></g></g><g transform="matrix(10,0,0,10,194.48599243164062,80.32799530029297)" opacity="1" style="display: block;"><g opacity="1" transform="matrix(1,0,0,1,0,0)"><path fill="rgb(255,203,133)" fill-opacity="1" d=" M0.16099999845027924,-0.45649999380111694 C0.16099999845027924,-0.45649999380111694 0.16099999845027924,0.45649999380111694 0.16099999845027924,0.45649999380111694 C0.16099999845027924,0.5453559160232544 0.08885589987039566,0.6175000071525574 0,0.6175000071525574 C0,0.6175000071525574 0,0.6175000071525574 0,0.6175000071525574 C-0.08885589987039566,0.6175000071525574 -0.16099999845027924,0.5453559160232544 -0.16099999845027924,0.45649999380111694 C-0.16099999845027924,0.45649999380111694 -0.16099999845027924,-0.45649999380111694 -0.16099999845027924,-0.45649999380111694 C-0.16099999845027924,-0.5453559160232544 -0.08885589987039566,-0.6175000071525574 0,-0.6175000071525574 C0,-0.6175000071525574 0,-0.6175000071525574 0,-0.6175000071525574 C0.08885589987039566,-0.6175000071525574 0.16099999845027924,-0.5453559160232544 0.16099999845027924,-0.45649999380111694z"/></g></g><g transform="matrix(10,0,0,10,210.5260009765625,94.9179916381836)" opacity="1" style="display: block;"><g opacity="1" transform="matrix(0.250988245010376,0.9679901599884033,-0.9679901599884033,0.250988245010376,0,0)"><path fill="rgb(255,203,133)" fill-opacity="1" d=" M0.16099999845027924,-0.45649999380111694 C0.16099999845027924,-0.45649999380111694 0.16099999845027924,0.45649999380111694 0.16099999845027924,0.45649999380111694 C0.16099999845027924,0.5453559160232544 0.08885589987039566,0.6175000071525574 0,0.6175000071525574 C0,0.6175000071525574 0,0.6175000071525574 0,0.6175000071525574 C-0.08885589987039566,0.6175000071525574 -0.16099999845027924,0.5453559160232544 -0.16099999845027924,0.45649999380111694 C-0.16099999845027924,0.45649999380111694 -0.16099999845027924,-0.45649999380111694 -0.16099999845027924,-0.45649999380111694 C-0.16099999845027924,-0.5453559160232544 -0.08885589987039566,-0.6175000071525574 0,-0.6175000071525574 C0,-0.6175000071525574 0,-0.6175000071525574 0,-0.6175000071525574 C0.08885589987039566,-0.6175000071525574 0.16099999845027924,-0.5453559160232544 0.16099999845027924,-0.45649999380111694z"/></g></g><g transform="matrix(10,0,0,10,204.14599609375,84.90798950195312)" opacity="1" style="display: block;"><g opacity="1" transform="matrix(0.7685404419898987,0.6398012638092041,-0.6398012638092041,0.7685404419898987,0,0)"><path fill="rgb(255,232,204)" fill-opacity="1" d=" M0.16099999845027924,-0.45649999380111694 C0.16099999845027924,-0.45649999380111694 0.16099999845027924,0.45649999380111694 0.16099999845027924,0.45649999380111694 C0.16099999845027924,0.5453559160232544 0.08885589987039566,0.6175000071525574 0,0.6175000071525574 C0,0.6175000071525574 0,0.6175000071525574 0,0.6175000071525574 C-0.08885589987039566,0.6175000071525574 -0.16099999845027924,0.5453559160232544 -0.16099999845027924,0.45649999380111694 C-0.16099999845027924,0.45649999380111694 -0.16099999845027924,-0.45649999380111694 -0.16099999845027924,-0.45649999380111694 C-0.16099999845027924,-0.5453559160232544 -0.08885589987039566,-0.6175000071525574 0,-0.6175000071525574 C0,-0.6175000071525574 0,-0.6175000071525574 0,-0.6175000071525574 C0.08885589987039566,-0.6175000071525574 0.16099999845027924,-0.5453559160232544 0.16099999845027924,-0.45649999380111694z"/></g></g><g transform="matrix(-10,0,0,10,183.5760040283203,85.25799560546875)" opacity="1" style="display: block;"><g opacity="1" transform="matrix(0.7685404419898987,0.6398012638092041,-0.6398012638092041,0.7685404419898987,0,0)"><path fill="rgb(255,232,204)" fill-opacity="1" d=" M0.16099999845027924,-0.45649999380111694 C0.16099999845027924,-0.45649999380111694 0.16099999845027924,0.45649999380111694 0.16099999845027924,0.45649999380111694 C0.16099999845027924,0.5453559160232544 0.08885589987039566,0.6175000071525574 0,0.6175000071525574 C0,0.6175000071525574 0,0.6175000071525574 0,0.6175000071525574 C-0.08885589987039566,0.6175000071525574 -0.16099999845027924,0.5453559160232544 -0.16099999845027924,0.45649999380111694 C-0.16099999845027924,0.45649999380111694 -0.16099999845027924,-0.45649999380111694 -0.16099999845027924,-0.45649999380111694 C-0.16099999845027924,-0.5453559160232544 -0.08885589987039566,-0.6175000071525574 0,-0.6175000071525574 C0,-0.6175000071525574 0,-0.6175000071525574 0,-0.6175000071525574 C0.08885589987039566,-0.6175000071525574 0.16099999845027924,-0.5453559160232544 0.16099999845027924,-0.45649999380111694z"/></g></g><g transform="matrix(10,0,0,10,155.51699829101562,188.85299682617188)" opacity="1" style="display: block;"><g opacity="1" transform="matrix(1,0,0,1,0,0)"><path fill="rgb(249,155,155)" fill-opacity="1" d=" M8.29699993133545,-1.7130000591278076 C8.29699993133545,-1.7130000591278076 8.902000427246094,-5.176000118255615 8.902000427246094,-5.176000118255615 C8.902000427246094,-5.176000118255615 -8.902000427246094,-4.414999961853027 -8.902000427246094,-4.414999961853027 C-8.902000427246094,-4.414999961853027 -8.543000221252441,-2.0980000495910645 -8.543000221252441,-2.0980000495910645 C-8.543000221252441,-2.0980000495910645 -8.388999938964844,-1.184000015258789 -8.388999938964844,-1.184000015258789 C-8.388999938964844,-1.184000015258789 -8.350000381469727,-0.9259999990463257 -8.350000381469727,-0.9259999990463257 C-8.350000381469727,-0.9259999990463257 -8.180999755859375,0.1550000011920929 -8.180999755859375,0.1550000011920929 C-8.180999755859375,0.1550000011920929 -8.104999542236328,0.6299999952316284 -8.104999542236328,0.6299999952316284 C-8.104999542236328,0.6299999952316284 -8.00100040435791,1.3380000591278076 -8.00100040435791,1.3380000591278076 C-8.00100040435791,1.3380000591278076 -7.949999809265137,1.6360000371932983 -7.949999809265137,1.6360000371932983 C-7.949999809265137,1.6360000371932983 -7.885000228881836,2.0350000858306885 -7.885000228881836,2.0350000858306885 C-7.885000228881836,2.0350000858306885 -7.396999835968018,5.176000118255615 -7.396999835968018,5.176000118255615 C-7.396999835968018,5.176000118255615 7.139999866485596,4.932000160217285 7.139999866485596,4.932000160217285 C7.139999866485596,4.932000160217285 7.5,2.869999885559082 7.5,2.869999885559082 C7.5,2.869999885559082 7.691999912261963,1.7769999504089355 7.691999912261963,1.7769999504089355 C7.691999912261963,1.7769999504089355 7.7179999351501465,1.6230000257492065 7.7179999351501465,1.6230000257492065 C7.7179999351501465,1.6230000257492065 7.88700008392334,0.7070000171661377 7.88700008392334,0.7070000171661377 C7.88700008392334,0.7070000171661377 7.9120001792907715,0.5289999842643738 7.9120001792907715,0.5289999842643738 C7.9120001792907715,0.5289999842643738 8.104999542236328,-0.6299999952316284 8.104999542236328,-0.6299999952316284 C8.104999542236328,-0.6299999952316284 8.170000076293945,-1.003999948501587 8.170000076293945,-1.003999948501587 C8.170000076293945,-1.003999948501587 8.29699993133545,-1.7130000591278076 8.29699993133545,-1.7130000591278076z"/></g></g><g transform="matrix(10,0,0,10,219.73699951171875,183.00299072265625)" opacity="1" style="display: block;"><g opacity="1" transform="matrix(1,0,0,1,0,0)"><path fill="rgb(238,138,138)" fill-opacity="1" d=" M0.9549999833106995,4.5229997634887695 C0.9549999833106995,4.5229997634887695 2.441999912261963,-4.5229997634887695 2.441999912261963,-4.5229997634887695 C2.441999912261963,-4.5229997634887695 0.9819999933242798,-4.5229997634887695 0.9819999933242798,-4.5229997634887695 C0.9819999933242798,-4.5229997634887695 -2.441999912261963,3.687999963760376 -2.441999912261963,3.687999963760376 C-2.441999912261963,3.687999963760376 0.9549999833106995,4.5229997634887695 0.9549999833106995,4.5229997634887695z"/></g></g><g transform="matrix(10,0,0,10,154.427001953125,186.47299194335938)" opacity="1" style="display: block;"><g opacity="1" transform="matrix(1,0,0,1,0,0)"><path fill="rgb(255,233,233)" fill-opacity="1" d=" M8.21500015258789,-0.3919999897480011 C8.21500015258789,-0.3919999897480011 8.279000282287598,-0.7649999856948853 8.279000282287598,-0.7649999856948853 C8.279000282287598,-0.7649999856948853 -8.279000282287598,-0.9459999799728394 -8.279000282287598,-0.9459999799728394 C-8.279000282287598,-0.9459999799728394 -8.241000175476074,-0.6880000233650208 -8.241000175476074,-0.6880000233650208 C-8.241000175476074,-0.6880000233650208 -8.071999549865723,0.3930000066757202 -8.071999549865723,0.3930000066757202 C-8.071999549865723,0.3930000066757202 -8.031000137329102,0.6330000162124634 -8.031000137329102,0.6330000162124634 C-8.031000137329102,0.6330000162124634 7.995999813079834,0.9459999799728394 7.995999813079834,0.9459999799728394 C7.995999813079834,0.9459999799728394 8.022000312805176,0.7670000195503235 8.022000312805176,0.7670000195503235 C8.022000312805176,0.7670000195503235 8.21500015258789,-0.3919999897480011 8.21500015258789,-0.3919999897480011z"/></g></g><g transform="matrix(10,0,0,10,155.5469970703125,151.66299438476562)" opacity="1" style="display: block;"><g opacity="1" transform="matrix(1,0,0,1,0,0)"><path fill="rgb(238,138,138)" fill-opacity="1" d=" M-6.314000129699707,1.2860000133514404 C-6.314000129699707,1.2860000133514404 -8.89900016784668,-0.746999979019165 -8.89900016784668,-0.746999979019165 C-8.89900016784668,-0.746999979019165 8.89900016784668,-1.5069999694824219 8.89900016784668,-1.5069999694824219 C8.89900016784668,-1.5069999694824219 6.76800012588501,0.6970000267028809 6.76800012588501,0.6970000267028809 C6.361000061035156,1.0880000591278076 5.795000076293945,1.1660000085830688 5.318999767303467,0.9010000228881836 C5.318999767303467,0.9010000228881836 3.5290000438690186,-0.09799999743700027 3.5290000438690186,-0.09799999743700027 C3.072000026702881,-0.3529999852180481 2.5280001163482666,-0.28999999165534973 2.124000072479248,0.06499999761581421 C2.124000072479248,0.06499999761581421 1.0110000371932983,1.0429999828338623 1.0110000371932983,1.0429999828338623 C0.5839999914169312,1.4190000295639038 0.004000000189989805,1.4670000076293945 -0.4650000035762787,1.1640000343322754 C-0.4650000035762787,1.1640000343322754 -2.114000082015991,0.10100000351667404 -2.114000082015991,0.10100000351667404 C-2.565000057220459,-0.18799999356269836 -3.118000030517578,-0.1589999943971634 -3.5420000553131104,0.1809999942779541 C-3.5420000553131104,0.1809999942779541 -4.85099983215332,1.2289999723434448 -4.85099983215332,1.2289999723434448 C-5.2870001792907715,1.5779999494552612 -5.860000133514404,1.6009999513626099 -6.314000129699707,1.2860000133514404z"/></g></g><g transform="matrix(10,0,0,10,155.7969970703125,149.51300048828125)" opacity="1" style="display: block;"><g opacity="1" transform="matrix(1,0,0,1,0,0)"><path fill="rgb(255,187,187)" fill-opacity="1" d=" M-6.334000110626221,1.0509999990463257 C-6.334000110626221,1.0509999990463257 -8.904000282287598,-0.4819999933242798 -8.904000282287598,-0.4819999933242798 C-8.904000282287598,-0.4819999933242798 8.904000282287598,-1.2419999837875366 8.904000282287598,-1.2419999837875366 C8.904000282287598,-1.2419999837875366 6.748000144958496,0.5419999957084656 6.748000144958496,0.5419999957084656 C6.341000080108643,0.8790000081062317 5.77400016784668,0.9480000138282776 5.297999858856201,0.718999981880188 C5.297999858856201,0.718999981880188 3.507999897003174,-0.14399999380111694 3.507999897003174,-0.14399999380111694 C3.0510001182556152,-0.36399999260902405 2.507999897003174,-0.3100000023841858 2.1040000915527344,-0.004000000189989805 C2.1040000915527344,-0.004000000189989805 0.9900000095367432,0.8410000205039978 0.9900000095367432,0.8410000205039978 C0.5630000233650208,1.1649999618530273 -0.01600000075995922,1.2059999704360962 -0.48500001430511475,0.9449999928474426 C-0.48500001430511475,0.9449999928474426 -2.134999990463257,0.027000000700354576 -2.134999990463257,0.027000000700354576 C-2.5859999656677246,-0.22300000488758087 -3.138000011444092,-0.19699999690055847 -3.562000036239624,0.09700000286102295 C-3.562000036239624,0.09700000286102295 -4.872000217437744,1.0019999742507935 -4.872000217437744,1.0019999742507935 C-5.308000087738037,1.3029999732971191 -5.880000114440918,1.3229999542236328 -6.334000110626221,1.0509999990463257z"/></g></g><g transform="matrix(10,0,0,10,154.23699951171875,223.91299438476562)" opacity="1" style="display: block;"><g opacity="1" transform="matrix(1,0,0,1,0,0)"><path fill="rgb(227,87,88)" fill-opacity="1" d=" M7.629000186920166,-0.5360000133514404 C7.629000186920166,-0.5360000133514404 7.821000099182129,-1.628999948501587 7.821000099182129,-1.628999948501587 C7.821000099182129,-1.628999948501587 -7.821000099182129,-1.7699999809265137 -7.821000099182129,-1.7699999809265137 C-7.821000099182129,-1.7699999809265137 -7.75600004196167,-1.371000051498413 -7.75600004196167,-1.371000051498413 C-7.75600004196167,-1.371000051498413 -7.269000053405762,1.7699999809265137 -7.269000053405762,1.7699999809265137 C-7.269000053405762,1.7699999809265137 7.269000053405762,1.5260000228881836 7.269000053405762,1.5260000228881836 C7.269000053405762,1.5260000228881836 7.629000186920166,-0.5360000133514404 7.629000186920166,-0.5360000133514404z"/></g></g><g transform="matrix(10,0,0,10,155.5240020751953,257.52899169921875)" opacity="1" style="display: block;"><g opacity="1" transform="matrix(1,0,0,1,0,0)"><path fill="rgb(249,155,155)" fill-opacity="1" d=" M12.006999969482422,-0.46399998664855957 C12.006999969482422,-0.46399998664855957 12.72700023651123,-3.861999988555908 12.72700023651123,-3.861999988555908 C12.72700023651123,-3.861999988555908 7.500999927520752,-4.146999835968018 7.500999927520752,-4.146999835968018 C7.500999927520752,-4.146999835968018 -7.885000228881836,-4.982999801635742 -7.885000228881836,-4.982999801635742 C-7.885000228881836,-4.982999801635742 -12.72700023651123,-5.239999771118164 -12.72700023651123,-5.239999771118164 C-12.72700023651123,-5.239999771118164 -11.928999900817871,-0.593999981880188 -11.928999900817871,-0.593999981880188 C-11.928999900817871,-0.593999981880188 -11.824000358581543,-0.013000000268220901 -11.824000358581543,-0.013000000268220901 C-11.824000358581543,-0.013000000268220901 -11.720999717712402,0.6039999723434448 -11.720999717712402,0.6039999723434448 C-11.720999717712402,0.6039999723434448 -11.567999839782715,1.5190000534057617 -11.567999839782715,1.5190000534057617 C-11.567999839782715,1.5190000534057617 -11.46399974822998,2.0989999771118164 -11.46399974822998,2.0989999771118164 C-11.46399974822998,2.0989999771118164 -11.362000465393066,2.7170000076293945 -11.362000465393066,2.7170000076293945 C-11.362000465393066,2.7170000076293945 -11.206000328063965,3.5910000801086426 -11.206000328063965,3.5910000801086426 C-11.206000328063965,3.5910000801086426 -10.923999786376953,5.239999771118164 -10.923999786376953,5.239999771118164 C-10.923999786376953,5.239999771118164 10.8100004196167,5.239999771118164 10.8100004196167,5.239999771118164 C10.8100004196167,5.239999771118164 11.092000007629395,3.9130001068115234 11.092000007629395,3.9130001068115234 C11.092000007629395,3.9130001068115234 11.338000297546387,2.7170000076293945 11.338000297546387,2.7170000076293945 C11.338000297546387,2.7170000076293945 11.46500015258789,2.0989999771118164 11.46500015258789,2.0989999771118164 C11.46500015258789,2.0989999771118164 11.567999839782715,1.6349999904632568 11.567999839782715,1.6349999904632568 C11.567999839782715,1.6349999904632568 11.786999702453613,0.6039999723434448 11.786999702453613,0.6039999723434448 C11.786999702453613,0.6039999723434448 11.876999855041504,0.16699999570846558 11.876999855041504,0.16699999570846558 C11.876999855041504,0.16699999570846558 12.006999969482422,-0.46399998664855957 12.006999969482422,-0.46399998664855957z"/></g></g><g transform="matrix(10,0,0,10,254.19400024414062,263.91900634765625)" opacity="1" style="display: block;"><g opacity="1" transform="matrix(1,0,0,1,0,0)"><path fill="rgb(238,138,138)" fill-opacity="1" d=" M2.140000104904175,-1.1519999504089355 C2.140000104904175,-1.1519999504089355 2.859999895095825,-4.551000118255615 2.859999895095825,-4.551000118255615 C2.859999895095825,-4.551000118255615 0.6060000061988831,-4.551000118255615 0.6060000061988831,-4.551000118255615 C0.6060000061988831,-4.551000118255615 -2.859999895095825,4.551000118255615 -2.859999895095825,4.551000118255615 C-2.859999895095825,4.551000118255615 0.9419999718666077,4.551000118255615 0.9419999718666077,4.551000118255615 C0.9419999718666077,4.551000118255615 1.2239999771118164,3.2239999771118164 1.2239999771118164,3.2239999771118164 C1.2239999771118164,3.2239999771118164 1.4700000286102295,2.0280001163482666 1.4700000286102295,2.0280001163482666 C1.4700000286102295,2.0280001163482666 1.5980000495910645,1.409999966621399 1.5980000495910645,1.409999966621399 C1.5980000495910645,1.409999966621399 1.7009999752044678,0.9459999799728394 1.7009999752044678,0.9459999799728394 C1.7009999752044678,0.9459999799728394 1.9199999570846558,-0.08500000089406967 1.9199999570846558,-0.08500000089406967 C1.9199999570846558,-0.08500000089406967 2.009999990463257,-0.5210000276565552 2.009999990463257,-0.5210000276565552 C2.009999990463257,-0.5210000276565552 2.140000104904175,-1.1519999504089355 2.140000104904175,-1.1519999504089355z"/></g></g><g transform="matrix(10,0,0,10,155.78399658203125,269.958984375)" opacity="1" style="display: block;"><g opacity="1" transform="matrix(1,0,0,1,0,0)"><path fill="rgb(255,233,233)" fill-opacity="1" d=" M11.76099967956543,-0.4390000104904175 C11.76099967956543,-0.4390000104904175 11.85099983215332,-0.875 11.85099983215332,-0.875 C11.85099983215332,-0.875 -11.85099983215332,-1.055999994277954 -11.85099983215332,-1.055999994277954 C-11.85099983215332,-1.055999994277954 -11.748000144958496,-0.4390000104904175 -11.748000144958496,-0.4390000104904175 C-11.748000144958496,-0.4390000104904175 -11.593999862670898,0.47600001096725464 -11.593999862670898,0.47600001096725464 C-11.593999862670898,0.47600001096725464 -11.489999771118164,1.055999994277954 -11.489999771118164,1.055999994277954 C-11.489999771118164,1.055999994277954 11.48799991607666,0.8429999947547913 11.48799991607666,0.8429999947547913 C11.48799991607666,0.8429999947547913 11.541999816894531,0.5920000076293945 11.541999816894531,0.5920000076293945 C11.541999816894531,0.5920000076293945 11.76099967956543,-0.4390000104904175 11.76099967956543,-0.4390000104904175z"/></g></g><g transform="matrix(10,0,0,10,154.94400024414062,303.6789855957031)" opacity="1" style="display: block;"><g opacity="1" transform="matrix(1,0,0,1,0,0)"><path fill="rgb(227,87,88)" fill-opacity="1" d=" M10.866999626159668,0.824999988079071 C10.866999626159668,0.824999988079071 11.14900016784668,-0.503000020980835 11.14900016784668,-0.503000020980835 C11.14900016784668,-0.503000020980835 -11.14900016784668,-0.824999988079071 -11.14900016784668,-0.824999988079071 C-11.14900016784668,-0.824999988079071 -10.866999626159668,0.824999988079071 -10.866999626159668,0.824999988079071 C-10.866999626159668,0.824999988079071 10.866999626159668,0.824999988079071 10.866999626159668,0.824999988079071z"/></g></g><g transform="matrix(10,0,0,10,156.5540008544922,227.3489990234375)" opacity="1" style="display: block;"><g opacity="1" transform="matrix(1,0,0,1,0,0)"><path fill="rgb(238,138,138)" fill-opacity="1" d=" M-8.946999549865723,1.3040000200271606 C-8.946999549865723,1.3040000200271606 -12.732000350952148,-2.0769999027252197 -12.732000350952148,-2.0769999027252197 C-12.732000350952148,-2.0769999027252197 12.732000350952148,-0.6850000023841858 12.732000350952148,-0.6850000023841858 C12.732000350952148,-0.6850000023841858 9.406999588012695,1.7640000581741333 9.406999588012695,1.7640000581741333 C8.72700023651123,2.183000087738037 7.889999866485596,2.180999994277954 7.210999965667725,1.7580000162124634 C7.210999965667725,1.7580000162124634 5.192999839782715,0.4970000088214874 5.192999839782715,0.4970000088214874 C4.480000019073486,0.052000001072883606 3.5959999561309814,0.07199999690055847 2.9019999504089355,0.5509999990463257 C2.9019999504089355,0.5509999990463257 1.6100000143051147,1.4420000314712524 1.6100000143051147,1.4420000314712524 C0.843999981880188,1.9709999561309814 -0.1469999998807907,1.9359999895095825 -0.8799999952316284,1.3559999465942383 C-0.8799999952316284,1.3559999465942383 -2.2139999866485596,0.3009999990463257 -2.2139999866485596,0.3009999990463257 C-2.944000005722046,-0.2770000100135803 -3.928999900817871,-0.3149999976158142 -4.693999767303467,0.2070000022649765 C-4.693999767303467,0.2070000022649765 -6.455999851226807,1.406000018119812 -6.455999851226807,1.406000018119812 C-7.22599983215332,1.9299999475479126 -8.217000007629395,1.8890000581741333 -8.946999549865723,1.3040000200271606z"/></g></g><g transform="matrix(10,0,0,10,155.53399658203125,224.42898559570312)" opacity="1" style="display: block;"><g opacity="1" transform="matrix(1,0,0,1,0,0)"><path fill="rgb(255,187,187)" fill-opacity="1" d=" M-8.923999786376953,1.059999942779541 C-8.923999786376953,1.059999942779541 -12.727999687194824,-1.7799999713897705 -12.727999687194824,-1.7799999713897705 C-12.727999687194824,-1.7799999713897705 12.727999687194824,-0.4000000059604645 12.727999687194824,-0.4000000059604645 C12.727999687194824,-0.4000000059604645 9.430000305175781,1.4889999628067017 9.430000305175781,1.4889999628067017 C8.75,1.878999948501587 7.913000106811523,1.8769999742507935 7.234000205993652,1.4830000400543213 C7.234000205993652,1.4830000400543213 5.216000080108643,0.3100000023841858 5.216000080108643,0.3100000023841858 C4.502999782562256,-0.10499999672174454 3.61899995803833,-0.08500000089406967 2.924999952316284,0.36000001430511475 C2.924999952316284,0.36000001430511475 1.6330000162124634,1.1890000104904175 1.6330000162124634,1.1890000104904175 C0.8669999837875366,1.680999994277954 -0.12399999797344208,1.6480000019073486 -0.8569999933242798,1.1089999675750732 C-0.8569999933242798,1.1089999675750732 -2.190999984741211,0.12700000405311584 -2.190999984741211,0.12700000405311584 C-2.9210000038146973,-0.41100001335144043 -3.9059998989105225,-0.44600000977516174 -4.671000003814697,0.039000000804662704 C-4.671000003814697,0.039000000804662704 -6.434000015258789,1.156000018119812 -6.434000015258789,1.156000018119812 C-7.203999996185303,1.6440000534057617 -8.194000244140625,1.6050000190734863 -8.923999786376953,1.059999942779541z"/></g></g><g transform="matrix(10,0,0,10,150.5,311.8840026855469)" opacity="1" style="display: block;"><g opacity="1" transform="matrix(1,0,0,1,0,0)"><path fill="rgb(35,54,78)" fill-opacity="1" d=" M13.338000297546387,-0.8529999852180481 C13.338000297546387,-0.8529999852180481 -13.338000297546387,-0.8529999852180481 -13.338000297546387,-0.8529999852180481 C-13.338000297546387,-0.8529999852180481 -13.338000297546387,0.8529999852180481 -13.338000297546387,0.8529999852180481 C-13.338000297546387,0.8529999852180481 13.338000297546387,0.8529999852180481 13.338000297546387,0.8529999852180481 C13.338000297546387,0.8529999852180481 13.338000297546387,-0.8529999852180481 13.338000297546387,-0.8529999852180481z"/></g></g></g></svg>