<svg version="1.0" xmlns="http://www.w3.org/2000/svg" viewBox="0 0 110 110" xml:space="preserve" enable-background="new 0 0 110 110"><circle cx="55" cy="55" r="55" fill="rgba(250,188,61,0)"></circle><path d="M23 25v60h64V25H23zm8 56h-4v-4h4v4zm0-8h-4v-4h4v4zm0-8h-4v-4h4v4zm0-8h-4v-4h4v4zm0-8h-4v-4h4v4zm0-8h-4v-4h4v4zm0-8h-4v-4h4v4zm52 48h-4v-4h4v4zm0-8h-4v-4h4v4zm0-8h-4v-4h4v4zm0-8h-4v-4h4v4zm0-8h-4v-4h4v4zm0-8h-4v-4h4v4zm0-8h-4v-4h4v4z" fill="#3e3e3f"></path><path d="M35 74h40v11H35zm0-49h40v11H35zm0 17h40v26H35z" fill="#5b5c5f"></path><path d="M35 56.577 49.577 42H35zM35 25v11h20.577l11-11z" fill="#818284"></path></svg>