<svg width="267" height="34" viewBox="0 0 267 34" fill="none" xmlns="http://www.w3.org/2000/svg">
<path d="M15.9084 1.08947V6.01208H13.0846C13.0846 6.01208 10.5347 5.66047 10.5347 8.03447V11.9022H15.9084L15.2715 17.2458H10.536V32.2086H4.3408V17.1765H0.150391V11.9022H4.5217V7.41854C4.40022 6.59083 4.4953 5.74692 4.79829 4.96377C5.10128 4.18061 5.60253 3.48311 6.25634 2.93485C7.71941 1.71024 9.60093 1.05274 11.5371 1.08947H15.9084Z" fill="#1973EB"/>
<path d="M30.8351 11.9906V14.6684C30.1308 13.6956 29.2008 12.8952 28.1191 12.3311C27.0374 11.7669 25.8342 11.4545 24.6052 11.4189C19.8015 11.4189 15.9072 15.5068 15.9072 22.1647C15.9072 28.7796 19.8015 32.9117 24.6052 32.9117C25.8478 32.875 27.0639 32.5562 28.1549 31.981C29.2459 31.4058 30.1811 30.5905 30.8846 29.6013L30.8438 32.2097H36.8097V11.9906H30.8351ZM30.5018 24.1656C30.4879 25.1949 30.0645 26.1797 29.3194 26.9161C28.5742 27.6525 27.5642 28.0842 26.4985 28.1219C25.4308 28.0866 24.4181 27.6558 23.6708 26.9188C22.9235 26.1819 22.499 25.1955 22.4852 24.1644V20.2978C22.4993 19.267 22.924 18.2811 23.6714 17.5446C24.4187 16.8081 25.4311 16.3777 26.4985 16.3428C27.565 16.3789 28.5762 16.8098 29.3224 17.5462C30.0687 18.2825 30.4928 19.2678 30.5067 20.2978L30.5018 24.1656Z" fill="#1973EB"/>
<path d="M85.5396 32.34V29.6586C86.2439 30.6327 87.1746 31.4342 88.2572 31.999C89.3398 32.5639 90.5443 32.8764 91.7744 32.9117C96.5781 32.9117 100.472 28.8238 100.472 22.1659C100.472 15.551 96.5781 11.4189 91.7744 11.4189C90.5318 11.4556 89.3157 11.7745 88.2247 12.3496C87.1337 12.9248 86.1985 13.7401 85.495 14.7293L85.5359 1.37634L79.332 2.04968V32.2479L85.5396 32.34ZM85.8729 20.165C85.8866 19.1343 86.3108 18.1482 87.0576 17.4114C87.8044 16.6745 88.8164 16.2434 89.8836 16.2076C90.9509 16.2434 91.9629 16.6745 92.7097 17.4114C93.4565 18.1482 93.8807 19.1343 93.8944 20.165V24.0328C93.8807 25.0634 93.4564 26.0493 92.7096 26.786C91.9628 27.5227 90.9508 27.9535 89.8836 27.9891C88.8165 27.9535 87.8045 27.5227 87.0577 26.786C86.3109 26.0493 85.8866 25.0634 85.8729 24.0328V20.165Z" fill="#1973EB"/>
<path d="M50.288 28.0082C50.288 28.0082 45.5016 28.2725 45.5016 22.2939V21.9686C45.5016 15.9887 50.2831 16.2543 50.2831 16.2543C53.5157 16.21 54.6544 17.3091 54.6544 17.3091L56.1573 12.957C53.5616 11.1116 45.7296 10.8042 42.2219 13.9233C39.1937 16.625 39.195 20.9951 39.2495 22.13C39.195 23.2614 39.1937 27.6315 42.2232 30.338C45.7346 33.4595 53.5665 33.1509 56.1573 31.3043L54.6593 26.9534C54.6593 26.9534 53.5207 28.0525 50.288 28.0082" fill="#1973EB"/>
<path d="M76.7441 24.2971C76.7441 24.2971 79.2482 11.6378 67.273 11.5696C55.2977 11.5015 57.0262 23.0222 57.0262 23.0222C57.3 30.0115 60.6194 32.0327 66.3189 32.6929C69.7317 33.0857 73.1911 32.5846 76.334 31.2421L75.0145 27.1531C72.343 27.9267 69.5605 28.2828 66.7724 28.208C66.2838 28.168 65.8084 28.0346 65.3736 27.8157C64.9389 27.5968 64.5535 27.2967 64.24 26.9329C63.9264 26.569 63.6909 26.1486 63.5471 25.6962C63.4033 25.2437 63.354 24.7681 63.4022 24.2971H76.7441ZM63.3106 20.2057C63.3106 20.2057 62.9921 15.722 67.1813 15.722C71.3705 15.722 71.052 20.2057 71.052 20.2057H63.3106Z" fill="#1973EB"/>
<path d="M112.809 11.6941C105.013 11.6941 102.395 16.2388 102.395 22.3035C102.395 28.7414 105.776 32.9118 112.815 32.9118C118.569 32.9118 123.235 29.1804 123.235 22.3035C123.229 16.4445 120.251 11.6941 112.809 11.6941ZM116.87 24.058C116.841 25.1009 116.397 26.0931 115.632 26.8292C114.866 27.5654 113.836 27.9892 112.755 28.0131C111.675 27.9892 110.645 27.5652 109.879 26.8288C109.113 26.0924 108.669 25.0999 108.64 24.0568V20.1855C108.672 19.144 109.116 18.154 109.882 17.4196C110.648 16.6852 111.676 16.2625 112.755 16.2388C113.834 16.2625 114.863 16.6852 115.629 17.4196C116.394 18.154 116.839 19.144 116.87 20.1855V24.058Z" fill="#1973EB"/>
<path d="M135.82 11.6942C128.024 11.6942 125.406 16.2389 125.406 22.3037C125.406 28.7416 128.788 32.9119 135.827 32.9119C141.581 32.9119 146.247 29.1805 146.247 22.3037C146.241 16.4446 143.263 11.6942 135.82 11.6942ZM139.882 24.0581C139.853 25.1011 139.409 26.0932 138.643 26.8294C137.877 27.5655 136.848 27.9894 135.767 28.0132C134.686 27.9893 133.656 27.5653 132.89 26.8289C132.124 26.0925 131.681 25.1001 131.652 24.057V20.1856C131.684 19.1442 132.128 18.1541 132.894 17.4197C133.659 16.6853 134.688 16.2627 135.767 16.2389C136.846 16.2627 137.875 16.6853 138.64 17.4197C139.406 18.1541 139.85 19.1442 139.882 20.1856V24.0581Z" fill="#1973EB"/>
<path d="M168.089 32.2971L161.274 22.117L167.783 11.9369H161.125L154.768 21.049V1.27124L148.511 1.90391V32.2971H154.768V21.9448L161.63 32.3007L168.089 32.2971Z" fill="#1973EB"/>
<rect x="192.089" y="1" width="74" height="32" rx="16" fill="#1973EB"/>
<path d="M211.401 22.5H213.257V20.644H214.777V18.996H213.257V11.508H211.705L206.601 19.38V20.644H211.401V22.5ZM208.761 19.044L211.465 14.644V19.044H208.761ZM217.327 22.628C217.983 22.628 218.527 22.1 218.527 21.444C218.527 20.788 217.983 20.244 217.327 20.244C216.655 20.244 216.111 20.788 216.111 21.444C216.111 22.1 216.655 22.628 217.327 22.628ZM219.707 11.508V13.204H224.459L220.635 22.372L222.507 22.724L226.539 12.74V11.508H219.707Z" fill="white"/>
<path d="M244.09 22.4001L247.97 24.8579C248.127 24.9578 248.309 25.007 248.492 24.9992C248.676 24.9914 248.853 24.9271 249.002 24.8143C249.151 24.7015 249.265 24.5452 249.329 24.3651C249.393 24.185 249.405 23.989 249.363 23.8018L248.334 19.1768L251.765 16.0661C251.905 15.9404 252.005 15.7744 252.055 15.5891C252.104 15.4037 252.1 15.2072 252.043 15.0243C251.986 14.8414 251.878 14.6802 251.734 14.561C251.59 14.4418 251.415 14.3699 251.231 14.3543L246.717 13.9613L244.952 9.59429C244.88 9.41795 244.76 9.26763 244.607 9.16197C244.454 9.05632 244.275 9 244.092 9C243.908 9 243.729 9.05632 243.576 9.16197C243.423 9.26763 243.303 9.41795 243.231 9.59429L241.463 13.9473L236.946 14.3487C236.763 14.3643 236.588 14.4362 236.444 14.5554C236.299 14.6746 236.192 14.8358 236.135 15.0187C236.078 15.2016 236.074 15.3981 236.123 15.5835C236.172 15.7689 236.273 15.9348 236.412 16.0605L239.844 19.1712L238.816 23.7887C238.775 23.976 238.787 24.1719 238.851 24.3521C238.915 24.5322 239.029 24.6885 239.177 24.8013C239.326 24.9141 239.504 24.9784 239.687 24.9862C239.871 24.9939 240.052 24.9448 240.209 24.8449L244.09 22.4001Z" fill="#FFD644"/>
</svg>
