<svg width="296" height="169" viewBox="0 0 296 169" fill="none" xmlns="http://www.w3.org/2000/svg">
<path d="M13.6649 54.0189C10.0619 48.9859 14.0849 38.6829 20.9789 38.6279C27.8729 38.5729 33.5089 43.5909 33.5089 43.5909C33.5089 43.5909 26.7549 40.7909 20.6539 43.0239C15.3599 44.9609 17.5539 55.0689 17.5539 55.0689L13.6649 54.0189Z" fill="#63B0DB"/>
<path d="M0 40.2318C2.758 42.0608 4.342 45.5598 4.342 45.5598C4.342 45.5598 12.451 34.2948 16.895 37.2068C20.686 39.6908 17.348 53.3218 13.664 54.0188C13.664 54.0188 15.179 55.7068 18.346 56.0208C21.513 56.3348 25.297 44.8958 22.97 38.1258C20.643 31.3558 13.726 30.2098 7.784 33.4828C1.842 36.7548 0 40.2318 0 40.2318Z" fill="#8DCBF4"/>
<path d="M27.053 39.7798C32.968 42.3958 34.661 42.7258 35.174 47.1938C35.628 51.1538 32.882 55.6788 34.634 57.6798C35.868 59.0898 40.861 55.6048 45.653 57.6628C50.445 59.7208 51.543 63.2008 51.543 63.2008C51.543 63.2008 46.755 58.5338 43.264 59.4368C39.773 60.3408 35.564 62.9598 32.801 61.6408C30.038 60.3218 28.047 57.5558 29.888 50.0308C31.614 42.9738 27.053 39.7798 27.053 39.7798Z" fill="#8DCBF4"/>
<path d="M250.897 87.0288C250.897 87.0288 235.347 133.689 229.627 168.059H91.8771L65.7771 85.3188C65.7771 85.3188 108.677 119.139 138.887 133.879C139.607 134.239 140.307 134.569 141.007 134.899C144.077 136.339 146.997 137.549 149.697 138.489C149.697 138.489 155.847 135.849 165.237 131.639C165.697 131.429 166.157 131.229 166.627 131.009C190.367 120.329 232.696 100.489 250.897 87.0288Z" fill="#FFBBBB"/>
<path d="M65.7791 85.317L163.264 3.35596L250.9 87.034L151.391 149.227L65.7791 85.317Z" fill="#F97878"/>
<path d="M87.8451 101.82C83.3081 77.776 71.0601 36.493 71.0601 36.493C71.0601 36.493 226.665 31.049 255.246 29.688L233.47 98.191L149.695 138.485L87.8451 101.82Z" fill="white"/>
<path d="M16.8251 145.7C18.5031 141.35 23.3981 139.864 27.3641 141.974C27.3641 141.974 24.1731 135.697 29.2781 132.476C29.2781 132.476 22.0561 133.299 18.5861 138.068C15.1161 142.837 16.8251 145.7 16.8251 145.7Z" fill="#FFB85B"/>
<path d="M283.296 23.5272C284.974 19.1772 289.869 17.6912 293.835 19.8012C293.835 19.8012 290.644 13.5242 295.749 10.3032C295.749 10.3032 288.527 11.1262 285.057 15.8952C281.588 20.6642 283.296 23.5272 283.296 23.5272Z" fill="#FFB85B"/>
<path d="M238.878 20.469C233.796 20.09 231.254 6.417 248.355 0C248.355 0 252.837 2.408 253.574 5.847C253.574 5.847 240.721 6.051 239.269 16.331C239.006 18.194 238.878 20.469 238.878 20.469Z" fill="#73BFB2"/>
<path d="M224.634 26.657C225.894 17.465 230.285 11.845 235.399 11.022C240.513 10.199 244.918 15.614 238.878 20.469C238.878 20.469 239.343 16.883 236.919 15.73C234.496 14.577 231.245 15.717 228.956 18.516C226.668 21.314 224.634 26.657 224.634 26.657Z" fill="#5EA198"/>
<path d="M84.872 139.182C72.677 141.349 71.201 146.243 69.273 149.035C69.273 149.035 66.433 143.974 63.124 143.057C63.124 143.057 66.183 131.712 85.991 134.109L84.872 139.182Z" fill="#73BFB2"/>
<path d="M215.307 168.059H105.087L141.006 134.899L153.657 123.219L165.236 131.639L215.307 168.059Z" fill="#FFBBBB"/>
<path d="M153.657 123.219L141.006 134.899L105.087 168.059H91.9369L91.8569 167.809L138.887 133.879L153.657 123.219Z" fill="#F97878"/>
<path d="M228.327 168.059H215.307L165.236 131.639L153.657 123.219L166.627 131.009L228.327 168.059Z" fill="#F97878"/>
<path d="M120.346 81.424L131.876 69.894V101.093" stroke="#394A60" stroke-width="0.953" stroke-miterlimit="10"/>
<path d="M156.97 101.771C166.334 101.771 173.926 94.1794 173.926 84.8149C173.926 75.4503 166.334 67.8589 156.97 67.8589C147.605 67.8589 140.014 75.4503 140.014 84.8149C140.014 94.1794 147.605 101.771 156.97 101.771Z" stroke="#394A60" stroke-width="0.953" stroke-miterlimit="10"/>
<path d="M188.45 80.0309C191.178 80.0309 193.39 77.8192 193.39 75.0909C193.39 72.3626 191.178 70.1509 188.45 70.1509C185.722 70.1509 183.51 72.3626 183.51 75.0909C183.51 77.8192 185.722 80.0309 188.45 80.0309Z" stroke="#394A60" stroke-width="0.953" stroke-miterlimit="10"/>
<path d="M203.658 98.6188C206.386 98.6188 208.598 96.4071 208.598 93.6788C208.598 90.9505 206.386 88.7388 203.658 88.7388C200.93 88.7388 198.718 90.9505 198.718 93.6788C198.718 96.4071 200.93 98.6188 203.658 98.6188Z" stroke="#394A60" stroke-width="0.953" stroke-miterlimit="10"/>
<path d="M207.279 73.6421L182.535 98.3861" stroke="#394A60" stroke-width="0.953" stroke-miterlimit="10"/>
<path d="M266.705 153.425C274.395 146.912 260.188 129.194 253.086 125.849C245.984 122.504 242.264 131.869 239.925 133.05C237.587 134.231 230.215 123.838 230.215 123.838C230.215 123.838 232.122 132.061 239.243 135.657C244.364 138.242 247.696 119.14 259.535 138.024C267.845 151.279 258.609 152.738 258.609 152.738L266.705 153.425Z" fill="#D91B1A"/>
<path d="M292.438 137.456C288.908 133.37 290.872 126.103 290.872 126.103C290.872 126.103 251.333 110.053 251.04 139.933C250.851 159.193 264.635 156.139 266.705 153.424C266.705 153.424 258.327 154.466 257.499 144.008C256.671 133.549 261.482 130.62 265.08 130.265C280.709 128.724 292.438 137.456 292.438 137.456Z" fill="#FE4A49"/>
</svg>
