<svg width="1416" height="724" viewBox="0 0 1416 724" fill="none" xmlns="http://www.w3.org/2000/svg">
<g clip-path="url(#clip0_3_2287)">
<path d="M1416 565.206V673.067C1401.6 677.485 1349.4 691.538 1261.32 694.289C1189.26 696.535 963.651 692.92 829.821 690.452H829.784C829.772 690.452 829.759 690.452 829.747 690.44C769.055 689.317 727.25 688.429 727.25 688.429C734.639 685.566 742.201 682.753 749.91 680.014H749.923C934.59 614.266 1193.69 580.504 1327.5 568.5C1366.98 564.958 1416 565.206 1416 565.206Z" fill="#A0C2AA"/>
<path d="M1416 673V724H694.56L727.25 688.429C736.687 685.616 746.506 683.049 756.732 680.693H756.744C849.287 659.36 974.494 656.287 1144.07 666.639C1307 674.5 1416 673 1416 673Z" fill="#629A72"/>
<path d="M702.775 612.611L698.572 701.953L621.572 689.659L610.248 595.273L702.775 612.611Z" fill="#FE4A49"/>
<path d="M635.7 599.307L636.141 599.391L633.51 674.087H623.925L635.7 599.307Z" fill="#23364E"/>
<path d="M702.775 612.611L743.579 591.698L729.789 684.619L698.572 701.953L702.775 612.611Z" fill="#D91B1A"/>
<path d="M610.248 595.278L659.555 604.515L664.544 605.448L702.779 612.609L743.575 591.697L702.16 583.345L696.562 582.222L659.593 574.766L610.248 595.278Z" fill="#FF6666"/>
<path d="M657.403 695.409L661.212 695.505L663.881 605.641L665.1 604.926L702.16 583.345L696.562 582.222L658.84 604.418L658.831 604.98L657.403 695.409Z" fill="#23364E"/>
<path d="M972.841 724H440.273C457.592 714.031 477.169 704.616 498.917 696.88C498.917 696.88 508.995 693.302 521.404 689.773C524.069 689.009 526.844 688.256 529.645 687.54C596.899 670.291 687.628 674.116 749.91 680.014H749.923C752.23 680.236 754.512 680.458 756.732 680.693H756.744C795.195 684.542 821.211 688.959 821.211 688.959C823.986 689.428 826.823 689.934 829.747 690.44C829.759 690.452 829.772 690.452 829.784 690.452H829.821C867.025 697.016 915.986 707.331 972.841 724Z" fill="#81AE8E"/>
<path d="M590.011 592.211L588.37 698.165L492.564 686.42L474.782 575.058L590.011 592.211Z" fill="#FFCB85"/>
<path d="M590.011 592.211L639.687 565.955L626.321 676.497L588.37 698.165L590.011 592.211Z" fill="#FFA63B"/>
<path d="M639.687 565.955L535.051 548.967L474.782 575.058L590.011 592.211L639.687 565.955Z" fill="#FFB550"/>
<path d="M547.976 693.395L539.738 583.569L522.085 581.047L530.912 691.4L547.976 693.395Z" fill="#D91B1A"/>
<path d="M623.177 574.859L614.686 683.309L605.749 688.561L609.819 581.539L623.177 574.859Z" fill="#D91B1A"/>
<path d="M609.819 582.415L501.739 564.654L516.711 558.143L623.177 575.735L609.819 582.415Z" fill="#D91B1A"/>
<path d="M609.819 581.539L501.739 563.778L516.711 557.267L623.177 574.86L609.819 581.539Z" fill="#FF6666"/>
<path d="M537.987 584.445L592.869 558.469L574.969 555.539L520.333 581.922L537.987 584.445Z" fill="#D91B1A"/>
<path d="M537.987 583.569L592.869 557.592L574.969 554.663L520.333 581.047L537.987 583.569Z" fill="#FF6666"/>
<path d="M555.92 563.216C552.085 560.149 549.072 557.691 547.273 556.217C536.668 547.525 532.858 544.004 526.028 541.343C523.811 540.478 521.948 539.966 520.836 539.69C516.368 549.013 511.9 558.336 507.433 567.659C507.433 567.659 542.595 571.731 546.667 570.991C550.738 570.25 555.92 563.216 555.92 563.216Z" fill="#FE4A49"/>
<path d="M546.666 570.99C550.367 567.288 554.069 564.326 555.919 563.215C557.77 562.104 568.134 563.215 570.725 565.437C573.315 567.659 560.731 572.471 560.731 572.471L546.666 570.99Z" fill="#D91B1A"/>
<path d="M507.433 567.659C507.433 567.659 527.42 577.285 546.667 570.991C540.467 569.796 535.524 568.524 532.184 567.594C525.04 565.604 521.931 564.257 517.119 564.643C512.877 564.982 509.534 566.489 507.433 567.659Z" fill="#23364E"/>
<path d="M570.726 565.437C573.518 564.956 577.893 564.097 583.152 562.59C592.691 559.859 595.925 557.636 602.743 556.452C606.264 555.84 611.545 555.366 618.322 556.452L601.327 584.784L560.732 572.472L570.726 565.437Z" fill="#FE4A49"/>
<path d="M601.326 584.784C601.334 584.776 599.977 582.193 598.063 580.469C597.144 579.642 591.362 574.698 560.731 572.472C560.731 572.472 589.35 589.496 601.326 584.784Z" fill="#23364E"/>
<path d="M682.934 594.189C682.994 588.507 672.017 571.081 672.017 571.081C672.017 571.081 655.254 579.775 650.959 594.499L682.934 594.189Z" fill="#23364E"/>
<path d="M678.784 591.352C704.147 588.548 703.564 584.518 720.972 584.651C719.59 587.937 719.047 594.553 713.417 599.692C708.842 603.868 704.212 606.127 701.131 607.339C693.683 602.011 678.695 595.902 678.784 591.352Z" fill="#23364E"/>
<path d="M676.716 588.897C683.781 588.635 686.099 586.663 689.762 591.897C689.762 591.897 686.082 599.226 677.202 595.823C667.913 592.263 676.716 588.897 676.716 588.897Z" fill="#23364E"/>
<path d="M546.224 693.395L537.987 583.569L520.333 581.047L529.159 691.4L546.224 693.395Z" fill="#FE4A49"/>
<path d="M595.085 724H0V657.028C30.2718 657.287 71.2385 657.398 119.557 656.892C239.892 655.646 234.217 652.364 285.583 653.672C411.42 656.867 486.667 677.423 521.404 689.773C529.743 692.735 535.738 695.215 539.55 696.88C557.412 704.678 575.94 713.66 595.085 724Z" fill="#A0C2AA"/>
<path d="M954.297 146.326H828.175L829.161 145.097C829.451 144.733 836.45 136.18 851.019 136.18C858.81 136.18 861.339 137.524 863.788 138.824C866.168 140.087 868.413 141.28 875.771 141.28C881.814 141.28 885.874 136.201 890.573 130.319C896.844 122.472 903.952 113.578 918.019 113.578C923.759 113.608 929.359 115.351 934.096 118.585C938.424 121.548 942.201 125.243 945.259 129.502C948.846 134.36 951.763 139.68 953.932 145.317L954.297 146.326Z" fill="#EEF1FB"/>
<path d="M71.9246 91.706H159.286L158.605 90.8545C158.404 90.6018 153.556 84.6781 143.465 84.6781C138.067 84.6781 136.314 85.6092 134.614 86.5085C132.96 87.3838 131.41 88.2091 126.313 88.2091C122.131 88.2091 119.317 84.6906 116.061 80.6166C111.717 75.1812 106.795 69.0207 97.0492 69.0207C93.0742 69.0412 89.1961 70.2489 85.9132 72.4891C82.916 74.5415 80.3002 77.1004 78.1818 80.0508C75.6969 83.4168 73.6752 87.1004 72.1715 91.0048L71.9246 91.706Z" fill="#EEF1FB"/>
<path d="M1266.04 103.183H1353.4L1352.72 102.332C1352.52 102.079 1347.67 96.1554 1337.58 96.1554C1332.18 96.1554 1330.43 97.0866 1328.73 97.9858C1327.07 98.8612 1325.52 99.6864 1320.43 99.6864C1316.24 99.6864 1313.43 96.1679 1310.17 92.094C1305.83 86.6586 1300.91 80.498 1291.16 80.498C1287.19 80.5185 1283.31 81.7263 1280.03 83.9665C1277.03 86.0188 1274.41 88.5777 1272.3 91.5282C1269.81 94.8942 1267.79 98.5777 1266.29 102.482L1266.04 103.183Z" fill="#EEF1FB"/>
<path d="M422.567 134.534H560.325L559.252 133.191C558.934 132.793 551.283 123.452 535.376 123.452C526.863 123.452 524.1 124.919 521.426 126.338C518.827 127.717 516.373 129.02 508.335 129.02C501.733 129.02 497.303 123.472 492.171 117.049C485.322 108.477 477.56 98.7631 462.191 98.7631C455.923 98.7938 449.808 100.696 444.63 104.227C439.904 107.464 435.777 111.5 432.437 116.153C428.518 121.46 425.331 127.27 422.96 133.427L422.567 134.534Z" fill="#EEF1FB"/>
<path d="M224.303 454.127L219.297 647.209L177.121 650.723L186.961 449.639L224.303 454.127Z" fill="#23364E"/>
<path d="M129.535 455.193L134.944 650.723H177.121L198.209 444.717L129.535 455.193Z" fill="#23364E"/>
<path d="M303.117 594.913L299.982 656.286H257.609C257.609 656.286 256.543 651.144 268.466 646.963C268.873 646.806 269.302 646.67 269.751 646.524C283.398 642.166 282.395 640.389 282.28 636.835C282.123 631.808 277.745 592.143 277.745 592.143L303.117 594.913Z" fill="#D8A38D"/>
<path d="M301.027 643.953L299.982 656.286H257.609C257.609 656.286 256.543 651.144 268.466 646.963C268.612 648.489 271.298 649.346 273.889 649.074C277.63 648.687 294.59 645.322 301.027 643.953Z" fill="#23364E"/>
<path d="M289.815 594.913L286.681 656.286H245.352C245.352 656.286 244.287 651.144 256.21 646.963C256.617 646.806 257.045 646.67 257.495 646.524C271.142 642.166 270.139 640.389 270.024 636.835C269.867 631.808 265.489 592.143 265.489 592.143L289.815 594.913Z" fill="#23364E"/>
<path d="M285.234 594.913V656.286H242.861C242.861 656.286 241.795 651.144 253.718 646.963C254.126 646.806 254.554 646.67 255.004 646.524C268.651 642.166 267.648 640.389 267.533 636.835C267.376 631.808 262.998 592.143 262.998 592.143L285.234 594.913Z" fill="#D8A38D"/>
<path d="M231.398 372.467L224.303 454.127L129.535 455.193L128.888 437.53L128.114 416.49C128.114 416.49 95.4384 412.801 91.1541 407.982C86.8593 403.154 88.2073 397.792 95.4698 377.17L231.398 372.467Z" fill="#96CEEA"/>
<path d="M240.744 377.17H95.4697C95.4697 377.17 115.038 317.85 126.181 315.009C137.318 312.168 158.207 311.123 158.207 311.123L205.326 320.942C204.96 320.737 195.722 315.6 207.557 321.974C219.631 328.483 240.744 377.17 240.744 377.17Z" fill="#96CEEA"/>
<path d="M198.939 325.692L205.575 297.483L223.455 275.911L216.082 246.965L181.427 257.29L174.607 287.711L163.916 311.126L183.087 330.67L198.939 325.692Z" fill="#E3B492"/>
<path d="M174.607 287.711L185.298 280.889C185.298 280.889 178.662 274.989 180.505 270.011C182.349 265.033 187.879 263.742 191.012 265.033C191.012 265.033 188.431 301.723 204.653 303.752C220.875 305.78 226.036 295.086 225.667 288.449C225.299 281.812 223.455 275.912 223.455 275.912C223.455 275.912 205.022 280.705 199.676 277.387C194.33 274.068 194.884 254.525 194.884 254.525L216.451 248.993C216.451 248.993 221.612 241.25 218.663 237.378C215.714 233.507 204.469 238.116 192.303 242.357C180.137 246.597 176.082 249.547 174.792 264.85C173.501 280.152 174.607 287.711 174.607 287.711Z" fill="#DFE5E7"/>
<path d="M191.012 265.033L198.755 264.296" stroke="#FDF9EF" stroke-miterlimit="10"/>
<path d="M211.606 263.388L215.665 263.055" stroke="#FDF9EF" stroke-miterlimit="10"/>
<path d="M206.833 273.002C210.406 272.477 212.766 268.405 212.105 263.907C211.444 259.409 208.012 256.188 204.439 256.713C200.867 257.238 198.506 261.31 199.167 265.809C199.828 270.307 203.26 273.527 206.833 273.002Z" stroke="#FDF9EF" stroke-miterlimit="10"/>
<path d="M221.466 271.016C224.03 270.639 225.573 266.687 224.912 262.189C224.252 257.691 221.637 254.35 219.073 254.727C216.508 255.103 214.965 259.056 215.626 263.554C216.287 268.052 218.902 271.393 221.466 271.016Z" stroke="#FDF9EF" stroke-miterlimit="10"/>
<path d="M184.544 339.058C191.781 342.966 203.213 342.532 205.674 336.163L194.386 326.464L184.544 339.058Z" fill="#FF5001"/>
<path d="M167.466 303.158L158.204 311.119L182.952 345.282L194.386 326.463L163.916 311.126L167.466 303.158Z" fill="#FDF9EF"/>
<path d="M194.385 326.463L200.864 317.461L201.911 313.001L207.555 321.976L208.279 340.071L194.385 326.463Z" fill="#FDF9EF"/>
<path d="M279.262 340.573L266.07 324.587L265.674 322.203C267.908 321.19 269.465 318.946 269.465 316.333C269.465 312.98 266.905 310.227 263.633 309.917L261.561 297.441L227.018 303.158L232.593 333.65C233.669 339.528 239.814 342.989 245.396 340.858L252.012 338.332L257.864 347.018L279.262 340.573Z" fill="#D8A38D"/>
<path d="M252.011 338.333L261.731 332.837L254.537 342.195L252.011 338.333Z" fill="#23364E"/>
<path d="M307.114 376.835C301.28 357.535 279.262 340.573 279.262 340.573C279.262 340.573 267.626 343.687 257.864 347.02C248.102 350.353 245.409 352.149 240.472 360.676C235.536 369.205 233.517 377.508 233.517 377.508L307.114 376.835Z" fill="#FFB550"/>
<path d="M197.773 377.17L179.518 384.309C178.101 382.352 171.454 373.149 169.813 371.206C164.235 364.621 153.156 357.169 155.605 355.155C158.061 353.141 169.666 364.466 170.891 363.46C172.115 362.453 156.51 346.144 159.055 343.509C160.535 341.976 162.747 343.996 162.747 343.996C162.747 343.996 160.913 341.546 163.459 340.411C166.671 338.981 178.507 354.95 179.655 354.251C180.808 353.551 169.941 341.047 173.108 339.014C176.699 336.711 189.849 361.408 190.721 358.516C191.586 355.624 189.65 345.511 192.15 345.306C194.651 345.1 194.811 353.149 195.497 360.338C196.183 367.499 195.727 370.365 197.773 377.17Z" fill="#FF6E6C"/>
<path d="M257.245 316.337C257.245 309.472 253.686 304.641 253.686 304.641C253.686 304.641 236.146 310.998 225.978 308.709C215.809 306.421 216.064 293.199 233.858 288.369C251.651 283.538 266.65 283.284 270.97 299.047C275.291 314.811 269.263 323.824 265.056 325.705L262.908 323.734C262.908 323.734 270.784 317.736 267.204 312.99C263.624 308.244 259.506 312.721 258.342 314.602C257.178 316.482 257.245 316.337 257.245 316.337Z" fill="#DFE5E7"/>
<path d="M279.273 316.276C284.958 315.477 288.63 308.162 287.475 299.938C286.32 291.713 280.775 285.693 275.09 286.491C269.405 287.29 265.733 294.605 266.888 302.83C268.043 311.055 273.588 317.075 279.273 316.276Z" fill="#DFE5E7"/>
<path d="M139.981 371.616L132.425 383.055L173.472 389.386L139.981 371.616Z" fill="#7AB7CE"/>
<path d="M192.055 422.27C192.055 422.27 152.232 423.294 139.567 428.813C134.165 431.164 130.873 434.488 128.888 437.53L128.114 416.49L172.243 419.208C172.243 419.208 180.007 418.183 192.055 422.27Z" fill="#7AB7CE"/>
<path d="M197.69 373.263C199.214 372.966 218.779 405.805 218.779 405.805C218.779 405.805 229.608 388.956 233.516 377.508L240.743 377.169L307.113 376.834C307.113 376.834 313.629 410.857 320.239 446.945C320.239 446.945 316.934 452.179 299.308 454.107C281.682 456.035 278.927 454.658 259.648 456.035C240.368 457.413 236.788 453.831 236.788 453.831L242.28 427.588C242.28 427.588 223.619 439.498 211.475 436.906C197.097 433.838 175.919 385.237 175.919 385.237C175.919 385.237 181.452 376.441 197.69 373.263Z" fill="#FFB550"/>
<path d="M242.279 427.589C253.972 417.847 257.44 413.021 257.44 413.021L236.786 453.832L242.279 427.589Z" fill="#E89531"/>
<path d="M320.239 446.946C320.239 446.946 323.626 513.94 332.741 593.649C332.741 593.649 321.677 591.673 318.121 590.488C314.565 589.302 301.92 597.206 292.832 598.787C283.744 600.369 248.972 595.231 241.465 594.044C233.957 592.859 229.216 600.368 229.216 600.368L236.787 453.832L320.239 446.946Z" fill="#FF5001"/>
<path d="M177.121 650.723L189.136 649.103L192.492 487.619L177.121 650.723Z" fill="#0F1B28"/>
<path d="M134.944 650.724C159.53 643.783 190.269 638.116 190.269 656.551H134.785L134.944 650.724Z" fill="#0F1B28"/>
<path d="M177.448 650.724C202.034 643.783 232.772 638.116 232.772 656.551H177.289L177.448 650.724Z" fill="#0F1B28"/>
<path d="M285.234 643.953V656.286H242.861C242.861 656.286 241.795 651.144 253.718 646.963C253.865 648.489 256.55 649.346 259.142 649.074C262.883 648.687 278.797 645.322 285.234 643.953Z" fill="#23364E"/>
<path d="M172.932 393.662C172.008 396.101 170.916 399.863 170.832 404.551C170.728 410.362 172.221 414.925 173.31 417.552C175.654 417.64 179.491 417.093 183.109 419.143C196.843 426.918 203.906 431.302 204.856 430.097C204.885 430.06 204.89 429.991 204.949 429.864C206.308 426.925 190.631 416.886 190.608 416.922C190.582 416.961 208.545 430.023 210.514 427.583C210.588 427.493 210.625 427.422 210.664 427.36C212.387 424.689 195.526 413.207 195.877 412.725C196.221 412.253 213.374 423.151 215.316 422.026C215.533 421.901 215.591 421.748 215.661 421.604C217.298 418.249 198.033 407.391 198.403 406.879C198.948 406.123 213.026 413.288 214.443 411.079C214.551 410.911 214.551 410.743 214.548 410.565C214.487 406.981 203.27 402.29 193.288 397.768C193.188 397.723 192.674 397.483 192.694 397.219C192.785 396.055 203.604 396.829 205.9 393.633C206.143 393.294 206.193 393.042 206.151 392.838C205.936 391.802 202.509 391.379 199.68 391.229C191.844 390.816 188.121 390.277 184.053 391.732C182.028 392.456 179.828 393.558 176.274 393.758C174.855 393.838 173.686 393.748 172.932 393.662Z" fill="#FF6E6C"/>
<path d="M265.594 229.253C270.18 227.621 285.416 223.41 281.875 216.975C279.196 212.107 272.086 216.511 272.086 216.511C272.086 216.511 271.638 207.536 265.591 208.728C259.547 209.918 262.495 217.793 263.663 221.181C265.514 226.554 265.594 229.253 265.594 229.253Z" fill="#FE4A49"/>
<path d="M272.1 216.514C271.375 216.852 270.4 217.471 270.4 217.471C270.4 217.471 271.522 211.323 268.755 209.176C270.748 210.319 271.87 213.419 272.1 216.514Z" fill="#E02B2B"/>
<path d="M265.59 229.249C265.59 229.249 284.45 222.431 280.428 215.626C280.351 215.496 280.27 215.357 280.192 215.234C280.841 215.601 281.429 216.159 281.874 216.974C285.418 223.407 270.173 227.624 265.59 229.249Z" fill="#E02B2B"/>
<path d="M257.716 181.188C261.222 175.56 273.891 158.151 264.66 154.295C257.676 151.378 253.832 162.101 253.832 162.101C253.832 162.101 245.744 152.915 240.309 159.312C234.876 165.705 244.696 171.6 248.814 174.221C255.343 178.379 257.716 181.188 257.716 181.188Z" fill="#FE4A49"/>
<path d="M253.85 162.093C253.363 163.067 252.849 164.554 252.849 164.554C252.849 164.554 248.832 157.049 244.061 157.107C247.155 156.635 250.98 158.988 253.85 162.093Z" fill="#E02B2B"/>
<path d="M257.709 181.187C257.709 181.187 272.031 157.928 261.973 154.084C261.78 154.01 261.577 153.931 261.389 153.867C262.392 153.706 263.492 153.803 264.657 154.295C273.89 158.147 261.216 175.569 257.709 181.187Z" fill="#E02B2B"/>
<path d="M230.98 203.296C232.58 200.558 238.403 192.065 233.938 190.346C230.56 189.045 228.867 194.223 228.867 194.223C228.867 194.223 224.877 189.94 222.364 193.071C219.853 196.201 224.627 198.887 226.63 200.085C229.808 201.985 230.98 203.296 230.98 203.296Z" fill="#FE4A49"/>
<path d="M228.875 194.219C228.655 194.692 228.43 195.409 228.43 195.409C228.43 195.409 226.409 191.875 224.129 191.967C225.601 191.7 227.461 192.773 228.875 194.219Z" fill="#E02B2B"/>
<path d="M230.976 203.295C230.976 203.295 237.511 191.984 232.651 190.281C232.558 190.249 232.46 190.213 232.369 190.185C232.846 190.095 233.373 190.127 233.937 190.346C238.403 192.063 232.578 200.563 230.976 203.295Z" fill="#E02B2B"/>
<path d="M1263.05 672.154L1201.92 670.32C1202.01 669.899 1202.13 669.502 1202.27 669.106C1205.43 660.307 1219.92 658.164 1225.19 657.594C1224.78 652.637 1224.38 647.692 1223.99 642.735L1256.92 647.482L1259.27 656.962L1263.05 672.154Z" fill="#0F1B28"/>
<path d="M1259.27 656.962L1225.19 657.594C1224.78 652.637 1224.38 647.692 1223.99 642.735L1256.92 647.482L1259.27 656.962Z" fill="#FF6E6C"/>
<path d="M1198.3 670.915L1137.17 669.081C1137.26 668.66 1137.38 668.263 1137.52 667.867C1140.68 659.068 1155.17 656.924 1160.44 656.354C1160.03 651.397 1159.63 646.453 1159.24 641.496L1192.17 646.242L1194.52 655.722L1198.3 670.915Z" fill="#0F1B28"/>
<path d="M1194.52 655.722L1160.44 656.354C1160.03 651.397 1159.63 646.453 1159.24 641.496L1192.17 646.242L1194.52 655.722Z" fill="#FF6E6C"/>
<path d="M1152.66 398.631L1156.69 646.678L1196.08 648.917L1225.06 390.992L1152.66 398.631Z" fill="#3C5069"/>
<path d="M1153.45 278.14C1135.54 284.858 1129.19 313.872 1130.31 351.937L1158.29 337.755L1153.45 278.14Z" fill="#FFB550"/>
<path d="M1143.89 320.273L1136.11 347.474L1152.14 340.768L1143.89 320.273Z" fill="#E89531"/>
<path d="M1137.17 475.634C1136.77 483.9 1122.61 499.253 1124.57 500.828C1126.54 502.403 1135.99 503.977 1141.89 500.828C1147.8 497.679 1150.16 491.774 1158.42 484.689C1166.69 477.603 1156.85 467.761 1156.85 467.761L1137.17 475.634Z" fill="#30363C"/>
<path d="M1151.57 338.05C1140.63 341.218 1125.2 346.607 1120.64 357.999C1113.8 375.092 1122.54 441.596 1123.49 483.394C1127.26 481.719 1133.75 480.086 1139.17 478.941C1150.21 476.611 1157.85 477.395 1164.19 478.507L1160.05 402.32L1151.57 338.05Z" fill="#D2CBC8"/>
<path d="M1186.13 452.306C1186.13 452.306 1184.54 548.119 1184.54 557.661C1184.54 567.203 1198.85 628.031 1198.85 628.031L1205.61 567.999L1186.13 452.306Z" fill="#0F1B28" fill-opacity="0.5"/>
<path d="M1184.57 414.369C1184.57 414.369 1188.74 511.775 1190.9 534.453C1193.06 557.131 1220.2 648.167 1220.2 648.167L1262.31 648.707C1262.31 648.707 1248.81 551.516 1248.81 542.878C1248.81 534.239 1260.09 381.936 1260.09 381.936L1184.57 414.369Z" fill="#3C5069"/>
<path d="M1275.69 301.123C1291.99 322.745 1304 343.383 1290.54 360.396C1277.07 377.409 1260.09 381.937 1260.09 381.937L1248.75 305.377L1275.69 301.123Z" fill="#D2CBC8"/>
<path d="M1217.17 236.937C1227.37 235.393 1230.08 232.955 1248.3 245.62C1266.52 258.285 1288.76 274.74 1294.01 290.494C1299.26 306.248 1268.31 306.733 1264.61 307.042L1140.51 290.804C1140.51 290.804 1134.03 288.641 1128.47 285.243C1122.91 281.845 1133.11 261.294 1157.5 256.824C1178.17 253.033 1217.17 236.937 1217.17 236.937Z" fill="#96CEEA"/>
<path d="M1227.03 258.093C1227.03 258.093 1223.34 260.425 1222.56 264.508L1195.98 263.256C1195.98 263.256 1202.93 257.316 1227.03 258.093Z" fill="#BE9B87"/>
<path d="M1160.05 402.321C1160.05 402.321 1144.7 353.415 1143.89 320.272C1143.08 287.129 1143.65 279.644 1165.81 272.027C1187.97 264.409 1192.41 263.095 1192.41 263.095C1192.41 263.095 1212.84 260.243 1230.2 266.031C1247.56 271.82 1272.25 313.5 1276.5 326.621C1280.74 339.742 1278.43 376.791 1278.43 376.791L1263.77 381.957L1218.36 395.849L1160.05 402.321Z" fill="#FFB550"/>
<path d="M1277.01 377.008C1277.01 377.008 1276.47 379.894 1275.94 382.994C1275.4 386.095 1264.5 389.836 1264.5 389.836L1263.43 380.534L1277.01 377.008Z" fill="#FF6E6C"/>
<path d="M1140.22 231.203C1150.03 253.276 1151.26 265.947 1163.92 263.086C1176.59 260.225 1187.22 252.867 1187.22 252.867V240.196L1183.54 229.892L1150.98 222.738L1140.22 231.203Z" fill="#A47357"/>
<path d="M1187.24 248.24C1184.26 245.983 1182.25 243.756 1179.27 241.5L1174.89 237.884L1172.66 238.114C1172.66 238.114 1171.66 232.727 1170.81 230.42C1169.96 228.111 1164.19 228.574 1157.73 228.42C1154.42 228.341 1151.43 228.829 1148.68 230.049C1144.66 231.831 1144.82 234.472 1141.42 235.653C1138.45 236.684 1134.18 236.336 1132.04 233.884C1128.9 230.281 1131.1 222.988 1135.04 219.263C1138.54 215.948 1140.97 217.771 1148.35 214.724C1157.01 211.143 1157.74 206.939 1163.58 206.183C1169.75 205.385 1174.97 209.291 1177.19 210.954C1191.77 221.847 1187.53 246.272 1187.24 248.24Z" fill="#23364E"/>
<path d="M1164.86 261.195L1165.81 272.028C1165.81 272.028 1182.72 279.44 1192.41 263.096L1187.22 252.869L1164.86 261.195Z" fill="#8F6B57"/>
<path d="M1165.28 266.414L1177.24 258.409L1165.04 262.873L1165.28 266.414Z" fill="#23364E"/>
<path d="M1182.55 238.76C1183.1 235.536 1181.71 232.613 1179.46 232.231C1177.2 231.848 1174.93 234.152 1174.39 237.376C1173.84 240.6 1175.23 243.524 1177.48 243.906C1179.73 244.288 1182 241.984 1182.55 238.76Z" fill="#9C7A67"/>
<path d="M1189.81 235.692L1189.5 247.602C1189.5 247.602 1190.91 249.795 1200.47 248.229C1210.02 246.661 1213.7 241.672 1213.7 241.672L1210.81 228.326L1189.81 235.692Z" fill="#9F8475"/>
<path d="M1189.81 235.692L1189.72 242.195L1204.08 235.643L1189.81 235.692Z" fill="#23364E"/>
<path d="M1174.98 209.767C1178.94 233.585 1176.96 237.886 1193.83 237.555C1210.69 237.225 1210.69 231.27 1210.69 231.27L1212.02 210.098L1185.56 195.211L1174.98 209.767Z" fill="#BE9B87"/>
<path d="M1177.47 224.803C1175.11 216.553 1172.06 221.329 1170.67 210.62C1169.29 199.91 1176.22 194.844 1186.49 191.806C1196.76 188.766 1212.17 191.082 1217.44 210.186C1222.72 229.29 1224.38 233.342 1224.52 236.961C1224.66 240.579 1211.87 243.595 1211.87 243.595C1211.87 243.595 1210.76 240.991 1209.1 233.753C1207.43 226.516 1206.01 218.424 1206.01 218.424C1206.01 218.424 1184.47 215.551 1181.98 201.223C1181.98 201.223 1182.05 205.41 1175.53 213.081L1177.47 224.803Z" fill="#405368"/>
<path d="M1251.45 330.076L1224.81 303.285L1244.1 334.957L1251.45 330.076Z" fill="#E89531"/>
<path d="M1285.54 284.368C1285.54 284.368 1258.56 263.739 1232.54 258.025C1232.54 258.025 1237.3 255.803 1243.02 255.803C1248.73 255.803 1265.23 264.055 1285.54 284.368Z" fill="#7AB7CE"/>
<path d="M1151.15 280.434L1145.98 291.873C1147.73 292.542 1156.61 298.116 1158.4 298.956C1164.44 301.815 1172.23 308.62 1173.25 306.383C1174.26 304.143 1163.47 297.718 1163.98 296.601C1164.49 295.483 1179.81 303.905 1181.27 301.472C1182.12 300.057 1180.17 298.805 1180.17 298.805C1180.17 298.805 1182.37 299.689 1182.71 297.556C1183.14 294.866 1168.82 289.198 1169.12 288.199C1169.41 287.195 1180.94 292.831 1181.83 290.053C1182.83 286.905 1161.72 281.998 1163.71 280.767C1165.7 279.54 1173.66 278.969 1173.31 277.056C1172.97 275.142 1166.91 276.632 1161.39 277.555C1155.9 278.473 1156.65 280.604 1151.15 280.434Z" fill="#BE9B87"/>
<path d="M1153.54 276.607L1158.11 278.436C1158.11 278.436 1150.56 282.021 1146.37 292.291L1139.52 290.462C1139.52 290.463 1147.45 276.912 1153.54 276.607Z" fill="#96CEEA"/>
<path d="M1251.53 451.389C1251.14 459.656 1236.97 475.009 1238.94 476.584C1240.91 478.159 1250.35 479.733 1256.25 476.584C1262.16 473.435 1264.52 467.53 1272.79 460.444C1281.05 453.359 1271.21 443.517 1271.21 443.517L1251.53 451.389Z" fill="#30363C"/>
<path d="M1251.45 330.076C1256.94 333.978 1258.8 340.954 1260.08 355.03C1261.36 369.106 1281.19 451.008 1281.19 451.008C1281.19 451.008 1242.49 457.086 1237.05 457.726C1237.05 457.726 1225.54 416.456 1221.06 401.739C1216.58 387.022 1205.71 359.828 1220.42 346.712C1235.14 333.596 1251.45 330.076 1251.45 330.076Z" fill="#D2CBC8"/>
<path d="M1138.09 134.256C1138.28 129.391 1140.02 113.681 1132.73 114.579C1127.22 115.259 1128.67 123.495 1128.67 123.495C1128.67 123.495 1120.17 120.579 1119.03 126.635C1117.89 132.689 1126.3 132.876 1129.88 133.05C1135.55 133.327 1138.09 134.256 1138.09 134.256Z" fill="#FE4A49"/>
<path d="M1128.68 123.484C1128.72 124.283 1128.93 125.417 1128.93 125.417C1128.93 125.417 1123.64 122.092 1120.62 123.864C1122.42 122.438 1125.72 122.547 1128.68 123.484Z" fill="#E02B2B"/>
<path d="M1138.08 134.257C1138.08 134.257 1138.76 114.215 1130.94 115.421C1130.79 115.445 1130.64 115.468 1130.49 115.496C1131.07 115.028 1131.81 114.69 1132.73 114.58C1140.02 113.678 1138.28 129.399 1138.08 134.257Z" fill="#E02B2B"/>
<path d="M1171.15 158.614C1176.44 154.607 1194.48 142.865 1187.24 135.969C1181.75 130.752 1174.34 139.397 1174.34 139.397C1174.34 139.397 1170.06 127.93 1162.7 131.967C1155.34 136.001 1162.41 145.011 1165.32 148.929C1169.94 155.143 1171.15 158.614 1171.15 158.614Z" fill="#FE4A49"/>
<path d="M1174.35 139.396C1173.55 140.133 1172.54 141.338 1172.54 141.338C1172.54 141.338 1171.47 132.894 1166.99 131.246C1170.05 131.909 1172.78 135.472 1174.35 139.396Z" fill="#E02B2B"/>
<path d="M1171.15 158.61C1171.15 158.61 1192.82 141.993 1184.8 134.813C1184.65 134.676 1184.49 134.529 1184.33 134.402C1185.33 134.61 1186.32 135.093 1187.23 135.968C1194.48 142.861 1176.43 154.614 1171.15 158.61Z" fill="#E02B2B"/>
<path d="M1151.93 178.584C1153.53 175.846 1159.36 167.354 1154.89 165.634C1151.51 164.334 1149.82 169.511 1149.82 169.511C1149.82 169.511 1145.83 165.229 1143.32 168.36C1140.81 171.489 1145.58 174.175 1147.58 175.373C1150.76 177.273 1151.93 178.584 1151.93 178.584Z" fill="#FE4A49"/>
<path d="M1149.83 169.507C1149.61 169.98 1149.38 170.697 1149.38 170.697C1149.38 170.697 1147.36 167.163 1145.08 167.255C1146.55 166.988 1148.41 168.062 1149.83 169.507Z" fill="#E02B2B"/>
<path d="M1151.93 178.584C1151.93 178.584 1158.46 167.272 1153.6 165.569C1153.51 165.537 1153.41 165.502 1153.32 165.474C1153.8 165.383 1154.33 165.415 1154.89 165.634C1159.36 167.352 1153.53 175.851 1151.93 178.584Z" fill="#E02B2B"/>
</g>
<defs>
<clipPath id="clip0_3_2287">
<rect width="1416" height="724" fill="white"/>
</clipPath>
</defs>
</svg>
