<?xml version="1.0" encoding="utf-8"?>
<!-- Generator: Adobe Illustrator 25.2.1, SVG Export Plug-In . SVG Version: 6.00 Build 0)  -->
<svg version="1.1" id="Layer_1" xmlns="http://www.w3.org/2000/svg" xmlns:xlink="http://www.w3.org/1999/xlink" x="0px" y="0px"
	 viewBox="0 0 643.14 99.17" style="enable-background:new 0 0 643.14 99.17;" xml:space="preserve">
<style type="text/css">
	.st0{fill:#F27124;}
</style>
<g>
	<polygon points="213.44,32.68 236.95,32.68 236.95,97.66 259.24,97.66 259.24,32.68 282.62,32.68 282.62,13.15 213.44,13.15 	"/>
	<g>
		<path d="M342.79,77.53c-2.75,1.23-5.86,1.86-9.23,1.86c-3.45,0-6.6-0.62-9.35-1.86c-2.76-1.23-5.13-2.94-7.05-5.07
			c-1.93-2.13-3.45-4.68-4.52-7.56c-1.07-2.88-1.61-6.06-1.61-9.44c0-3.38,0.54-6.55,1.61-9.44c1.07-2.88,2.59-5.42,4.52-7.56
			c1.93-2.14,4.3-3.84,7.05-5.07c2.75-1.23,5.89-1.86,9.35-1.86c3.37,0,6.47,0.62,9.23,1.86c2.75,1.23,5.12,2.94,7.05,5.07
			c1.93,2.14,3.45,4.68,4.52,7.56c1.07,2.89,1.61,6.06,1.61,9.44c0,3.38-0.54,6.55-1.61,9.44c-1.07,2.88-2.59,5.42-4.52,7.56
			C347.92,74.59,345.55,76.3,342.79,77.53 M365.79,23.99c-3.99-3.83-8.81-6.85-14.31-9c-5.5-2.14-11.53-3.23-17.91-3.23
			c-6.46,0-12.51,1.09-17.97,3.23c-5.46,2.14-10.27,5.16-14.31,8.99c-4.04,3.83-7.24,8.48-9.51,13.81
			c-2.27,5.34-3.42,11.29-3.42,17.67c0,6.38,1.15,12.33,3.42,17.67c2.27,5.34,5.47,9.99,9.51,13.82c4.03,3.82,8.85,6.85,14.31,8.99
			c5.46,2.14,11.51,3.23,17.97,3.23c6.38,0,12.41-1.09,17.91-3.23c5.51-2.15,10.32-5.17,14.31-9c4-3.83,7.17-8.48,9.44-13.81
			c2.27-5.34,3.42-11.28,3.42-17.67c0-6.38-1.15-12.33-3.42-17.67C372.96,32.46,369.79,27.82,365.79,23.99"/>
		<path d="M450.5,55.34c0,3.04-0.52,5.98-1.55,8.74c-1.03,2.76-2.53,5.19-4.46,7.24c-1.93,2.05-4.34,3.72-7.18,4.95
			c-2.83,1.23-6.11,1.86-9.73,1.86h-13.24V32.68h13.36c3.79,0,7.15,0.58,9.99,1.73c2.83,1.15,5.22,2.77,7.11,4.82
			c1.89,2.05,3.32,4.46,4.27,7.17C450.02,49.12,450.5,52.13,450.5,55.34 M460.26,24.42c-4.03-3.62-8.88-6.43-14.42-8.36
			c-5.54-1.93-11.7-2.91-18.31-2.91h-35.48v84.51h35.6c6.54,0,12.65-0.98,18.18-2.91c5.54-1.93,10.39-4.77,14.42-8.43
			c4.04-3.66,7.23-8.14,9.49-13.31c2.27-5.18,3.42-11.12,3.42-17.67c0-6.55-1.15-12.49-3.42-17.67
			C467.49,32.5,464.3,28.04,460.26,24.42"/>
	</g>
	<path d="M530.56,66.07h-20.43l10.21-30.16L530.56,66.07z M534.16,13.15h-27.62l-31.63,84.06l-0.17,0.46h25.24l4.15-12.07h32.58
		l4.15,12.07h25.24l-31.85-84.3L534.16,13.15z"/>
	<polygon points="617.82,13.15 600.04,43.74 582.11,13.31 582.01,13.15 556.82,13.15 588.89,63.61 588.89,97.66 611.19,97.66 
		611.19,63.61 643.14,13.15 	"/>
</g>
<g>
	<g>
		<path class="st0" d="M97.44,0C45.32,0,2.75,40.92,0.13,92.39C0.04,94.06,0,95.74,0,97.44h25.26c0-1.64,0.06-3.28,0.17-4.89
			c2.52-37.53,33.85-67.29,72.01-67.29c38.3,0,69.73,29.99,72.04,67.72c0.09,1.47,0.14,2.96,0.14,4.45h25.26
			c0-1.34-0.02-2.67-0.08-4C192.71,41.48,149.92,0,97.44,0"/>
		<path class="st0" d="M97.44,32.48c-34.44,0-62.61,26.8-64.82,60.68c-0.09,1.42-0.14,2.84-0.14,4.28h25.26
			c0-1.56,0.09-3.09,0.27-4.6c2.29-19.73,19.1-35.1,39.43-35.1c20.44,0,37.32,15.53,39.47,35.4c0.16,1.41,0.23,2.84,0.23,4.29h25.26
			c0-1.39-0.04-2.76-0.13-4.13C160.14,59.36,131.93,32.48,97.44,32.48"/>
		<path class="st0" d="M97.44,64.96c-15.83,0-29.03,11.33-31.9,26.33c-0.39,1.99-0.58,4.04-0.58,6.15h64.96
			c0-1.57-0.11-3.11-0.33-4.62C127.35,77.07,113.81,64.96,97.44,64.96"/>
	</g>
</g>
</svg>
