<svg xmlns="http://www.w3.org/2000/svg" xmlns:xlink="http://www.w3.org/1999/xlink" viewBox="0 0 250 370" width="250" height="370" preserveAspectRatio="xMidYMid meet" style="width: 100%; height: 100%; transform: translate3d(0px, 0px, 0px); content-visibility: visible;"><defs><clipPath id="__lottie_element_1352"><rect width="250" height="370" x="0" y="0"/></clipPath></defs><g clip-path="url(#__lottie_element_1352)"><g transform="matrix(2.5,0,0,2.5,126.56199645996094,258.6960144042969)" opacity="1" style="display: none;"><g opacity="1" transform="matrix(4,0,0,4,0,0)"><path fill="rgb(121,219,200)" fill-opacity="1" d=" M8.937000274658203,10.038000106811523 C8.937000274658203,10.038000106811523 7.090000152587891,-10.038000106811523 7.090000152587891,-10.038000106811523 C7.090000152587891,-10.038000106811523 -7.090000152587891,-10.038000106811523 -7.090000152587891,-10.038000106811523 C-7.090000152587891,-10.038000106811523 -8.937000274658203,10.038000106811523 -8.937000274658203,10.038000106811523 C-8.937000274658203,10.038000106811523 -0.1469999998807907,4.760000228881836 -0.1469999998807907,4.760000228881836 C-0.1469999998807907,4.760000228881836 8.937000274658203,10.038000106811523 8.937000274658203,10.038000106811523z"/></g></g><g transform="matrix(2.5,0,0,2.5,170.52499389648438,256.239013671875)" opacity="1" style="display: none;"><g opacity="1" transform="matrix(4,0,0,4,0,0)"><path fill="rgb(109,199,182)" fill-opacity="1" d=" M-4.543000221252441,-10.284000396728516 C-4.543000221252441,-10.284000396728516 -4.543000221252441,5.00600004196167 -4.543000221252441,5.00600004196167 C-4.543000221252441,5.00600004196167 4.543000221252441,10.284000396728516 4.543000221252441,10.284000396728516 C4.543000221252441,10.284000396728516 2.696000099182129,-10.284000396728516 2.696000099182129,-10.284000396728516 C2.696000099182129,-10.284000396728516 -4.543000221252441,-10.284000396728516 -4.543000221252441,-10.284000396728516z"/></g></g><g transform="matrix(2.5,0,0,2.5,126.68599700927734,206.4510040283203)" opacity="1" style="display: none;"><g opacity="1" transform="matrix(4,0,0,4,0,0)"><path fill="rgb(80,154,143)" fill-opacity="1" d=" M7.690000057220459,1.7170000076293945 C7.690000057220459,1.7170000076293945 7.078999996185303,-4.813000202178955 7.078999996185303,-4.813000202178955 C7.078999996185303,-4.813000202178955 -7.1020002365112305,-4.813000202178955 -7.1020002365112305,-4.813000202178955 C-7.1020002365112305,-4.813000202178955 -7.690000057220459,1.6699999570846558 -7.690000057220459,1.6699999570846558 C-7.690000057220459,1.6699999570846558 -6.5289998054504395,3.072000026702881 -6.5289998054504395,3.072000026702881 C-6.5289998054504395,3.072000026702881 -2.8949999809265137,2.5510001182556152 -2.8949999809265137,2.5510001182556152 C-2.8949999809265137,2.5510001182556152 -0.014999999664723873,4.813000202178955 -0.014999999664723873,4.813000202178955 C-0.014999999664723873,4.813000202178955 2.872999906539917,2.5510001182556152 2.872999906539917,2.5510001182556152 C2.872999906539917,2.5510001182556152 6.498000144958496,3.072000026702881 6.498000144958496,3.072000026702881 C6.498000144958496,3.072000026702881 7.690000057220459,1.7170000076293945 7.690000057220459,1.7170000076293945z"/></g></g><g transform="matrix(2.5,0,0,2.5,126.5780029296875,124.33399963378906)" opacity="1" style="display: none;"><g opacity="1" transform="matrix(4,0,0,4,0,0)"><path fill="rgb(255,181,80)" fill-opacity="1" d=" M2.5220000743865967,-9.416000366210938 C2.5220000743865967,-9.416000366210938 -0.0010000000474974513,-11.394000053405762 -0.0010000000474974513,-11.394000053405762 C-0.0010000000474974513,-11.394000053405762 -2.5239999294281006,-9.416000366210938 -2.5239999294281006,-9.416000366210938 C-2.5239999294281006,-9.416000366210938 -5.697000026702881,-9.866999626159668 -5.697000026702881,-9.866999626159668 C-5.697000026702881,-9.866999626159668 -6.894000053405762,-6.89300012588501 -6.894000053405762,-6.89300012588501 C-6.894000053405762,-6.89300012588501 -9.868000030517578,-5.697999954223633 -9.868000030517578,-5.697999954223633 C-9.868000030517578,-5.697999954223633 -9.416999816894531,-2.5230000019073486 -9.416999816894531,-2.5230000019073486 C-9.416999816894531,-2.5230000019073486 -11.394000053405762,0 -11.394000053405762,0 C-11.394000053405762,0 -9.416999816894531,2.5230000019073486 -9.416999816894531,2.5230000019073486 C-9.416999816894531,2.5230000019073486 -9.868000030517578,5.697999954223633 -9.868000030517578,5.697999954223633 C-9.868000030517578,5.697999954223633 -6.894000053405762,6.89300012588501 -6.894000053405762,6.89300012588501 C-6.894000053405762,6.89300012588501 -5.697000026702881,9.866999626159668 -5.697000026702881,9.866999626159668 C-5.697000026702881,9.866999626159668 -2.5239999294281006,9.416000366210938 -2.5239999294281006,9.416000366210938 C-2.5239999294281006,9.416000366210938 -0.0010000000474974513,11.394000053405762 -0.0010000000474974513,11.394000053405762 C-0.0010000000474974513,11.394000053405762 2.5220000743865967,9.416000366210938 2.5220000743865967,9.416000366210938 C2.5220000743865967,9.416000366210938 5.697000026702881,9.866999626159668 5.697000026702881,9.866999626159668 C5.697000026702881,9.866999626159668 6.89300012588501,6.89300012588501 6.89300012588501,6.89300012588501 C6.89300012588501,6.89300012588501 9.866999626159668,5.697999954223633 9.866999626159668,5.697999954223633 C9.866999626159668,5.697999954223633 9.416000366210938,2.5230000019073486 9.416000366210938,2.5230000019073486 C9.416000366210938,2.5230000019073486 11.394000053405762,0 11.394000053405762,0 C11.394000053405762,0 9.416000366210938,-2.5230000019073486 9.416000366210938,-2.5230000019073486 C9.416000366210938,-2.5230000019073486 9.866999626159668,-5.697999954223633 9.866999626159668,-5.697999954223633 C9.866999626159668,-5.697999954223633 6.89300012588501,-6.89300012588501 6.89300012588501,-6.89300012588501 C6.89300012588501,-6.89300012588501 5.697000026702881,-9.866999626159668 5.697000026702881,-9.866999626159668 C5.697000026702881,-9.866999626159668 2.5220000743865967,-9.416000366210938 2.5220000743865967,-9.416000366210938z"/></g></g><g transform="matrix(2.5,0,0,2.5,126.56550598144531,124.33399963378906)" opacity="1" style="display: none;"><g opacity="1" transform="matrix(4,0,0,4,0,0)"><path stroke-linecap="butt" stroke-linejoin="miter" fill-opacity="0" stroke-miterlimit="4" stroke="rgb(255,255,255)" stroke-opacity="1" stroke-width="0.583" d=" M0,8.279000282287598 C4.572000026702881,8.279000282287598 8.279000282287598,4.572000026702881 8.279000282287598,0 C8.279000282287598,-4.572000026702881 4.572000026702881,-8.279000282287598 0,-8.279000282287598 C-4.572000026702881,-8.279000282287598 -8.279000282287598,-4.572000026702881 -8.279000282287598,0 C-8.279000282287598,4.572000026702881 -4.572000026702881,8.279000282287598 0,8.279000282287598z"/></g></g><g transform="matrix(2.5,0,0,2.5,126.56800079345703,124.33399963378906)" opacity="1" style="display: none;"><g opacity="1" transform="matrix(4,0,0,4,0,0)"><path fill="rgb(255,255,255)" fill-opacity="1" d=" M1.3669999837875366,-1.2999999523162842 C1.3669999837875366,-1.2999999523162842 -0.0010000000474974513,-5.50600004196167 -0.0010000000474974513,-5.50600004196167 C-0.0010000000474974513,-5.50600004196167 -1.3669999837875366,-1.2999999523162842 -1.3669999837875366,-1.2999999523162842 C-1.3669999837875366,-1.2999999523162842 -5.789999961853027,-1.2999999523162842 -5.789999961853027,-1.2999999523162842 C-5.789999961853027,-1.2999999523162842 -2.2119998931884766,1.2999999523162842 -2.2119998931884766,1.2999999523162842 C-2.2119998931884766,1.2999999523162842 -3.578000068664551,5.50600004196167 -3.578000068664551,5.50600004196167 C-3.578000068664551,5.50600004196167 -0.0010000000474974513,2.9070000648498535 -0.0010000000474974513,2.9070000648498535 C-0.0010000000474974513,2.9070000648498535 3.578000068664551,5.50600004196167 3.578000068664551,5.50600004196167 C3.578000068664551,5.50600004196167 2.2109999656677246,1.2999999523162842 2.2109999656677246,1.2999999523162842 C2.2109999656677246,1.2999999523162842 5.789999961853027,-1.2999999523162842 5.789999961853027,-1.2999999523162842 C5.789999961853027,-1.2999999523162842 1.3669999837875366,-1.2999999523162842 1.3669999837875366,-1.2999999523162842z"/></g></g><g transform="matrix(2.5,0,0,2.5,126.56199645996094,258.6960144042969)" opacity="1" style="display: block;"><g opacity="1" transform="matrix(4,0,0,4,0,0)"><path fill="rgb(121,219,200)" fill-opacity="1" d=" M8.937000274658203,10.038000106811523 C8.937000274658203,10.038000106811523 7.090000152587891,-10.038000106811523 7.090000152587891,-10.038000106811523 C7.090000152587891,-10.038000106811523 -7.090000152587891,-10.038000106811523 -7.090000152587891,-10.038000106811523 C-7.090000152587891,-10.038000106811523 -8.937000274658203,10.038000106811523 -8.937000274658203,10.038000106811523 C-8.937000274658203,10.038000106811523 -0.1469999998807907,4.760000228881836 -0.1469999998807907,4.760000228881836 C-0.1469999998807907,4.760000228881836 8.937000274658203,10.038000106811523 8.937000274658203,10.038000106811523z"/></g></g><g transform="matrix(2.5,0,0,2.5,170.52499389648438,256.239013671875)" opacity="1" style="display: block;"><g opacity="1" transform="matrix(4,0,0,4,0,0)"><path fill="rgb(109,199,182)" fill-opacity="1" d=" M-4.543000221252441,-10.284000396728516 C-4.543000221252441,-10.284000396728516 -4.543000221252441,5.00600004196167 -4.543000221252441,5.00600004196167 C-4.543000221252441,5.00600004196167 4.543000221252441,10.284000396728516 4.543000221252441,10.284000396728516 C4.543000221252441,10.284000396728516 2.696000099182129,-10.284000396728516 2.696000099182129,-10.284000396728516 C2.696000099182129,-10.284000396728516 -4.543000221252441,-10.284000396728516 -4.543000221252441,-10.284000396728516z"/></g></g><g transform="matrix(2.5,0,0,2.5,126.68599700927734,206.4510040283203)" opacity="1" style="display: block;"><g opacity="1" transform="matrix(4,0,0,4,0,0)"><path fill="rgb(80,154,143)" fill-opacity="1" d=" M7.690000057220459,1.7170000076293945 C7.690000057220459,1.7170000076293945 7.078999996185303,-4.813000202178955 7.078999996185303,-4.813000202178955 C7.078999996185303,-4.813000202178955 -7.1020002365112305,-4.813000202178955 -7.1020002365112305,-4.813000202178955 C-7.1020002365112305,-4.813000202178955 -7.690000057220459,1.6699999570846558 -7.690000057220459,1.6699999570846558 C-7.690000057220459,1.6699999570846558 -6.5289998054504395,3.072000026702881 -6.5289998054504395,3.072000026702881 C-6.5289998054504395,3.072000026702881 -2.8949999809265137,2.5510001182556152 -2.8949999809265137,2.5510001182556152 C-2.8949999809265137,2.5510001182556152 -0.014999999664723873,4.813000202178955 -0.014999999664723873,4.813000202178955 C-0.014999999664723873,4.813000202178955 2.872999906539917,2.5510001182556152 2.872999906539917,2.5510001182556152 C2.872999906539917,2.5510001182556152 6.498000144958496,3.072000026702881 6.498000144958496,3.072000026702881 C6.498000144958496,3.072000026702881 7.690000057220459,1.7170000076293945 7.690000057220459,1.7170000076293945z"/></g></g><g transform="matrix(2.5,0,0,2.5,126.5780029296875,124.33399963378906)" opacity="1" style="display: block;"><g opacity="1" transform="matrix(4,0,0,4,0,0)"><path fill="rgb(255,181,80)" fill-opacity="1" d=" M2.5220000743865967,-9.416000366210938 C2.5220000743865967,-9.416000366210938 -0.0010000000474974513,-11.394000053405762 -0.0010000000474974513,-11.394000053405762 C-0.0010000000474974513,-11.394000053405762 -2.5239999294281006,-9.416000366210938 -2.5239999294281006,-9.416000366210938 C-2.5239999294281006,-9.416000366210938 -5.697000026702881,-9.866999626159668 -5.697000026702881,-9.866999626159668 C-5.697000026702881,-9.866999626159668 -6.894000053405762,-6.89300012588501 -6.894000053405762,-6.89300012588501 C-6.894000053405762,-6.89300012588501 -9.868000030517578,-5.697999954223633 -9.868000030517578,-5.697999954223633 C-9.868000030517578,-5.697999954223633 -9.416999816894531,-2.5230000019073486 -9.416999816894531,-2.5230000019073486 C-9.416999816894531,-2.5230000019073486 -11.394000053405762,0 -11.394000053405762,0 C-11.394000053405762,0 -9.416999816894531,2.5230000019073486 -9.416999816894531,2.5230000019073486 C-9.416999816894531,2.5230000019073486 -9.868000030517578,5.697999954223633 -9.868000030517578,5.697999954223633 C-9.868000030517578,5.697999954223633 -6.894000053405762,6.89300012588501 -6.894000053405762,6.89300012588501 C-6.894000053405762,6.89300012588501 -5.697000026702881,9.866999626159668 -5.697000026702881,9.866999626159668 C-5.697000026702881,9.866999626159668 -2.5239999294281006,9.416000366210938 -2.5239999294281006,9.416000366210938 C-2.5239999294281006,9.416000366210938 -0.0010000000474974513,11.394000053405762 -0.0010000000474974513,11.394000053405762 C-0.0010000000474974513,11.394000053405762 2.5220000743865967,9.416000366210938 2.5220000743865967,9.416000366210938 C2.5220000743865967,9.416000366210938 5.697000026702881,9.866999626159668 5.697000026702881,9.866999626159668 C5.697000026702881,9.866999626159668 6.89300012588501,6.89300012588501 6.89300012588501,6.89300012588501 C6.89300012588501,6.89300012588501 9.866999626159668,5.697999954223633 9.866999626159668,5.697999954223633 C9.866999626159668,5.697999954223633 9.416000366210938,2.5230000019073486 9.416000366210938,2.5230000019073486 C9.416000366210938,2.5230000019073486 11.394000053405762,0 11.394000053405762,0 C11.394000053405762,0 9.416000366210938,-2.5230000019073486 9.416000366210938,-2.5230000019073486 C9.416000366210938,-2.5230000019073486 9.866999626159668,-5.697999954223633 9.866999626159668,-5.697999954223633 C9.866999626159668,-5.697999954223633 6.89300012588501,-6.89300012588501 6.89300012588501,-6.89300012588501 C6.89300012588501,-6.89300012588501 5.697000026702881,-9.866999626159668 5.697000026702881,-9.866999626159668 C5.697000026702881,-9.866999626159668 2.5220000743865967,-9.416000366210938 2.5220000743865967,-9.416000366210938z"/></g></g><g transform="matrix(2.5,0,0,2.5,126.56550598144531,124.33399963378906)" opacity="1" style="display: block;"><g opacity="1" transform="matrix(4,0,0,4,0,0)"><path stroke-linecap="butt" stroke-linejoin="miter" fill-opacity="0" stroke-miterlimit="4" stroke="rgb(255,255,255)" stroke-opacity="1" stroke-width="0.583" d=" M0,8.279000282287598 C4.572000026702881,8.279000282287598 8.279000282287598,4.572000026702881 8.279000282287598,0 C8.279000282287598,-4.572000026702881 4.572000026702881,-8.279000282287598 0,-8.279000282287598 C-4.572000026702881,-8.279000282287598 -8.279000282287598,-4.572000026702881 -8.279000282287598,0 C-8.279000282287598,4.572000026702881 -4.572000026702881,8.279000282287598 0,8.279000282287598z"/></g></g><g transform="matrix(2.5,0,0,2.5,127.0780029296875,124.33399963378906)" opacity="1" style="display: block;"><g opacity="1" transform="matrix(4,0,0,4,0,0)"><path fill="rgb(255,255,255)" fill-opacity="1" d=" M1.3669999837875366,-1.2999999523162842 C1.3669999837875366,-1.2999999523162842 -0.0010000000474974513,-5.50600004196167 -0.0010000000474974513,-5.50600004196167 C-0.0010000000474974513,-5.50600004196167 -1.3669999837875366,-1.2999999523162842 -1.3669999837875366,-1.2999999523162842 C-1.3669999837875366,-1.2999999523162842 -5.789999961853027,-1.2999999523162842 -5.789999961853027,-1.2999999523162842 C-5.789999961853027,-1.2999999523162842 -2.2119998931884766,1.2999999523162842 -2.2119998931884766,1.2999999523162842 C-2.2119998931884766,1.2999999523162842 -3.578000068664551,5.50600004196167 -3.578000068664551,5.50600004196167 C-3.578000068664551,5.50600004196167 -0.0010000000474974513,2.9070000648498535 -0.0010000000474974513,2.9070000648498535 C-0.0010000000474974513,2.9070000648498535 3.578000068664551,5.50600004196167 3.578000068664551,5.50600004196167 C3.578000068664551,5.50600004196167 2.2109999656677246,1.2999999523162842 2.2109999656677246,1.2999999523162842 C2.2109999656677246,1.2999999523162842 5.789999961853027,-1.2999999523162842 5.789999961853027,-1.2999999523162842 C5.789999961853027,-1.2999999523162842 1.3669999837875366,-1.2999999523162842 1.3669999837875366,-1.2999999523162842z"/></g></g></g></svg>