<?xml version="1.0" encoding="utf-8"?>
<!-- Generator: Adobe Illustrator 25.2.1, SVG Export Plug-In . SVG Version: 6.00 Build 0)  -->
<svg version="1.1" id="Layer_1" xmlns="http://www.w3.org/2000/svg" xmlns:xlink="http://www.w3.org/1999/xlink" x="0px" y="0px"
	 viewBox="0 0 41.6 31.6" style="enable-background:new 0 0 41.6 31.6;" xml:space="preserve">
<style type="text/css">
	.st0{fill:#F26E6E;}
	.st1{fill:#FFFFFF;}
</style>
<g>
	<path class="st0" d="M40.6,29.4c-1.2-3.3-0.3-6.9,0.6-10.4c0.3-1,0.4-2.1,0.4-3.2C41.6,7.1,32.3,0,20.8,0S0,7.1,0,15.8
		s9.3,15.8,20.8,15.8c1.5,0,3.1-0.1,4.5-0.4c4.8-0.8,9.7-1.9,14.5-1C40.4,30.4,40.8,29.9,40.6,29.4z"/>
	<path class="st1" d="M34.6,10c0,0.4-0.4,0.8-0.8,0.8H8.5c-0.4,0-0.8-0.4-0.8-0.8c0-0.4,0.4-0.8,0.8-0.8h25.3
		C34.3,9.2,34.6,9.6,34.6,10z"/>
	<path class="st1" d="M34.6,14.8c0,0.4-0.4,0.8-0.8,0.8H8.5c-0.4,0-0.8-0.4-0.8-0.8S8.1,14,8.5,14h25.3C34.3,14,34.6,14.4,34.6,14.8
		z"/>
	<path class="st1" d="M22.6,19.6c0,0.4-0.4,0.8-0.8,0.8H8.5c-0.4,0-0.8-0.4-0.8-0.8c0-0.4,0.4-0.8,0.8-0.8h13.3
		C22.3,18.8,22.6,19.2,22.6,19.6z"/>
</g>
</svg>
