<svg xmlns="http://www.w3.org/2000/svg" xmlns:xlink="http://www.w3.org/1999/xlink" viewBox="0 0 450 310" width="450" height="310" preserveAspectRatio="xMidYMid meet" style="width: 100%; height: 100%; transform: translate3d(0px, 0px, 0px); content-visibility: visible;"><defs><clipPath id="__lottie_element_66"><rect width="450" height="310" x="0" y="0"/></clipPath></defs><g clip-path="url(#__lottie_element_66)"><g transform="matrix(10,0,0,10,278.9079895019531,193.33599853515625)" opacity="1" style="display: none;"><g opacity="1" transform="matrix(1,0,0,1,0,0)"><path fill="rgb(170,222,242)" fill-opacity="1" d=" M-6.464000225067139,-2.9509999752044678 C-5.039000034332275,-6.070000171661377 -2.128000020980835,-7.9720001220703125 0.7549999952316284,-7.9720001220703125 C1.6449999809265137,-7.9720001220703125 2.5360000133514404,-7.789000034332275 3.375,-7.4070000648498535 C5.078999996185303,-6.627999782562256 6.343999862670898,-5.13700008392334 6.934000015258789,-3.2090001106262207 C7.535999774932861,-1.2380000352859497 7.366000175476074,0.9470000267028809 6.454999923706055,2.944000005722046 C6.454999923706055,2.944000005722046 6.453999996185303,2.944000005722046 6.453999996185303,2.944000005722046 C5.543000221252441,4.940999984741211 4.004000186920166,6.5 2.121000051498413,7.335999965667725 C0.2800000011920929,8.154999732971191 -1.6740000247955322,8.177000045776367 -3.382999897003174,7.3979997634887695 C-6.942999839782715,5.7729997634887695 -8.324999809265137,1.13100004196167 -6.464000225067139,-2.9509999752044678z M-4.171000003814697,9.130000114440918 C-3.0869998931884766,9.625 -1.930999994277954,9.871999740600586 -0.7549999952316284,9.871999740600586 C0.4620000123977661,9.871999740600586 1.6979999542236328,9.607000350952148 2.8940000534057617,9.07699966430664 C5.203000068664551,8.053000450134277 7.081999778747559,6.156000137329102 8.185999870300293,3.7360000610351562 C9.291999816894531,1.315999984741211 9.494000434875488,-1.3480000495910645 8.755999565124512,-3.7639999389648438 C8.003000259399414,-6.2210001945495605 6.373000144958496,-8.130999565124512 4.164999961853027,-9.137999534606934 C-0.35100001096725464,-11.196999549865723 -5.894000053405762,-8.779000282287598 -8.194000244140625,-3.742000102996826 C-10.491000175476074,1.2949999570846558 -8.687999725341797,7.070000171661377 -4.171000003814697,9.130000114440918z"/></g></g><g transform="matrix(10,0,0,10,297.4309997558594,203.96299743652344)" opacity="1" style="display: none;"><g opacity="1" transform="matrix(1,0,0,1,0,0)"><path fill="rgb(217,247,255)" fill-opacity="1" d=" M3.111999988555908,-7.420000076293945 C4.35699987411499,-6.585000038146973 5.2789998054504395,-5.311999797821045 5.76200008392334,-3.759999990463257 C5.995999813079834,-2.9839999675750732 6.11299991607666,-2.177999973297119 6.11299991607666,-1.3730000257492065 C6.11299991607666,-0.0989999994635582 5.835000038146973,1.190000057220459 5.2789998054504395,2.4049999713897705 C4.370999813079834,4.395999908447266 2.818000078201294,5.9629998207092285 0.9440000057220459,6.797999858856201 C-0.9010000228881836,7.603000164031982 -2.8480000495910645,7.631999969482422 -4.560999870300293,6.855999946594238 C-5.146999835968018,6.5920000076293945 -5.658999919891357,6.25600004196167 -6.11299991607666,5.8460001945495605 C-5.835000038146973,6.021999835968018 -5.541999816894531,6.183000087738037 -5.235000133514404,6.328999996185303 C-3.5220000743865967,7.119999885559082 -1.5740000009536743,7.090000152587891 0.2709999978542328,6.269999980926514 C2.1600000858306885,5.434999942779541 3.697000026702881,3.884000062942505 4.605000019073486,1.878000020980835 C5.160999774932861,0.6629999876022339 5.440000057220459,-0.6110000014305115 5.440000057220459,-1.8849999904632568 C5.440000057220459,-2.690000057220459 5.322000026702881,-3.496000051498413 5.0879998207092285,-4.271999835968018 C4.692999839782715,-5.546000003814697 4.019999980926514,-6.614999771118164 3.111999988555908,-7.420000076293945z"/></g></g><g transform="matrix(10,0,0,10,319.9809875488281,66.80699920654297)" opacity="1" style="display: none;"><g opacity="1" transform="matrix(1,0,0,1,0,0)"><path fill="rgb(150,206,234)" fill-opacity="1" d=" M3.5810000896453857,-3.1640000343322754 C3.5810000896453857,-3.1640000343322754 5.754000186920166,-0.2630000114440918 5.754000186920166,-0.2630000114440918 C5.754000186920166,-0.2630000114440918 5.763999938964844,-0.25999999046325684 5.763999938964844,-0.25999999046325684 C5.763999938964844,-0.25999999046325684 -1.5149999856948853,4.63100004196167 -1.5149999856948853,4.63100004196167 C-1.5149999856948853,4.63100004196167 -5.763999938964844,-3.0409998893737793 -5.763999938964844,-3.0409998893737793 C-5.763999938964844,-3.0409998893737793 -2.507999897003174,-4.63100004196167 -2.507999897003174,-4.63100004196167 C-2.507999897003174,-4.63100004196167 3.5810000896453857,-3.1640000343322754 3.5810000896453857,-3.1640000343322754z"/></g></g><g transform="matrix(10,0,0,10,283.5920104980469,74.75700378417969)" opacity="1" style="display: none;"><g opacity="1" transform="matrix(1,0,0,1,0,0)"><path fill="rgb(170,222,242)" fill-opacity="1" d=" M1.3569999933242798,-2.117000102996826 C1.3569999933242798,-2.117000102996826 -2.125,-3.8359999656677246 -2.125,-3.8359999656677246 C-2.125,-3.8359999656677246 2.125,3.8359999656677246 2.125,3.8359999656677246 C2.125,3.8359999656677246 1.3569999933242798,-2.117000102996826 1.3569999933242798,-2.117000102996826z"/></g></g><g transform="matrix(10,0,0,10,310.031005859375,37.04600143432617)" opacity="1" style="display: none;"><g opacity="1" transform="matrix(1,0,0,1,0,0)"><path fill="rgb(170,222,242)" fill-opacity="1" d=" M1.5110000371932983,-0.9269999861717224 C1.5110000371932983,-0.9269999861717224 -1.2860000133514404,1.6549999713897705 -1.2860000133514404,1.6549999713897705 C-1.2860000133514404,1.6549999713897705 -1.5110000371932983,-1.6549999713897705 -1.5110000371932983,-1.6549999713897705 C-1.5110000371932983,-1.6549999713897705 1.5110000371932983,-0.9269999861717224 1.5110000371932983,-0.9269999861717224z"/></g></g><g transform="matrix(10,0,0,10,341.1520080566406,88.35600280761719)" opacity="1" style="display: none;"><g opacity="1" transform="matrix(1,0,0,1,0,0)"><path fill="rgb(170,222,242)" fill-opacity="1" d=" M-0.24199999868869781,-2.4749999046325684 C-0.24199999868869781,-2.4749999046325684 3.6389999389648438,-2.4159998893737793 3.6389999389648438,-2.4159998893737793 C3.6389999389648438,-2.4159998893737793 -3.6389999389648438,2.4749999046325684 -3.6389999389648438,2.4749999046325684 C-3.6389999389648438,2.4749999046325684 -0.24199999868869781,-2.4749999046325684 -0.24199999868869781,-2.4749999046325684z"/></g></g><g transform="matrix(10,0,0,10,340.43798828125,45.69300079345703)" opacity="1" style="display: none;"><g opacity="1" transform="matrix(1,0,0,1,0,0)"><path fill="rgb(170,222,242)" fill-opacity="1" d=" M-1.5369999408721924,-1.7920000553131104 C-1.5369999408721924,-1.7920000553131104 -0.17000000178813934,1.7920000553131104 -0.17000000178813934,1.7920000553131104 C-0.17000000178813934,1.7920000553131104 1.5369999408721924,-1.0520000457763672 1.5369999408721924,-1.0520000457763672 C1.5369999408721924,-1.0520000457763672 -1.5369999408721924,-1.7920000553131104 -1.5369999408721924,-1.7920000553131104z"/></g></g><g transform="matrix(10,0,0,10,317.9649963378906,45.69300079345703)" opacity="1" style="display: none;"><g opacity="1" transform="matrix(1,0,0,1,0,0)"><path fill="rgb(191,233,247)" fill-opacity="1" d=" M2.0789999961853027,1.7920000553131104 C2.0789999961853027,1.7920000553131104 -2.0789999961853027,0.7900000214576721 -2.0789999961853027,0.7900000214576721 C-2.0789999961853027,0.7900000214576721 0.7110000252723694,-1.7920000553131104 0.7110000252723694,-1.7920000553131104 C0.7110000252723694,-1.7920000553131104 2.0789999961853027,1.7920000553131104 2.0789999961853027,1.7920000553131104z"/></g></g><g transform="matrix(10,0,0,10,358.1419982910156,49.680999755859375)" opacity="1" style="display: none;"><g opacity="1" transform="matrix(1,0,0,1,0,0)"><path fill="rgb(191,233,247)" fill-opacity="1" d=" M1.940999984741211,1.4509999752044678 C1.940999984741211,1.4509999752044678 -0.23399999737739563,-1.4509999752044678 -0.23399999737739563,-1.4509999752044678 C-0.23399999737739563,-1.4509999752044678 -1.940999984741211,1.3930000066757202 -1.940999984741211,1.3930000066757202 C-1.940999984741211,1.3930000066757202 1.940999984741211,1.4509999752044678 1.940999984741211,1.4509999752044678z"/></g></g><g transform="matrix(10,0,0,10,279.7510070800781,37.04600143432617)" opacity="1" style="display: none;"><g opacity="1" transform="matrix(1,0,0,1,0,0)"><path fill="rgb(191,233,247)" fill-opacity="1" d=" M-1.7410000562667847,-0.06400000303983688 C-1.7410000562667847,-0.06400000303983688 1.7410000562667847,1.6549999713897705 1.7410000562667847,1.6549999713897705 C1.7410000562667847,1.6549999713897705 1.5160000324249268,-1.6549999713897705 1.5160000324249268,-1.6549999713897705 C1.5160000324249268,-1.6549999713897705 -1.7410000562667847,-0.06400000303983688 -1.7410000562667847,-0.06400000303983688z"/></g></g><g transform="matrix(10,0,0,10,172.11300659179688,195.41799926757812)" opacity="1" style="display: none;"><g opacity="1" transform="matrix(1,0,0,1,0,0)"><path fill="rgb(150,206,234)" fill-opacity="1" d=" M-3.306999921798706,-7.255000114440918 C-2.490000009536743,-7.626999855041504 -1.6169999837875366,-7.813000202178955 -0.7269999980926514,-7.813000202178955 C0.20999999344348907,-7.813000202178955 1.1679999828338623,-7.605999946594238 2.0959999561309814,-7.195000171661377 C3.938999891281128,-6.375999927520752 5.447000026702881,-4.848999977111816 6.339000225067139,-2.8929998874664307 C8.164999961853027,1.1069999933242798 6.809000015258789,5.6579999923706055 3.315000057220459,7.252999782562256 C1.6380000114440918,8.017000198364258 -0.27799999713897705,7.994999885559082 -2.0880000591278076,7.192999839782715 C-3.930999994277954,6.374000072479248 -5.439000129699707,4.8470001220703125 -6.330999851226807,2.8910000324249268 C-6.330999851226807,2.8910000324249268 -6.333000183105469,2.8910000324249268 -6.333000183105469,2.8910000324249268 C-7.224999904632568,0.9359999895095825 -7.390999794006348,-1.2050000429153442 -6.801000118255615,-3.134999990463257 C-6.2210001945495605,-5.0279998779296875 -4.980999946594238,-6.491000175476074 -3.306999921798706,-7.255000114440918z M-3.061000108718872,9.631999969482422 C-1.7929999828338623,10.194000244140625 -0.4830000102519989,10.475000381469727 0.8069999814033508,10.475000381469727 C2.052999973297119,10.475000381469727 3.2780001163482666,10.21399974822998 4.425000190734863,9.690999984741211 C9.211999893188477,7.50600004196167 11.123000144958496,1.38100004196167 8.685999870300293,-3.9619998931884766 C7.513000011444092,-6.53000020980835 5.519000053405762,-8.543999671936035 3.068000078201294,-9.631999969482422 C0.5789999961853027,-10.73799991607666 -2.0789999961853027,-10.755999565124512 -4.419000148773193,-9.6899995803833 C-6.756999969482422,-8.623000144958496 -8.484999656677246,-6.60099983215332 -9.281999588012695,-3.996000051498413 C-10.0649995803833,-1.434000015258789 -9.85099983215332,1.3940000534057617 -8.678000450134277,3.9619998931884766 C-8.678000450134277,3.9619998931884766 -8.680000305175781,3.9619998931884766 -8.680000305175781,3.9619998931884766 C-7.506999969482422,6.53000020980835 -5.51200008392334,8.543999671936035 -3.061000108718872,9.631999969482422z"/></g></g><g transform="matrix(10,0,0,10,177.7760009765625,195.45599365234375)" opacity="1" style="display: none;"><g opacity="1" transform="matrix(1,0,0,1,0,0)"><path fill="rgb(121,185,211)" fill-opacity="1" d=" M-7.36899995803833,-3.1429998874664307 C-7.954999923706055,-1.2100000381469727 -7.794000148773193,0.9279999732971191 -6.901000022888184,2.890000104904175 C-6.007999897003174,4.836999893188477 -4.5,6.374000072479248 -2.6549999713897705,7.193999767303467 C-1.9520000219345093,7.500999927520752 -1.2339999675750732,7.691999912261963 -0.531000018119812,7.764999866485596 C-1.7020000219345093,7.896999835968018 -2.933000087738037,7.705999851226807 -4.11899995803833,7.193999767303467 C-5.964000225067139,6.374000072479248 -7.4720001220703125,4.836999893188477 -8.364999771118164,2.890000104904175 C-9.258000373840332,0.9279999732971191 -9.420000076293945,-1.2100000381469727 -8.833999633789062,-3.1429998874664307 C-8.248000144958496,-5.0320000648498535 -7.01800012588501,-6.497000217437744 -5.334000110626221,-7.257999897003174 C-4.5289998054504395,-7.638999938964844 -3.6500000953674316,-7.814000129699707 -2.756999969482422,-7.814000129699707 C-2.5230000019073486,-7.814000129699707 -2.2880001068115234,-7.798999786376953 -2.053999900817871,-7.769999980926514 C-2.684000015258789,-7.697000026702881 -3.2990000247955322,-7.535999774932861 -3.869999885559082,-7.257999897003174 C-5.553999900817871,-6.497000217437744 -6.7829999923706055,-5.0320000648498535 -7.36899995803833,-3.1429998874664307z M2.5,-9.630000114440918 C4.960000038146973,-8.545999526977539 6.951000213623047,-6.539999961853027 8.121999740600586,-3.9630000591278076 C10.553000450134277,1.3819999694824219 8.64900016784668,7.501999855041504 3.8610000610351562,9.684000015258789 C2.7190001010894775,10.211000442504883 1.4900000095367432,10.473999977111816 0.24500000476837158,10.473999977111816 C0.02500000037252903,10.473999977111816 -0.18000000715255737,10.458999633789062 -0.4000000059604645,10.430000305175781 C0.5659999847412109,10.342000007629395 1.503999948501587,10.093999862670898 2.3970000743865967,9.684000015258789 C7.184999942779541,7.501999855041504 9.08899974822998,1.3819999694824219 6.6579999923706055,-3.9630000591278076 C5.486999988555908,-6.539999961853027 3.494999885559082,-8.545999526977539 1.034999966621399,-9.630000114440918 C-0.01899999938905239,-10.098999977111816 -1.1019999980926514,-10.37600040435791 -2.186000108718872,-10.4350004196167 C-0.6340000033378601,-10.581000328063965 0.9629999995231628,-10.317999839782715 2.5,-9.630000114440918z M-6.901000022888184,2.890000104904175 C-6.007999897003174,4.836999893188477 -4.5,6.374000072479248 -2.6549999713897705,7.193999767303467 C-1.9520000219345093,7.500999927520752 -1.2339999675750732,7.691999912261963 -0.531000018119812,7.764999866485596 C-1.7020000219345093,7.896999835968018 -2.933000087738037,7.705999851226807 -4.11899995803833,7.193999767303467 C-5.964000225067139,6.374000072479248 -7.4720001220703125,4.836999893188477 -8.364999771118164,2.890000104904175 C-9.258000373840332,0.9279999732971191 -9.420000076293945,-1.2100000381469727 -8.833999633789062,-3.1429998874664307 C-8.248000144958496,-5.0320000648498535 -7.01800012588501,-6.497000217437744 -5.334000110626221,-7.257999897003174 C-4.5289998054504395,-7.638999938964844 -3.6500000953674316,-7.814000129699707 -2.756999969482422,-7.814000129699707 C-2.5230000019073486,-7.814000129699707 -2.2880001068115234,-7.798999786376953 -2.053999900817871,-7.769999980926514 C-2.684000015258789,-7.697000026702881 -3.2990000247955322,-7.535999774932861 -3.869999885559082,-7.257999897003174 C-5.553999900817871,-6.497000217437744 -6.7829999923706055,-5.0320000648498535 -7.36899995803833,-3.1429998874664307 C-7.954999923706055,-1.2100000381469727 -7.794000148773193,0.9279999732971191 -6.901000022888184,2.890000104904175z"/></g></g><g transform="matrix(10,0,0,10,269.0360107421875,155.83900451660156)" opacity="1" style="display: none;"><g opacity="1" transform="matrix(1,0,0,1,0,0)"><path fill="rgb(170,222,242)" fill-opacity="1" d=" M-7.211999893188477,0.013000000268220901 C-4.913000106811523,-5.02400016784668 0.6370000243186951,-7.440000057220459 5.146999835968018,-5.389999866485596 C6.361999988555908,-4.834000110626221 7.4019999504089355,-4.013999938964844 8.206999778747559,-2.9739999771118164 C8.206999778747559,-2.9739999771118164 6.5229997634887695,-2.0360000133514404 6.5229997634887695,-2.0360000133514404 C5.922999858856201,-2.7239999771118164 5.205999851226807,-3.2809998989105225 4.370999813079834,-3.6619999408721924 C3.5220000743865967,-4.043000221252441 2.628999948501587,-4.2179999351501465 1.75,-4.2179999351501465 C-1.1349999904632568,-4.2179999351501465 -4.048999786376953,-2.315000057220459 -5.468999862670898,0.8040000200271606 C-6.127999782562256,2.2239999771118164 -6.376999855041504,3.703000068664551 -6.289000034332275,5.109000205993652 C-6.289000034332275,5.109000205993652 -8.076000213623047,6.11899995803833 -8.076000213623047,6.11899995803833 C-8.39799976348877,4.1570000648498535 -8.133999824523926,2.0190000534057617 -7.211999893188477,0.013000000268220901z"/></g></g><g transform="matrix(10,0,0,10,263.37701416015625,179.92599487304688)" opacity="1" style="display: none;"><g opacity="1" transform="matrix(1,0,0,1,0,0)"><path fill="rgb(217,247,255)" fill-opacity="1" d=" M6.385000228881836,-7.285999774932861 C6.823999881744385,-7.080999851226807 7.249000072479248,-6.8470001220703125 7.644000053405762,-6.553999900817871 C7.058000087738037,-7.065999984741211 6.414000034332275,-7.47599983215332 5.710999965667725,-7.797999858856201 C1.2009999752044678,-9.847999572753906 -4.3480000495910645,-7.432000160217285 -6.646999835968018,-2.3949999809265137 C-8.418999671936035,1.5 -7.744999885559082,5.818999767303467 -5.284999847412109,8.527999877929688 C-5.284999847412109,8.527999877929688 -5.110000133514404,8.41100025177002 -5.110000133514404,8.41100025177002 C-7.159999847412109,5.686999797821045 -7.613999843597412,1.7039999961853027 -5.973999977111816,-1.8830000162124634 C-3.674999952316284,-6.920000076293945 1.875,-9.336000442504883 6.385000228881836,-7.285999774932861z"/></g></g><g transform="matrix(10,0,0,10,294.6109924316406,21.531999588012695)" opacity="1" style="display: none;"><g opacity="1" transform="matrix(1,0,0,1,0,0)"><path fill="rgb(255,181,80)" fill-opacity="1" d=" M0.26100000739097595,-0.890999972820282 C0.13699999451637268,-1.312999963760376 0.05299999937415123,-1.6890000104904175 0.03400000184774399,-1.9170000553131104 C0.03099999949336052,-1.715999960899353 -0.035999998450279236,-1.2350000143051147 -0.23999999463558197,-0.796999990940094 C-0.5040000081062317,-0.2290000021457672 -1.0959999561309814,0 -1.277999997138977,0.08100000023841858 C-0.09799999743700027,0.2770000100135803 0.12600000202655792,1.9170000553131104 0.12600000202655792,1.9170000553131104 C0.12999999523162842,0.125 1.277999997138977,0.08100000023841858 1.277999997138977,0.08100000023841858 C1.065999984741211,-0.04600000008940697 0.4440000057220459,-0.2720000147819519 0.26100000739097595,-0.890999972820282z"/></g></g><g transform="matrix(10,0,0,10,278.9070129394531,193.33599853515625)" opacity="1" style="display: block;"><g opacity="1" transform="matrix(1,0,0,1,0,0)"><path fill="rgb(170,222,242)" fill-opacity="1" d=" M-6.464000225067139,-2.9509999752044678 C-5.039000034332275,-6.070000171661377 -2.128000020980835,-7.9720001220703125 0.7549999952316284,-7.9720001220703125 C1.6449999809265137,-7.9720001220703125 2.5360000133514404,-7.789000034332275 3.375,-7.4070000648498535 C5.078999996185303,-6.627999782562256 6.343999862670898,-5.13700008392334 6.934000015258789,-3.2090001106262207 C7.535999774932861,-1.2380000352859497 7.366000175476074,0.9470000267028809 6.454999923706055,2.944000005722046 C6.454999923706055,2.944000005722046 6.453999996185303,2.944000005722046 6.453999996185303,2.944000005722046 C5.543000221252441,4.940999984741211 4.004000186920166,6.5 2.121000051498413,7.335999965667725 C0.2800000011920929,8.154999732971191 -1.6740000247955322,8.177000045776367 -3.382999897003174,7.3979997634887695 C-6.942999839782715,5.7729997634887695 -8.324999809265137,1.13100004196167 -6.464000225067139,-2.9509999752044678z M-4.171000003814697,9.130000114440918 C-3.0869998931884766,9.625 -1.930999994277954,9.871999740600586 -0.7549999952316284,9.871999740600586 C0.4620000123977661,9.871999740600586 1.6979999542236328,9.607000350952148 2.8940000534057617,9.07699966430664 C5.203000068664551,8.053000450134277 7.081999778747559,6.156000137329102 8.185999870300293,3.7360000610351562 C9.291999816894531,1.315999984741211 9.494000434875488,-1.3480000495910645 8.755999565124512,-3.7639999389648438 C8.003000259399414,-6.2210001945495605 6.373000144958496,-8.130999565124512 4.164999961853027,-9.137999534606934 C-0.35100001096725464,-11.196999549865723 -5.894000053405762,-8.779000282287598 -8.194000244140625,-3.742000102996826 C-10.491000175476074,1.2949999570846558 -8.687999725341797,7.070000171661377 -4.171000003814697,9.130000114440918z"/></g></g><g transform="matrix(10,0,0,10,297.427001953125,203.9659881591797)" opacity="1" style="display: block;"><g opacity="1" transform="matrix(1,0,0,1,0,0)"><path fill="rgb(217,247,255)" fill-opacity="1" d=" M3.111999988555908,-7.420000076293945 C4.35699987411499,-6.585000038146973 5.2789998054504395,-5.311999797821045 5.76200008392334,-3.759999990463257 C5.995999813079834,-2.9839999675750732 6.11299991607666,-2.177999973297119 6.11299991607666,-1.3730000257492065 C6.11299991607666,-0.0989999994635582 5.835000038146973,1.190000057220459 5.2789998054504395,2.4049999713897705 C4.370999813079834,4.395999908447266 2.818000078201294,5.9629998207092285 0.9440000057220459,6.797999858856201 C-0.9010000228881836,7.603000164031982 -2.8480000495910645,7.631999969482422 -4.560999870300293,6.855999946594238 C-5.146999835968018,6.5920000076293945 -5.658999919891357,6.25600004196167 -6.11299991607666,5.8460001945495605 C-5.835000038146973,6.021999835968018 -5.541999816894531,6.183000087738037 -5.235000133514404,6.328999996185303 C-3.5220000743865967,7.119999885559082 -1.5740000009536743,7.090000152587891 0.2709999978542328,6.269999980926514 C2.1600000858306885,5.434999942779541 3.697000026702881,3.884000062942505 4.605000019073486,1.878000020980835 C5.160999774932861,0.6629999876022339 5.440000057220459,-0.6110000014305115 5.440000057220459,-1.8849999904632568 C5.440000057220459,-2.690000057220459 5.322000026702881,-3.496000051498413 5.0879998207092285,-4.271999835968018 C4.692999839782715,-5.546000003814697 4.019999980926514,-6.614999771118164 3.111999988555908,-7.420000076293945z"/></g></g><g transform="matrix(10,0,0,10,319.9809875488281,66.80699920654297)" opacity="1" style="display: block;"><g opacity="1" transform="matrix(1,0,0,1,0,0)"><path fill="rgb(150,206,234)" fill-opacity="1" d=" M3.5810000896453857,-3.1640000343322754 C3.5810000896453857,-3.1640000343322754 5.754000186920166,-0.2630000114440918 5.754000186920166,-0.2630000114440918 C5.754000186920166,-0.2630000114440918 5.763999938964844,-0.25999999046325684 5.763999938964844,-0.25999999046325684 C5.763999938964844,-0.25999999046325684 -1.5149999856948853,4.63100004196167 -1.5149999856948853,4.63100004196167 C-1.5149999856948853,4.63100004196167 -5.763999938964844,-3.0409998893737793 -5.763999938964844,-3.0409998893737793 C-5.763999938964844,-3.0409998893737793 -2.507999897003174,-4.63100004196167 -2.507999897003174,-4.63100004196167 C-2.507999897003174,-4.63100004196167 3.5810000896453857,-3.1640000343322754 3.5810000896453857,-3.1640000343322754z"/></g></g><g transform="matrix(10,0,0,10,283.5920104980469,74.75700378417969)" opacity="1" style="display: block;"><g opacity="1" transform="matrix(1,0,0,1,0,0)"><path fill="rgb(170,222,242)" fill-opacity="1" d=" M1.3569999933242798,-2.117000102996826 C1.3569999933242798,-2.117000102996826 -2.125,-3.8359999656677246 -2.125,-3.8359999656677246 C-2.125,-3.8359999656677246 2.125,3.8359999656677246 2.125,3.8359999656677246 C2.125,3.8359999656677246 1.3569999933242798,-2.117000102996826 1.3569999933242798,-2.117000102996826z"/></g></g><g transform="matrix(10,0,0,10,310.031005859375,37.045997619628906)" opacity="1" style="display: block;"><g opacity="1" transform="matrix(1,0,0,1,0,0)"><path fill="rgb(170,222,242)" fill-opacity="1" d=" M1.5110000371932983,-0.9269999861717224 C1.5110000371932983,-0.9269999861717224 -1.2860000133514404,1.6549999713897705 -1.2860000133514404,1.6549999713897705 C-1.2860000133514404,1.6549999713897705 -1.5110000371932983,-1.6549999713897705 -1.5110000371932983,-1.6549999713897705 C-1.5110000371932983,-1.6549999713897705 1.5110000371932983,-0.9269999861717224 1.5110000371932983,-0.9269999861717224z"/></g></g><g transform="matrix(10,0,0,10,341.1520080566406,88.35600280761719)" opacity="1" style="display: block;"><g opacity="1" transform="matrix(1,0,0,1,0,0)"><path fill="rgb(170,222,242)" fill-opacity="1" d=" M-0.24199999868869781,-2.4749999046325684 C-0.24199999868869781,-2.4749999046325684 3.6389999389648438,-2.4159998893737793 3.6389999389648438,-2.4159998893737793 C3.6389999389648438,-2.4159998893737793 -3.6389999389648438,2.4749999046325684 -3.6389999389648438,2.4749999046325684 C-3.6389999389648438,2.4749999046325684 -0.24199999868869781,-2.4749999046325684 -0.24199999868869781,-2.4749999046325684z"/></g></g><g transform="matrix(10,0,0,10,340.43798828125,45.69300079345703)" opacity="1" style="display: block;"><g opacity="1" transform="matrix(1,0,0,1,0,0)"><path fill="rgb(170,222,242)" fill-opacity="1" d=" M-1.5369999408721924,-1.7920000553131104 C-1.5369999408721924,-1.7920000553131104 -0.17000000178813934,1.7920000553131104 -0.17000000178813934,1.7920000553131104 C-0.17000000178813934,1.7920000553131104 1.5369999408721924,-1.0520000457763672 1.5369999408721924,-1.0520000457763672 C1.5369999408721924,-1.0520000457763672 -1.5369999408721924,-1.7920000553131104 -1.5369999408721924,-1.7920000553131104z"/></g></g><g transform="matrix(10,0,0,10,317.9649963378906,45.69300079345703)" opacity="1" style="display: block;"><g opacity="1" transform="matrix(1,0,0,1,0,0)"><path fill="rgb(191,233,247)" fill-opacity="1" d=" M2.0789999961853027,1.7920000553131104 C2.0789999961853027,1.7920000553131104 -2.0789999961853027,0.7900000214576721 -2.0789999961853027,0.7900000214576721 C-2.0789999961853027,0.7900000214576721 0.7110000252723694,-1.7920000553131104 0.7110000252723694,-1.7920000553131104 C0.7110000252723694,-1.7920000553131104 2.0789999961853027,1.7920000553131104 2.0789999961853027,1.7920000553131104z"/></g></g><g transform="matrix(10,0,0,10,358.1419982910156,49.680999755859375)" opacity="1" style="display: block;"><g opacity="1" transform="matrix(1,0,0,1,0,0)"><path fill="rgb(191,233,247)" fill-opacity="1" d=" M1.940999984741211,1.4509999752044678 C1.940999984741211,1.4509999752044678 -0.23399999737739563,-1.4509999752044678 -0.23399999737739563,-1.4509999752044678 C-0.23399999737739563,-1.4509999752044678 -1.940999984741211,1.3930000066757202 -1.940999984741211,1.3930000066757202 C-1.940999984741211,1.3930000066757202 1.940999984741211,1.4509999752044678 1.940999984741211,1.4509999752044678z"/></g></g><g transform="matrix(10,0,0,10,279.7510070800781,37.045997619628906)" opacity="1" style="display: block;"><g opacity="1" transform="matrix(1,0,0,1,0,0)"><path fill="rgb(191,233,247)" fill-opacity="1" d=" M-1.7410000562667847,-0.06400000303983688 C-1.7410000562667847,-0.06400000303983688 1.7410000562667847,1.6549999713897705 1.7410000562667847,1.6549999713897705 C1.7410000562667847,1.6549999713897705 1.5160000324249268,-1.6549999713897705 1.5160000324249268,-1.6549999713897705 C1.5160000324249268,-1.6549999713897705 -1.7410000562667847,-0.06400000303983688 -1.7410000562667847,-0.06400000303983688z"/></g></g><g transform="matrix(10,0,0,10,172.11599731445312,195.41600036621094)" opacity="1" style="display: block;"><g opacity="1" transform="matrix(1,0,0,1,0,0)"><path fill="rgb(150,206,234)" fill-opacity="1" d=" M-3.306999921798706,-7.255000114440918 C-2.490000009536743,-7.626999855041504 -1.6169999837875366,-7.813000202178955 -0.7269999980926514,-7.813000202178955 C0.20999999344348907,-7.813000202178955 1.1679999828338623,-7.605999946594238 2.0959999561309814,-7.195000171661377 C3.938999891281128,-6.375999927520752 5.447000026702881,-4.848999977111816 6.339000225067139,-2.8929998874664307 C8.164999961853027,1.1069999933242798 6.809000015258789,5.6579999923706055 3.315000057220459,7.252999782562256 C1.6380000114440918,8.017000198364258 -0.27799999713897705,7.994999885559082 -2.0880000591278076,7.192999839782715 C-3.930999994277954,6.374000072479248 -5.439000129699707,4.8470001220703125 -6.330999851226807,2.8910000324249268 C-6.330999851226807,2.8910000324249268 -6.333000183105469,2.8910000324249268 -6.333000183105469,2.8910000324249268 C-7.224999904632568,0.9359999895095825 -7.390999794006348,-1.2050000429153442 -6.801000118255615,-3.134999990463257 C-6.2210001945495605,-5.0279998779296875 -4.980999946594238,-6.491000175476074 -3.306999921798706,-7.255000114440918z M-3.061000108718872,9.631999969482422 C-1.7929999828338623,10.194000244140625 -0.4830000102519989,10.475000381469727 0.8069999814033508,10.475000381469727 C2.052999973297119,10.475000381469727 3.2780001163482666,10.21399974822998 4.425000190734863,9.690999984741211 C9.211999893188477,7.50600004196167 11.123000144958496,1.38100004196167 8.685999870300293,-3.9619998931884766 C7.513000011444092,-6.53000020980835 5.519000053405762,-8.543999671936035 3.068000078201294,-9.631999969482422 C0.5789999961853027,-10.73799991607666 -2.0789999961853027,-10.755999565124512 -4.419000148773193,-9.6899995803833 C-6.756999969482422,-8.623000144958496 -8.484999656677246,-6.60099983215332 -9.281999588012695,-3.996000051498413 C-10.0649995803833,-1.434000015258789 -9.85099983215332,1.3940000534057617 -8.678000450134277,3.9619998931884766 C-8.678000450134277,3.9619998931884766 -8.680000305175781,3.9619998931884766 -8.680000305175781,3.9619998931884766 C-7.506999969482422,6.53000020980835 -5.51200008392334,8.543999671936035 -3.061000108718872,9.631999969482422z"/></g></g><g transform="matrix(10,0,0,10,177.7760009765625,195.45599365234375)" opacity="1" style="display: block;"><g opacity="1" transform="matrix(1,0,0,1,0,0)"><path fill="rgb(121,185,211)" fill-opacity="1" d=" M-7.36899995803833,-3.1429998874664307 C-7.954999923706055,-1.2100000381469727 -7.794000148773193,0.9279999732971191 -6.901000022888184,2.890000104904175 C-6.007999897003174,4.836999893188477 -4.5,6.374000072479248 -2.6549999713897705,7.193999767303467 C-1.9520000219345093,7.500999927520752 -1.2339999675750732,7.691999912261963 -0.531000018119812,7.764999866485596 C-1.7020000219345093,7.896999835968018 -2.933000087738037,7.705999851226807 -4.11899995803833,7.193999767303467 C-5.964000225067139,6.374000072479248 -7.4720001220703125,4.836999893188477 -8.364999771118164,2.890000104904175 C-9.258000373840332,0.9279999732971191 -9.420000076293945,-1.2100000381469727 -8.833999633789062,-3.1429998874664307 C-8.248000144958496,-5.0320000648498535 -7.01800012588501,-6.497000217437744 -5.334000110626221,-7.257999897003174 C-4.5289998054504395,-7.638999938964844 -3.6500000953674316,-7.814000129699707 -2.756999969482422,-7.814000129699707 C-2.5230000019073486,-7.814000129699707 -2.2880001068115234,-7.798999786376953 -2.053999900817871,-7.769999980926514 C-2.684000015258789,-7.697000026702881 -3.2990000247955322,-7.535999774932861 -3.869999885559082,-7.257999897003174 C-5.553999900817871,-6.497000217437744 -6.7829999923706055,-5.0320000648498535 -7.36899995803833,-3.1429998874664307z M2.5,-9.630000114440918 C4.960000038146973,-8.545999526977539 6.951000213623047,-6.539999961853027 8.121999740600586,-3.9630000591278076 C10.553000450134277,1.3819999694824219 8.64900016784668,7.501999855041504 3.8610000610351562,9.684000015258789 C2.7190001010894775,10.211000442504883 1.4900000095367432,10.473999977111816 0.24500000476837158,10.473999977111816 C0.02500000037252903,10.473999977111816 -0.18000000715255737,10.458999633789062 -0.4000000059604645,10.430000305175781 C0.5659999847412109,10.342000007629395 1.503999948501587,10.093999862670898 2.3970000743865967,9.684000015258789 C7.184999942779541,7.501999855041504 9.08899974822998,1.3819999694824219 6.6579999923706055,-3.9630000591278076 C5.486999988555908,-6.539999961853027 3.494999885559082,-8.545999526977539 1.034999966621399,-9.630000114440918 C-0.01899999938905239,-10.098999977111816 -1.1019999980926514,-10.37600040435791 -2.186000108718872,-10.4350004196167 C-0.6340000033378601,-10.581000328063965 0.9629999995231628,-10.317999839782715 2.5,-9.630000114440918z M-6.901000022888184,2.890000104904175 C-6.007999897003174,4.836999893188477 -4.5,6.374000072479248 -2.6549999713897705,7.193999767303467 C-1.9520000219345093,7.500999927520752 -1.2339999675750732,7.691999912261963 -0.531000018119812,7.764999866485596 C-1.7020000219345093,7.896999835968018 -2.933000087738037,7.705999851226807 -4.11899995803833,7.193999767303467 C-5.964000225067139,6.374000072479248 -7.4720001220703125,4.836999893188477 -8.364999771118164,2.890000104904175 C-9.258000373840332,0.9279999732971191 -9.420000076293945,-1.2100000381469727 -8.833999633789062,-3.1429998874664307 C-8.248000144958496,-5.0320000648498535 -7.01800012588501,-6.497000217437744 -5.334000110626221,-7.257999897003174 C-4.5289998054504395,-7.638999938964844 -3.6500000953674316,-7.814000129699707 -2.756999969482422,-7.814000129699707 C-2.5230000019073486,-7.814000129699707 -2.2880001068115234,-7.798999786376953 -2.053999900817871,-7.769999980926514 C-2.684000015258789,-7.697000026702881 -3.2990000247955322,-7.535999774932861 -3.869999885559082,-7.257999897003174 C-5.553999900817871,-6.497000217437744 -6.7829999923706055,-5.0320000648498535 -7.36899995803833,-3.1429998874664307 C-7.954999923706055,-1.2100000381469727 -7.794000148773193,0.9279999732971191 -6.901000022888184,2.890000104904175z"/></g></g><g transform="matrix(10,0,0,10,269.0370178222656,155.83599853515625)" opacity="1" style="display: block;"><g opacity="1" transform="matrix(1,0,0,1,0,0)"><path fill="rgb(170,222,242)" fill-opacity="1" d=" M-7.211999893188477,0.013000000268220901 C-4.913000106811523,-5.02400016784668 0.6370000243186951,-7.440000057220459 5.146999835968018,-5.389999866485596 C6.361999988555908,-4.834000110626221 7.4019999504089355,-4.013999938964844 8.206999778747559,-2.9739999771118164 C8.206999778747559,-2.9739999771118164 6.5229997634887695,-2.0360000133514404 6.5229997634887695,-2.0360000133514404 C5.922999858856201,-2.7239999771118164 5.205999851226807,-3.2809998989105225 4.370999813079834,-3.6619999408721924 C3.5220000743865967,-4.043000221252441 2.628999948501587,-4.2179999351501465 1.75,-4.2179999351501465 C-1.1349999904632568,-4.2179999351501465 -4.048999786376953,-2.315000057220459 -5.468999862670898,0.8040000200271606 C-6.127999782562256,2.2239999771118164 -6.376999855041504,3.703000068664551 -6.289000034332275,5.109000205993652 C-6.289000034332275,5.109000205993652 -8.076000213623047,6.11899995803833 -8.076000213623047,6.11899995803833 C-8.39799976348877,4.1570000648498535 -8.133999824523926,2.0190000534057617 -7.211999893188477,0.013000000268220901z"/></g></g><g transform="matrix(10,0,0,10,263.37701416015625,179.92599487304688)" opacity="1" style="display: block;"><g opacity="1" transform="matrix(1,0,0,1,0,0)"><path fill="rgb(217,247,255)" fill-opacity="1" d=" M6.385000228881836,-7.285999774932861 C6.823999881744385,-7.080999851226807 7.249000072479248,-6.8470001220703125 7.644000053405762,-6.553999900817871 C7.058000087738037,-7.065999984741211 6.414000034332275,-7.47599983215332 5.710999965667725,-7.797999858856201 C1.2009999752044678,-9.847999572753906 -4.3480000495910645,-7.432000160217285 -6.646999835968018,-2.3949999809265137 C-8.418999671936035,1.5 -7.744999885559082,5.818999767303467 -5.284999847412109,8.527999877929688 C-5.284999847412109,8.527999877929688 -5.110000133514404,8.41100025177002 -5.110000133514404,8.41100025177002 C-7.159999847412109,5.686999797821045 -7.613999843597412,1.7039999961853027 -5.973999977111816,-1.8830000162124634 C-3.674999952316284,-6.920000076293945 1.875,-9.336000442504883 6.385000228881836,-7.285999774932861z"/></g></g><g transform="matrix(-2.3547255992889404,8.975146293640137,-8.975146293640137,-2.3547255992889404,294.6109924316406,21.531999588012695)" opacity="0.30920150952889414" style="display: none;"><g opacity="1" transform="matrix(1,0,0,1,0,0)"><path fill="rgb(255,181,80)" fill-opacity="1" d=" M0.26100000739097595,-0.890999972820282 C0.13699999451637268,-1.312999963760376 0.05299999937415123,-1.6890000104904175 0.03400000184774399,-1.9170000553131104 C0.03099999949336052,-1.715999960899353 -0.035999998450279236,-1.2350000143051147 -0.23999999463558197,-0.796999990940094 C-0.5040000081062317,-0.2290000021457672 -1.0959999561309814,0 -1.277999997138977,0.08100000023841858 C-0.09799999743700027,0.2770000100135803 0.12600000202655792,1.9170000553131104 0.12600000202655792,1.9170000553131104 C0.12999999523162842,0.125 1.277999997138977,0.08100000023841858 1.277999997138977,0.08100000023841858 C1.065999984741211,-0.04600000008940697 0.4440000057220459,-0.2720000147819519 0.26100000739097595,-0.890999972820282z"/></g></g><g transform="matrix(-0.3489949703216553,-9.993907928466797,9.993907928466797,-0.3489949703216553,294.6109924316406,21.531999588012695)" opacity="1" style="display: block;"><g opacity="1" transform="matrix(1,0,0,1,0,0)"><path fill="rgb(255,181,80)" fill-opacity="1" d=" M0.26100000739097595,-0.890999972820282 C0.13699999451637268,-1.312999963760376 0.05299999937415123,-1.6890000104904175 0.03400000184774399,-1.9170000553131104 C0.03099999949336052,-1.715999960899353 -0.035999998450279236,-1.2350000143051147 -0.23999999463558197,-0.796999990940094 C-0.5040000081062317,-0.2290000021457672 -1.0959999561309814,0 -1.277999997138977,0.08100000023841858 C-0.09799999743700027,0.2770000100135803 0.12600000202655792,1.9170000553131104 0.12600000202655792,1.9170000553131104 C0.12999999523162842,0.125 1.277999997138977,0.08100000023841858 1.277999997138977,0.08100000023841858 C1.065999984741211,-0.04600000008940697 0.4440000057220459,-0.2720000147819519 0.26100000739097595,-0.890999972820282z"/></g></g></g></svg>