<?xml version="1.0" encoding="utf-8"?>
<!-- Generator: Adobe Illustrator 25.2.1, SVG Export Plug-In . SVG Version: 6.00 Build 0)  -->
<svg version="1.1" id="Layer_1" xmlns="http://www.w3.org/2000/svg" xmlns:xlink="http://www.w3.org/1999/xlink" x="0px" y="0px"
	 viewBox="0 0 16 16" style="enable-background:new 0 0 16 16;" xml:space="preserve">
<style type="text/css">
	.st0{fill:#2A2D34;}
</style>
<desc>Created with Sketch.</desc>
<g>
	<path class="st0" d="M1,4h11.2c0.6,0,1-0.4,1-1s-0.4-1-1-1H1C0.5,2,0,2.4,0,3S0.5,4,1,4z"/>
	<path class="st0" d="M12.2,12H1c-0.6,0-1,0.4-1,1s0.4,1,1,1h11.2c0.6,0,1-0.4,1-1S12.8,12,12.2,12z"/>
	<path class="st0" d="M14.9,7H1C0.5,7,0,7.4,0,8s0.4,1,1,1h13.9c0.6,0,1-0.4,1-1S15.5,7,14.9,7z"/>
</g>
</svg>
