<svg xmlns="http://www.w3.org/2000/svg" xmlns:xlink="http://www.w3.org/1999/xlink" viewBox="0 0 400 250" width="400" height="250" preserveAspectRatio="xMidYMid meet" style="width: 100%; height: 100%; transform: translate3d(0px, 0px, 0px); content-visibility: visible;"><defs><clipPath id="__lottie_element_857"><rect width="400" height="250" x="0" y="0"/></clipPath></defs><g clip-path="url(#__lottie_element_857)"><g transform="matrix(2.5,0,0,2.5,202.52200317382812,124.322998046875)" opacity="1" style="display: none;"><g opacity="1" transform="matrix(4,0,0,4,0,0)"><path fill="rgb(35,54,78)" fill-opacity="1" d=" M16.0049991607666,-0.3709999918937683 C16.0049991607666,-0.3709999918937683 -16.0049991607666,-0.3709999918937683 -16.0049991607666,-0.3709999918937683 C-16.0049991607666,-0.3709999918937683 -16.0049991607666,0.3709999918937683 -16.0049991607666,0.3709999918937683 C-16.0049991607666,0.3709999918937683 16.0049991607666,0.3709999918937683 16.0049991607666,0.3709999918937683 C16.0049991607666,0.3709999918937683 16.0049991607666,-0.3709999918937683 16.0049991607666,-0.3709999918937683z"/></g></g><g transform="matrix(2.5,0,0,2.5,202.52200317382812,124.322998046875)" opacity="1" style="display: block;"><g opacity="1" transform="matrix(4,0,0,4,0,0)"><path fill="rgb(35,54,78)" fill-opacity="1" d=" M16.0049991607666,-0.3709999918937683 C16.0049991607666,-0.3709999918937683 -16.0049991607666,-0.3709999918937683 -16.0049991607666,-0.3709999918937683 C-16.0049991607666,-0.3709999918937683 -16.0049991607666,0.3709999918937683 -16.0049991607666,0.3709999918937683 C-16.0049991607666,0.3709999918937683 16.0049991607666,0.3709999918937683 16.0049991607666,0.3709999918937683 C16.0049991607666,0.3709999918937683 16.0049991607666,-0.3709999918937683 16.0049991607666,-0.3709999918937683z"/></g></g><g transform="matrix(2.5,0,0,2.5,210.29200744628906,124.82949829101562)" opacity="1" style="display: block;"><g opacity="1" transform="matrix(4,0,0,4,0,0)"><path fill="rgb(254,74,73)" fill-opacity="1" d=" M10.385000228881836,-9.814000129699707 C17.270000457763672,-5.136000156402588 4.046999931335449,6.951000213623047 0.2540000081062317,10.956999778747559 C0.2540000081062317,10.956999778747559 -1.2139999866485596,8.27299976348877 -5.8460001945495605,3.7980000972747803 C-8.767000198364258,0.9760000109672546 -15.793999671936035,-5.460999965667725 -10.302000045776367,-9.770999908447266 C-4.808000087738037,-14.083000183105469 0.25999999046325684,-5.25 0.25999999046325684,-5.25 C0.25999999046325684,-5.25 5.176000118255615,-13.352999687194824 10.385000228881836,-9.814000129699707z"/></g></g><g transform="matrix(2.5,0,0,2.5,177.2945098876953,53.0369987487793)" opacity="1" style="display: block;"><g opacity="1" transform="matrix(4,0,0,4,0,0)"><path fill="rgb(224,43,43)" fill-opacity="1" d=" M2.3499999046325684,3.7660000324249268 C2.3499999046325684,3.7660000324249268 3.0169999599456787,2.640000104904175 3.5759999752044678,1.9259999990463257 C1.7519999742507935,-1.0820000171661377 -0.9760000109672546,-3.635999917984009 -3.5759999752044678,-3.7660000324249268 C0.3230000138282776,-3.0199999809265137 2.3499999046325684,3.7660000324249268 2.3499999046325684,3.7660000324249268z"/></g></g><g transform="matrix(2.5,0,0,2.5,273.2245178222656,126.0719985961914)" opacity="1" style="display: block;"><g opacity="1" transform="matrix(4,0,0,4,0,0)"><path fill="rgb(224,43,43)" fill-opacity="1" d=" M1.937000036239624,-10.557000160217285 C9.498000144958496,-5.750999927520752 -6.045000076293945,10.831000328063965 -6.045000076293945,10.831000328063965 C-2.252000093460083,6.834000110626221 10.97700023651123,-5.263000011444092 4.090000152587891,-9.937999725341797 C3.2219998836517334,-10.532999992370605 2.3420000076293945,-10.795000076293945 1.496999979019165,-10.831000328063965 C1.6399999856948853,-10.748000144958496 1.7920000553131104,-10.64900016784668 1.937000036239624,-10.557000160217285z"/></g></g><g transform="matrix(2.5,0,0,2.5,124.21199798583984,124.32599639892578)" opacity="1" style="display: none;"><g opacity="1" transform="matrix(4,0,0,4,0,0)"><path fill="rgb(35,54,78)" fill-opacity="1" d=" M-8.173999786376953,-0.3709999918937683 C-8.173999786376953,-0.3709999918937683 7.71999979019165,-0.3709999918937683 7.71999979019165,-0.3709999918937683 C8.034000396728516,-0.34700000286102295 8.21399974822998,-0.07800000160932541 8.166000366210938,0.10899999737739563 C8.128000259399414,0.257999986410141 7.941999912261963,0.38199999928474426 7.71999979019165,0.3709999918937683 C7.71999979019165,0.3709999918937683 -8.173999786376953,0.3709999918937683 -8.173999786376953,0.3709999918937683 C-8.173999786376953,0.3709999918937683 -8.173999786376953,-0.3709999918937683 -8.173999786376953,-0.3709999918937683z"/></g></g><g transform="matrix(2.5,0,0,2.5,124.21200561523438,124.32550048828125)" opacity="1" style="display: block;"><g opacity="1" transform="matrix(4,0,0,4,0,0)"><path fill="rgb(35,54,78)" fill-opacity="1" d=" M-8.173999786376953,-0.3709999918937683 C-8.173999786376953,-0.3709999918937683 7.71999979019165,-0.3709999918937683 7.71999979019165,-0.3709999918937683 C8.034000396728516,-0.34700000286102295 8.21399974822998,-0.07800000160932541 8.166000366210938,0.10899999737739563 C8.128000259399414,0.257999986410141 7.941999912261963,0.38199999928474426 7.71999979019165,0.3709999918937683 C7.71999979019165,0.3709999918937683 -8.173999786376953,0.3709999918937683 -8.173999786376953,0.3709999918937683 C-8.173999786376953,0.3709999918937683 -8.173999786376953,-0.3709999918937683 -8.173999786376953,-0.3709999918937683z"/></g></g><g transform="matrix(2.5,0,0,2.5,352.34600830078125,127.18900299072266)" opacity="1" style="display: none;"><g opacity="1" transform="matrix(4,0,0,4,0,0)"><path fill="rgb(35,54,78)" fill-opacity="1" d=" M-2.4590001106262207,1.8029999732971191 C-2.4590001106262207,1.8029999732971191 2.4590001106262207,-0.5139999985694885 2.4590001106262207,-0.5139999985694885 C2.4590001106262207,-0.5139999985694885 -1.5049999952316284,-1.8029999732971191 -1.5049999952316284,-1.8029999732971191 C-1.5049999952316284,-1.8029999732971191 -2.4590001106262207,1.8029999732971191 -2.4590001106262207,1.8029999732971191z"/></g></g><g transform="matrix(2.5,0,0,2.5,352.3470153808594,127.19049835205078)" opacity="1" style="display: block;"><g opacity="1" transform="matrix(4,0,0,4,0,0)"><path fill="rgb(35,54,78)" fill-opacity="1" d=" M-2.4590001106262207,1.8029999732971191 C-2.4590001106262207,1.8029999732971191 2.4590001106262207,-0.5139999985694885 2.4590001106262207,-0.5139999985694885 C2.4590001106262207,-0.5139999985694885 -1.5049999952316284,-1.8029999732971191 -1.5049999952316284,-1.8029999732971191 C-1.5049999952316284,-1.8029999732971191 -2.4590001106262207,1.8029999732971191 -2.4590001106262207,1.8029999732971191z"/></g></g><g transform="matrix(2.5,0,0,2.5,61.08599853515625,112.7770004272461)" opacity="1" style="display: none;"><g opacity="1" transform="matrix(4,0,0,4,0,0)"><path fill="rgb(150,206,234)" fill-opacity="1" d=" M1.3860000371932983,-1.1749999523162842 C1.3860000371932983,-1.1749999523162842 -3.246999979019165,-0.7179999947547913 -3.246999979019165,-0.7179999947547913 C-3.246999979019165,-0.7179999947547913 -1.9420000314712524,1.1749999523162842 -1.9420000314712524,1.1749999523162842 C-1.9420000314712524,1.1749999523162842 3.246999979019165,1.1089999675750732 3.246999979019165,1.1089999675750732 C3.246999979019165,1.1089999675750732 1.3860000371932983,-1.1749999523162842 1.3860000371932983,-1.1749999523162842z"/></g></g><g transform="matrix(2.5,0,0,2.5,61.084503173828125,112.77799987792969)" opacity="1" style="display: block;"><g opacity="1" transform="matrix(4,0,0,4,0,0)"><path fill="rgb(150,206,234)" fill-opacity="1" d=" M1.3860000371932983,-1.1749999523162842 C1.3860000371932983,-1.1749999523162842 -3.246999979019165,-0.7179999947547913 -3.246999979019165,-0.7179999947547913 C-3.246999979019165,-0.7179999947547913 -1.9420000314712524,1.1749999523162842 -1.9420000314712524,1.1749999523162842 C-1.9420000314712524,1.1749999523162842 3.246999979019165,1.1089999675750732 3.246999979019165,1.1089999675750732 C3.246999979019165,1.1089999675750732 1.3860000371932983,-1.1749999523162842 1.3860000371932983,-1.1749999523162842z"/></g></g><g transform="matrix(2.5,0,0,2.5,58.14799880981445,135.29100036621094)" opacity="1" style="display: none;"><g opacity="1" transform="matrix(4,0,0,4,0,0)"><path fill="rgb(121,185,211)" fill-opacity="1" d=" M-3.5409998893737793,0.39100000262260437 C-3.5409998893737793,0.39100000262260437 -1.6480000019073486,-1.0770000219345093 -1.6480000019073486,-1.0770000219345093 C-1.6480000019073486,-1.0770000219345093 3.5409998893737793,-1.1419999599456787 3.5409998893737793,-1.1419999599456787 C3.5409998893737793,-1.1419999599456787 1.2230000495910645,1.1419999599456787 1.2230000495910645,1.1419999599456787 C1.2230000495910645,1.1419999599456787 -3.5409998893737793,0.39100000262260437 -3.5409998893737793,0.39100000262260437z"/></g></g><g transform="matrix(2.5,0,0,2.5,58.14950180053711,135.29049682617188)" opacity="1" style="display: block;"><g opacity="1" transform="matrix(4,0,0,4,0,0)"><path fill="rgb(121,185,211)" fill-opacity="1" d=" M-3.5409998893737793,0.39100000262260437 C-3.5409998893737793,0.39100000262260437 -1.6480000019073486,-1.0770000219345093 -1.6480000019073486,-1.0770000219345093 C-1.6480000019073486,-1.0770000219345093 3.5409998893737793,-1.1419999599456787 3.5409998893737793,-1.1419999599456787 C3.5409998893737793,-1.1419999599456787 1.2230000495910645,1.1419999599456787 1.2230000495910645,1.1419999599456787 C1.2230000495910645,1.1419999599456787 -3.5409998893737793,0.39100000262260437 -3.5409998893737793,0.39100000262260437z"/></g></g></g></svg>