<svg xmlns="http://www.w3.org/2000/svg" xmlns:xlink="http://www.w3.org/1999/xlink" viewBox="0 0 450 450" width="450" height="450" preserveAspectRatio="xMidYMid meet" style="width: 100%; height: 100%; transform: translate3d(0px, 0px, 0px); content-visibility: visible;"><defs><clipPath id="__lottie_element_112"><rect width="450" height="450" x="0" y="0"/></clipPath><clipPath id="__lottie_element_114"><path d="M0,0 L500,0 L500,500 L0,500z"/></clipPath><clipPath id="__lottie_element_118"><path d="M0,0 L500,0 L500,500 L0,500z"/></clipPath><clipPath id="__lottie_element_529"><path d="M0,0 L500,0 L500,500 L0,500z"/></clipPath><clipPath id="__lottie_element_533"><path d="M0,0 L500,0 L500,500 L0,500z"/></clipPath></defs><g clip-path="url(#__lottie_element_112)"><g clip-path="url(#__lottie_element_114)" transform="matrix(1,0,0,1,-25,-25)" opacity="1" style="display: none;"><g transform="matrix(2.5,0,0,2.5,246.5030059814453,248.08799743652344)" opacity="1" style="display: block;"><g opacity="1" transform="matrix(4,0,0,4,0,0)"><path fill="rgb(80,154,143)" fill-opacity="1" d=" M9.75,12.185999870300293 C9.75,12.185999870300293 12.956999778747559,8.96500015258789 12.956999778747559,8.96500015258789 C13.70300006866455,8.218999862670898 13.717000007629395,7.000999927520752 12.984000205993652,6.242000102996826 C12.984000205993652,6.242000102996826 8.192000389099121,1.3329999446868896 8.192000389099121,1.3329999446868896 C8.192000389099121,1.3329999446868896 0.035999998450279236,-7.046000003814697 0.035999998450279236,-7.046000003814697 C0.035999998450279236,-7.046000003814697 -4.951000213623047,-12.163999557495117 -4.951000213623047,-12.163999557495117 C-5.697000026702881,-12.92300033569336 -6.9019999504089355,-12.949999809265137 -7.673999786376953,-12.229999542236328 C-7.673999786376953,-12.229999542236328 -12.91100025177002,-7.360000133514404 -12.91100025177002,-7.360000133514404 C-13.76200008392334,-6.560999870300293 -13.722000122070312,-5.198999881744385 -12.831999778747559,-4.453000068664551 C-12.831999778747559,-4.453000068664551 -6.561999797821045,0.8090000152587891 -6.561999797821045,0.8090000152587891 C-6.561999797821045,0.8090000152587891 1.659999966621399,7.708000183105469 1.659999966621399,7.708000183105469 C1.659999966621399,7.708000183105469 7.131999969482422,12.303000450134277 7.131999969482422,12.303000450134277 C7.9039998054504395,12.944000244140625 9.029999732971191,12.892999649047852 9.75,12.185999870300293z"/></g></g><g transform="matrix(2.5,0,0,2.5,182.2830047607422,214.93099975585938)" opacity="1" style="display: block;"><g opacity="1" transform="matrix(4,0,0,4,0,0)"><path fill="rgb(109,199,182)" fill-opacity="1" d=" M0,0.4699999988079071 C0.25999999046325684,0.4699999988079071 0.4699999988079071,0.25999999046325684 0.4699999988079071,0 C0.4699999988079071,-0.25999999046325684 0.25999999046325684,-0.4699999988079071 0,-0.4699999988079071 C-0.25999999046325684,-0.4699999988079071 -0.4699999988079071,-0.25999999046325684 -0.4699999988079071,0 C-0.4699999988079071,0.25999999046325684 -0.25999999046325684,0.4699999988079071 0,0.4699999988079071z"/></g></g><g transform="matrix(2.5,0,0,2.5,166.37399291992188,199.7969970703125)" opacity="1" style="display: block;"><g opacity="1" transform="matrix(4,0,0,4,0,0)"><path fill="rgb(109,199,182)" fill-opacity="1" d=" M0,0.4699999988079071 C0.25999999046325684,0.4699999988079071 0.4699999988079071,0.25999999046325684 0.4699999988079071,0 C0.4699999988079071,-0.25999999046325684 0.25999999046325684,-0.4699999988079071 0,-0.4699999988079071 C-0.25999999046325684,-0.4699999988079071 -0.4699999988079071,-0.25999999046325684 -0.4699999988079071,0 C-0.4699999988079071,0.25999999046325684 -0.25999999046325684,0.4699999988079071 0,0.4699999988079071z"/></g></g><g transform="matrix(2.5,0,0,2.5,150.46299743652344,184.66299438476562)" opacity="1" style="display: block;"><g opacity="1" transform="matrix(4,0,0,4,0,0)"><path fill="rgb(109,199,182)" fill-opacity="1" d=" M0,0.4699999988079071 C0.25999999046325684,0.4699999988079071 0.4699999988079071,0.25999999046325684 0.4699999988079071,0 C0.4699999988079071,-0.25999999046325684 0.25999999046325684,-0.4699999988079071 0,-0.4699999988079071 C-0.25999999046325684,-0.4699999988079071 -0.4699999988079071,-0.25999999046325684 -0.4699999988079071,0 C-0.4699999988079071,0.25999999046325684 -0.25999999046325684,0.4699999988079071 0,0.4699999988079071z"/></g></g><g transform="matrix(2.5,0,0,2.5,205.6280059814453,189.59800720214844)" opacity="1" style="display: block;"><g opacity="1" transform="matrix(4,0,0,4,0,0)"><path fill="rgb(109,199,182)" fill-opacity="1" d=" M0,0.4699999988079071 C0.25999999046325684,0.4699999988079071 0.4699999988079071,0.25999999046325684 0.4699999988079071,0 C0.4699999988079071,-0.25999999046325684 0.25999999046325684,-0.4699999988079071 0,-0.4699999988079071 C-0.25999999046325684,-0.4699999988079071 -0.4699999988079071,-0.25999999046325684 -0.4699999988079071,0 C-0.4699999988079071,0.25999999046325684 -0.25999999046325684,0.4699999988079071 0,0.4699999988079071z"/></g></g><g transform="matrix(2.5,0,0,2.5,189.718994140625,174.46600341796875)" opacity="1" style="display: block;"><g opacity="1" transform="matrix(4,0,0,4,0,0)"><path fill="rgb(109,199,182)" fill-opacity="1" d=" M0,0.4699999988079071 C0.25999999046325684,0.4699999988079071 0.4699999988079071,0.25999999046325684 0.4699999988079071,0 C0.4699999988079071,-0.25999999046325684 0.25999999046325684,-0.4699999988079071 0,-0.4699999988079071 C-0.25999999046325684,-0.4699999988079071 -0.4699999988079071,-0.25999999046325684 -0.4699999988079071,0 C-0.4699999988079071,0.25999999046325684 -0.25999999046325684,0.4699999988079071 0,0.4699999988079071z"/></g></g><g transform="matrix(2.5,0,0,2.5,173.81100463867188,159.33200073242188)" opacity="1" style="display: block;"><g opacity="1" transform="matrix(4,0,0,4,0,0)"><path fill="rgb(109,199,182)" fill-opacity="1" d=" M0,0.4699999988079071 C0.25999999046325684,0.4699999988079071 0.4699999988079071,0.25999999046325684 0.4699999988079071,0 C0.4699999988079071,-0.25999999046325684 0.25999999046325684,-0.4699999988079071 0,-0.4699999988079071 C-0.25999999046325684,-0.4699999988079071 -0.4699999988079071,-0.25999999046325684 -0.4699999988079071,0 C-0.4699999988079071,0.25999999046325684 -0.25999999046325684,0.4699999988079071 0,0.4699999988079071z"/></g></g><g transform="matrix(2.5,0,0,2.5,331.3380126953125,349.3160095214844)" opacity="1" style="display: block;"><g opacity="1" transform="matrix(4,0,0,4,0,0)"><path fill="rgb(109,199,182)" fill-opacity="1" d=" M0,0.4699999988079071 C0.25999999046325684,0.4699999988079071 0.4699999988079071,0.25999999046325684 0.4699999988079071,0 C0.4699999988079071,-0.25999999046325684 0.25999999046325684,-0.4699999988079071 0,-0.4699999988079071 C-0.25999999046325684,-0.4699999988079071 -0.4699999988079071,-0.25999999046325684 -0.4699999988079071,0 C-0.4699999988079071,0.25999999046325684 -0.25999999046325684,0.4699999988079071 0,0.4699999988079071z"/></g></g><g transform="matrix(2.5,0,0,2.5,315.42999267578125,334.1820068359375)" opacity="1" style="display: block;"><g opacity="1" transform="matrix(4,0,0,4,0,0)"><path fill="rgb(109,199,182)" fill-opacity="1" d=" M0,0.4699999988079071 C0.25999999046325684,0.4699999988079071 0.4699999988079071,0.25999999046325684 0.4699999988079071,0 C0.4699999988079071,-0.25999999046325684 0.25999999046325684,-0.4699999988079071 0,-0.4699999988079071 C-0.25999999046325684,-0.4699999988079071 -0.4699999988079071,-0.25999999046325684 -0.4699999988079071,0 C-0.4699999988079071,0.25999999046325684 -0.25999999046325684,0.4699999988079071 0,0.4699999988079071z"/></g></g><g transform="matrix(2.5,0,0,2.5,299.5119934082031,319.0469970703125)" opacity="1" style="display: block;"><g opacity="1" transform="matrix(4,0,0,4,0,0)"><path fill="rgb(109,199,182)" fill-opacity="1" d=" M0,0.4699999988079071 C0.25999999046325684,0.4699999988079071 0.4699999988079071,0.25999999046325684 0.4699999988079071,0 C0.4699999988079071,-0.25999999046325684 0.25999999046325684,-0.4699999988079071 0,-0.4699999988079071 C-0.25999999046325684,-0.4699999988079071 -0.4699999988079071,-0.25999999046325684 -0.4699999988079071,0 C-0.4699999988079071,0.25999999046325684 -0.25999999046325684,0.4699999988079071 0,0.4699999988079071z"/></g></g><g transform="matrix(2.5,0,0,2.5,354.6830139160156,323.9700012207031)" opacity="1" style="display: block;"><g opacity="1" transform="matrix(4,0,0,4,0,0)"><path fill="rgb(109,199,182)" fill-opacity="1" d=" M0,0.4699999988079071 C0.25999999046325684,0.4699999988079071 0.4699999988079071,0.25999999046325684 0.4699999988079071,0 C0.4699999988079071,-0.25999999046325684 0.25999999046325684,-0.4699999988079071 0,-0.4699999988079071 C-0.25999999046325684,-0.4699999988079071 -0.4699999988079071,-0.25999999046325684 -0.4699999988079071,0 C-0.4699999988079071,0.25999999046325684 -0.25999999046325684,0.4699999988079071 0,0.4699999988079071z"/></g></g><g transform="matrix(2.5,0,0,2.5,338.7749938964844,308.83599853515625)" opacity="1" style="display: block;"><g opacity="1" transform="matrix(4,0,0,4,0,0)"><path fill="rgb(109,199,182)" fill-opacity="1" d=" M0,0.4699999988079071 C0.25999999046325684,0.4699999988079071 0.4699999988079071,0.25999999046325684 0.4699999988079071,0 C0.4699999988079071,-0.25999999046325684 0.25999999046325684,-0.4699999988079071 0,-0.4699999988079071 C-0.25999999046325684,-0.4699999988079071 -0.4699999988079071,-0.25999999046325684 -0.4699999988079071,0 C-0.4699999988079071,0.25999999046325684 -0.25999999046325684,0.4699999988079071 0,0.4699999988079071z"/></g></g><g transform="matrix(2.5,0,0,2.5,322.8659973144531,293.7019958496094)" opacity="1" style="display: block;"><g opacity="1" transform="matrix(4,0,0,4,0,0)"><path fill="rgb(109,199,182)" fill-opacity="1" d=" M0,0.4699999988079071 C0.25999999046325684,0.4699999988079071 0.4699999988079071,0.25999999046325684 0.4699999988079071,0 C0.4699999988079071,-0.25999999046325684 0.25999999046325684,-0.4699999988079071 0,-0.4699999988079071 C-0.25999999046325684,-0.4699999988079071 -0.4699999988079071,-0.25999999046325684 -0.4699999988079071,0 C-0.4699999988079071,0.25999999046325684 -0.25999999046325684,0.4699999988079071 0,0.4699999988079071z"/></g></g><g transform="matrix(2.5,0,0,2.5,254.64199829101562,251.4040069580078)" opacity="1" style="display: block;"><g opacity="1" transform="matrix(4,0,0,4,0,0)"><path fill="rgb(35,53,78)" fill-opacity="1" d=" M0.843999981880188,7.376999855041504 C0.843999981880188,7.376999855041504 7.376999855041504,1.0010000467300415 7.376999855041504,1.0010000467300415 C7.376999855041504,1.0010000467300415 -0.7789999842643738,-7.376999855041504 -0.7789999842643738,-7.376999855041504 C-0.7789999842643738,-7.376999855041504 -7.376999855041504,0.4779999852180481 -7.376999855041504,0.4779999852180481 C-7.376999855041504,0.4779999852180481 0.843999981880188,7.376999855041504 0.843999981880188,7.376999855041504z"/></g></g></g><g clip-path="url(#__lottie_element_118)" transform="matrix(1,0,0,1,-25,-25)" opacity="1" style="display: none;"><g transform="matrix(2.5,0,0,2.5,259.5880126953125,248.11000061035156)" opacity="1" style="display: block;"><g opacity="1" transform="matrix(4,0,0,4,0,0)"><path fill="rgb(109,199,182)" fill-opacity="1" d=" M12.230999946594238,-7.668000221252441 C12.230999946594238,-7.668000221252441 7.359000205993652,-12.907999992370605 7.359000205993652,-12.907999992370605 C6.564000129699707,-13.762999534606934 5.202000141143799,-13.727999687194824 4.453000068664551,-12.833999633789062 C4.453000068664551,-12.833999633789062 -12.295999526977539,7.127999782562256 -12.295999526977539,7.127999782562256 C-12.942999839782715,7.8979997634887695 -12.892999649047852,9.03499984741211 -12.182000160217285,9.746000289916992 C-12.182000160217285,9.746000289916992 -8.968999862670898,12.958999633789062 -8.968999862670898,12.958999633789062 C-8.218999862670898,13.710000038146973 -7.005000114440918,13.718000411987305 -6.24399995803833,12.97700023651123 C-6.24399995803833,12.97700023651123 12.163999557495117,-4.958000183105469 12.163999557495117,-4.958000183105469 C12.918000221252441,-5.691999912261963 12.947999954223633,-6.895999908447266 12.230999946594238,-7.668000221252441z"/></g></g><g transform="matrix(2.5,0,0,2.5,254.54400634765625,251.56199645996094)" opacity="1" style="display: block;"><g opacity="1" transform="matrix(4,0,0,4,0,0)"><path fill="rgb(121,219,200)" fill-opacity="1" d=" M-1.9880000352859497,6.510000228881836 C-1.9880000352859497,6.510000228881836 -6.486999988555908,2.6429998874664307 -6.486999988555908,2.6429998874664307 C-6.486999988555908,2.6429998874664307 1.3109999895095825,-6.510000228881836 1.3109999895095825,-6.510000228881836 C1.3109999895095825,-6.510000228881836 6.486999988555908,-1.6260000467300415 6.486999988555908,-1.6260000467300415 C6.486999988555908,-1.6260000467300415 -1.9880000352859497,6.510000228881836 -1.9880000352859497,6.510000228881836z"/></g></g><g transform="matrix(2.5,0,0,2.5,255.66000366210938,252.43600463867188)" opacity="1" style="display: block;"><g opacity="1" transform="matrix(4,0,0,4,0,0)"><path fill="rgb(170,249,233)" fill-opacity="1" d=" M-2.0230000019073486,5.420000076293945 C-2.0230000019073486,5.420000076293945 -5.203000068664551,2.384999990463257 -5.203000068664551,2.384999990463257 C-5.203000068664551,2.384999990463257 1.4450000524520874,-5.420000076293945 1.4450000524520874,-5.420000076293945 C1.4450000524520874,-5.420000076293945 5.203000068664551,-1.5169999599456787 5.203000068664551,-1.5169999599456787 C5.203000068664551,-1.5169999599456787 -2.0230000019073486,5.420000076293945 -2.0230000019073486,5.420000076293945z"/></g></g><g transform="matrix(2.5,0,0,2.5,292.74700927734375,183.8769989013672)" opacity="1" style="display: block;"><g opacity="1" transform="matrix(4,0,0,4,0,0)"><path fill="rgb(170,249,233)" fill-opacity="1" d=" M0,0.4699999988079071 C0.25999999046325684,0.4699999988079071 0.4699999988079071,0.25999999046325684 0.4699999988079071,0 C0.4699999988079071,-0.25999999046325684 0.25999999046325684,-0.4699999988079071 0,-0.4699999988079071 C-0.25999999046325684,-0.4699999988079071 -0.4699999988079071,-0.25999999046325684 -0.4699999988079071,0 C-0.4699999988079071,0.25999999046325684 -0.25999999046325684,0.4699999988079071 0,0.4699999988079071z"/></g></g><g transform="matrix(2.5,0,0,2.5,307.885009765625,167.9739990234375)" opacity="1" style="display: block;"><g opacity="1" transform="matrix(4,0,0,4,0,0)"><path fill="rgb(170,249,233)" fill-opacity="1" d=" M0,0.4699999988079071 C0.25999999046325684,0.4699999988079071 0.4699999988079071,0.25999999046325684 0.4699999988079071,0 C0.4699999988079071,-0.25999999046325684 0.25999999046325684,-0.4699999988079071 0,-0.4699999988079071 C-0.25999999046325684,-0.4699999988079071 -0.4699999988079071,-0.25999999046325684 -0.4699999988079071,0 C-0.4699999988079071,0.25999999046325684 -0.25999999046325684,0.4699999988079071 0,0.4699999988079071z"/></g></g><g transform="matrix(2.5,0,0,2.5,323.02099609375,152.07899475097656)" opacity="1" style="display: block;"><g opacity="1" transform="matrix(4,0,0,4,0,0)"><path fill="rgb(170,249,233)" fill-opacity="1" d=" M0,0.4699999988079071 C0.25999999046325684,0.4699999988079071 0.4699999988079071,0.25999999046325684 0.4699999988079071,0 C0.4699999988079071,-0.25999999046325684 0.25999999046325684,-0.4699999988079071 0,-0.4699999988079071 C-0.25999999046325684,-0.4699999988079071 -0.4699999988079071,-0.25999999046325684 -0.4699999988079071,0 C-0.4699999988079071,0.25999999046325684 -0.25999999046325684,0.4699999988079071 0,0.4699999988079071z"/></g></g><g transform="matrix(2.5,0,0,2.5,318.0840148925781,207.21800231933594)" opacity="1" style="display: block;"><g opacity="1" transform="matrix(4,0,0,4,0,0)"><path fill="rgb(170,249,233)" fill-opacity="1" d=" M0,0.4699999988079071 C0.25999999046325684,0.4699999988079071 0.4699999988079071,0.25999999046325684 0.4699999988079071,0 C0.4699999988079071,-0.25999999046325684 0.25999999046325684,-0.4699999988079071 0,-0.4699999988079071 C-0.25999999046325684,-0.4699999988079071 -0.4699999988079071,-0.25999999046325684 -0.4699999988079071,0 C-0.4699999988079071,0.25999999046325684 -0.25999999046325684,0.4699999988079071 0,0.4699999988079071z"/></g></g><g transform="matrix(2.5,0,0,2.5,333.22100830078125,191.32699584960938)" opacity="1" style="display: block;"><g opacity="1" transform="matrix(4,0,0,4,0,0)"><path fill="rgb(170,249,233)" fill-opacity="1" d=" M0,0.4699999988079071 C0.25999999046325684,0.4699999988079071 0.4699999988079071,0.25999999046325684 0.4699999988079071,0 C0.4699999988079071,-0.25999999046325684 0.25999999046325684,-0.4699999988079071 0,-0.4699999988079071 C-0.25999999046325684,-0.4699999988079071 -0.4699999988079071,-0.25999999046325684 -0.4699999988079071,0 C-0.4699999988079071,0.25999999046325684 -0.25999999046325684,0.4699999988079071 0,0.4699999988079071z"/></g></g><g transform="matrix(2.5,0,0,2.5,348.3370056152344,175.42100524902344)" opacity="1" style="display: block;"><g opacity="1" transform="matrix(4,0,0,4,0,0)"><path fill="rgb(170,249,233)" fill-opacity="1" d=" M0,0.4699999988079071 C0.25999999046325684,0.4699999988079071 0.4699999988079071,0.25999999046325684 0.4699999988079071,0 C0.4699999988079071,-0.25999999046325684 0.25999999046325684,-0.4699999988079071 0,-0.4699999988079071 C-0.25999999046325684,-0.4699999988079071 -0.4699999988079071,-0.25999999046325684 -0.4699999988079071,0 C-0.4699999988079071,0.25999999046325684 -0.25999999046325684,0.4699999988079071 0,0.4699999988079071z"/></g></g><g transform="matrix(2.5,0,0,2.5,158.38800048828125,332.9209899902344)" opacity="1" style="display: block;"><g opacity="1" transform="matrix(4,0,0,4,0,0)"><path fill="rgb(170,249,233)" fill-opacity="1" d=" M0,0.4699999988079071 C0.25999999046325684,0.4699999988079071 0.4699999988079071,0.25999999046325684 0.4699999988079071,0 C0.4699999988079071,-0.25999999046325684 0.25999999046325684,-0.4699999988079071 0,-0.4699999988079071 C-0.25999999046325684,-0.4699999988079071 -0.4699999988079071,-0.25999999046325684 -0.4699999988079071,0 C-0.4699999988079071,0.25999999046325684 -0.25999999046325684,0.4699999988079071 0,0.4699999988079071z"/></g></g><g transform="matrix(2.5,0,0,2.5,173.52099609375,317.0169982910156)" opacity="1" style="display: block;"><g opacity="1" transform="matrix(4,0,0,4,0,0)"><path fill="rgb(170,249,233)" fill-opacity="1" d=" M0,0.4699999988079071 C0.25999999046325684,0.4699999988079071 0.4699999988079071,0.25999999046325684 0.4699999988079071,0 C0.4699999988079071,-0.25999999046325684 0.25999999046325684,-0.4699999988079071 0,-0.4699999988079071 C-0.25999999046325684,-0.4699999988079071 -0.4699999988079071,-0.25999999046325684 -0.4699999988079071,0 C-0.4699999988079071,0.25999999046325684 -0.25999999046325684,0.4699999988079071 0,0.4699999988079071z"/></g></g><g transform="matrix(2.5,0,0,2.5,188.6580047607422,301.1239929199219)" opacity="1" style="display: block;"><g opacity="1" transform="matrix(4,0,0,4,0,0)"><path fill="rgb(170,249,233)" fill-opacity="1" d=" M0,0.4699999988079071 C0.25999999046325684,0.4699999988079071 0.4699999988079071,0.25999999046325684 0.4699999988079071,0 C0.4699999988079071,-0.25999999046325684 0.25999999046325684,-0.4699999988079071 0,-0.4699999988079071 C-0.25999999046325684,-0.4699999988079071 -0.4699999988079071,-0.25999999046325684 -0.4699999988079071,0 C-0.4699999988079071,0.25999999046325684 -0.25999999046325684,0.4699999988079071 0,0.4699999988079071z"/></g></g><g transform="matrix(2.5,0,0,2.5,183.72000122070312,356.2760009765625)" opacity="1" style="display: block;"><g opacity="1" transform="matrix(4,0,0,4,0,0)"><path fill="rgb(170,249,233)" fill-opacity="1" d=" M0,0.4699999988079071 C0.25999999046325684,0.4699999988079071 0.4699999988079071,0.25999999046325684 0.4699999988079071,0 C0.4699999988079071,-0.25999999046325684 0.25999999046325684,-0.4699999988079071 0,-0.4699999988079071 C-0.25999999046325684,-0.4699999988079071 -0.4699999988079071,-0.25999999046325684 -0.4699999988079071,0 C-0.4699999988079071,0.25999999046325684 -0.25999999046325684,0.4699999988079071 0,0.4699999988079071z"/></g></g><g transform="matrix(2.5,0,0,2.5,198.85699462890625,340.37200927734375)" opacity="1" style="display: block;"><g opacity="1" transform="matrix(4,0,0,4,0,0)"><path fill="rgb(170,249,233)" fill-opacity="1" d=" M0,0.4699999988079071 C0.25999999046325684,0.4699999988079071 0.4699999988079071,0.25999999046325684 0.4699999988079071,0 C0.4699999988079071,-0.25999999046325684 0.25999999046325684,-0.4699999988079071 0,-0.4699999988079071 C-0.25999999046325684,-0.4699999988079071 -0.4699999988079071,-0.25999999046325684 -0.4699999988079071,0 C-0.4699999988079071,0.25999999046325684 -0.25999999046325684,0.4699999988079071 0,0.4699999988079071z"/></g></g><g transform="matrix(2.5,0,0,2.5,213.97300720214844,324.47698974609375)" opacity="1" style="display: block;"><g opacity="1" transform="matrix(4,0,0,4,0,0)"><path fill="rgb(170,249,233)" fill-opacity="1" d=" M0,0.4699999988079071 C0.25999999046325684,0.4699999988079071 0.4699999988079071,0.25999999046325684 0.4699999988079071,0 C0.4699999988079071,-0.25999999046325684 0.25999999046325684,-0.4699999988079071 0,-0.4699999988079071 C-0.25999999046325684,-0.4699999988079071 -0.4699999988079071,-0.25999999046325684 -0.4699999988079071,0 C-0.4699999988079071,0.25999999046325684 -0.25999999046325684,0.4699999988079071 0,0.4699999988079071z"/></g></g></g><g clip-path="url(#__lottie_element_529)" transform="matrix(1,0,0,1,-25,-25)" opacity="1" style="display: block;"><g transform="matrix(2.5,0,0,2.5,246.5030059814453,248.08799743652344)" opacity="1" style="display: block;"><g opacity="1" transform="matrix(4,0,0,4,0,0)"><path fill="rgb(80,154,143)" fill-opacity="1" d=" M9.75,12.185999870300293 C9.75,12.185999870300293 12.956999778747559,8.96500015258789 12.956999778747559,8.96500015258789 C13.70300006866455,8.218999862670898 13.717000007629395,7.000999927520752 12.984000205993652,6.242000102996826 C12.984000205993652,6.242000102996826 8.192000389099121,1.3329999446868896 8.192000389099121,1.3329999446868896 C8.192000389099121,1.3329999446868896 0.035999998450279236,-7.046000003814697 0.035999998450279236,-7.046000003814697 C0.035999998450279236,-7.046000003814697 -4.951000213623047,-12.163999557495117 -4.951000213623047,-12.163999557495117 C-5.697000026702881,-12.92300033569336 -6.9019999504089355,-12.949999809265137 -7.673999786376953,-12.229999542236328 C-7.673999786376953,-12.229999542236328 -12.91100025177002,-7.360000133514404 -12.91100025177002,-7.360000133514404 C-13.76200008392334,-6.560999870300293 -13.722000122070312,-5.198999881744385 -12.831999778747559,-4.453000068664551 C-12.831999778747559,-4.453000068664551 -6.561999797821045,0.8090000152587891 -6.561999797821045,0.8090000152587891 C-6.561999797821045,0.8090000152587891 1.659999966621399,7.708000183105469 1.659999966621399,7.708000183105469 C1.659999966621399,7.708000183105469 7.131999969482422,12.303000450134277 7.131999969482422,12.303000450134277 C7.9039998054504395,12.944000244140625 9.029999732971191,12.892999649047852 9.75,12.185999870300293z"/></g></g><g transform="matrix(2.5,0,0,2.5,182.2830047607422,214.93099975585938)" opacity="1" style="display: block;"><g opacity="1" transform="matrix(4,0,0,4,0,0)"><path fill="rgb(109,199,182)" fill-opacity="1" d=" M0,0.4699999988079071 C0.25999999046325684,0.4699999988079071 0.4699999988079071,0.25999999046325684 0.4699999988079071,0 C0.4699999988079071,-0.25999999046325684 0.25999999046325684,-0.4699999988079071 0,-0.4699999988079071 C-0.25999999046325684,-0.4699999988079071 -0.4699999988079071,-0.25999999046325684 -0.4699999988079071,0 C-0.4699999988079071,0.25999999046325684 -0.25999999046325684,0.4699999988079071 0,0.4699999988079071z"/></g></g><g transform="matrix(2.5,0,0,2.5,166.37399291992188,199.7969970703125)" opacity="1" style="display: block;"><g opacity="1" transform="matrix(4,0,0,4,0,0)"><path fill="rgb(109,199,182)" fill-opacity="1" d=" M0,0.4699999988079071 C0.25999999046325684,0.4699999988079071 0.4699999988079071,0.25999999046325684 0.4699999988079071,0 C0.4699999988079071,-0.25999999046325684 0.25999999046325684,-0.4699999988079071 0,-0.4699999988079071 C-0.25999999046325684,-0.4699999988079071 -0.4699999988079071,-0.25999999046325684 -0.4699999988079071,0 C-0.4699999988079071,0.25999999046325684 -0.25999999046325684,0.4699999988079071 0,0.4699999988079071z"/></g></g><g transform="matrix(2.5,0,0,2.5,150.46299743652344,184.66299438476562)" opacity="1" style="display: block;"><g opacity="1" transform="matrix(4,0,0,4,0,0)"><path fill="rgb(109,199,182)" fill-opacity="1" d=" M0,0.4699999988079071 C0.25999999046325684,0.4699999988079071 0.4699999988079071,0.25999999046325684 0.4699999988079071,0 C0.4699999988079071,-0.25999999046325684 0.25999999046325684,-0.4699999988079071 0,-0.4699999988079071 C-0.25999999046325684,-0.4699999988079071 -0.4699999988079071,-0.25999999046325684 -0.4699999988079071,0 C-0.4699999988079071,0.25999999046325684 -0.25999999046325684,0.4699999988079071 0,0.4699999988079071z"/></g></g><g transform="matrix(2.5,0,0,2.5,205.6280059814453,189.59800720214844)" opacity="1" style="display: block;"><g opacity="1" transform="matrix(4,0,0,4,0,0)"><path fill="rgb(109,199,182)" fill-opacity="1" d=" M0,0.4699999988079071 C0.25999999046325684,0.4699999988079071 0.4699999988079071,0.25999999046325684 0.4699999988079071,0 C0.4699999988079071,-0.25999999046325684 0.25999999046325684,-0.4699999988079071 0,-0.4699999988079071 C-0.25999999046325684,-0.4699999988079071 -0.4699999988079071,-0.25999999046325684 -0.4699999988079071,0 C-0.4699999988079071,0.25999999046325684 -0.25999999046325684,0.4699999988079071 0,0.4699999988079071z"/></g></g><g transform="matrix(2.5,0,0,2.5,189.718994140625,174.46600341796875)" opacity="1" style="display: block;"><g opacity="1" transform="matrix(4,0,0,4,0,0)"><path fill="rgb(109,199,182)" fill-opacity="1" d=" M0,0.4699999988079071 C0.25999999046325684,0.4699999988079071 0.4699999988079071,0.25999999046325684 0.4699999988079071,0 C0.4699999988079071,-0.25999999046325684 0.25999999046325684,-0.4699999988079071 0,-0.4699999988079071 C-0.25999999046325684,-0.4699999988079071 -0.4699999988079071,-0.25999999046325684 -0.4699999988079071,0 C-0.4699999988079071,0.25999999046325684 -0.25999999046325684,0.4699999988079071 0,0.4699999988079071z"/></g></g><g transform="matrix(2.5,0,0,2.5,173.81100463867188,159.33200073242188)" opacity="1" style="display: block;"><g opacity="1" transform="matrix(4,0,0,4,0,0)"><path fill="rgb(109,199,182)" fill-opacity="1" d=" M0,0.4699999988079071 C0.25999999046325684,0.4699999988079071 0.4699999988079071,0.25999999046325684 0.4699999988079071,0 C0.4699999988079071,-0.25999999046325684 0.25999999046325684,-0.4699999988079071 0,-0.4699999988079071 C-0.25999999046325684,-0.4699999988079071 -0.4699999988079071,-0.25999999046325684 -0.4699999988079071,0 C-0.4699999988079071,0.25999999046325684 -0.25999999046325684,0.4699999988079071 0,0.4699999988079071z"/></g></g><g transform="matrix(2.5,0,0,2.5,331.3380126953125,349.3160095214844)" opacity="1" style="display: block;"><g opacity="1" transform="matrix(4,0,0,4,0,0)"><path fill="rgb(109,199,182)" fill-opacity="1" d=" M0,0.4699999988079071 C0.25999999046325684,0.4699999988079071 0.4699999988079071,0.25999999046325684 0.4699999988079071,0 C0.4699999988079071,-0.25999999046325684 0.25999999046325684,-0.4699999988079071 0,-0.4699999988079071 C-0.25999999046325684,-0.4699999988079071 -0.4699999988079071,-0.25999999046325684 -0.4699999988079071,0 C-0.4699999988079071,0.25999999046325684 -0.25999999046325684,0.4699999988079071 0,0.4699999988079071z"/></g></g><g transform="matrix(2.5,0,0,2.5,315.42999267578125,334.1820068359375)" opacity="1" style="display: block;"><g opacity="1" transform="matrix(4,0,0,4,0,0)"><path fill="rgb(109,199,182)" fill-opacity="1" d=" M0,0.4699999988079071 C0.25999999046325684,0.4699999988079071 0.4699999988079071,0.25999999046325684 0.4699999988079071,0 C0.4699999988079071,-0.25999999046325684 0.25999999046325684,-0.4699999988079071 0,-0.4699999988079071 C-0.25999999046325684,-0.4699999988079071 -0.4699999988079071,-0.25999999046325684 -0.4699999988079071,0 C-0.4699999988079071,0.25999999046325684 -0.25999999046325684,0.4699999988079071 0,0.4699999988079071z"/></g></g><g transform="matrix(2.5,0,0,2.5,299.5119934082031,319.0469970703125)" opacity="1" style="display: block;"><g opacity="1" transform="matrix(4,0,0,4,0,0)"><path fill="rgb(109,199,182)" fill-opacity="1" d=" M0,0.4699999988079071 C0.25999999046325684,0.4699999988079071 0.4699999988079071,0.25999999046325684 0.4699999988079071,0 C0.4699999988079071,-0.25999999046325684 0.25999999046325684,-0.4699999988079071 0,-0.4699999988079071 C-0.25999999046325684,-0.4699999988079071 -0.4699999988079071,-0.25999999046325684 -0.4699999988079071,0 C-0.4699999988079071,0.25999999046325684 -0.25999999046325684,0.4699999988079071 0,0.4699999988079071z"/></g></g><g transform="matrix(2.5,0,0,2.5,354.6830139160156,323.9700012207031)" opacity="1" style="display: block;"><g opacity="1" transform="matrix(4,0,0,4,0,0)"><path fill="rgb(109,199,182)" fill-opacity="1" d=" M0,0.4699999988079071 C0.25999999046325684,0.4699999988079071 0.4699999988079071,0.25999999046325684 0.4699999988079071,0 C0.4699999988079071,-0.25999999046325684 0.25999999046325684,-0.4699999988079071 0,-0.4699999988079071 C-0.25999999046325684,-0.4699999988079071 -0.4699999988079071,-0.25999999046325684 -0.4699999988079071,0 C-0.4699999988079071,0.25999999046325684 -0.25999999046325684,0.4699999988079071 0,0.4699999988079071z"/></g></g><g transform="matrix(2.5,0,0,2.5,338.7749938964844,308.83599853515625)" opacity="1" style="display: block;"><g opacity="1" transform="matrix(4,0,0,4,0,0)"><path fill="rgb(109,199,182)" fill-opacity="1" d=" M0,0.4699999988079071 C0.25999999046325684,0.4699999988079071 0.4699999988079071,0.25999999046325684 0.4699999988079071,0 C0.4699999988079071,-0.25999999046325684 0.25999999046325684,-0.4699999988079071 0,-0.4699999988079071 C-0.25999999046325684,-0.4699999988079071 -0.4699999988079071,-0.25999999046325684 -0.4699999988079071,0 C-0.4699999988079071,0.25999999046325684 -0.25999999046325684,0.4699999988079071 0,0.4699999988079071z"/></g></g><g transform="matrix(2.5,0,0,2.5,322.8659973144531,293.7019958496094)" opacity="1" style="display: block;"><g opacity="1" transform="matrix(4,0,0,4,0,0)"><path fill="rgb(109,199,182)" fill-opacity="1" d=" M0,0.4699999988079071 C0.25999999046325684,0.4699999988079071 0.4699999988079071,0.25999999046325684 0.4699999988079071,0 C0.4699999988079071,-0.25999999046325684 0.25999999046325684,-0.4699999988079071 0,-0.4699999988079071 C-0.25999999046325684,-0.4699999988079071 -0.4699999988079071,-0.25999999046325684 -0.4699999988079071,0 C-0.4699999988079071,0.25999999046325684 -0.25999999046325684,0.4699999988079071 0,0.4699999988079071z"/></g></g><g transform="matrix(2.5,0,0,2.5,254.64199829101562,251.4040069580078)" opacity="1" style="display: block;"><g opacity="1" transform="matrix(4,0,0,4,0,0)"><path fill="rgb(35,53,78)" fill-opacity="1" d=" M0.843999981880188,7.376999855041504 C0.843999981880188,7.376999855041504 7.376999855041504,1.0010000467300415 7.376999855041504,1.0010000467300415 C7.376999855041504,1.0010000467300415 -0.7789999842643738,-7.376999855041504 -0.7789999842643738,-7.376999855041504 C-0.7789999842643738,-7.376999855041504 -7.376999855041504,0.4779999852180481 -7.376999855041504,0.4779999852180481 C-7.376999855041504,0.4779999852180481 0.843999981880188,7.376999855041504 0.843999981880188,7.376999855041504z"/></g></g></g><g clip-path="url(#__lottie_element_533)" transform="matrix(1,0,0,1,-25,-25)" opacity="1" style="display: block;"><g transform="matrix(2.5,0,0,2.5,259.5880126953125,248.11000061035156)" opacity="1" style="display: block;"><g opacity="1" transform="matrix(4,0,0,4,0,0)"><path fill="rgb(109,199,182)" fill-opacity="1" d=" M12.230999946594238,-7.668000221252441 C12.230999946594238,-7.668000221252441 7.359000205993652,-12.907999992370605 7.359000205993652,-12.907999992370605 C6.564000129699707,-13.762999534606934 5.202000141143799,-13.727999687194824 4.453000068664551,-12.833999633789062 C4.453000068664551,-12.833999633789062 -12.295999526977539,7.127999782562256 -12.295999526977539,7.127999782562256 C-12.942999839782715,7.8979997634887695 -12.892999649047852,9.03499984741211 -12.182000160217285,9.746000289916992 C-12.182000160217285,9.746000289916992 -8.968999862670898,12.958999633789062 -8.968999862670898,12.958999633789062 C-8.218999862670898,13.710000038146973 -7.005000114440918,13.718000411987305 -6.24399995803833,12.97700023651123 C-6.24399995803833,12.97700023651123 12.163999557495117,-4.958000183105469 12.163999557495117,-4.958000183105469 C12.918000221252441,-5.691999912261963 12.947999954223633,-6.895999908447266 12.230999946594238,-7.668000221252441z"/></g></g><g transform="matrix(2.5,0,0,2.5,254.54400634765625,251.56199645996094)" opacity="1" style="display: block;"><g opacity="1" transform="matrix(4,0,0,4,0,0)"><path fill="rgb(121,219,200)" fill-opacity="1" d=" M-1.9880000352859497,6.510000228881836 C-1.9880000352859497,6.510000228881836 -6.486999988555908,2.6429998874664307 -6.486999988555908,2.6429998874664307 C-6.486999988555908,2.6429998874664307 1.3109999895095825,-6.510000228881836 1.3109999895095825,-6.510000228881836 C1.3109999895095825,-6.510000228881836 6.486999988555908,-1.6260000467300415 6.486999988555908,-1.6260000467300415 C6.486999988555908,-1.6260000467300415 -1.9880000352859497,6.510000228881836 -1.9880000352859497,6.510000228881836z"/></g></g><g transform="matrix(2.5,0,0,2.5,255.66000366210938,252.43600463867188)" opacity="1" style="display: block;"><g opacity="1" transform="matrix(4,0,0,4,0,0)"><path fill="rgb(170,249,233)" fill-opacity="1" d=" M-2.0230000019073486,5.420000076293945 C-2.0230000019073486,5.420000076293945 -5.203000068664551,2.384999990463257 -5.203000068664551,2.384999990463257 C-5.203000068664551,2.384999990463257 1.4450000524520874,-5.420000076293945 1.4450000524520874,-5.420000076293945 C1.4450000524520874,-5.420000076293945 5.203000068664551,-1.5169999599456787 5.203000068664551,-1.5169999599456787 C5.203000068664551,-1.5169999599456787 -2.0230000019073486,5.420000076293945 -2.0230000019073486,5.420000076293945z"/></g></g><g transform="matrix(2.5,0,0,2.5,292.74700927734375,183.8769989013672)" opacity="1" style="display: block;"><g opacity="1" transform="matrix(4,0,0,4,0,0)"><path fill="rgb(170,249,233)" fill-opacity="1" d=" M0,0.4699999988079071 C0.25999999046325684,0.4699999988079071 0.4699999988079071,0.25999999046325684 0.4699999988079071,0 C0.4699999988079071,-0.25999999046325684 0.25999999046325684,-0.4699999988079071 0,-0.4699999988079071 C-0.25999999046325684,-0.4699999988079071 -0.4699999988079071,-0.25999999046325684 -0.4699999988079071,0 C-0.4699999988079071,0.25999999046325684 -0.25999999046325684,0.4699999988079071 0,0.4699999988079071z"/></g></g><g transform="matrix(2.5,0,0,2.5,307.885009765625,167.9739990234375)" opacity="1" style="display: block;"><g opacity="1" transform="matrix(4,0,0,4,0,0)"><path fill="rgb(170,249,233)" fill-opacity="1" d=" M0,0.4699999988079071 C0.25999999046325684,0.4699999988079071 0.4699999988079071,0.25999999046325684 0.4699999988079071,0 C0.4699999988079071,-0.25999999046325684 0.25999999046325684,-0.4699999988079071 0,-0.4699999988079071 C-0.25999999046325684,-0.4699999988079071 -0.4699999988079071,-0.25999999046325684 -0.4699999988079071,0 C-0.4699999988079071,0.25999999046325684 -0.25999999046325684,0.4699999988079071 0,0.4699999988079071z"/></g></g><g transform="matrix(2.5,0,0,2.5,323.02099609375,152.07899475097656)" opacity="1" style="display: block;"><g opacity="1" transform="matrix(4,0,0,4,0,0)"><path fill="rgb(170,249,233)" fill-opacity="1" d=" M0,0.4699999988079071 C0.25999999046325684,0.4699999988079071 0.4699999988079071,0.25999999046325684 0.4699999988079071,0 C0.4699999988079071,-0.25999999046325684 0.25999999046325684,-0.4699999988079071 0,-0.4699999988079071 C-0.25999999046325684,-0.4699999988079071 -0.4699999988079071,-0.25999999046325684 -0.4699999988079071,0 C-0.4699999988079071,0.25999999046325684 -0.25999999046325684,0.4699999988079071 0,0.4699999988079071z"/></g></g><g transform="matrix(2.5,0,0,2.5,318.0840148925781,207.21800231933594)" opacity="1" style="display: block;"><g opacity="1" transform="matrix(4,0,0,4,0,0)"><path fill="rgb(170,249,233)" fill-opacity="1" d=" M0,0.4699999988079071 C0.25999999046325684,0.4699999988079071 0.4699999988079071,0.25999999046325684 0.4699999988079071,0 C0.4699999988079071,-0.25999999046325684 0.25999999046325684,-0.4699999988079071 0,-0.4699999988079071 C-0.25999999046325684,-0.4699999988079071 -0.4699999988079071,-0.25999999046325684 -0.4699999988079071,0 C-0.4699999988079071,0.25999999046325684 -0.25999999046325684,0.4699999988079071 0,0.4699999988079071z"/></g></g><g transform="matrix(2.5,0,0,2.5,333.22100830078125,191.32699584960938)" opacity="1" style="display: block;"><g opacity="1" transform="matrix(4,0,0,4,0,0)"><path fill="rgb(170,249,233)" fill-opacity="1" d=" M0,0.4699999988079071 C0.25999999046325684,0.4699999988079071 0.4699999988079071,0.25999999046325684 0.4699999988079071,0 C0.4699999988079071,-0.25999999046325684 0.25999999046325684,-0.4699999988079071 0,-0.4699999988079071 C-0.25999999046325684,-0.4699999988079071 -0.4699999988079071,-0.25999999046325684 -0.4699999988079071,0 C-0.4699999988079071,0.25999999046325684 -0.25999999046325684,0.4699999988079071 0,0.4699999988079071z"/></g></g><g transform="matrix(2.5,0,0,2.5,348.3370056152344,175.42100524902344)" opacity="1" style="display: block;"><g opacity="1" transform="matrix(4,0,0,4,0,0)"><path fill="rgb(170,249,233)" fill-opacity="1" d=" M0,0.4699999988079071 C0.25999999046325684,0.4699999988079071 0.4699999988079071,0.25999999046325684 0.4699999988079071,0 C0.4699999988079071,-0.25999999046325684 0.25999999046325684,-0.4699999988079071 0,-0.4699999988079071 C-0.25999999046325684,-0.4699999988079071 -0.4699999988079071,-0.25999999046325684 -0.4699999988079071,0 C-0.4699999988079071,0.25999999046325684 -0.25999999046325684,0.4699999988079071 0,0.4699999988079071z"/></g></g><g transform="matrix(2.5,0,0,2.5,158.38800048828125,332.9209899902344)" opacity="1" style="display: block;"><g opacity="1" transform="matrix(4,0,0,4,0,0)"><path fill="rgb(170,249,233)" fill-opacity="1" d=" M0,0.4699999988079071 C0.25999999046325684,0.4699999988079071 0.4699999988079071,0.25999999046325684 0.4699999988079071,0 C0.4699999988079071,-0.25999999046325684 0.25999999046325684,-0.4699999988079071 0,-0.4699999988079071 C-0.25999999046325684,-0.4699999988079071 -0.4699999988079071,-0.25999999046325684 -0.4699999988079071,0 C-0.4699999988079071,0.25999999046325684 -0.25999999046325684,0.4699999988079071 0,0.4699999988079071z"/></g></g><g transform="matrix(2.5,0,0,2.5,173.52099609375,317.0169982910156)" opacity="1" style="display: block;"><g opacity="1" transform="matrix(4,0,0,4,0,0)"><path fill="rgb(170,249,233)" fill-opacity="1" d=" M0,0.4699999988079071 C0.25999999046325684,0.4699999988079071 0.4699999988079071,0.25999999046325684 0.4699999988079071,0 C0.4699999988079071,-0.25999999046325684 0.25999999046325684,-0.4699999988079071 0,-0.4699999988079071 C-0.25999999046325684,-0.4699999988079071 -0.4699999988079071,-0.25999999046325684 -0.4699999988079071,0 C-0.4699999988079071,0.25999999046325684 -0.25999999046325684,0.4699999988079071 0,0.4699999988079071z"/></g></g><g transform="matrix(2.5,0,0,2.5,188.6580047607422,301.1239929199219)" opacity="1" style="display: block;"><g opacity="1" transform="matrix(4,0,0,4,0,0)"><path fill="rgb(170,249,233)" fill-opacity="1" d=" M0,0.4699999988079071 C0.25999999046325684,0.4699999988079071 0.4699999988079071,0.25999999046325684 0.4699999988079071,0 C0.4699999988079071,-0.25999999046325684 0.25999999046325684,-0.4699999988079071 0,-0.4699999988079071 C-0.25999999046325684,-0.4699999988079071 -0.4699999988079071,-0.25999999046325684 -0.4699999988079071,0 C-0.4699999988079071,0.25999999046325684 -0.25999999046325684,0.4699999988079071 0,0.4699999988079071z"/></g></g><g transform="matrix(2.5,0,0,2.5,183.72000122070312,356.2760009765625)" opacity="1" style="display: block;"><g opacity="1" transform="matrix(4,0,0,4,0,0)"><path fill="rgb(170,249,233)" fill-opacity="1" d=" M0,0.4699999988079071 C0.25999999046325684,0.4699999988079071 0.4699999988079071,0.25999999046325684 0.4699999988079071,0 C0.4699999988079071,-0.25999999046325684 0.25999999046325684,-0.4699999988079071 0,-0.4699999988079071 C-0.25999999046325684,-0.4699999988079071 -0.4699999988079071,-0.25999999046325684 -0.4699999988079071,0 C-0.4699999988079071,0.25999999046325684 -0.25999999046325684,0.4699999988079071 0,0.4699999988079071z"/></g></g><g transform="matrix(2.5,0,0,2.5,198.85699462890625,340.37200927734375)" opacity="1" style="display: block;"><g opacity="1" transform="matrix(4,0,0,4,0,0)"><path fill="rgb(170,249,233)" fill-opacity="1" d=" M0,0.4699999988079071 C0.25999999046325684,0.4699999988079071 0.4699999988079071,0.25999999046325684 0.4699999988079071,0 C0.4699999988079071,-0.25999999046325684 0.25999999046325684,-0.4699999988079071 0,-0.4699999988079071 C-0.25999999046325684,-0.4699999988079071 -0.4699999988079071,-0.25999999046325684 -0.4699999988079071,0 C-0.4699999988079071,0.25999999046325684 -0.25999999046325684,0.4699999988079071 0,0.4699999988079071z"/></g></g><g transform="matrix(2.5,0,0,2.5,213.97300720214844,324.47698974609375)" opacity="1" style="display: block;"><g opacity="1" transform="matrix(4,0,0,4,0,0)"><path fill="rgb(170,249,233)" fill-opacity="1" d=" M0,0.4699999988079071 C0.25999999046325684,0.4699999988079071 0.4699999988079071,0.25999999046325684 0.4699999988079071,0 C0.4699999988079071,-0.25999999046325684 0.25999999046325684,-0.4699999988079071 0,-0.4699999988079071 C-0.25999999046325684,-0.4699999988079071 -0.4699999988079071,-0.25999999046325684 -0.4699999988079071,0 C-0.4699999988079071,0.25999999046325684 -0.25999999046325684,0.4699999988079071 0,0.4699999988079071z"/></g></g></g></g></svg>