<svg width="21" height="18" viewBox="0 0 21 18" fill="none" xmlns="http://www.w3.org/2000/svg">
<path d="M12.4219 0.328125C11.9531 -0.09375 11.25 -0.09375 10.8281 0.328125C10.3594 0.796875 10.4062 1.5 10.8281 1.92188L17.0625 7.875H1.125C0.515625 7.875 0 8.39062 0 9C0 9.60938 0.515625 10.125 1.125 10.125H17.0625L10.8281 16.0781C10.4062 16.5 10.3594 17.2031 10.8281 17.6719C11.25 18.0938 11.9531 18.0938 12.4219 17.6719L20.6719 9.79688C20.8594 9.60938 21 9.32812 21 9C21 8.67188 20.8594 8.39062 20.6719 8.20312L12.4219 0.328125Z" fill="#FF6E6C"/>
</svg>
