<svg width="782" height="941" viewBox="0 0 782 941" fill="none" xmlns="http://www.w3.org/2000/svg">
<path d="M643.591 476.312C675.12 482.02 705.67 493.609 732.066 511.888C764.245 534.166 777.557 586.972 748.417 617.106C738.833 627.016 725.639 632.833 712.16 635.78C685.026 641.699 651.728 642.722 624.912 634.732C620.211 633.335 613.778 630.971 608.646 632.658C603.367 634.395 598.628 639.105 594.332 642.453C588.67 646.855 583.117 651.401 577.454 655.804C570.594 661.149 543.018 681.008 542.41 660.237C542.186 652.536 542.049 645.327 543.744 637.752C545.473 629.992 548.08 621.795 545.575 613.892C542.473 604.098 532.804 599.187 526.356 591.883C515.528 579.626 509.407 563.772 507.86 547.584C505.926 527.329 514.643 506.604 529.715 492.934C554.135 470.799 590.467 470.33 621.436 473.264C628.846 473.968 636.244 474.973 643.591 476.312Z" fill="#FFE3E2"/>
<path d="M613.706 595.902C649.945 587.812 683.15 551.939 668.183 537.014C653.219 522.089 631.543 551.531 631.543 551.531C631.543 551.531 633.117 509.749 606.409 513.304C586.992 515.886 596.473 548.624 607.185 569.863C612.823 581.036 613.706 595.902 613.706 595.902Z" fill="#E82A2A"/>
</svg>
