<svg version="1.0" xmlns="http://www.w3.org/2000/svg" viewBox="0 0 110 110" xml:space="preserve" enable-background="new 0 0 110 110"><circle cx="55" cy="55" r="55" fill="rgba(50,190,166,0)"></circle><path d="M87 53c0-4.106-2.479-7.626-6.017-9.166A1.994 1.994 0 0 0 77 44v18.203a2 2 0 0 0 2 2V79c0 2.206-1.794 4-4 4H35c-2.206 0-4-1.794-4-4V64.203a2 2 0 0 0 2-2V44a1.994 1.994 0 0 0-3.983-.166C25.479 45.374 23 48.894 23 53c0 3.264 1.576 6.159 4 7.984V79c0 4.411 3.589 8 8 8h40c4.411 0 8-3.589 8-8V60.984c2.424-1.825 4-4.72 4-7.984z" fill="#3e3e3f"></path><path d="M35 23h40v55H35z" fill="#ffffff"></path><path d="M67 30.5a.5.5 0 0 1-.5.5h-11a.5.5 0 0 1 0-1h11a.5.5 0 0 1 .5.5zm0 4a.5.5 0 0 1-.5.5h-11a.5.5 0 0 1 0-1h11a.5.5 0 0 1 .5.5zm0 4a.5.5 0 0 1-.5.5h-11a.5.5 0 0 1 0-1h11a.5.5 0 0 1 .5.5z" fill="#e2e4e5"></path><path d="M40 28.083h11V40H40z" fill="#9ce5f4"></path><path d="M46.949 36.445c.531-.615.842-1.353.842-3.32 0-1.012-.917-2.292-2.292-2.292s-2.292 1.279-2.292 2.292c0 1.957.428 2.69.959 3.306-1.548.217-2.97.8-4.167 1.655V40h11v-1.913a9.397 9.397 0 0 0-4.05-1.642z" fill="#0484ab"></path><path d="M40 38.087a9.403 9.403 0 0 1 4.167-1.655c-.531-.617-.959-1.349-.959-3.306 0-1.012.917-2.292 2.292-2.292 1.138 0 1.96.876 2.21 1.752L51 28.083H40v10.004z" fill="#c9f2f8"></path><path d="M45.5 30.833c-1.375 0-2.292 1.279-2.292 2.292 0 1.957.428 2.69.959 3.306-1.548.217-2.97.8-4.167 1.655V40h2.292l5.419-7.415c-.251-.876-1.073-1.752-2.211-1.752z" fill="#059bbf"></path><path d="M79 42a2 2 0 0 0-2 2v7H33v-7a2 2 0 0 0-4 0v18.203a2 2 0 0 0 4 0V55h44v7.203a2 2 0 0 0 4 0V44a2 2 0 0 0-2-2z" fill="#3e3e3f"></path><path d="M29 44c0-.057.012-.11.017-.166C25.479 45.374 23 48.894 23 53c0 4.093 2.476 7.604 6 9.151V44z" fill="#df2c2c"></path><path d="M29.017 43.833C25.479 45.374 23 48.894 23 53h6v-9c0-.057.012-.11.017-.167z" fill="#fa5655"></path><path d="M81 44c0-.057-.012-.11-.017-.166C84.521 45.374 87 48.894 87 53c0 4.093-2.476 7.604-6 9.151V44z" fill="#df2c2c"></path><path d="M80.983 43.833C84.521 45.374 87 48.894 87 53h-6v-9c0-.057-.012-.11-.017-.167z" fill="#fa5655"></path><path d="M31 42a2 2 0 0 0-2 2v9h4v-9a2 2 0 0 0-2-2zm48 0a2 2 0 0 1 2 2v9h-4v-9a2 2 0 0 1 2-2z" fill="#5b5c5f"></path><path d="M49 59a2 2 0 1 1-4 0V47a2 2 0 1 1 4 0v12zm16 0a2 2 0 1 1-4 0V47a2 2 0 1 1 4 0v12z" fill="#b5bbbd"></path><path d="M47 45a2 2 0 0 0-2 2v6h4v-6a2 2 0 0 0-2-2zm16 0a2 2 0 0 0-2 2v6h4v-6a2 2 0 0 0-2-2z" fill="#e2e4e5"></path></svg>