<svg xmlns="http://www.w3.org/2000/svg" xmlns:xlink="http://www.w3.org/1999/xlink" viewBox="0 0 220 360" width="220" height="360" preserveAspectRatio="xMidYMid meet" style="width: 100%; height: 100%; transform: translate3d(0px, 0px, 0px); content-visibility: visible;"><defs><clipPath id="__lottie_element_1198"><rect width="220" height="360" x="0" y="0"/></clipPath><filter id="__lottie_element_1246" x="0%" y="0%" width="100%" height="100%"><feGaussianBlur in="SourceAlpha" result="filter_result_0_drop_shadow_1" stdDeviation="0"/><feOffset dx="1.8982025386783976e-17" dy="0.31" in="filter_result_0_drop_shadow_1" result="filter_result_0_drop_shadow_2"/><feFlood flood-color="#f29c33" flood-opacity="1" result="filter_result_0_drop_shadow_3"/><feComposite in="filter_result_0_drop_shadow_3" in2="filter_result_0_drop_shadow_2" operator="in" result="filter_result_0_drop_shadow_4"/><feMerge result="filter_result_0"><feMergeNode in="filter_result_0_drop_shadow_4"/><feMergeNode in="SourceGraphic"/></feMerge></filter><filter id="__lottie_element_1649" x="0%" y="0%" width="100%" height="100%"><feGaussianBlur in="SourceAlpha" result="filter_result_0_drop_shadow_1" stdDeviation="0"/><feOffset dx="1.8982025386783976e-17" dy="0.31" in="filter_result_0_drop_shadow_1" result="filter_result_0_drop_shadow_2"/><feFlood flood-color="#f29c33" flood-opacity="1" result="filter_result_0_drop_shadow_3"/><feComposite in="filter_result_0_drop_shadow_3" in2="filter_result_0_drop_shadow_2" operator="in" result="filter_result_0_drop_shadow_4"/><feMerge result="filter_result_0"><feMergeNode in="filter_result_0_drop_shadow_4"/><feMergeNode in="SourceGraphic"/></feMerge></filter></defs><g clip-path="url(#__lottie_element_1198)"><g transform="matrix(9,0,0,9,109.54100036621094,148.3499755859375)" opacity="1" style="display: none;"><g opacity="1" transform="matrix(1,0,0,1,0,0)"><path fill="rgb(35,53,78)" fill-opacity="1" d=" M0.28600001335144043,-2.239000082015991 C0.28600001335144043,-2.239000082015991 -0.28600001335144043,-2.239000082015991 -0.28600001335144043,-2.239000082015991 C-0.28600001335144043,-2.239000082015991 -0.28600001335144043,2.239000082015991 -0.28600001335144043,2.239000082015991 C-0.28600001335144043,2.239000082015991 0.28600001335144043,2.239000082015991 0.28600001335144043,2.239000082015991 C0.28600001335144043,2.239000082015991 0.28600001335144043,-2.239000082015991 0.28600001335144043,-2.239000082015991z"/></g></g><g transform="matrix(9,0,0,9,109.6760025024414,234.40798950195312)" opacity="1" style="display: none;"><g opacity="1" transform="matrix(1,0,0,1,0,0)"><path fill="rgb(255,181,80)" fill-opacity="1" d=" M-2.8989999294281006,9.14799976348877 C-2.8989999294281006,9.14799976348877 -4.545000076293945,-6.052999973297119 -4.545000076293945,-6.052999973297119 C-4.626999855041504,-6.947000026702881 -4.01800012588501,-7.75600004196167 -3.135999917984009,-7.925000190734863 C-3.135999917984009,-7.925000190734863 3.190999984741211,-9.126999855041504 3.190999984741211,-9.126999855041504 C3.930000066757202,-9.267000198364258 4.6020002365112305,-8.670000076293945 4.550000190734863,-7.920000076293945 C4.550000190734863,-7.920000076293945 3.171999931335449,9.14799976348877 3.171999931335449,9.14799976348877 C3.171999931335449,9.14799976348877 -2.8989999294281006,9.14799976348877 -2.8989999294281006,9.14799976348877z"/></g></g><g transform="matrix(9,0,0,9,110.197998046875,106.31998443603516)" opacity="1" style="display: none;"><g opacity="1" transform="matrix(1,0,0,1,0,0)"><path fill="rgb(255,203,133)" fill-opacity="1" d=" M-1.9010000228881836,2.378999948501587 C-1.003000020980835,3.6449999809265137 0.7770000100135803,3.3519999980926514 1.5989999771118164,2.6510000228881836 C2.7079999446868896,1.7050000429153442 2.5169999599456787,0.32899999618530273 0.9409999847412109,-1.8819999694824219 C0.652999997138977,-2.2860000133514404 0.20200000703334808,-2.9030001163482666 -0.14900000393390656,-3.253000020980835 C-0.2549999952316284,-2.7669999599456787 -0.3370000123977661,-2.1059999465942383 -0.8899999856948853,-1.340000033378601 C-1.2050000429153442,-0.902999997138977 -1.2960000038146973,-0.7789999842643738 -1.6759999990463257,-0.36800000071525574 C-2.4040000438690186,0.41999998688697815 -2.5220000743865967,1.503999948501587 -1.9010000228881836,2.378999948501587z"/></g></g><g transform="matrix(9,0,0,9,108.48799896240234,48.00897979736328)" opacity="1" style="display: none;"><g opacity="1" transform="matrix(1,0,0,1,0,0)"><path fill="rgb(255,203,133)" fill-opacity="1" d=" M0.4519999921321869,-1.2839999198913574 C0.4519999921321869,-1.2839999198913574 0.4519999921321869,1.2839999198913574 0.4519999921321869,1.2839999198913574 C0.4519999921321869,1.5334587097167969 0.24945878982543945,1.7359999418258667 0,1.7359999418258667 C0,1.7359999418258667 0,1.7359999418258667 0,1.7359999418258667 C-0.24945878982543945,1.7359999418258667 -0.4519999921321869,1.5334587097167969 -0.4519999921321869,1.2839999198913574 C-0.4519999921321869,1.2839999198913574 -0.4519999921321869,-1.2839999198913574 -0.4519999921321869,-1.2839999198913574 C-0.4519999921321869,-1.5334587097167969 -0.24945878982543945,-1.7359999418258667 0,-1.7359999418258667 C0,-1.7359999418258667 0,-1.7359999418258667 0,-1.7359999418258667 C0.24945878982543945,-1.7359999418258667 0.4519999921321869,-1.5334587097167969 0.4519999921321869,-1.2839999198913574z"/></g></g><g transform="matrix(9,0,0,9,156.7729949951172,84.8909912109375)" opacity="1" style="display: none;"><g opacity="1" transform="matrix(0.250988245010376,0.9679901599884033,-0.9679901599884033,0.250988245010376,0,0)"><path fill="rgb(255,203,133)" fill-opacity="1" d=" M0.4519999921321869,-1.2839999198913574 C0.4519999921321869,-1.2839999198913574 0.4519999921321869,1.2839999198913574 0.4519999921321869,1.2839999198913574 C0.4519999921321869,1.5334587097167969 0.24945878982543945,1.7359999418258667 0,1.7359999418258667 C0,1.7359999418258667 0,1.7359999418258667 0,1.7359999418258667 C-0.24945878982543945,1.7359999418258667 -0.4519999921321869,1.5334587097167969 -0.4519999921321869,1.2839999198913574 C-0.4519999921321869,1.2839999198913574 -0.4519999921321869,-1.2839999198913574 -0.4519999921321869,-1.2839999198913574 C-0.4519999921321869,-1.5334587097167969 -0.24945878982543945,-1.7359999418258667 0,-1.7359999418258667 C0,-1.7359999418258667 0,-1.7359999418258667 0,-1.7359999418258667 C0.24945878982543945,-1.7359999418258667 0.4519999921321869,-1.5334587097167969 0.4519999921321869,-1.2839999198913574z"/></g></g><g transform="matrix(-9,0,0,9,65.0719985961914,85.56598663330078)" opacity="1" style="display: none;"><g opacity="1" transform="matrix(0.250988245010376,0.9679901599884033,-0.9679901599884033,0.250988245010376,0,0)"><path fill="rgb(255,203,133)" fill-opacity="1" d=" M0.4519999921321869,-1.2839999198913574 C0.4519999921321869,-1.2839999198913574 0.4519999921321869,1.2839999198913574 0.4519999921321869,1.2839999198913574 C0.4519999921321869,1.5334587097167969 0.24945878982543945,1.7359999418258667 0,1.7359999418258667 C0,1.7359999418258667 0,1.7359999418258667 0,1.7359999418258667 C-0.24945878982543945,1.7359999418258667 -0.4519999921321869,1.5334587097167969 -0.4519999921321869,1.2839999198913574 C-0.4519999921321869,1.2839999198913574 -0.4519999921321869,-1.2839999198913574 -0.4519999921321869,-1.2839999198913574 C-0.4519999921321869,-1.5334587097167969 -0.24945878982543945,-1.7359999418258667 0,-1.7359999418258667 C0,-1.7359999418258667 0,-1.7359999418258667 0,-1.7359999418258667 C0.24945878982543945,-1.7359999418258667 0.4519999921321869,-1.5334587097167969 0.4519999921321869,-1.2839999198913574z"/></g></g><g transform="matrix(9,0,0,9,135.47000122070312,59.57398223876953)" opacity="1" style="display: none;"><g opacity="1" transform="matrix(0.7685404419898987,0.6398012638092041,-0.6398012638092041,0.7685404419898987,0,0)"><path fill="rgb(255,232,204)" fill-opacity="1" d=" M0.4519999921321869,-1.2839999198913574 C0.4519999921321869,-1.2839999198913574 0.4519999921321869,1.2839999198913574 0.4519999921321869,1.2839999198913574 C0.4519999921321869,1.5334587097167969 0.24945878982543945,1.7359999418258667 0,1.7359999418258667 C0,1.7359999418258667 0,1.7359999418258667 0,1.7359999418258667 C-0.24945878982543945,1.7359999418258667 -0.4519999921321869,1.5334587097167969 -0.4519999921321869,1.2839999198913574 C-0.4519999921321869,1.2839999198913574 -0.4519999921321869,-1.2839999198913574 -0.4519999921321869,-1.2839999198913574 C-0.4519999921321869,-1.5334587097167969 -0.24945878982543945,-1.7359999418258667 0,-1.7359999418258667 C0,-1.7359999418258667 0,-1.7359999418258667 0,-1.7359999418258667 C0.24945878982543945,-1.7359999418258667 0.4519999921321869,-1.5334587097167969 0.4519999921321869,-1.2839999198913574z"/></g></g><g transform="matrix(-9,0,0,-9,158.63600158691406,111.83699035644531)" opacity="1" style="display: none;"><g opacity="1" transform="matrix(0.10242795199155807,-0.9947404265403748,0.9947404265403748,0.10242795199155807,0,0)"><path fill="rgb(255,232,204)" fill-opacity="1" d=" M0.4519999921321869,-1.2839999198913574 C0.4519999921321869,-1.2839999198913574 0.4519999921321869,1.2839999198913574 0.4519999921321869,1.2839999198913574 C0.4519999921321869,1.5334587097167969 0.24945878982543945,1.7359999418258667 0,1.7359999418258667 C0,1.7359999418258667 0,1.7359999418258667 0,1.7359999418258667 C-0.24945878982543945,1.7359999418258667 -0.4519999921321869,1.5334587097167969 -0.4519999921321869,1.2839999198913574 C-0.4519999921321869,1.2839999198913574 -0.4519999921321869,-1.2839999198913574 -0.4519999921321869,-1.2839999198913574 C-0.4519999921321869,-1.5334587097167969 -0.24945878982543945,-1.7359999418258667 0,-1.7359999418258667 C0,-1.7359999418258667 0,-1.7359999418258667 0,-1.7359999418258667 C0.24945878982543945,-1.7359999418258667 0.4519999921321869,-1.5334587097167969 0.4519999921321869,-1.2839999198913574z"/></g></g><g transform="matrix(8.769330978393555,-2.024559497833252,-2.024559497833252,-8.769330978393555,61.67000198364258,112.2869873046875)" opacity="1" style="display: none;"><g opacity="1" transform="matrix(0.10242795199155807,0.9947404265403748,-0.9947404265403748,0.10242795199155807,0,0)"><path fill="rgb(255,232,204)" fill-opacity="1" d=" M0.4519999921321869,-1.2839999198913574 C0.4519999921321869,-1.2839999198913574 0.4519999921321869,1.2839999198913574 0.4519999921321869,1.2839999198913574 C0.4519999921321869,1.5334587097167969 0.24945878982543945,1.7359999418258667 0,1.7359999418258667 C0,1.7359999418258667 0,1.7359999418258667 0,1.7359999418258667 C-0.24945878982543945,1.7359999418258667 -0.4519999921321869,1.5334587097167969 -0.4519999921321869,1.2839999198913574 C-0.4519999921321869,1.2839999198913574 -0.4519999921321869,-1.2839999198913574 -0.4519999921321869,-1.2839999198913574 C-0.4519999921321869,-1.5334587097167969 -0.24945878982543945,-1.7359999418258667 0,-1.7359999418258667 C0,-1.7359999418258667 0,-1.7359999418258667 0,-1.7359999418258667 C0.24945878982543945,-1.7359999418258667 0.4519999921321869,-1.5334587097167969 0.4519999921321869,-1.2839999198913574z"/></g></g><g transform="matrix(-9,0,0,9,81.33499908447266,60.05998992919922)" opacity="1" style="display: none;"><g opacity="1" transform="matrix(0.7685404419898987,0.6398012638092041,-0.6398012638092041,0.7685404419898987,0,0)"><path fill="rgb(255,232,204)" fill-opacity="1" d=" M0.4519999921321869,-1.2839999198913574 C0.4519999921321869,-1.2839999198913574 0.4519999921321869,1.2839999198913574 0.4519999921321869,1.2839999198913574 C0.4519999921321869,1.5334587097167969 0.24945878982543945,1.7359999418258667 0,1.7359999418258667 C0,1.7359999418258667 0,1.7359999418258667 0,1.7359999418258667 C-0.24945878982543945,1.7359999418258667 -0.4519999921321869,1.5334587097167969 -0.4519999921321869,1.2839999198913574 C-0.4519999921321869,1.2839999198913574 -0.4519999921321869,-1.2839999198913574 -0.4519999921321869,-1.2839999198913574 C-0.4519999921321869,-1.5334587097167969 -0.24945878982543945,-1.7359999418258667 0,-1.7359999418258667 C0,-1.7359999418258667 0,-1.7359999418258667 0,-1.7359999418258667 C0.24945878982543945,-1.7359999418258667 0.4519999921321869,-1.5334587097167969 0.4519999921321869,-1.2839999198913574z"/></g></g><g transform="matrix(9,0,0,9,109.83799743652344,119.69398498535156)" opacity="1" style="display: none;"><g opacity="1" transform="matrix(1,0,0,1,0,0)"><path fill="rgb(255,232,204)" fill-opacity="1" d=" M-0.9190000295639038,1.187999963760376 C-0.41100001335144043,1.6959999799728394 0.41100001335144043,1.6959999799728394 0.9190000295639038,1.187999963760376 C1.4270000457763672,0.6800000071525574 1.4270000457763672,-0.1420000046491623 0.9179999828338623,-0.6499999761581421 C0.9179999828338623,-0.6499999761581421 0,-1.569000005722046 0,-1.569000005722046 C0,-1.569000005722046 -0.9190000295639038,-0.6499999761581421 -0.9190000295639038,-0.6499999761581421 C-1.4270000457763672,-0.1420000046491623 -1.4270000457763672,0.6800000071525574 -0.9190000295639038,1.187999963760376z"/></g></g><g transform="matrix(9,0,0,9,133.70599365234375,237.82798767089844)" opacity="1" style="display: none;"><g opacity="1" transform="matrix(1,0,0,1,0,0)"><path fill="rgb(242,156,51)" fill-opacity="1" d=" M-1.8259999752044678,8.187000274658203 C-1.8259999752044678,8.187000274658203 0.6159999966621399,-7.921999931335449 0.6159999966621399,-7.921999931335449 C0.6159999966621399,-7.921999931335449 1.8259999752044678,-8.187000274658203 1.8259999752044678,-8.187000274658203 C1.8259999752044678,-8.187000274658203 0.5130000114440918,7.894000053405762 0.5130000114440918,7.894000053405762 C0.5130000114440918,7.894000053405762 -1.8259999752044678,8.187000274658203 -1.8259999752044678,8.187000274658203z"/></g></g><g transform="matrix(9,0,0,9,109.99099731445312,331.1759948730469)" opacity="1" style="display: none;"><g opacity="1" transform="matrix(1,0,0,1,0,0)"><path fill="rgb(27,44,63)" fill-opacity="1" d=" M4.51800012588501,-0.2709999978542328 C4.51800012588501,-0.2709999978542328 -4.51800012588501,-0.2709999978542328 -4.51800012588501,-0.2709999978542328 C-4.51800012588501,-0.2709999978542328 -4.51800012588501,0.2709999978542328 -4.51800012588501,0.2709999978542328 C-4.51800012588501,0.2709999978542328 4.51800012588501,0.2709999978542328 4.51800012588501,0.2709999978542328 C4.51800012588501,0.2709999978542328 4.51800012588501,-0.2709999978542328 4.51800012588501,-0.2709999978542328z"/></g></g><g transform="matrix(9,0,0,9,110,319.5929870605469)" opacity="1" style="display: none;"><g opacity="1" transform="matrix(1,0,0,1,0,0)"><path fill="rgb(57,74,96)" fill-opacity="1" d=" M-4.617000102996826,1.2569999694824219 C-4.617000102996826,1.2569999694824219 4.617000102996826,1.2569999694824219 4.617000102996826,1.2569999694824219 C5.552999973297119,1.1820000410079956 6.673999786376953,1.0410000085830688 7.9039998054504395,0.7760000228881836 C9.39900016784668,0.45500001311302185 10.744000434875488,-0.5889999866485596 11.545999526977539,-1.2569999694824219 C3.8489999771118164,-1.2569999694824219 -3.8480000495910645,-1.2569999694824219 -11.545999526977539,-1.2569999694824219 C-10.821999549865723,-0.5889999866485596 -9.345000267028809,0.5080000162124634 -7.750999927520752,0.8360000252723694 C-6.574999809265137,1.0779999494552612 -5.505000114440918,1.1979999542236328 -4.617000102996826,1.2569999694824219z"/></g></g><g filter="url(#__lottie_element_1246)" transform="matrix(9,0,0,9,109.78399658203125,191.54998779296875)" opacity="1" style="display: none;"><g opacity="1" transform="matrix(1,0,0,1,0,0)"><path fill="rgb(255,211,154)" fill-opacity="1" d=" M-4.64900016784668,-2.2019999027252197 C-4.611999988555908,-2.6689999103546143 -4.271999835968018,-3.0510001182556152 -3.812999963760376,-3.1389999389648438 C-3.812999963760376,-3.1389999389648438 3.5290000438690186,-4.5329999923706055 3.5290000438690186,-4.5329999923706055 C4.169000148773193,-4.65500020980835 4.760000228881836,-4.164999961853027 4.749000072479248,-3.513000011444092 C4.732999801635742,-2.5239999294281006 4.716000080108643,-1.0720000267028809 4.716000080108643,0.382999986410141 C4.716000080108643,2.9630000591278076 3.135999917984009,2.506999969482422 3.6649999618530273,-0.00800000037997961 C4.193999767303467,-2.5230000019073486 2.509999990463257,-2.2839999198913574 2.5490000247955322,-1.9299999475479126 C2.625999927520752,-1.2079999446868896 1.597000002861023,-0.9589999914169312 1.5959999561309814,-2.306999921798706 C1.5950000286102295,-3.5260000228881836 0.5389999747276306,-3.753999948501587 0.38499999046325684,-2.690000057220459 C0.2529999911785126,-1.7860000133514404 1.4730000495910645,0.9559999704360962 0.4440000057220459,1.1119999885559082 C-0.7979999780654907,1.3009999990463257 0.10000000149011612,-0.4580000042915344 -0.3790000081062317,-1.6670000553131104 C-0.8960000276565552,-2.9730000495910645 -3.296999931335449,-2.13100004196167 -2.36899995803833,0.13500000536441803 C-1.5260000228881836,2.191999912261963 -2.125,2.946000099182129 -2.5169999599456787,2.8580000400543213 C-3.3239998817443848,2.677999973297119 -2.299999952316284,1.1230000257492065 -3.246999979019165,1.4789999723434448 C-3.953000068664551,1.7450000047683716 -2.760999917984009,4.485000133514404 -3.819000005722046,4.551000118255615 C-4.7820000648498535,4.611999988555908 -4.869999885559082,0.5730000138282776 -4.64900016784668,-2.2019999027252197z"/></g></g><g transform="matrix(9,0,0,9,109.54100036621094,148.3499755859375)" opacity="1" style="display: block;"><g opacity="1" transform="matrix(1,0,0,1,0,0)"><path fill="rgb(35,53,78)" fill-opacity="1" d=" M0.28600001335144043,-2.239000082015991 C0.28600001335144043,-2.239000082015991 -0.28600001335144043,-2.239000082015991 -0.28600001335144043,-2.239000082015991 C-0.28600001335144043,-2.239000082015991 -0.28600001335144043,2.239000082015991 -0.28600001335144043,2.239000082015991 C-0.28600001335144043,2.239000082015991 0.28600001335144043,2.239000082015991 0.28600001335144043,2.239000082015991 C0.28600001335144043,2.239000082015991 0.28600001335144043,-2.239000082015991 0.28600001335144043,-2.239000082015991z"/></g></g><g transform="matrix(9,0,0,9,109.6760025024414,234.40798950195312)" opacity="1" style="display: block;"><g opacity="1" transform="matrix(1,0,0,1,0,0)"><path fill="rgb(255,181,80)" fill-opacity="1" d=" M-2.8989999294281006,9.14799976348877 C-2.8989999294281006,9.14799976348877 -4.545000076293945,-6.052999973297119 -4.545000076293945,-6.052999973297119 C-4.626999855041504,-6.947000026702881 -4.01800012588501,-7.75600004196167 -3.135999917984009,-7.925000190734863 C-3.135999917984009,-7.925000190734863 3.190999984741211,-9.126999855041504 3.190999984741211,-9.126999855041504 C3.930000066757202,-9.267000198364258 4.6020002365112305,-8.670000076293945 4.550000190734863,-7.920000076293945 C4.550000190734863,-7.920000076293945 3.171999931335449,9.14799976348877 3.171999931335449,9.14799976348877 C3.171999931335449,9.14799976348877 -2.8989999294281006,9.14799976348877 -2.8989999294281006,9.14799976348877z"/></g></g><g transform="matrix(9,0,0,9,110.197998046875,106.31998443603516)" opacity="1" style="display: block;"><g opacity="1" transform="matrix(1,0,0,1,0,0)"><path fill="rgb(255,203,133)" fill-opacity="1" d=" M-1.9010000228881836,2.378999948501587 C-1.003000020980835,3.6449999809265137 0.7770000100135803,3.3519999980926514 1.5989999771118164,2.6510000228881836 C2.7079999446868896,1.7050000429153442 2.5169999599456787,0.32899999618530273 0.9409999847412109,-1.8819999694824219 C0.652999997138977,-2.2860000133514404 0.20200000703334808,-2.9030001163482666 -0.14900000393390656,-3.253000020980835 C-0.2549999952316284,-2.7669999599456787 -0.3370000123977661,-2.1059999465942383 -0.8899999856948853,-1.340000033378601 C-1.2050000429153442,-0.902999997138977 -1.2960000038146973,-0.7789999842643738 -1.6759999990463257,-0.36800000071525574 C-2.4040000438690186,0.41999998688697815 -2.5220000743865967,1.503999948501587 -1.9010000228881836,2.378999948501587z"/></g></g><g transform="matrix(9,0,0,10.760964393615723,108.48799896240234,24.433197021484375)" opacity="1" style="display: none;"><g opacity="1" transform="matrix(1,0,0,1,0,0)"><path fill="rgb(255,203,133)" fill-opacity="1" d=" M0.4519999921321869,-1.2839999198913574 C0.4519999921321869,-1.2839999198913574 0.4519999921321869,1.2839999198913574 0.4519999921321869,1.2839999198913574 C0.4519999921321869,1.5334587097167969 0.24945878982543945,1.7359999418258667 0,1.7359999418258667 C0,1.7359999418258667 0,1.7359999418258667 0,1.7359999418258667 C-0.24945878982543945,1.7359999418258667 -0.4519999921321869,1.5334587097167969 -0.4519999921321869,1.2839999198913574 C-0.4519999921321869,1.2839999198913574 -0.4519999921321869,-1.2839999198913574 -0.4519999921321869,-1.2839999198913574 C-0.4519999921321869,-1.5334587097167969 -0.24945878982543945,-1.7359999418258667 0,-1.7359999418258667 C0,-1.7359999418258667 0,-1.7359999418258667 0,-1.7359999418258667 C0.24945878982543945,-1.7359999418258667 0.4519999921321869,-1.5334587097167969 0.4519999921321869,-1.2839999198913574z"/></g></g><g transform="matrix(9,0,0,10.760964393615723,156.7729949951172,68.5316162109375)" opacity="1" style="display: none;"><g opacity="1" transform="matrix(0.250988245010376,0.9679901599884033,-0.9679901599884033,0.250988245010376,0,0)"><path fill="rgb(255,203,133)" fill-opacity="1" d=" M0.4519999921321869,-1.2839999198913574 C0.4519999921321869,-1.2839999198913574 0.4519999921321869,1.2839999198913574 0.4519999921321869,1.2839999198913574 C0.4519999921321869,1.5334587097167969 0.24945878982543945,1.7359999418258667 0,1.7359999418258667 C0,1.7359999418258667 0,1.7359999418258667 0,1.7359999418258667 C-0.24945878982543945,1.7359999418258667 -0.4519999921321869,1.5334587097167969 -0.4519999921321869,1.2839999198913574 C-0.4519999921321869,1.2839999198913574 -0.4519999921321869,-1.2839999198913574 -0.4519999921321869,-1.2839999198913574 C-0.4519999921321869,-1.5334587097167969 -0.24945878982543945,-1.7359999418258667 0,-1.7359999418258667 C0,-1.7359999418258667 0,-1.7359999418258667 0,-1.7359999418258667 C0.24945878982543945,-1.7359999418258667 0.4519999921321869,-1.5334587097167969 0.4519999921321869,-1.2839999198913574z"/></g></g><g transform="matrix(-9,0,0,10.760964393615723,65.0719985961914,69.33869934082031)" opacity="1" style="display: none;"><g opacity="1" transform="matrix(0.250988245010376,0.9679901599884033,-0.9679901599884033,0.250988245010376,0,0)"><path fill="rgb(255,203,133)" fill-opacity="1" d=" M0.4519999921321869,-1.2839999198913574 C0.4519999921321869,-1.2839999198913574 0.4519999921321869,1.2839999198913574 0.4519999921321869,1.2839999198913574 C0.4519999921321869,1.5334587097167969 0.24945878982543945,1.7359999418258667 0,1.7359999418258667 C0,1.7359999418258667 0,1.7359999418258667 0,1.7359999418258667 C-0.24945878982543945,1.7359999418258667 -0.4519999921321869,1.5334587097167969 -0.4519999921321869,1.2839999198913574 C-0.4519999921321869,1.2839999198913574 -0.4519999921321869,-1.2839999198913574 -0.4519999921321869,-1.2839999198913574 C-0.4519999921321869,-1.5334587097167969 -0.24945878982543945,-1.7359999418258667 0,-1.7359999418258667 C0,-1.7359999418258667 0,-1.7359999418258667 0,-1.7359999418258667 C0.24945878982543945,-1.7359999418258667 0.4519999921321869,-1.5334587097167969 0.4519999921321869,-1.2839999198913574z"/></g></g><g transform="matrix(9,0,0,10.760964393615723,135.47000122070312,38.27178192138672)" opacity="1" style="display: none;"><g opacity="1" transform="matrix(0.7685404419898987,0.6398012638092041,-0.6398012638092041,0.7685404419898987,0,0)"><path fill="rgb(255,232,204)" fill-opacity="1" d=" M0.4519999921321869,-1.2839999198913574 C0.4519999921321869,-1.2839999198913574 0.4519999921321869,1.2839999198913574 0.4519999921321869,1.2839999198913574 C0.4519999921321869,1.5334587097167969 0.24945878982543945,1.7359999418258667 0,1.7359999418258667 C0,1.7359999418258667 0,1.7359999418258667 0,1.7359999418258667 C-0.24945878982543945,1.7359999418258667 -0.4519999921321869,1.5334587097167969 -0.4519999921321869,1.2839999198913574 C-0.4519999921321869,1.2839999198913574 -0.4519999921321869,-1.2839999198913574 -0.4519999921321869,-1.2839999198913574 C-0.4519999921321869,-1.5334587097167969 -0.24945878982543945,-1.7359999418258667 0,-1.7359999418258667 C0,-1.7359999418258667 0,-1.7359999418258667 0,-1.7359999418258667 C0.24945878982543945,-1.7359999418258667 0.4519999921321869,-1.5334587097167969 0.4519999921321869,-1.2839999198913574z"/></g></g><g transform="matrix(-9,0,0,-10.760964393615723,158.63600158691406,100.74994659423828)" opacity="1" style="display: none;"><g opacity="1" transform="matrix(0.10242795199155807,-0.9947404265403748,0.9947404265403748,0.10242795199155807,0,0)"><path fill="rgb(255,232,204)" fill-opacity="1" d=" M0.4519999921321869,-1.2839999198913574 C0.4519999921321869,-1.2839999198913574 0.4519999921321869,1.2839999198913574 0.4519999921321869,1.2839999198913574 C0.4519999921321869,1.5334587097167969 0.24945878982543945,1.7359999418258667 0,1.7359999418258667 C0,1.7359999418258667 0,1.7359999418258667 0,1.7359999418258667 C-0.24945878982543945,1.7359999418258667 -0.4519999921321869,1.5334587097167969 -0.4519999921321869,1.2839999198913574 C-0.4519999921321869,1.2839999198913574 -0.4519999921321869,-1.2839999198913574 -0.4519999921321869,-1.2839999198913574 C-0.4519999921321869,-1.5334587097167969 -0.24945878982543945,-1.7359999418258667 0,-1.7359999418258667 C0,-1.7359999418258667 0,-1.7359999418258667 0,-1.7359999418258667 C0.24945878982543945,-1.7359999418258667 0.4519999921321869,-1.5334587097167969 0.4519999921321869,-1.2839999198913574z"/></g></g><g transform="matrix(8.769330978393555,-2.4206905364990234,-2.024559497833252,-10.485161781311035,61.67000198364258,101.2879867553711)" opacity="1" style="display: none;"><g opacity="1" transform="matrix(0.10242795199155807,0.9947404265403748,-0.9947404265403748,0.10242795199155807,0,0)"><path fill="rgb(255,232,204)" fill-opacity="1" d=" M0.4519999921321869,-1.2839999198913574 C0.4519999921321869,-1.2839999198913574 0.4519999921321869,1.2839999198913574 0.4519999921321869,1.2839999198913574 C0.4519999921321869,1.5334587097167969 0.24945878982543945,1.7359999418258667 0,1.7359999418258667 C0,1.7359999418258667 0,1.7359999418258667 0,1.7359999418258667 C-0.24945878982543945,1.7359999418258667 -0.4519999921321869,1.5334587097167969 -0.4519999921321869,1.2839999198913574 C-0.4519999921321869,1.2839999198913574 -0.4519999921321869,-1.2839999198913574 -0.4519999921321869,-1.2839999198913574 C-0.4519999921321869,-1.5334587097167969 -0.24945878982543945,-1.7359999418258667 0,-1.7359999418258667 C0,-1.7359999418258667 0,-1.7359999418258667 0,-1.7359999418258667 C0.24945878982543945,-1.7359999418258667 0.4519999921321869,-1.5334587097167969 0.4519999921321869,-1.2839999198913574z"/></g></g><g transform="matrix(-9,0,0,10.760964393615723,81.33499908447266,38.84210968017578)" opacity="1" style="display: none;"><g opacity="1" transform="matrix(0.7685404419898987,0.6398012638092041,-0.6398012638092041,0.7685404419898987,0,0)"><path fill="rgb(255,232,204)" fill-opacity="1" d=" M0.4519999921321869,-1.2839999198913574 C0.4519999921321869,-1.2839999198913574 0.4519999921321869,1.2839999198913574 0.4519999921321869,1.2839999198913574 C0.4519999921321869,1.5334587097167969 0.24945878982543945,1.7359999418258667 0,1.7359999418258667 C0,1.7359999418258667 0,1.7359999418258667 0,1.7359999418258667 C-0.24945878982543945,1.7359999418258667 -0.4519999921321869,1.5334587097167969 -0.4519999921321869,1.2839999198913574 C-0.4519999921321869,1.2839999198913574 -0.4519999921321869,-1.2839999198913574 -0.4519999921321869,-1.2839999198913574 C-0.4519999921321869,-1.5334587097167969 -0.24945878982543945,-1.7359999418258667 0,-1.7359999418258667 C0,-1.7359999418258667 0,-1.7359999418258667 0,-1.7359999418258667 C0.24945878982543945,-1.7359999418258667 0.4519999921321869,-1.5334587097167969 0.4519999921321869,-1.2839999198913574z"/></g></g><g transform="matrix(9,0,0,10.760964393615723,109.83799743652344,110.14427185058594)" opacity="1" style="display: none;"><g opacity="1" transform="matrix(1,0,0,1,0,0)"><path fill="rgb(255,232,204)" fill-opacity="1" d=" M-0.9190000295639038,1.5104159116744995 C-0.41100001335144043,1.6963716745376587 0.41100001335144043,1.6963716745376587 0.9190000295639038,1.5104159116744995 C1.4270000457763672,1.3244600296020508 1.4270000457763672,1.02265465259552 0.9179999828338623,0.8366988301277161 C0.9179999828338623,0.8366988301277161 0.14421243965625763,0.18082253634929657 0.14421243965625763,0.18082253634929657 C0.14421243965625763,0.18082253634929657 -0.9190000295639038,0.8366988301277161 -0.9190000295639038,0.8366988301277161 C-1.4270000457763672,1.02265465259552 -1.4270000457763672,1.3244600296020508 -0.9190000295639038,1.5104159116744995z"/></g></g><g transform="matrix(9,0,0,9,108.48799896240234,48.00897979736328)" opacity="1" style="display: block;"><g opacity="1" transform="matrix(1,0,0,1,0,0)"><path fill="rgb(255,203,133)" fill-opacity="1" d=" M0.4519999921321869,-1.2839999198913574 C0.4519999921321869,-1.2839999198913574 0.4519999921321869,1.2839999198913574 0.4519999921321869,1.2839999198913574 C0.4519999921321869,1.5334587097167969 0.24945878982543945,1.7359999418258667 0,1.7359999418258667 C0,1.7359999418258667 0,1.7359999418258667 0,1.7359999418258667 C-0.24945878982543945,1.7359999418258667 -0.4519999921321869,1.5334587097167969 -0.4519999921321869,1.2839999198913574 C-0.4519999921321869,1.2839999198913574 -0.4519999921321869,-1.2839999198913574 -0.4519999921321869,-1.2839999198913574 C-0.4519999921321869,-1.5334587097167969 -0.24945878982543945,-1.7359999418258667 0,-1.7359999418258667 C0,-1.7359999418258667 0,-1.7359999418258667 0,-1.7359999418258667 C0.24945878982543945,-1.7359999418258667 0.4519999921321869,-1.5334587097167969 0.4519999921321869,-1.2839999198913574z"/></g></g><g transform="matrix(9,0,0,9,156.7729949951172,84.89097595214844)" opacity="1" style="display: block;"><g opacity="1" transform="matrix(0.250988245010376,0.9679901599884033,-0.9679901599884033,0.250988245010376,0,0)"><path fill="rgb(255,203,133)" fill-opacity="1" d=" M0.4519999921321869,-1.2839999198913574 C0.4519999921321869,-1.2839999198913574 0.4519999921321869,1.2839999198913574 0.4519999921321869,1.2839999198913574 C0.4519999921321869,1.5334587097167969 0.24945878982543945,1.7359999418258667 0,1.7359999418258667 C0,1.7359999418258667 0,1.7359999418258667 0,1.7359999418258667 C-0.24945878982543945,1.7359999418258667 -0.4519999921321869,1.5334587097167969 -0.4519999921321869,1.2839999198913574 C-0.4519999921321869,1.2839999198913574 -0.4519999921321869,-1.2839999198913574 -0.4519999921321869,-1.2839999198913574 C-0.4519999921321869,-1.5334587097167969 -0.24945878982543945,-1.7359999418258667 0,-1.7359999418258667 C0,-1.7359999418258667 0,-1.7359999418258667 0,-1.7359999418258667 C0.24945878982543945,-1.7359999418258667 0.4519999921321869,-1.5334587097167969 0.4519999921321869,-1.2839999198913574z"/></g></g><g transform="matrix(-9,0,0,9,65.0719985961914,85.56598663330078)" opacity="1" style="display: block;"><g opacity="1" transform="matrix(0.250988245010376,0.9679901599884033,-0.9679901599884033,0.250988245010376,0,0)"><path fill="rgb(255,203,133)" fill-opacity="1" d=" M0.4519999921321869,-1.2839999198913574 C0.4519999921321869,-1.2839999198913574 0.4519999921321869,1.2839999198913574 0.4519999921321869,1.2839999198913574 C0.4519999921321869,1.5334587097167969 0.24945878982543945,1.7359999418258667 0,1.7359999418258667 C0,1.7359999418258667 0,1.7359999418258667 0,1.7359999418258667 C-0.24945878982543945,1.7359999418258667 -0.4519999921321869,1.5334587097167969 -0.4519999921321869,1.2839999198913574 C-0.4519999921321869,1.2839999198913574 -0.4519999921321869,-1.2839999198913574 -0.4519999921321869,-1.2839999198913574 C-0.4519999921321869,-1.5334587097167969 -0.24945878982543945,-1.7359999418258667 0,-1.7359999418258667 C0,-1.7359999418258667 0,-1.7359999418258667 0,-1.7359999418258667 C0.24945878982543945,-1.7359999418258667 0.4519999921321869,-1.5334587097167969 0.4519999921321869,-1.2839999198913574z"/></g></g><g transform="matrix(9,0,0,9,135.47000122070312,59.58299255371094)" opacity="1" style="display: block;"><g opacity="1" transform="matrix(0.7685404419898987,0.6398012638092041,-0.6398012638092041,0.7685404419898987,0,0)"><path fill="rgb(255,232,204)" fill-opacity="1" d=" M0.4519999921321869,-1.2839999198913574 C0.4519999921321869,-1.2839999198913574 0.4519999921321869,1.2839999198913574 0.4519999921321869,1.2839999198913574 C0.4519999921321869,1.5334587097167969 0.24945878982543945,1.7359999418258667 0,1.7359999418258667 C0,1.7359999418258667 0,1.7359999418258667 0,1.7359999418258667 C-0.24945878982543945,1.7359999418258667 -0.4519999921321869,1.5334587097167969 -0.4519999921321869,1.2839999198913574 C-0.4519999921321869,1.2839999198913574 -0.4519999921321869,-1.2839999198913574 -0.4519999921321869,-1.2839999198913574 C-0.4519999921321869,-1.5334587097167969 -0.24945878982543945,-1.7359999418258667 0,-1.7359999418258667 C0,-1.7359999418258667 0,-1.7359999418258667 0,-1.7359999418258667 C0.24945878982543945,-1.7359999418258667 0.4519999921321869,-1.5334587097167969 0.4519999921321869,-1.2839999198913574z"/></g></g><g transform="matrix(-9,0,0,-9,158.63600158691406,111.83699035644531)" opacity="1" style="display: block;"><g opacity="1" transform="matrix(0.10242795199155807,-0.9947404265403748,0.9947404265403748,0.10242795199155807,0,0)"><path fill="rgb(255,232,204)" fill-opacity="1" d=" M0.4519999921321869,-1.2839999198913574 C0.4519999921321869,-1.2839999198913574 0.4519999921321869,1.2839999198913574 0.4519999921321869,1.2839999198913574 C0.4519999921321869,1.5334587097167969 0.24945878982543945,1.7359999418258667 0,1.7359999418258667 C0,1.7359999418258667 0,1.7359999418258667 0,1.7359999418258667 C-0.24945878982543945,1.7359999418258667 -0.4519999921321869,1.5334587097167969 -0.4519999921321869,1.2839999198913574 C-0.4519999921321869,1.2839999198913574 -0.4519999921321869,-1.2839999198913574 -0.4519999921321869,-1.2839999198913574 C-0.4519999921321869,-1.5334587097167969 -0.24945878982543945,-1.7359999418258667 0,-1.7359999418258667 C0,-1.7359999418258667 0,-1.7359999418258667 0,-1.7359999418258667 C0.24945878982543945,-1.7359999418258667 0.4519999921321869,-1.5334587097167969 0.4519999921321869,-1.2839999198913574z"/></g></g><g transform="matrix(8.769330978393555,-2.024559497833252,-2.024559497833252,-8.769330978393555,61.67000198364258,112.2869873046875)" opacity="1" style="display: block;"><g opacity="1" transform="matrix(0.10242795199155807,0.9947404265403748,-0.9947404265403748,0.10242795199155807,0,0)"><path fill="rgb(255,232,204)" fill-opacity="1" d=" M0.4519999921321869,-1.2839999198913574 C0.4519999921321869,-1.2839999198913574 0.4519999921321869,1.2839999198913574 0.4519999921321869,1.2839999198913574 C0.4519999921321869,1.5334587097167969 0.24945878982543945,1.7359999418258667 0,1.7359999418258667 C0,1.7359999418258667 0,1.7359999418258667 0,1.7359999418258667 C-0.24945878982543945,1.7359999418258667 -0.4519999921321869,1.5334587097167969 -0.4519999921321869,1.2839999198913574 C-0.4519999921321869,1.2839999198913574 -0.4519999921321869,-1.2839999198913574 -0.4519999921321869,-1.2839999198913574 C-0.4519999921321869,-1.5334587097167969 -0.24945878982543945,-1.7359999418258667 0,-1.7359999418258667 C0,-1.7359999418258667 0,-1.7359999418258667 0,-1.7359999418258667 C0.24945878982543945,-1.7359999418258667 0.4519999921321869,-1.5334587097167969 0.4519999921321869,-1.2839999198913574z"/></g></g><g transform="matrix(-9,0,0,9,81.33499908447266,60.05997085571289)" opacity="1" style="display: block;"><g opacity="1" transform="matrix(0.7685404419898987,0.6398012638092041,-0.6398012638092041,0.7685404419898987,0,0)"><path fill="rgb(255,232,204)" fill-opacity="1" d=" M0.4519999921321869,-1.2839999198913574 C0.4519999921321869,-1.2839999198913574 0.4519999921321869,1.2839999198913574 0.4519999921321869,1.2839999198913574 C0.4519999921321869,1.5334587097167969 0.24945878982543945,1.7359999418258667 0,1.7359999418258667 C0,1.7359999418258667 0,1.7359999418258667 0,1.7359999418258667 C-0.24945878982543945,1.7359999418258667 -0.4519999921321869,1.5334587097167969 -0.4519999921321869,1.2839999198913574 C-0.4519999921321869,1.2839999198913574 -0.4519999921321869,-1.2839999198913574 -0.4519999921321869,-1.2839999198913574 C-0.4519999921321869,-1.5334587097167969 -0.24945878982543945,-1.7359999418258667 0,-1.7359999418258667 C0,-1.7359999418258667 0,-1.7359999418258667 0,-1.7359999418258667 C0.24945878982543945,-1.7359999418258667 0.4519999921321869,-1.5334587097167969 0.4519999921321869,-1.2839999198913574z"/></g></g><g transform="matrix(9,0,0,9,109.83799743652344,119.69398498535156)" opacity="1" style="display: block;"><g opacity="1" transform="matrix(1,0,0,1,0,0)"><path fill="rgb(255,232,204)" fill-opacity="1" d=" M-0.9190000295639038,1.187999963760376 C-0.41100001335144043,1.6959999799728394 0.41100001335144043,1.6959999799728394 0.9190000295639038,1.187999963760376 C1.4270000457763672,0.6800000071525574 1.4270000457763672,-0.1420000046491623 0.9179999828338623,-0.6499999761581421 C0.9179999828338623,-0.6499999761581421 1.3877787807814457e-15,-1.569000005722046 1.3877787807814457e-15,-1.569000005722046 C1.3877787807814457e-15,-1.569000005722046 -0.9190000295639038,-0.6499999761581421 -0.9190000295639038,-0.6499999761581421 C-1.4270000457763672,-0.1420000046491623 -1.4270000457763672,0.6800000071525574 -0.9190000295639038,1.187999963760376z"/></g></g><g transform="matrix(9,0,0,9,133.70599365234375,237.82798767089844)" opacity="1" style="display: block;"><g opacity="1" transform="matrix(1,0,0,1,0,0)"><path fill="rgb(242,156,51)" fill-opacity="1" d=" M-1.8259999752044678,8.187000274658203 C-1.8259999752044678,8.187000274658203 0.6159999966621399,-7.921999931335449 0.6159999966621399,-7.921999931335449 C0.6159999966621399,-7.921999931335449 1.8259999752044678,-8.187000274658203 1.8259999752044678,-8.187000274658203 C1.8259999752044678,-8.187000274658203 0.5130000114440918,7.894000053405762 0.5130000114440918,7.894000053405762 C0.5130000114440918,7.894000053405762 -1.8259999752044678,8.187000274658203 -1.8259999752044678,8.187000274658203z"/></g></g><g transform="matrix(9,0,0,9,109.99099731445312,331.1759948730469)" opacity="1" style="display: block;"><g opacity="1" transform="matrix(1,0,0,1,0,0)"><path fill="rgb(27,44,63)" fill-opacity="1" d=" M4.51800012588501,-0.2709999978542328 C4.51800012588501,-0.2709999978542328 -4.51800012588501,-0.2709999978542328 -4.51800012588501,-0.2709999978542328 C-4.51800012588501,-0.2709999978542328 -4.51800012588501,0.2709999978542328 -4.51800012588501,0.2709999978542328 C-4.51800012588501,0.2709999978542328 4.51800012588501,0.2709999978542328 4.51800012588501,0.2709999978542328 C4.51800012588501,0.2709999978542328 4.51800012588501,-0.2709999978542328 4.51800012588501,-0.2709999978542328z"/></g></g><g transform="matrix(9,0,0,9,110,319.5929870605469)" opacity="1" style="display: block;"><g opacity="1" transform="matrix(1,0,0,1,0,0)"><path fill="rgb(57,74,96)" fill-opacity="1" d=" M-4.617000102996826,1.2569999694824219 C-4.617000102996826,1.2569999694824219 4.617000102996826,1.2569999694824219 4.617000102996826,1.2569999694824219 C5.552999973297119,1.1820000410079956 6.673999786376953,1.0410000085830688 7.9039998054504395,0.7760000228881836 C9.39900016784668,0.45500001311302185 10.744000434875488,-0.5889999866485596 11.545999526977539,-1.2569999694824219 C3.8489999771118164,-1.2569999694824219 -3.8480000495910645,-1.2569999694824219 -11.545999526977539,-1.2569999694824219 C-10.821999549865723,-0.5889999866485596 -9.345000267028809,0.5080000162124634 -7.750999927520752,0.8360000252723694 C-6.574999809265137,1.0779999494552612 -5.505000114440918,1.1979999542236328 -4.617000102996826,1.2569999694824219z"/></g></g><g filter="url(#__lottie_element_1649)" transform="matrix(9,0,0,9,109.78399658203125,191.54998779296875)" opacity="1" style="display: block;"><g opacity="1" transform="matrix(1,0,0,1,0,0)"><path fill="rgb(255,211,154)" fill-opacity="1" d=" M-4.64900016784668,-2.2019999027252197 C-4.611999988555908,-2.6689999103546143 -4.271999835968018,-3.0510001182556152 -3.812999963760376,-3.1389999389648438 C-3.812999963760376,-3.1389999389648438 3.5290000438690186,-4.5329999923706055 3.5290000438690186,-4.5329999923706055 C4.169000148773193,-4.65500020980835 4.760000228881836,-4.164999961853027 4.749000072479248,-3.513000011444092 C4.732999801635742,-2.5239999294281006 4.716000080108643,-1.0720000267028809 4.716000080108643,0.382999986410141 C4.716000080108643,2.9630000591278076 3.135999917984009,2.506999969482422 3.6649999618530273,-0.00800000037997961 C4.145999908447266,-2.2929999828338623 2.799999952316284,-2.303999900817871 2.5789999961853027,-2.0220000743865967 C2.556999921798706,-1.99399995803833 2.5450000762939453,-1.9620000123977661 2.5490000247955322,-1.9299999475479126 C2.625999927520752,-1.2079999446868896 1.597000002861023,-0.9589999914169312 1.5959999561309814,-2.306999921798706 C1.5950000286102295,-3.5260000228881836 0.5389999747276306,-3.753999948501587 0.38499999046325684,-2.690000057220459 C0.2529999911785126,-1.7860000133514404 1.4730000495910645,0.9559999704360962 0.4440000057220459,1.1119999885559082 C-0.7979999780654907,1.3009999990463257 0.10000000149011612,-0.4580000042915344 -0.3790000081062317,-1.6670000553131104 C-0.8960000276565552,-2.9730000495910645 -3.296999931335449,-2.13100004196167 -2.36899995803833,0.13500000536441803 C-1.5260000228881836,2.191999912261963 -2.125,2.946000099182129 -2.5169999599456787,2.8580000400543213 C-3.3239998817443848,2.677999973297119 -2.299999952316284,1.1230000257492065 -3.246999979019165,1.4789999723434448 C-3.953000068664551,1.7450000047683716 -2.760999917984009,4.485000133514404 -3.819000005722046,4.551000118255615 C-4.7820000648498535,4.611999988555908 -4.869999885559082,0.5730000138282776 -4.64900016784668,-2.2019999027252197z"/></g></g></g></svg>