<svg xmlns="http://www.w3.org/2000/svg" xmlns:xlink="http://www.w3.org/1999/xlink" viewBox="0 0 480 405" width="480" height="405" preserveAspectRatio="xMidYMid meet" style="width: 100%; height: 100%; transform: translate3d(0px, 0px, 0px); content-visibility: visible;"><defs><clipPath id="__lottie_element_1247"><rect width="480" height="405" x="0" y="0"/></clipPath></defs><g clip-path="url(#__lottie_element_1247)"><g transform="matrix(2.5,0,0,2.5,151.9375,260.0719909667969)" opacity="1" style="display: block;"><g opacity="1" transform="matrix(4,0,0,4,0,0)"><path fill="rgb(254,74,73)" fill-opacity="1" d=" M0.44999998807907104,-1.7020000219345093 C0.44999998807907104,-1.7020000219345093 -1.1440000534057617,-1.7020000219345093 -1.1440000534057617,-1.7020000219345093 C-1.1440000534057617,-1.7020000219345093 0.36899998784065247,1.7020000219345093 0.36899998784065247,1.7020000219345093 C0.36899998784065247,1.7020000219345093 1.1150000095367432,-0.8130000233650208 1.1150000095367432,-0.8130000233650208 C1.246999979019165,-1.2569999694824219 0.9129999876022339,-1.7020000219345093 0.44999998807907104,-1.7020000219345093z"/></g></g><g transform="matrix(2.5,0,0,2.5,132.7050018310547,279.11199951171875)" opacity="1" style="display: block;"><g opacity="1" transform="matrix(4,0,0,4,0,0)"><path fill="rgb(121,185,211)" fill-opacity="1" d=" M-2.880000114440918,-4.993000030517578 C-2.880000114440918,-4.993000030517578 1.3669999837875366,-4.993000030517578 1.3669999837875366,-4.993000030517578 C1.3669999837875366,-4.993000030517578 2.880000114440918,3.3959999084472656 2.880000114440918,3.3959999084472656 C2.880000114440918,3.3959999084472656 -2.013000011444092,4.993000030517578 -2.013000011444092,4.993000030517578 C-2.013000011444092,4.993000030517578 -2.880000114440918,-4.993000030517578 -2.880000114440918,-4.993000030517578z"/></g></g><g transform="matrix(2.5,0,0,2.5,89.06500244140625,181.24949645996094)" opacity="1" style="display: block;"><g opacity="1" transform="matrix(4,0,0,4,0,0)"><path fill="rgb(150,206,234)" fill-opacity="1" d=" M1.625,4.685999870300293 C1.625,4.685999870300293 3.061000108718872,4.685999870300293 3.061000108718872,4.685999870300293 C3.061000108718872,4.685999870300293 3.061000108718872,4.685999870300293 3.061000108718872,4.685999870300293 C3.061000108718872,4.685999870300293 3.061000108718872,-4.685999870300293 3.061000108718872,-4.685999870300293 C3.061000108718872,-4.685999870300293 1.625,-4.685999870300293 1.625,-4.685999870300293 C-0.9629999995231628,-4.685999870300293 -3.061000108718872,-2.5880000591278076 -3.061000108718872,0 C-3.061000108718872,2.5880000591278076 -0.9629999995231628,4.685999870300293 1.625,4.685999870300293z"/></g></g><g transform="matrix(2.5,0,0,2.5,89.05999755859375,199.96949768066406)" opacity="1" style="display: block;"><g opacity="1" transform="matrix(4,0,0,4,0,0)"><path fill="rgb(121,185,211)" fill-opacity="1" d=" M3.059999942779541,2.815000057220459 C3.059999942779541,2.815000057220459 3.059999942779541,0.9229999780654907 3.059999942779541,0.9229999780654907 C3.059999942779541,0.9229999780654907 3.059999942779541,0.9229999780654907 3.059999942779541,0.9229999780654907 C3.059999942779541,0.9229999780654907 1.6269999742507935,0.9229999780654907 1.6269999742507935,0.9229999780654907 C-0.6380000114440918,0.9229999780654907 -2.5250000953674316,-0.6819999814033508 -2.9639999866485596,-2.815000057220459 C-3.0250000953674316,-2.51200008392334 -3.059999942779541,-2.194999933242798 -3.059999942779541,-1.871999979019165 C-3.059999942779541,0.7160000205039978 -0.9610000252723694,2.815000057220459 1.6269999742507935,2.815000057220459 C1.6269999742507935,2.815000057220459 3.059999942779541,2.815000057220459 3.059999942779541,2.815000057220459z"/></g></g><g transform="matrix(2.5,0,0,2.5,306.4725036621094,184.1320037841797)" opacity="1" style="display: block;"><g opacity="1" transform="matrix(3.5848934650421143,-1.7744123935699463,1.7744123935699463,3.5848934650421143,0,0)"><path fill="rgb(249,155,155)" fill-opacity="1" d=" M0,4.9710001945495605 C2.746000051498413,4.9710001945495605 4.9710001945495605,2.746000051498413 4.9710001945495605,0 C4.9710001945495605,-2.746000051498413 2.746000051498413,-4.9710001945495605 0,-4.9710001945495605 C-2.746000051498413,-4.9710001945495605 -4.9710001945495605,-2.746000051498413 -4.9710001945495605,0 C-4.9710001945495605,2.746000051498413 -2.746000051498413,4.9710001945495605 0,4.9710001945495605z"/></g></g><g transform="matrix(2.5,0,0,2.5,305.7200012207031,175.58700561523438)" opacity="1" style="display: block;"><g opacity="1" transform="matrix(4,0,0,4,0,0)"><path fill="rgb(255,187,187)" fill-opacity="1" d=" M4.914000034332275,-0.1860000044107437 C4.829999923706055,-0.5720000267028809 4.696000099182129,-0.9559999704360962 4.51200008392334,-1.3270000219345093 C3.2950000762939453,-3.7869999408721924 0.3149999976158142,-4.795000076293945 -2.1449999809265137,-3.578000068664551 C-4.604000091552734,-2.359999895095825 -5.616000175476074,0.6230000257492065 -4.39900016784668,3.0829999446868896 C-4.216000080108643,3.4539999961853027 -3.990999937057495,3.7920000553131104 -3.734999895095825,4.093999862670898 C-4.2179999351501465,1.9129999876022339 -3.1710000038146973,-0.3959999978542328 -1.0820000171661377,-1.4299999475479126 C1.00600004196167,-2.4630000591278076 3.4730000495910645,-1.8919999599456787 4.914000034332275,-0.1860000044107437z"/></g></g><g transform="matrix(2.5,0,0,2.5,237.65499877929688,176.0594940185547)" opacity="1" style="display: block;"><g opacity="1" transform="matrix(4,0,0,4,0,0)"><path fill="rgb(150,206,234)" fill-opacity="1" d=" M7.189000129699707,10.493000030517578 C7.189000129699707,10.493000030517578 -7.330999851226807,5.5279998779296875 -7.330999851226807,5.5279998779296875 C-7.330999851226807,5.5279998779296875 -7.955999851226807,-4.60699987411499 -7.955999851226807,-4.60699987411499 C-7.955999851226807,-4.60699987411499 7.955999851226807,-10.493000030517578 7.955999851226807,-10.493000030517578 C7.955999851226807,-10.493000030517578 7.189000129699707,10.493000030517578 7.189000129699707,10.493000030517578z"/></g></g><g transform="matrix(2.5,0,0,2.5,237.4875030517578,247.29200744628906)" opacity="1" style="display: block;"><g opacity="1" transform="matrix(4,0,0,4,0,0)"><path fill="rgb(121,185,211)" fill-opacity="1" d=" M7.419000148773193,-3.2190001010894775 C7.419000148773193,-3.2190001010894775 -7.419000148773193,-3.369999885559082 -7.419000148773193,-3.369999885559082 C-7.419000148773193,-3.369999885559082 -7.313000202178955,-1.5839999914169312 -7.313000202178955,-1.5839999914169312 C-7.313000202178955,-1.5839999914169312 7.206999778747559,3.369999885559082 7.206999778747559,3.369999885559082 C7.206999778747559,3.369999885559082 7.419000148773193,-3.2190001010894775 7.419000148773193,-3.2190001010894775z"/></g></g><g transform="matrix(2.5,0,0,2.5,134.125,180.66200256347656)" opacity="1" style="display: block;"><g opacity="1" transform="matrix(4,0,0,4,0,0)"><path fill="rgb(35,54,78)" fill-opacity="1" d=" M-3.0220000743865967,4.8520002365112305 C-3.0220000743865967,4.8520002365112305 3.0220000743865967,5.066999912261963 3.0220000743865967,5.066999912261963 C3.0220000743865967,5.066999912261963 2.3959999084472656,-5.066999912261963 2.3959999084472656,-5.066999912261963 C2.3959999084472656,-5.066999912261963 -3.0220000743865967,-4.734000205993652 -3.0220000743865967,-4.734000205993652 C-3.0220000743865967,-4.734000205993652 -3.0220000743865967,4.8520002365112305 -3.0220000743865967,4.8520002365112305z"/></g></g><g transform="matrix(2.5,0,0,2.5,406.42498779296875,181.24949645996094)" opacity="1" style="display: block;"><g opacity="1" transform="matrix(4,0,0,4,0,0)"><path fill="rgb(247,168,168)" fill-opacity="1" d=" M-1.2369999885559082,-0.47999998927116394 C-1.5010000467300415,-0.47999998927116394 -1.7170000076293945,-0.2639999985694885 -1.7170000076293945,0 C-1.7170000076293945,0.26600000262260437 -1.5010000467300415,0.48100000619888306 -1.2369999885559082,0.47999998927116394 C-1.2369999885559082,0.47999998927116394 1.2369999885559082,0.47999998927116394 1.2369999885559082,0.47999998927116394 C1.5010000467300415,0.47999998927116394 1.7170000076293945,0.2639999985694885 1.7170000076293945,0 C1.7170000076293945,-0.2639999985694885 1.5010000467300415,-0.47999998927116394 1.2369999885559082,-0.47999998927116394 C1.2369999885559082,-0.47999998927116394 -1.2369999885559082,-0.47999998927116394 -1.2369999885559082,-0.47999998927116394z"/></g></g><g transform="matrix(2.5,0,0,2.5,367.9649963378906,260.9519958496094)" opacity="1" style="display: block;"><g opacity="1" transform="matrix(4,0,0,4,0,0)"><path fill="rgb(247,168,168)" fill-opacity="1" d=" M-0.5339999794960022,-1.215000033378601 C-0.7210000157356262,-1.4019999504089355 -1.027999997138977,-1.4019999504089355 -1.215000033378601,-1.215000033378601 C-1.4019999504089355,-1.027999997138977 -1.4019999504089355,-0.722000002861023 -1.215000033378601,-0.5339999794960022 C-1.215000033378601,-0.5339999794960022 0.5339999794960022,1.215000033378601 0.5339999794960022,1.215000033378601 C0.7210000157356262,1.4019999504089355 1.027999997138977,1.4019999504089355 1.215000033378601,1.215000033378601 C1.4019999504089355,1.027999997138977 1.4019999504089355,0.7210000157356262 1.215000033378601,0.5339999794960022 C1.215000033378601,0.5339999794960022 -0.5339999794960022,-1.215000033378601 -0.5339999794960022,-1.215000033378601z"/></g></g><g transform="matrix(2.5,0,0,2.5,367.9674987792969,101.56950378417969)" opacity="1" style="display: block;"><g opacity="1" transform="matrix(4,0,0,4,0,0)"><path fill="rgb(247,168,168)" fill-opacity="1" d=" M-1.215000033378601,0.5339999794960022 C-1.4019999504089355,0.7210000157356262 -1.4019999504089355,1.027999997138977 -1.215000033378601,1.215000033378601 C-1.027999997138977,1.4019999504089355 -0.7210000157356262,1.4019999504089355 -0.5339999794960022,1.215000033378601 C-0.5339999794960022,1.215000033378601 1.215000033378601,-0.5339999794960022 1.215000033378601,-0.5339999794960022 C1.4019999504089355,-0.7210000157356262 1.4019999504089355,-1.027999997138977 1.215000033378601,-1.215000033378601 C1.027999997138977,-1.4019999504089355 0.7210000157356262,-1.4019999504089355 0.5339999794960022,-1.215000033378601 C0.5339999794960022,-1.215000033378601 -1.215000033378601,0.5339999794960022 -1.215000033378601,0.5339999794960022z"/></g></g><g transform="matrix(2.5,0,0,2.5,394.9075012207031,224.70449829101562)" opacity="1" style="display: block;"><g opacity="1" transform="matrix(4,0,0,4,0,0)"><path fill="rgb(254,74,73)" fill-opacity="1" d=" M-0.8679999709129333,-1.003000020980835 C-1.1009999513626099,-1.1269999742507935 -1.3940000534057617,-1.0360000133514404 -1.5180000066757202,-0.8029999732971191 C-1.6419999599456787,-0.5699999928474426 -1.5509999990463257,-0.2770000100135803 -1.3179999589920044,-0.15299999713897705 C-1.3179999589920044,-0.15299999713897705 0.8679999709129333,1.003000020980835 0.8679999709129333,1.003000020980835 C1.1009999513626099,1.1269999742507935 1.3940000534057617,1.0360000133514404 1.5180000066757202,0.8029999732971191 C1.6419999599456787,0.5699999928474426 1.5509999990463257,0.2770000100135803 1.3179999589920044,0.15299999713897705 C1.3179999589920044,0.15299999713897705 -0.8679999709129333,-1.003000020980835 -0.8679999709129333,-1.003000020980835z"/></g></g><g transform="matrix(2.5,0,0,2.5,394.9075012207031,139.10450744628906)" opacity="1" style="display: block;"><g opacity="1" transform="matrix(4,0,0,4,0,0)"><path fill="rgb(254,74,73)" fill-opacity="1" d=" M-0.8679999709129333,1.003000020980835 C-1.1009999513626099,1.1269999742507935 -1.3940000534057617,1.0360000133514404 -1.5180000066757202,0.8029999732971191 C-1.6419999599456787,0.5699999928474426 -1.5509999990463257,0.2770000100135803 -1.3179999589920044,0.15299999713897705 C-1.3179999589920044,0.15299999713897705 0.8679999709129333,-1.003000020980835 0.8679999709129333,-1.003000020980835 C1.1009999513626099,-1.1269999742507935 1.3940000534057617,-1.0360000133514404 1.5180000066757202,-0.8029999732971191 C1.6419999599456787,-0.5699999928474426 1.5509999990463257,-0.2770000100135803 1.3179999589920044,-0.15299999713897705 C1.3179999589920044,-0.15299999713897705 -0.8679999709129333,1.003000020980835 -0.8679999709129333,1.003000020980835z"/></g></g></g></svg>