<svg width="347" height="221" viewBox="0 0 347 221" fill="none" xmlns="http://www.w3.org/2000/svg">
<path d="M160.291 134.772L149.991 156.192C148.971 158.312 146.041 158.532 144.721 156.592L131.321 136.962C130.001 135.022 131.271 132.372 133.611 132.192L157.311 130.402C159.651 130.232 161.311 132.652 160.291 134.772Z" fill="#D5E0E4"/>
<path d="M147.231 158.382C146.051 158.382 145.001 157.822 144.331 156.852L130.931 137.222C130.211 136.172 130.121 134.862 130.671 133.722C131.221 132.582 132.301 131.842 133.571 131.742L157.271 129.952C158.591 129.852 159.811 130.482 160.511 131.582C161.161 132.612 161.231 133.872 160.701 134.972L150.401 156.392C149.811 157.622 148.601 158.382 147.231 158.382ZM157.551 130.852C157.481 130.852 157.411 130.852 157.341 130.862L133.641 132.652C132.701 132.722 131.901 133.272 131.501 134.112C131.091 134.962 131.171 135.922 131.701 136.702L145.101 156.332C145.591 157.052 146.371 157.462 147.241 157.462C148.251 157.462 149.151 156.902 149.581 155.992L159.881 134.572C160.271 133.762 160.221 132.832 159.741 132.072C159.261 131.312 158.441 130.852 157.551 130.852Z" fill="#D5E0E4"/>
<path d="M161.381 134.342C161.311 134.622 161.221 134.902 161.091 135.162L150.791 156.582C150.171 157.872 148.951 158.702 147.531 158.812C146.111 158.922 144.781 158.282 143.971 157.102L130.571 137.472C129.941 136.542 129.731 135.432 129.981 134.352C130.381 132.662 131.801 131.442 133.531 131.312L157.231 129.522C158.501 129.422 159.701 129.922 160.521 130.892C161.351 131.842 161.671 133.132 161.381 134.342ZM131.731 134.752C131.591 135.342 131.711 135.942 132.051 136.452L145.451 156.082C145.891 156.722 146.621 157.072 147.391 157.022C148.171 156.962 148.831 156.512 149.171 155.802L159.471 134.382C159.841 133.602 159.721 132.692 159.161 132.042C158.711 131.512 158.061 131.242 157.361 131.302L133.661 133.092C132.581 133.172 131.911 133.982 131.731 134.752Z" fill="#D5E0E4"/>
<path d="M147.221 159.272C145.751 159.272 144.431 158.572 143.591 157.352L130.191 137.722C129.481 136.692 129.251 135.452 129.541 134.242C129.981 132.362 131.581 130.992 133.501 130.852L157.201 129.062C158.611 128.952 159.971 129.522 160.881 130.582C161.791 131.652 162.151 133.092 161.831 134.442C161.761 134.752 161.651 135.062 161.511 135.352L151.211 156.772C150.521 158.212 149.161 159.132 147.571 159.252C147.451 159.272 147.341 159.272 147.221 159.272ZM157.551 129.962C157.461 129.962 157.371 129.962 157.281 129.972L133.581 131.762C132.061 131.872 130.791 132.962 130.441 134.452C130.211 135.412 130.401 136.392 130.961 137.212L144.361 156.842C145.071 157.882 146.241 158.442 147.501 158.352C148.761 158.262 149.841 157.522 150.381 156.382L160.681 134.962C160.791 134.732 160.881 134.482 160.941 134.232C161.191 133.162 160.911 132.022 160.191 131.172C159.511 130.392 158.581 129.962 157.551 129.962ZM147.231 157.492C146.361 157.492 145.571 157.072 145.081 156.352L131.681 136.722C131.261 136.112 131.121 135.372 131.291 134.662C131.511 133.732 132.321 132.742 133.641 132.642L157.341 130.852C158.181 130.782 158.981 131.122 159.521 131.752C160.201 132.542 160.341 133.652 159.891 134.592L149.591 156.012C149.181 156.862 148.371 157.412 147.431 157.482C147.361 157.482 147.301 157.492 147.231 157.492ZM157.541 131.752C157.501 131.752 157.451 131.752 157.411 131.752L133.711 133.542C132.851 133.602 132.321 134.252 132.181 134.862C132.071 135.322 132.161 135.802 132.431 136.202L145.831 155.832C146.181 156.342 146.741 156.612 147.361 156.572C147.971 156.522 148.501 156.172 148.761 155.612L159.061 134.192C159.351 133.582 159.261 132.862 158.821 132.342C158.501 131.962 158.041 131.752 157.541 131.752Z" fill="#D5E0E4"/>
<path d="M94.2812 120.473L103.121 142.533C103.991 144.713 102.181 147.023 99.8512 146.693L76.3212 143.323C73.9912 142.993 72.9012 140.263 74.3512 138.413L89.0412 119.723C90.5012 117.873 93.4112 118.293 94.2812 120.473Z" fill="#D5E0E4"/>
<path d="M100.301 147.183C100.131 147.183 99.9609 147.173 99.7909 147.143L76.2609 143.773C75.0009 143.593 73.9709 142.783 73.5009 141.603C73.0309 140.423 73.2109 139.123 74.0009 138.123L88.6909 119.433C89.3609 118.583 90.3609 118.093 91.4409 118.093C92.8909 118.093 94.1709 118.963 94.7109 120.303L103.551 142.363C103.991 143.463 103.861 144.653 103.201 145.633C102.541 146.603 101.461 147.183 100.301 147.183ZM91.4409 119.013C90.6409 119.013 89.9009 119.373 89.4109 120.003L74.7209 138.693C74.1409 139.433 74.0009 140.393 74.3509 141.263C74.7009 142.133 75.4609 142.733 76.3909 142.863L99.9209 146.233C100.931 146.373 101.881 145.943 102.441 145.113C102.931 144.393 103.021 143.513 102.701 142.693L93.8609 120.633C93.4609 119.653 92.5109 119.013 91.4409 119.013Z" fill="#D5E0E4"/>
<path d="M94.7008 119.373C94.8608 119.613 95.0008 119.873 95.1108 120.143L103.951 142.203C104.481 143.523 104.271 144.993 103.391 146.113C102.511 147.233 101.141 147.783 99.7308 147.583L76.2008 144.213C75.0908 144.053 74.1308 143.463 73.5008 142.533C72.5208 141.103 72.5908 139.223 73.6508 137.863L88.3408 119.173C89.1308 118.173 90.3008 117.623 91.5708 117.663C92.8308 117.713 94.0008 118.343 94.7008 119.373ZM74.9808 141.523C75.3208 142.023 75.8408 142.343 76.4508 142.433L99.9808 145.803C100.751 145.913 101.501 145.613 101.981 145.003C102.461 144.393 102.581 143.593 102.291 142.863L93.4508 120.803C93.1308 120.003 92.3708 119.473 91.5108 119.453C90.8208 119.433 90.1808 119.733 89.7508 120.273L75.0608 138.963C74.3908 139.823 74.5408 140.873 74.9808 141.523Z" fill="#D5E0E4"/>
<path d="M100.311 148.083C100.101 148.083 99.8808 148.063 99.6708 148.033L76.1408 144.663C74.9008 144.483 73.8308 143.823 73.1308 142.793C72.0408 141.193 72.1108 139.103 73.3008 137.583L87.9908 118.893C88.8308 117.823 90.0908 117.213 91.4408 117.213H91.6008C93.0008 117.263 94.3108 117.973 95.0908 119.123C95.2708 119.393 95.4208 119.673 95.5408 119.983L104.381 142.043C104.971 143.523 104.741 145.153 103.751 146.403C102.911 147.463 101.651 148.083 100.311 148.083ZM91.4408 118.123C90.3708 118.123 89.3708 118.613 88.7108 119.453L74.0208 138.143C73.0808 139.343 73.0208 141.003 73.8808 142.273C74.4308 143.083 75.2808 143.613 76.2608 143.753L99.7908 147.123C101.051 147.303 102.261 146.813 103.031 145.823C103.811 144.833 103.991 143.543 103.531 142.373L94.6908 120.313C94.5908 120.073 94.4708 119.843 94.3308 119.633C93.7108 118.723 92.6808 118.163 91.5708 118.123H91.4408ZM100.301 146.293C100.171 146.293 100.051 146.283 99.9208 146.263L76.3908 142.893C75.6508 142.783 75.0208 142.393 74.6008 141.783C74.0608 140.993 73.8808 139.723 74.7008 138.683L89.3908 119.993C89.8908 119.353 90.6408 118.993 91.4408 118.993H91.5308C92.5708 119.033 93.4908 119.673 93.8808 120.633L102.721 142.693C103.071 143.573 102.931 144.543 102.351 145.283C101.851 145.923 101.101 146.293 100.301 146.293ZM91.4408 119.453V119.913C90.9208 119.913 90.4408 120.153 90.1108 120.563L75.4208 139.253C74.8908 139.933 75.0108 140.753 75.3608 141.273C75.6308 141.663 76.0408 141.923 76.5208 141.993L100.051 145.363C100.661 145.453 101.251 145.213 101.631 144.733C102.011 144.253 102.101 143.623 101.871 143.053L93.0308 120.993C92.7808 120.363 92.1808 119.953 91.5008 119.923L91.4408 119.453Z" fill="#D5E0E4"/>
<path d="M184.511 186.903L199.321 205.493C200.781 207.333 199.711 210.063 197.391 210.413L173.891 213.943C171.571 214.293 169.741 211.993 170.591 209.803L179.281 187.683C180.141 185.503 183.041 185.063 184.511 186.903Z" fill="#D5E0E4"/>
<path d="M199.191 210.093C198.701 210.503 198.101 210.773 197.461 210.863L173.961 214.403C172.701 214.593 171.481 214.113 170.691 213.123C169.901 212.133 169.701 210.833 170.171 209.653L178.861 187.533C179.431 186.073 180.961 185.173 182.491 185.323C183.431 185.413 184.281 185.883 184.871 186.633L199.681 205.223C200.881 206.703 200.661 208.853 199.191 210.093ZM180.451 186.813C180.121 187.093 179.871 187.443 179.711 187.853L171.021 209.973C170.681 210.843 170.821 211.803 171.411 212.543C171.991 213.273 172.901 213.633 173.831 213.493L197.331 209.953C197.811 209.883 198.251 209.693 198.611 209.383C199.571 208.583 199.961 207.013 198.971 205.773L184.161 187.183C183.721 186.633 183.101 186.283 182.401 186.213C181.691 186.153 180.981 186.363 180.451 186.813Z" fill="#D5E0E4"/>
<path d="M184.6 185.723C184.82 185.903 185.03 186.113 185.21 186.343L200.02 204.933C200.91 206.053 201.13 207.513 200.61 208.833C200.09 210.163 198.93 211.083 197.52 211.293L174.02 214.833C172.91 215.003 171.82 214.703 170.96 214.003C169.61 212.913 169.13 211.093 169.76 209.483L178.45 187.363C178.92 186.183 179.89 185.313 181.11 184.993C182.33 184.663 183.63 184.943 184.6 185.723ZM172.08 212.613C172.55 212.993 173.14 213.153 173.75 213.063L197.25 209.533C198.02 209.413 198.65 208.913 198.94 208.183C199.23 207.453 199.11 206.663 198.62 206.053L183.81 187.463C183.27 186.793 182.39 186.503 181.57 186.723C180.9 186.903 180.37 187.373 180.12 188.023L171.43 210.143C171.02 211.153 171.47 212.113 172.08 212.613Z" fill="#D5E0E4"/>
<path d="M199.771 210.773C199.151 211.293 198.401 211.623 197.591 211.743L174.091 215.283C172.851 215.473 171.631 215.143 170.671 214.353C169.171 213.133 168.631 211.113 169.341 209.313L178.031 187.193C178.541 185.883 179.651 184.903 181.001 184.543C182.361 184.183 183.811 184.493 184.891 185.363C185.141 185.563 185.371 185.793 185.571 186.053L200.381 204.643C201.371 205.893 201.621 207.513 201.041 209.003C200.761 209.693 200.331 210.303 199.771 210.773ZM179.881 186.123C179.441 186.493 179.091 186.973 178.881 187.523L170.191 209.643C169.631 211.063 170.061 212.673 171.251 213.633C172.011 214.253 172.981 214.513 173.961 214.363L197.461 210.823C198.691 210.643 199.741 209.803 200.191 208.653C200.651 207.483 200.461 206.193 199.671 205.203L184.861 186.613C184.701 186.413 184.521 186.223 184.321 186.063C183.471 185.373 182.311 185.133 181.241 185.413C180.721 185.563 180.271 185.803 179.881 186.123ZM198.621 209.403C198.251 209.713 197.811 209.913 197.331 209.983L173.831 213.523C173.091 213.633 172.371 213.443 171.801 212.973C171.061 212.373 170.521 211.203 171.001 209.973L179.691 187.853C179.991 187.083 180.651 186.493 181.451 186.283C182.461 186.013 183.521 186.373 184.171 187.183L198.981 205.773C199.571 206.513 199.711 207.483 199.371 208.363C199.211 208.763 198.951 209.123 198.621 209.403ZM181.031 187.503C180.821 187.683 180.651 187.923 180.541 188.183L171.851 210.303C171.541 211.103 171.881 211.863 172.371 212.253C172.741 212.553 173.211 212.673 173.691 212.603L197.191 209.063C197.791 208.973 198.301 208.563 198.521 208.003C198.751 207.433 198.651 206.803 198.271 206.323L183.461 187.733C183.041 187.203 182.351 186.973 181.691 187.153C181.441 187.223 181.221 187.343 181.031 187.503Z" fill="#D5E0E4"/>
<g opacity="0.5">
<path d="M270.381 56.532L250.151 69.0021C248.151 70.2321 245.561 68.8421 245.501 66.4921L244.811 42.7321C244.741 40.3821 247.241 38.842 249.311 39.962L270.231 51.2421C272.301 52.3621 272.381 55.302 270.381 56.532Z" fill="#4F9A8F"/>
<path d="M245.601 68.3223C245.251 67.7923 245.061 67.1623 245.041 66.5123L244.351 42.7523C244.311 41.4823 244.941 40.3323 246.021 39.6623C247.101 38.9923 248.411 38.9623 249.531 39.5623L270.451 50.8423C271.831 51.5823 272.551 53.2023 272.211 54.7123C272.001 55.6323 271.441 56.4223 270.631 56.9223L250.401 69.3922C248.751 70.4022 246.651 69.9323 245.601 68.3223ZM270.951 52.5123C270.711 52.1523 270.401 51.8622 270.011 51.6522L249.091 40.3723C248.261 39.9223 247.291 39.9523 246.501 40.4423C245.701 40.9323 245.241 41.7923 245.271 42.7223L245.961 66.4823C245.971 66.9723 246.111 67.4223 246.371 67.8223C247.051 68.8723 248.561 69.4523 249.911 68.6223L270.141 56.1522C270.741 55.7822 271.161 55.2022 271.311 54.5222C271.461 53.8222 271.331 53.0923 270.951 52.5123Z" fill="#4F9A8F"/>
<path d="M271.542 56.7629C271.332 56.9629 271.102 57.1428 270.852 57.2928L250.622 69.7629C249.412 70.5129 247.932 70.5529 246.672 69.8729C245.412 69.1929 244.642 67.9429 244.602 66.5129L243.912 42.7529C243.882 41.6329 244.302 40.5828 245.102 39.8128C246.352 38.6028 248.212 38.3428 249.732 39.1628L270.652 50.4428C271.772 51.0428 272.512 52.1129 272.692 53.3729C272.862 54.6329 272.432 55.9029 271.542 56.7629ZM246.352 41.1129C245.912 41.5329 245.692 42.1028 245.702 42.7228L246.392 66.4828C246.412 67.2628 246.842 67.9528 247.522 68.3228C248.212 68.6928 249.012 68.6729 249.682 68.2629L269.912 55.7928C270.642 55.3428 271.032 54.5028 270.912 53.6528C270.822 52.9728 270.412 52.3828 269.802 52.0528L248.882 40.7728C247.922 40.2328 246.922 40.5529 246.352 41.1129Z" fill="#4F9A8F"/>
<path d="M244.852 68.8126C244.412 68.1426 244.172 67.3526 244.142 66.5326L243.452 42.7726C243.412 41.5226 243.892 40.3526 244.782 39.4826C246.172 38.1326 248.252 37.8427 249.942 38.7627L270.862 50.0426C272.092 50.7126 272.942 51.9326 273.132 53.3126C273.322 54.7026 272.842 56.1126 271.842 57.0826C271.612 57.3026 271.352 57.5026 271.082 57.6726L250.852 70.1426C249.492 70.9826 247.852 71.0226 246.452 70.2726C245.802 69.9326 245.252 69.4226 244.852 68.8126ZM271.712 52.0226C271.402 51.5426 270.962 51.1427 270.442 50.8627L249.522 39.5826C248.172 38.8526 246.532 39.0826 245.432 40.1526C244.722 40.8326 244.352 41.7627 244.382 42.7527L245.072 66.5127C245.112 67.7527 245.812 68.8926 246.902 69.4826C248.012 70.0826 249.312 70.0427 250.392 69.3827L270.622 56.9126C270.842 56.7726 271.052 56.6126 271.232 56.4426C272.022 55.6826 272.402 54.5626 272.252 53.4626C272.162 52.9326 271.982 52.4526 271.712 52.0226ZM246.352 67.8426C246.092 67.4426 245.942 66.9727 245.932 66.4927L245.242 42.7326C245.222 41.9926 245.502 41.2926 246.032 40.7826C246.722 40.1126 247.942 39.7226 249.102 40.3526L270.022 51.6327C270.752 52.0227 271.262 52.7526 271.372 53.5726C271.512 54.6026 271.032 55.6226 270.152 56.1626L249.922 68.6327C249.112 69.1327 248.142 69.1526 247.302 68.7126C246.922 68.5026 246.592 68.2026 246.352 67.8426ZM270.212 53.0027C270.062 52.7727 269.842 52.5726 269.592 52.4326L248.672 41.1526C247.912 40.7426 247.122 41.0026 246.672 41.4326C246.332 41.7626 246.152 42.2126 246.162 42.6926L246.852 66.4526C246.872 67.0526 247.212 67.6126 247.742 67.9026C248.282 68.1926 248.922 68.1726 249.442 67.8526L269.672 55.3827C270.242 55.0327 270.552 54.3626 270.462 53.6926C270.432 53.4426 270.342 53.2127 270.212 53.0027Z" fill="#4F9A8F"/>
</g>
<g opacity="0.5">
<path d="M132.021 192.052L131.431 215.812C131.371 218.163 128.791 219.563 126.791 218.343L106.511 205.953C104.501 204.723 104.581 201.792 106.641 200.662L127.511 189.292C129.571 188.172 132.081 189.702 132.021 192.052Z" fill="#4F9A8F"/>
<path d="M128.371 219.253C127.731 219.253 127.101 219.073 126.551 218.733L106.271 206.343C105.191 205.683 104.561 204.533 104.591 203.263C104.621 201.993 105.311 200.873 106.421 200.263L127.291 188.892C128.661 188.142 130.411 188.422 131.491 189.532C132.151 190.212 132.501 191.112 132.481 192.062L131.891 215.822C131.841 217.742 130.301 219.253 128.371 219.253ZM128.971 189.373C128.541 189.373 128.121 189.482 127.731 189.692L106.861 201.062C106.041 201.512 105.531 202.342 105.511 203.272C105.491 204.212 105.951 205.062 106.751 205.552L127.031 217.942C127.451 218.202 127.901 218.333 128.381 218.333C129.631 218.333 130.941 217.382 130.981 215.792L131.571 192.032C131.591 191.322 131.331 190.662 130.841 190.162C130.341 189.662 129.661 189.373 128.971 189.373Z" fill="#4F9A8F"/>
<path d="M132.841 191.202C132.891 191.482 132.921 191.772 132.911 192.072L132.321 215.833C132.281 217.263 131.521 218.522 130.261 219.202C129.011 219.882 127.531 219.853 126.311 219.103L106.031 206.713C105.071 206.123 104.431 205.203 104.211 204.113C103.881 202.413 104.681 200.713 106.201 199.883L127.071 188.513C128.191 187.903 129.491 187.862 130.631 188.402C131.781 188.932 132.611 189.982 132.841 191.202ZM105.981 203.763C106.101 204.353 106.451 204.862 106.971 205.182L127.251 217.572C127.921 217.982 128.721 218.003 129.411 217.623C130.101 217.253 130.521 216.562 130.541 215.782L131.131 192.022C131.151 191.162 130.661 190.373 129.891 190.013C129.261 189.723 128.561 189.742 127.941 190.072L107.071 201.442C106.101 201.972 105.831 202.993 105.981 203.763Z" fill="#4F9A8F"/>
<path d="M128.381 220.143C127.581 220.143 126.781 219.913 126.091 219.493L105.811 207.103C104.741 206.453 104.021 205.413 103.781 204.193C103.411 202.293 104.301 200.393 106.001 199.473L126.871 188.103C128.101 187.433 129.581 187.383 130.851 187.983C132.121 188.583 133.041 189.753 133.301 191.113C133.361 191.423 133.391 191.753 133.381 192.083L132.791 215.843C132.751 217.433 131.891 218.843 130.491 219.603C129.831 219.953 129.101 220.143 128.381 220.143ZM128.971 188.483C128.401 188.483 127.821 188.633 127.301 188.913L106.431 200.283C105.091 201.013 104.381 202.513 104.681 204.023C104.871 204.993 105.441 205.803 106.291 206.323L126.571 218.713C127.631 219.363 128.971 219.393 130.061 218.803C131.171 218.203 131.851 217.083 131.881 215.823L132.471 192.063C132.481 191.803 132.461 191.543 132.411 191.293C132.201 190.213 131.471 189.293 130.471 188.813C129.981 188.593 129.481 188.483 128.971 188.483ZM128.381 218.353C127.901 218.353 127.431 218.223 127.021 217.963L106.741 205.573C106.101 205.183 105.681 204.573 105.541 203.853C105.361 202.913 105.691 201.683 106.861 201.043L127.731 189.673C128.461 189.273 129.341 189.243 130.091 189.603C131.031 190.043 131.621 191.003 131.601 192.043L131.011 215.803C130.991 216.753 130.481 217.583 129.651 218.033C129.241 218.243 128.811 218.353 128.381 218.353ZM128.971 190.273C128.691 190.273 128.411 190.343 128.161 190.483L107.291 201.853C106.531 202.263 106.321 203.073 106.431 203.683C106.521 204.153 106.801 204.543 107.211 204.803L127.491 217.193C128.011 217.513 128.661 217.523 129.191 217.233C129.731 216.943 130.061 216.393 130.081 215.783L130.671 192.023C130.691 191.353 130.301 190.723 129.691 190.443C129.461 190.323 129.221 190.273 128.971 190.273Z" fill="#4F9A8F"/>
</g>
<g opacity="0.75">
<path d="M271.812 190.373L271.222 214.133C271.162 216.483 268.582 217.883 266.582 216.663L246.302 204.273C244.292 203.043 244.372 200.113 246.432 198.983L267.302 187.613C269.362 186.493 271.862 188.023 271.812 190.373Z" fill="#FFCB85"/>
<path d="M268.162 217.573C267.522 217.573 266.892 217.393 266.342 217.053L246.062 204.663C244.982 204.003 244.352 202.853 244.382 201.583C244.412 200.313 245.102 199.193 246.212 198.583L267.082 187.213C268.452 186.463 270.202 186.743 271.282 187.853C271.942 188.533 272.292 189.433 272.272 190.383L271.682 214.143C271.632 216.063 270.082 217.573 268.162 217.573ZM268.752 187.693C268.322 187.693 267.902 187.803 267.512 188.013L246.642 199.383C245.822 199.833 245.312 200.663 245.292 201.593C245.272 202.533 245.732 203.383 246.532 203.873L266.812 216.263C267.232 216.523 267.682 216.653 268.162 216.653C269.412 216.653 270.722 215.703 270.762 214.113L271.352 190.353C271.372 189.643 271.112 188.983 270.622 188.483C270.132 187.983 269.452 187.693 268.752 187.693Z" fill="#FFCB85"/>
<path d="M272.631 189.523C272.681 189.803 272.711 190.093 272.701 190.393L272.111 214.153C272.071 215.583 271.311 216.843 270.051 217.523C268.801 218.203 267.321 218.173 266.101 217.423L245.821 205.033C244.861 204.443 244.221 203.523 244.001 202.433C243.671 200.733 244.471 199.033 245.991 198.203L266.861 186.833C267.981 186.223 269.281 186.183 270.421 186.723C271.571 187.263 272.391 188.303 272.631 189.523ZM245.761 202.093C245.881 202.683 246.231 203.193 246.751 203.513L267.031 215.903C267.701 216.313 268.501 216.333 269.191 215.953C269.881 215.583 270.301 214.893 270.321 214.113L270.911 190.353C270.931 189.493 270.441 188.703 269.671 188.343C269.041 188.053 268.341 188.073 267.721 188.403L246.851 199.773C245.891 200.293 245.611 201.313 245.761 202.093Z" fill="#FFCB85"/>
<path d="M268.161 218.473C267.361 218.473 266.561 218.243 265.871 217.823L245.591 205.433C244.521 204.783 243.801 203.743 243.561 202.523C243.191 200.623 244.081 198.723 245.781 197.803L266.651 186.433C267.881 185.763 269.361 185.713 270.631 186.313C271.901 186.913 272.821 188.083 273.081 189.443C273.141 189.753 273.171 190.083 273.161 190.413L272.571 214.173C272.531 215.763 271.671 217.173 270.271 217.933C269.621 218.283 268.891 218.473 268.161 218.473ZM268.751 186.803C268.181 186.803 267.601 186.953 267.081 187.233L246.211 198.603C244.871 199.333 244.161 200.833 244.451 202.343C244.641 203.313 245.211 204.123 246.061 204.643L266.341 217.033C267.401 217.683 268.741 217.713 269.831 217.123C270.941 216.523 271.621 215.403 271.651 214.143L272.241 190.383C272.251 190.123 272.231 189.863 272.181 189.613C271.971 188.533 271.241 187.613 270.241 187.133C269.761 186.913 269.261 186.803 268.751 186.803ZM268.161 216.673C267.681 216.673 267.211 216.543 266.801 216.283L246.521 203.893C245.881 203.503 245.461 202.893 245.321 202.173C245.141 201.233 245.471 200.003 246.641 199.363L267.511 187.993C268.241 187.593 269.121 187.563 269.871 187.923C270.811 188.363 271.401 189.323 271.381 190.363L270.791 214.123C270.771 215.073 270.261 215.903 269.431 216.353C269.031 216.563 268.601 216.673 268.161 216.673ZM268.751 188.593C268.471 188.593 268.191 188.663 267.941 188.803L247.071 200.173C246.311 200.583 246.101 201.393 246.211 202.003C246.301 202.473 246.581 202.863 246.991 203.113L267.271 215.503C267.791 215.823 268.441 215.833 268.971 215.543C269.511 215.253 269.841 214.703 269.861 214.093L270.451 190.333C270.471 189.663 270.081 189.033 269.471 188.753C269.241 188.643 269.001 188.593 268.751 188.593Z" fill="#FFCB85"/>
</g>
<path d="M123.281 72.6924L145.581 80.9124C147.791 81.7224 148.281 84.6225 146.481 86.1225L128.211 101.332C126.401 102.832 123.651 101.822 123.251 99.5025L119.211 76.0824C118.821 73.7624 121.071 71.8824 123.281 72.6924Z" fill="#D5E0E4"/>
<path d="M126.271 102.493C124.551 102.493 123.091 101.263 122.801 99.5726L118.761 76.1525C118.581 75.1325 118.861 74.0925 119.531 73.3025C120.481 72.1825 122.051 71.7526 123.441 72.2626L145.741 80.4826C146.931 80.9226 147.771 81.9326 147.991 83.1826C148.211 84.4326 147.751 85.6626 146.781 86.4726L128.511 101.683C127.861 102.213 127.091 102.493 126.271 102.493ZM122.211 72.9626C121.451 72.9626 120.731 73.3025 120.231 73.8925C119.731 74.4825 119.531 75.2326 119.661 76.0026L123.701 99.4225C123.941 100.843 125.181 101.583 126.271 101.583C126.871 101.583 127.441 101.373 127.921 100.983L146.191 85.7725C146.911 85.1725 147.251 84.2626 147.091 83.3426C146.931 82.4226 146.311 81.6726 145.431 81.3526L123.131 73.1326C122.821 73.0126 122.521 72.9626 122.211 72.9626Z" fill="#D5E0E4"/>
<path d="M122.742 71.6433C123.022 71.6833 123.312 71.7534 123.582 71.8534L145.882 80.0734C147.222 80.5634 148.162 81.7034 148.412 83.1034C148.652 84.5134 148.142 85.8934 147.052 86.8034L128.782 102.013C127.922 102.733 126.832 103.043 125.732 102.893C124.012 102.653 122.662 101.353 122.372 99.6533L118.332 76.2334C118.112 74.9834 118.502 73.7334 119.382 72.8234C120.252 71.9134 121.512 71.4733 122.742 71.6433ZM125.982 101.123C126.582 101.203 127.172 101.033 127.642 100.643L145.912 85.4334C146.512 84.9334 146.792 84.1733 146.662 83.4033C146.532 82.6334 146.012 82.0134 145.282 81.7434L122.982 73.5233C122.172 73.2233 121.272 73.4434 120.682 74.0534C120.202 74.5534 119.992 75.2334 120.112 75.9134L124.152 99.3334C124.322 100.423 125.192 101.013 125.982 101.123Z" fill="#D5E0E4"/>
<path d="M126.281 103.393C126.081 103.393 125.881 103.383 125.671 103.353C123.751 103.093 122.241 101.633 121.921 99.7329L117.881 76.3128C117.641 74.9128 118.061 73.5229 119.051 72.5129C120.021 71.5129 121.431 71.0128 122.811 71.2028C123.131 71.2428 123.441 71.3228 123.751 71.4428L146.051 79.6628C147.541 80.2128 148.601 81.4828 148.871 83.0528C149.141 84.6228 148.571 86.1728 147.351 87.1828L129.081 102.393C128.271 103.033 127.301 103.393 126.281 103.393ZM122.221 72.0628C121.281 72.0628 120.361 72.4529 119.711 73.1329C118.931 73.9429 118.591 75.0328 118.791 76.1428L122.831 99.5628C123.091 101.073 124.291 102.223 125.811 102.433C126.791 102.563 127.741 102.293 128.511 101.653L146.781 86.4428C147.751 85.6328 148.201 84.4128 147.991 83.1728C147.781 81.9328 146.941 80.9229 145.761 80.4929L123.461 72.2728C123.221 72.1828 122.961 72.1228 122.711 72.0828C122.531 72.0728 122.381 72.0628 122.221 72.0628ZM126.271 101.603C126.151 101.603 126.031 101.593 125.911 101.583C124.961 101.453 123.901 100.733 123.681 99.4328L119.641 76.0129C119.501 75.1829 119.751 74.3629 120.331 73.7529C121.041 73.0229 122.171 72.7629 123.121 73.1129L145.421 81.3328C146.311 81.6628 146.931 82.4128 147.091 83.3428C147.251 84.2728 146.911 85.1928 146.191 85.7928L127.921 101.003C127.451 101.393 126.881 101.603 126.271 101.603ZM122.221 73.8529C121.761 73.8529 121.311 74.0429 120.991 74.3729C120.611 74.7629 120.451 75.3028 120.541 75.8428L124.581 99.2629C124.731 100.113 125.421 100.573 126.041 100.663C126.121 100.673 126.191 100.683 126.271 100.683C126.661 100.683 127.031 100.543 127.351 100.283L145.621 85.0728C146.091 84.6828 146.311 84.0829 146.211 83.4729C146.111 82.8629 145.701 82.3828 145.121 82.1628L122.821 73.9428C122.621 73.8928 122.421 73.8529 122.221 73.8529Z" fill="#D5E0E4"/>
<path d="M212.811 74.5725L205.851 106.172C205.161 109.292 201.351 110.503 198.991 108.343L175.111 86.5225C172.751 84.3625 173.611 80.4625 176.661 79.4925L207.501 69.7225C210.551 68.7525 213.501 71.4425 212.811 74.5725Z" fill="#E0BCDC"/>
<path d="M201.781 109.893C200.641 109.893 199.541 109.463 198.681 108.683L174.801 86.8628C173.571 85.7328 173.051 84.0927 173.411 82.4627C173.771 80.8327 174.931 79.5627 176.521 79.0527L207.361 69.2827C209.181 68.7027 211.171 69.3227 212.361 70.8027C213.231 71.8927 213.561 73.3027 213.261 74.6727L206.301 106.273C205.831 108.403 203.971 109.893 201.781 109.893ZM208.771 69.9728C208.391 69.9728 208.011 70.0327 207.641 70.1527L176.801 79.9227C175.531 80.3227 174.591 81.3427 174.311 82.6527C174.021 83.9627 174.441 85.2727 175.431 86.1727L199.311 107.993C200.001 108.633 200.861 108.963 201.791 108.963C203.551 108.963 205.041 107.763 205.421 106.053L212.381 74.4527C212.631 73.3327 212.371 72.2328 211.661 71.3528C210.931 70.4828 209.881 69.9728 208.771 69.9728Z" fill="#E0BCDC"/>
<path d="M214.131 73.6524C214.131 74.0424 214.091 74.4425 214.001 74.8325L207.041 106.432C206.621 108.332 205.271 109.812 203.421 110.402C201.571 110.992 199.611 110.553 198.171 109.243L174.291 87.4125C173.161 86.3825 172.541 84.9825 172.541 83.4625C172.541 81.1025 174.051 79.0325 176.291 78.3225L207.131 68.5525C208.781 68.0325 210.531 68.3125 211.921 69.3325C213.301 70.3425 214.131 71.9624 214.131 73.6524ZM174.971 83.4625C174.971 84.2825 175.311 85.0525 175.931 85.6125L199.811 107.432C200.591 108.152 201.671 108.382 202.681 108.062C203.691 107.742 204.431 106.932 204.661 105.892L211.621 74.2925C211.871 73.1425 211.421 71.9724 210.481 71.2824C209.721 70.7224 208.771 70.5725 207.861 70.8625L177.021 80.6325C175.601 81.0925 174.971 82.3825 174.971 83.4625Z" fill="#E0BCDC"/>
<path d="M201.771 111.113C200.331 111.113 198.941 110.573 197.861 109.583L173.981 87.7527C172.751 86.6327 172.081 85.1127 172.081 83.4627C172.081 80.9027 173.721 78.6626 176.151 77.8926L206.991 68.1227C208.771 67.5627 210.691 67.8727 212.191 68.9727C213.691 70.0727 214.591 71.8226 214.591 73.6626C214.591 74.0826 214.541 74.5126 214.451 74.9426L207.491 106.543C207.041 108.603 205.571 110.213 203.561 110.843C202.971 111.013 202.371 111.113 201.771 111.113ZM208.771 68.7527C208.261 68.7527 207.761 68.8327 207.261 68.9927L176.421 78.7627C174.371 79.4127 172.991 81.3027 172.991 83.4627C172.991 84.8527 173.561 86.1326 174.591 87.0726L198.471 108.903C199.761 110.083 201.601 110.493 203.271 109.963C204.961 109.423 206.201 108.073 206.591 106.333L213.551 74.7327C213.631 74.3727 213.671 74.0126 213.671 73.6526C213.671 72.1026 212.911 70.6326 211.651 69.7026C210.801 69.0826 209.811 68.7527 208.771 68.7527ZM201.781 108.673C200.941 108.673 200.131 108.353 199.501 107.783L175.621 85.9526C174.911 85.3026 174.511 84.4127 174.511 83.4627C174.511 82.2127 175.241 80.7327 176.881 80.2127L207.721 70.4426C208.751 70.1126 209.871 70.3026 210.741 70.9326C211.831 71.7326 212.351 73.0926 212.061 74.4126L205.101 106.013C204.841 107.213 203.981 108.153 202.811 108.523C202.481 108.613 202.131 108.673 201.781 108.673ZM208.761 71.1926C208.501 71.1926 208.251 71.2326 208.001 71.3126L177.161 81.0826C175.961 81.4626 175.431 82.5527 175.431 83.4627C175.431 84.1527 175.721 84.8026 176.241 85.2826L200.121 107.103C200.771 107.703 201.701 107.903 202.541 107.633C203.391 107.363 204.021 106.683 204.211 105.803L211.171 74.2026C211.381 73.2426 211.001 72.2426 210.211 71.6626C209.781 71.3526 209.281 71.1926 208.761 71.1926Z" fill="#E0BCDC"/>
<g opacity="0.75">
<path d="M88.9419 21.1036L108.782 46.6636C110.742 49.1936 109.232 52.8936 106.062 53.3336L74.0119 57.7336C70.8419 58.1736 68.3919 55.0136 69.6019 52.0436L81.8119 22.0836C83.0119 19.1236 86.9719 18.5736 88.9419 21.1036Z" fill="#FFD091"/>
<path d="M73.4219 58.2233C71.8919 58.2233 70.4719 57.4532 69.6119 56.1732C68.7419 54.8832 68.5819 53.3133 69.1719 51.8633L81.3819 21.9032C82.0919 20.1532 83.7719 19.0332 85.6619 19.0332C87.0919 19.0332 88.4119 19.6832 89.2919 20.8232L109.132 46.3833C110.152 47.7033 110.392 49.4132 109.762 50.9532C109.132 52.4932 107.772 53.5532 106.122 53.7832L74.0719 58.1832C73.8519 58.2132 73.6319 58.2233 73.4219 58.2233ZM85.6619 19.9532C84.1419 19.9532 82.8019 20.8533 82.2319 22.2533L70.0219 52.2133C69.5519 53.3733 69.6819 54.6332 70.3719 55.6632C71.1619 56.8332 72.5119 57.4632 73.9519 57.2732L106.002 52.8733C107.322 52.6933 108.422 51.8433 108.922 50.6033C109.422 49.3633 109.242 47.9932 108.422 46.9432L88.5819 21.3833C87.8719 20.4733 86.8119 19.9532 85.6619 19.9532Z" fill="#FFD091"/>
<path d="M89.0811 19.5031C89.3811 19.7531 89.6611 20.0431 89.9011 20.3531L109.741 45.913C110.931 47.443 111.201 49.4331 110.471 51.2331C109.741 53.0331 108.151 54.263 106.231 54.533L74.1811 58.9331C72.6711 59.1431 71.1911 58.7231 70.0211 57.7531C68.2011 56.2431 67.5811 53.7631 68.4711 51.5831L80.6811 21.6231C81.3311 20.0231 82.6711 18.8631 84.3411 18.4431C86.0111 18.0231 87.7811 18.4231 89.0811 19.5031ZM71.5711 55.8831C72.2011 56.4131 73.0111 56.633 73.8411 56.523L105.891 52.1231C106.941 51.9831 107.811 51.3031 108.211 50.3231C108.611 49.3431 108.461 48.253 107.811 47.413L87.9711 21.8531C87.2511 20.9231 86.0611 20.523 84.9311 20.803C84.0211 21.033 83.2911 21.663 82.9311 22.543L70.7211 52.5031C70.1611 53.8731 70.7411 55.1931 71.5711 55.8831Z" fill="#FFD091"/>
<path d="M73.4216 59.4429C72.0616 59.4429 70.7816 58.9829 69.7316 58.1029C67.7616 56.4629 67.0816 53.7728 68.0516 51.4128L80.2616 21.4529C80.9716 19.7129 82.4216 18.4529 84.2416 18.0029C86.0216 17.5529 87.9816 18.0028 89.3816 19.1628C89.7116 19.4328 90.0116 19.7429 90.2716 20.0829L110.112 45.6428C111.402 47.3128 111.702 49.4628 110.902 51.4228C110.102 53.3728 108.382 54.7129 106.292 55.0029L74.2416 59.4028C73.9616 59.4228 73.6916 59.4429 73.4216 59.4429ZM85.6616 18.7329C85.2516 18.7329 84.8516 18.7829 84.4616 18.8829C82.9316 19.2629 81.7116 20.3228 81.1116 21.7928L68.9016 51.7529C68.0916 53.7429 68.6616 56.0128 70.3216 57.3928C71.3816 58.2828 72.7216 58.6629 74.1216 58.4729L106.172 54.0729C107.932 53.8329 109.382 52.7028 110.052 51.0628C110.722 49.4128 110.472 47.5929 109.382 46.1929L89.5416 20.6329C89.3216 20.3429 89.0616 20.0829 88.7916 19.8529C87.9116 19.1329 86.8016 18.7329 85.6616 18.7329ZM73.4216 57.0029C72.6316 57.0029 71.8816 56.7329 71.2816 56.2229C70.3216 55.4229 69.6516 53.9129 70.3016 52.3229L82.5116 22.3629C82.9216 21.3529 83.7716 20.6129 84.8216 20.3529C86.1216 20.0229 87.5216 20.5128 88.3316 21.5628L108.172 47.1229C108.922 48.0929 109.102 49.3529 108.632 50.4829C108.172 51.6229 107.162 52.3928 105.952 52.5628L73.9016 56.9629C73.7416 56.9929 73.5816 57.0029 73.4216 57.0029ZM85.6516 21.1728C85.4516 21.1728 85.2416 21.2029 85.0416 21.2429C84.2716 21.4329 83.6616 21.9729 83.3516 22.7129L71.1416 52.6728C70.6716 53.8328 71.1616 54.9428 71.8616 55.5228C72.3016 55.8928 72.8416 56.0829 73.4216 56.0829C73.5416 56.0829 73.6616 56.0728 73.7716 56.0628L105.822 51.6628C106.712 51.5428 107.442 50.9728 107.782 50.1428C108.122 49.3128 107.992 48.3928 107.442 47.6828L87.6016 22.1229C87.1416 21.5229 86.4316 21.1728 85.6516 21.1728Z" fill="#FFD091"/>
</g>
<path d="M317.421 146.573L337.261 172.133C339.221 174.663 337.711 178.363 334.541 178.803L302.491 183.203C299.321 183.643 296.871 180.483 298.081 177.513L310.291 147.553C311.501 144.593 315.461 144.053 317.421 146.573Z" fill="#D5E0E4"/>
<path d="M301.901 183.703C300.371 183.703 298.951 182.933 298.091 181.653C297.221 180.363 297.061 178.793 297.651 177.343L309.861 147.383C310.571 145.633 312.251 144.513 314.141 144.513C315.571 144.513 316.891 145.163 317.771 146.293L337.611 171.853C338.631 173.173 338.871 174.883 338.241 176.423C337.611 177.963 336.251 179.023 334.601 179.253L302.551 183.653C302.331 183.683 302.111 183.703 301.901 183.703ZM314.151 145.423C312.631 145.423 311.291 146.323 310.721 147.723L298.511 177.683C298.041 178.843 298.171 180.103 298.861 181.133C299.651 182.303 301.001 182.933 302.441 182.743L334.491 178.343C335.811 178.163 336.911 177.313 337.411 176.073C337.911 174.833 337.731 173.463 336.911 172.413L317.071 146.853C316.351 145.953 315.291 145.423 314.151 145.423Z" fill="#D5E0E4"/>
<path d="M317.561 144.982C317.861 145.232 318.141 145.522 318.381 145.832L338.221 171.392C339.411 172.922 339.681 174.912 338.951 176.712C338.221 178.512 336.631 179.742 334.711 180.012L302.661 184.412C301.151 184.622 299.671 184.202 298.501 183.232C296.681 181.722 296.061 179.242 296.951 177.062L309.161 147.102C309.811 145.502 311.151 144.342 312.821 143.922C314.491 143.502 316.261 143.892 317.561 144.982ZM300.061 181.352C300.691 181.882 301.501 182.102 302.331 181.992L334.381 177.592C335.431 177.452 336.301 176.772 336.701 175.792C337.101 174.812 336.951 173.722 336.301 172.882L316.461 147.322C315.741 146.392 314.551 145.992 313.421 146.272C312.511 146.502 311.781 147.132 311.421 148.012L299.211 177.972C298.641 179.352 299.231 180.662 300.061 181.352Z" fill="#D5E0E4"/>
<path d="M301.901 184.922C300.541 184.922 299.261 184.462 298.211 183.582C296.241 181.942 295.561 179.252 296.531 176.892L308.741 146.932C309.451 145.192 310.901 143.932 312.721 143.482C314.501 143.032 316.461 143.482 317.861 144.642C318.191 144.912 318.491 145.222 318.751 145.562L338.591 171.122C339.881 172.792 340.181 174.942 339.381 176.902C338.581 178.852 336.861 180.192 334.771 180.482L302.721 184.882C302.441 184.902 302.171 184.922 301.901 184.922ZM314.141 144.212C313.731 144.212 313.331 144.262 312.941 144.362C311.411 144.742 310.191 145.802 309.591 147.272L297.381 177.232C296.571 179.222 297.141 181.492 298.801 182.872C299.861 183.762 301.201 184.142 302.601 183.952L334.651 179.552C336.411 179.312 337.861 178.182 338.531 176.542C339.201 174.892 338.951 173.072 337.861 171.672L318.021 146.112C317.801 145.822 317.541 145.562 317.271 145.332C316.401 144.612 315.291 144.212 314.141 144.212ZM301.911 182.482C301.121 182.482 300.371 182.212 299.771 181.702C298.811 180.902 298.141 179.392 298.791 177.802L311.001 147.842C311.411 146.832 312.261 146.092 313.311 145.832C314.611 145.502 316.011 145.992 316.821 147.042L336.661 172.602C337.411 173.572 337.591 174.832 337.121 175.962C336.661 177.102 335.651 177.872 334.441 178.042L302.391 182.442C302.231 182.472 302.071 182.482 301.911 182.482ZM314.131 146.642C313.931 146.642 313.721 146.672 313.521 146.712C312.751 146.902 312.141 147.442 311.831 148.182L299.621 178.142C299.151 179.302 299.641 180.412 300.341 180.992C300.781 181.362 301.321 181.552 301.901 181.552C302.021 181.552 302.141 181.542 302.251 181.532L334.301 177.132C335.191 177.012 335.921 176.442 336.261 175.612C336.601 174.782 336.471 173.862 335.921 173.152L316.081 147.592C315.621 146.992 314.911 146.642 314.131 146.642Z" fill="#D5E0E4"/>
<path d="M71.6217 184.102L50.2117 208.352C48.0917 210.752 44.1717 209.952 43.1617 206.922L32.8617 176.252C31.8417 173.222 34.4917 170.222 37.6217 170.852L69.3317 177.272C72.4717 177.912 73.7417 181.702 71.6217 184.102Z" fill="#E0BCDC"/>
<path d="M47.1119 210.212C45.1219 210.212 43.3519 208.952 42.7219 207.062L32.4219 176.392C31.9419 174.962 32.1719 173.452 33.0419 172.232C34.0919 170.772 35.9319 170.042 37.7119 170.402L69.4219 176.822C71.0519 177.152 72.3519 178.292 72.8819 179.872C73.4119 181.452 73.0719 183.142 71.9619 184.392L50.5519 208.642C49.6619 209.662 48.4419 210.212 47.1119 210.212ZM36.7819 171.232C35.6119 171.232 34.4919 171.812 33.7919 172.782C33.0919 173.752 32.9119 174.972 33.2919 176.112L43.5919 206.782C44.1019 208.312 45.4919 209.302 47.1119 209.302C48.1819 209.302 49.1519 208.862 49.8719 208.052L71.2819 183.802C72.1619 182.802 72.4419 181.442 72.0119 180.182C71.5819 178.912 70.5519 178.002 69.2419 177.732L37.5319 171.312C37.2819 171.252 37.0319 171.232 36.7819 171.232Z" fill="#E0BCDC"/>
<path d="M73.2215 183.932C73.0315 184.272 72.8015 184.602 72.5415 184.902L51.1314 209.152C49.8414 210.612 47.9415 211.252 46.0415 210.862C44.1415 210.472 42.6315 209.152 42.0115 207.302L31.7115 176.632C31.2215 175.182 31.3615 173.652 32.1015 172.332C33.2515 170.262 35.5715 169.192 37.8715 169.662L69.5814 176.082C71.2814 176.422 72.6715 177.522 73.3915 179.092C74.1015 180.642 74.0415 182.462 73.2215 183.932ZM34.2215 173.512C33.8215 174.232 33.7515 175.062 34.0115 175.862L44.3115 206.532C44.6515 207.542 45.4715 208.262 46.5115 208.472C47.5515 208.682 48.5914 208.332 49.3014 207.532L70.7115 183.282C71.4915 182.402 71.6615 181.152 71.1715 180.102C70.7815 179.252 70.0215 178.652 69.0915 178.462L37.3814 172.042C35.9214 171.752 34.7415 172.572 34.2215 173.512Z" fill="#E0BCDC"/>
<path d="M47.1216 211.432C46.7316 211.432 46.3316 211.392 45.9416 211.312C43.8716 210.892 42.2416 209.452 41.5716 207.452L31.2716 176.782C30.7416 175.212 30.8916 173.552 31.6916 172.112C32.9116 169.912 35.4816 168.712 37.9516 169.212L69.6616 175.632C71.5016 176.002 73.0116 177.192 73.7916 178.892C74.5716 180.582 74.5016 182.552 73.6116 184.152C73.4016 184.522 73.1516 184.872 72.8716 185.202L51.4616 209.452C50.3416 210.732 48.8016 211.432 47.1216 211.432ZM36.7916 170.012C35.0116 170.012 33.3616 170.992 32.4916 172.552C31.8216 173.762 31.6916 175.162 32.1416 176.492L42.4416 207.162C43.0116 208.842 44.3816 210.062 46.1216 210.412C47.8616 210.762 49.6116 210.172 50.7816 208.852L72.1916 184.602C72.4316 184.332 72.6416 184.032 72.8216 183.712C73.5716 182.362 73.6316 180.702 72.9716 179.272C72.3116 177.842 71.0416 176.832 69.4916 176.522L37.7816 170.102C37.4516 170.042 37.1216 170.012 36.7916 170.012ZM47.1116 209.002C46.8816 209.002 46.6516 208.982 46.4216 208.932C45.2216 208.692 44.2716 207.852 43.8716 206.682L33.5716 176.012C33.2616 175.092 33.3516 174.132 33.8116 173.292C34.5216 172.012 36.0216 171.302 37.4616 171.602L69.1716 178.022C70.2416 178.242 71.1216 178.932 71.5816 179.922C72.1516 181.152 71.9416 182.592 71.0416 183.602L49.6316 207.852C49.0016 208.582 48.0716 209.002 47.1116 209.002ZM36.7816 172.442C35.7116 172.442 34.9516 173.142 34.6216 173.732C34.2816 174.342 34.2216 175.042 34.4516 175.712L44.7516 206.382C45.0316 207.232 45.7316 207.842 46.6116 208.022C46.7816 208.052 46.9516 208.072 47.1216 208.072C47.8316 208.072 48.4916 207.772 48.9616 207.232L70.3716 182.982C71.0216 182.242 71.1716 181.192 70.7616 180.292C70.4316 179.572 69.7916 179.062 69.0016 178.912L37.2916 172.492C37.1116 172.462 36.9416 172.442 36.7816 172.442Z" fill="#E0BCDC"/>
<path d="M193.941 15.0025L172.531 39.2525C170.411 41.6525 166.491 40.8524 165.481 37.8224L155.181 7.1524C154.161 4.1224 156.811 1.12249 159.941 1.75249L191.651 8.17242C194.791 8.81242 196.061 12.6025 193.941 15.0025Z" fill="#D5E0E4"/>
<path d="M169.431 41.1128C167.441 41.1128 165.671 39.8528 165.041 37.9628L154.741 7.29276C154.261 5.86276 154.491 4.35285 155.361 3.13285C156.411 1.67285 158.251 0.942774 160.031 1.30277L191.741 7.72282C193.371 8.05282 194.671 9.19274 195.201 10.7727C195.731 12.3527 195.391 14.0428 194.281 15.2928L172.871 39.5428C171.981 40.5628 170.761 41.1128 169.431 41.1128ZM159.091 2.13285C157.921 2.13285 156.801 2.71278 156.111 3.68278C155.411 4.65278 155.231 5.87286 155.611 7.01286L165.911 37.6828C166.421 39.2128 167.811 40.2028 169.431 40.2028C170.501 40.2028 171.471 39.7628 172.191 38.9528L193.601 14.7028C194.481 13.7028 194.761 12.3428 194.331 11.0828C193.901 9.8128 192.871 8.90285 191.561 8.63285L159.851 2.21281C159.601 2.15281 159.341 2.13285 159.091 2.13285Z" fill="#D5E0E4"/>
<path d="M195.541 14.8425C195.351 15.1825 195.121 15.5125 194.861 15.8125L173.451 40.0625C172.161 41.5225 170.261 42.1624 168.361 41.7724C166.461 41.3824 164.951 40.0625 164.331 38.2125L154.031 7.54244C153.541 6.09244 153.681 4.56251 154.421 3.24251C155.571 1.17251 157.891 0.102469 160.191 0.572469L191.901 6.99251C193.601 7.33251 194.991 8.43252 195.711 10.0025C196.421 11.5425 196.361 13.3625 195.541 14.8425ZM156.541 4.42244C156.141 5.14244 156.071 5.97242 156.331 6.77242L166.631 37.4425C166.971 38.4525 167.791 39.1725 168.831 39.3825C169.871 39.5925 170.911 39.2425 171.621 38.4425L193.031 14.1925C193.811 13.3125 193.981 12.0625 193.491 11.0125C193.101 10.1625 192.341 9.56252 191.411 9.37252L159.701 2.95247C158.241 2.65247 157.061 3.47244 156.541 4.42244Z" fill="#D5E0E4"/>
<path d="M169.441 42.3326C169.051 42.3326 168.651 42.2926 168.261 42.2126C166.191 41.7926 164.561 40.3526 163.891 38.3526L153.591 7.68257C153.061 6.11257 153.211 4.45265 154.011 3.01265C155.231 0.812651 157.801 -0.387373 160.271 0.112627L191.981 6.53255C193.821 6.90255 195.331 8.09256 196.111 9.79256C196.891 11.4826 196.821 13.4526 195.931 15.0526C195.721 15.4226 195.471 15.7726 195.191 16.1026L173.781 40.3526C172.661 41.6326 171.121 42.3326 169.441 42.3326ZM159.111 0.912553C157.331 0.912553 155.681 1.88259 154.811 3.45259C154.141 4.66259 154.011 6.06253 154.461 7.39253L164.761 38.0626C165.331 39.7426 166.701 40.9626 168.441 41.3126C170.181 41.6626 171.931 41.0726 173.101 39.7526L194.511 15.5026C194.751 15.2326 194.961 14.9326 195.141 14.6126C195.891 13.2626 195.951 11.6026 195.291 10.1726C194.631 8.74256 193.361 7.73256 191.811 7.42256L160.101 1.00264C159.771 0.942641 159.441 0.912553 159.111 0.912553ZM169.431 39.9025C169.201 39.9025 168.971 39.8826 168.741 39.8326C167.541 39.5926 166.591 38.7526 166.191 37.5826L155.891 6.91255C155.581 5.99255 155.671 5.03258 156.131 4.19258C156.841 2.91258 158.341 2.20264 159.781 2.50264L191.491 8.92256C192.561 9.14256 193.441 9.83259 193.901 10.8226C194.471 12.0526 194.261 13.4926 193.371 14.5026L171.961 38.7526C171.321 39.4826 170.391 39.9025 169.431 39.9025ZM159.101 3.35262C158.031 3.35262 157.271 4.05253 156.941 4.64253C156.601 5.25253 156.541 5.95264 156.771 6.62264L167.071 37.2926C167.351 38.1426 168.051 38.7526 168.931 38.9326C169.101 38.9626 169.271 38.9826 169.441 38.9826C170.151 38.9826 170.811 38.6825 171.281 38.1425L192.691 13.8925C193.341 13.1525 193.491 12.1026 193.081 11.2026C192.751 10.4826 192.111 9.98259 191.321 9.82259L159.611 3.40254C159.431 3.36254 159.261 3.35262 159.101 3.35262Z" fill="#D5E0E4"/>
<path d="M229.501 142.273L224.391 165.483C223.881 167.773 221.081 168.663 219.351 167.083L201.801 151.053C200.071 149.463 200.701 146.603 202.941 145.893L225.601 138.713C227.841 138.003 230.011 139.983 229.501 142.273Z" fill="#C5E6E0"/>
<path d="M221.401 168.343C220.531 168.343 219.691 168.013 219.041 167.423L201.491 151.393C200.551 150.533 200.161 149.283 200.431 148.043C200.701 146.803 201.591 145.833 202.801 145.453L225.461 138.273C226.851 137.833 228.361 138.303 229.261 139.423C229.931 140.253 230.181 141.323 229.951 142.373L224.841 165.583C224.481 167.213 223.071 168.343 221.401 168.343ZM226.531 139.023C226.261 139.023 226.001 139.063 225.731 139.143L203.071 146.323C202.181 146.603 201.521 147.323 201.321 148.243C201.121 149.163 201.411 150.083 202.101 150.713L219.651 166.743C220.141 167.193 220.741 167.423 221.391 167.423C222.621 167.423 223.671 166.583 223.941 165.383L229.051 142.173C229.221 141.393 229.041 140.613 228.541 139.993C228.051 139.373 227.321 139.023 226.531 139.023Z" fill="#C5E6E0"/>
<path d="M230.471 141.603C230.471 141.893 230.441 142.183 230.381 142.463L225.271 165.673C224.961 167.063 223.971 168.153 222.611 168.583C221.251 169.013 219.811 168.693 218.761 167.733L201.211 151.703C200.381 150.943 199.921 149.913 199.921 148.803C199.921 147.073 201.031 145.553 202.681 145.033L225.341 137.853C226.551 137.473 227.841 137.673 228.861 138.423C229.871 139.173 230.471 140.363 230.471 141.603ZM201.711 148.813C201.711 149.423 201.961 149.983 202.411 150.393L219.961 166.423C220.541 166.953 221.321 167.123 222.071 166.883C222.811 166.643 223.361 166.053 223.531 165.293L228.641 142.083C228.831 141.243 228.491 140.373 227.801 139.873C227.241 139.463 226.541 139.353 225.881 139.563L203.221 146.743C202.171 147.073 201.711 148.013 201.711 148.813Z" fill="#C5E6E0"/>
<path d="M221.391 169.243C220.301 169.243 219.251 168.833 218.431 168.083L200.881 152.053C199.951 151.203 199.451 150.053 199.451 148.813C199.451 146.873 200.691 145.183 202.531 144.603L225.191 137.423C226.531 136.993 227.991 137.233 229.121 138.063C230.251 138.893 230.931 140.213 230.931 141.603C230.931 141.923 230.891 142.243 230.821 142.563L225.711 165.773C225.371 167.333 224.261 168.543 222.741 169.023C222.301 169.173 221.851 169.243 221.391 169.243ZM226.541 138.123C226.181 138.123 225.821 138.183 225.471 138.293L202.811 145.473C201.351 145.933 200.371 147.273 200.371 148.813C200.371 149.793 200.771 150.703 201.511 151.373L219.061 167.403C219.981 168.243 221.281 168.533 222.471 168.153C223.671 167.773 224.551 166.813 224.821 165.573L229.931 142.363C229.991 142.103 230.011 141.853 230.011 141.593C230.011 140.493 229.471 139.443 228.571 138.793C227.981 138.363 227.271 138.123 226.541 138.123ZM221.401 167.453C220.751 167.453 220.131 167.213 219.641 166.763L202.091 150.733C201.541 150.233 201.241 149.553 201.241 148.813C201.241 147.853 201.801 146.703 203.071 146.303L225.731 139.123C226.531 138.873 227.391 139.013 228.061 139.503C228.901 140.113 229.301 141.173 229.071 142.183L223.961 165.393C223.761 166.313 223.101 167.043 222.201 167.323C221.941 167.403 221.671 167.453 221.401 167.453ZM226.531 139.913C226.351 139.913 226.181 139.943 226.011 139.993L203.351 147.173C202.531 147.433 202.161 148.183 202.161 148.803C202.161 149.283 202.361 149.723 202.711 150.043L220.261 166.073C220.581 166.363 220.981 166.523 221.401 166.523C221.581 166.523 221.751 166.493 221.921 166.443C222.511 166.253 222.931 165.793 223.071 165.183L228.181 141.973C228.331 141.313 228.071 140.633 227.521 140.233C227.231 140.033 226.891 139.913 226.531 139.913Z" fill="#C5E6E0"/>
<path d="M5.35181 116.983L28.5618 122.093C30.8618 122.603 31.7418 125.403 30.1618 127.133L14.1318 144.683C12.5418 146.413 9.68182 145.783 8.97182 143.543L1.79181 120.883C1.07181 118.643 3.05181 116.473 5.35181 116.983Z" fill="#C5E6E0"/>
<path d="M11.8816 146.133C10.3416 146.133 8.99162 145.153 8.52162 143.683L1.34162 121.023C1.00162 119.943 1.18162 118.803 1.85162 117.893C2.67162 116.783 4.09161 116.233 5.44161 116.533L28.6516 121.643C29.8916 121.913 30.8616 122.803 31.2416 124.013C31.6216 125.223 31.3416 126.503 30.4816 127.443L14.4516 144.993C13.7916 145.723 12.8716 146.133 11.8816 146.133ZM4.68162 117.363C3.87162 117.363 3.09162 117.763 2.60162 118.433C2.11162 119.103 1.97163 119.943 2.22163 120.743L9.40162 143.403C9.74162 144.483 10.7416 145.213 11.8916 145.213C12.6216 145.213 13.3016 144.913 13.7916 144.363L29.8216 126.813C30.4516 126.123 30.6616 125.173 30.3816 124.283C30.1016 123.393 29.3816 122.733 28.4616 122.533L5.25163 117.423C5.06163 117.383 4.87162 117.363 4.68162 117.363Z" fill="#C5E6E0"/>
<path d="M4.68095 116.014C4.97095 116.014 5.26095 116.044 5.54096 116.104L28.751 121.214C30.141 121.524 31.2309 122.514 31.6609 123.874C32.091 125.234 31.771 126.674 30.811 127.724L14.781 145.274C14.021 146.104 12.991 146.564 11.881 146.564C10.141 146.564 8.63096 145.454 8.11096 143.804L0.930955 121.144C0.550955 119.934 0.750962 118.644 1.50096 117.624C2.25096 116.624 3.43095 116.014 4.68095 116.014ZM11.881 144.784C12.491 144.784 13.051 144.534 13.461 144.084L29.491 126.534C30.021 125.954 30.191 125.174 29.951 124.424C29.711 123.684 29.121 123.134 28.361 122.964L5.15096 117.854C4.31096 117.664 3.44095 118.004 2.94095 118.694C2.53095 119.254 2.42095 119.954 2.63095 120.614L9.81096 143.274C10.141 144.314 11.091 144.784 11.881 144.784Z" fill="#C5E6E0"/>
<path d="M11.8812 147.023C9.94117 147.023 8.25118 145.783 7.67118 143.943L0.491172 121.283C0.0611719 119.933 0.291171 118.493 1.13117 117.353C2.15117 115.953 3.95118 115.273 5.64118 115.653L28.8512 120.763C30.4112 121.103 31.6212 122.213 32.1012 123.733C32.5812 125.253 32.2312 126.863 31.1512 128.033L15.1212 145.583C14.2812 146.513 13.1312 147.023 11.8812 147.023ZM4.68117 116.473C3.58117 116.473 2.53117 117.013 1.88117 117.913C1.22117 118.813 1.03118 119.953 1.37118 121.023L8.55117 143.683C9.01117 145.143 10.3512 146.123 11.8912 146.123C12.8712 146.123 13.7912 145.723 14.4512 144.983L30.4812 127.433C31.3312 126.503 31.6112 125.233 31.2312 124.023C30.8512 122.823 29.8912 121.943 28.6512 121.673L5.44117 116.563C5.19117 116.503 4.93117 116.473 4.68117 116.473ZM11.8812 145.243C10.9212 145.243 9.77118 144.683 9.37118 143.413L2.19117 120.753C1.94117 119.953 2.07117 119.103 2.57117 118.423C3.18117 117.593 4.25118 117.183 5.25118 117.413L28.4612 122.523C29.3812 122.723 30.1112 123.383 30.3912 124.293C30.6812 125.193 30.4712 126.153 29.8312 126.843L13.8012 144.393C13.3012 144.933 12.6212 145.243 11.8812 145.243ZM4.69117 118.263C4.15117 118.263 3.63118 118.523 3.31118 118.963C2.99118 119.403 2.90118 119.953 3.06118 120.473L10.2412 143.133C10.5012 143.953 11.2512 144.323 11.8712 144.323C12.3512 144.323 12.7912 144.123 13.1112 143.763L29.1412 126.213C29.5512 125.763 29.6912 125.143 29.5112 124.553C29.3212 123.963 28.8512 123.543 28.2512 123.403L5.04117 118.293C4.94117 118.273 4.82117 118.263 4.69117 118.263Z" fill="#C5E6E0"/>
<path d="M275.522 104.703L298.732 109.813C301.022 110.323 301.912 113.123 300.332 114.853L284.302 132.403C282.712 134.133 279.852 133.503 279.142 131.263L271.962 108.603C271.242 106.363 273.222 104.203 275.522 104.703Z" fill="#D5E0E4"/>
<path d="M282.052 133.853C280.512 133.853 279.162 132.873 278.692 131.403L271.512 108.743C271.172 107.663 271.352 106.523 272.022 105.613C272.842 104.503 274.262 103.953 275.612 104.253L298.822 109.363C300.062 109.633 301.032 110.523 301.412 111.733C301.792 112.943 301.512 114.223 300.652 115.163L284.622 132.713C283.962 133.453 283.042 133.853 282.052 133.853ZM274.852 105.083C274.042 105.083 273.262 105.483 272.772 106.153C272.282 106.823 272.142 107.663 272.392 108.463L279.572 131.123C279.912 132.203 280.912 132.933 282.052 132.933C282.782 132.933 283.462 132.633 283.952 132.083L299.982 114.533C300.612 113.843 300.822 112.893 300.542 112.003C300.262 111.113 299.542 110.453 298.622 110.253L275.412 105.143C275.232 105.113 275.042 105.083 274.852 105.083Z" fill="#D5E0E4"/>
<path d="M274.851 103.732C275.141 103.732 275.431 103.762 275.711 103.822L298.921 108.932C300.311 109.242 301.401 110.232 301.831 111.592C302.261 112.952 301.941 114.392 300.981 115.442L284.951 132.992C284.191 133.822 283.161 134.282 282.051 134.282C280.311 134.282 278.801 133.172 278.281 131.522L271.101 108.862C270.721 107.652 270.921 106.362 271.671 105.342C272.421 104.342 273.601 103.732 274.851 103.732ZM282.051 132.502C282.661 132.502 283.221 132.252 283.631 131.802L299.661 114.252C300.191 113.672 300.361 112.892 300.121 112.142C299.881 111.402 299.291 110.852 298.531 110.682L275.321 105.572C274.481 105.382 273.611 105.722 273.111 106.412C272.701 106.972 272.591 107.672 272.801 108.332L279.981 130.992C280.311 132.032 281.261 132.502 282.051 132.502Z" fill="#D5E0E4"/>
<path d="M282.051 134.753C280.111 134.753 278.421 133.512 277.841 131.672L270.661 109.013C270.231 107.663 270.461 106.222 271.301 105.082C272.321 103.682 274.121 103.003 275.811 103.383L299.021 108.493C300.581 108.833 301.791 109.942 302.271 111.462C302.751 112.982 302.401 114.593 301.321 115.763L285.291 133.312C284.451 134.242 283.301 134.753 282.051 134.753ZM274.851 104.192C273.751 104.192 272.701 104.733 272.051 105.633C271.391 106.533 271.201 107.673 271.541 108.743L278.721 131.402C279.181 132.862 280.521 133.843 282.061 133.843C283.041 133.843 283.951 133.442 284.621 132.702L300.651 115.152C301.501 114.222 301.781 112.953 301.401 111.743C301.021 110.543 300.061 109.662 298.821 109.392L275.611 104.282C275.361 104.222 275.101 104.192 274.851 104.192ZM282.051 132.962C281.091 132.962 279.941 132.403 279.541 131.133L272.361 108.473C272.111 107.673 272.241 106.822 272.741 106.142C273.351 105.312 274.421 104.903 275.421 105.133L298.631 110.243C299.551 110.443 300.281 111.103 300.561 112.013C300.851 112.913 300.641 113.872 300.001 114.562L283.971 132.113C283.471 132.663 282.791 132.962 282.051 132.962ZM274.861 105.983C274.321 105.983 273.801 106.242 273.481 106.682C273.161 107.122 273.071 107.672 273.231 108.192L280.411 130.853C280.671 131.673 281.421 132.042 282.041 132.042C282.521 132.042 282.961 131.843 283.281 131.483L299.311 113.932C299.721 113.482 299.861 112.862 299.681 112.272C299.491 111.682 299.021 111.263 298.421 111.123L275.211 106.013C275.111 106.003 274.991 105.983 274.861 105.983Z" fill="#D5E0E4"/>
<path d="M33.2103 47.3225L28.1003 70.5324C27.5903 72.8224 24.7903 73.7125 23.0603 72.1325L5.51028 56.1025C3.78028 54.5125 4.41028 51.6524 6.65028 50.9424L29.3103 43.7625C31.5503 43.0425 33.7203 45.0225 33.2103 47.3225Z" fill="#D5E0E4"/>
<path d="M25.1104 73.3926C24.2404 73.3926 23.4004 73.0626 22.7504 72.4726L5.20045 56.4426C4.26045 55.5826 3.87045 54.3326 4.14045 53.0926C4.41045 51.8526 5.30044 50.8827 6.51044 50.5027L29.1704 43.3226C30.5604 42.8826 32.0704 43.3526 32.9704 44.4726C33.6404 45.3026 33.8904 46.3726 33.6604 47.4226L28.5504 70.6327C28.1904 72.2527 26.7804 73.3926 25.1104 73.3926ZM30.2404 44.0626C29.9704 44.0626 29.7104 44.1026 29.4404 44.1826L6.78045 51.3627C5.89045 51.6427 5.23045 52.3626 5.03045 53.2826C4.83045 54.2026 5.12045 55.1227 5.81045 55.7527L23.3604 71.7826C23.8504 72.2326 24.4504 72.4626 25.1004 72.4626C26.3304 72.4626 27.3804 71.6226 27.6504 70.4226L32.7604 47.2126C32.9304 46.4326 32.7504 45.6526 32.2504 45.0326C31.7604 44.4226 31.0304 44.0626 30.2404 44.0626Z" fill="#D5E0E4"/>
<path d="M34.1809 46.6526C34.1809 46.9426 34.1509 47.2327 34.0909 47.5127L28.9809 70.7227C28.6709 72.1127 27.6809 73.2027 26.3209 73.6327C24.9609 74.0627 23.5209 73.7426 22.4709 72.7826L4.92087 56.7527C4.09087 55.9927 3.63086 54.9627 3.63086 53.8527C3.63086 52.1127 4.74087 50.6027 6.39087 50.0827L29.0509 42.9026C30.2609 42.5226 31.5509 42.7227 32.5709 43.4727C33.5809 44.2227 34.1809 45.4026 34.1809 46.6526ZM5.42087 53.8527C5.42087 54.4627 5.67086 55.0226 6.12086 55.4326L23.6709 71.4627C24.2509 71.9927 25.0309 72.1626 25.7809 71.9226C26.5209 71.6826 27.0709 71.0927 27.2409 70.3327L32.3509 47.1227C32.5409 46.2827 32.2009 45.4126 31.5109 44.9126C30.9509 44.5026 30.2509 44.3927 29.5909 44.6027L6.93086 51.7826C5.88086 52.1126 5.42087 53.0627 5.42087 53.8527Z" fill="#D5E0E4"/>
<path d="M25.1109 74.283C24.0209 74.283 22.9709 73.8731 22.1509 73.1231L4.60089 57.0931C3.67089 56.2431 3.1709 55.0931 3.1709 53.8531C3.1709 51.9131 4.4109 50.223 6.2509 49.643L28.9109 42.4631C30.2509 42.0431 31.7109 42.2731 32.8409 43.1031C33.9709 43.9331 34.6509 45.253 34.6509 46.643C34.6509 46.963 34.6109 47.2831 34.5409 47.6031L29.4309 70.813C29.0909 72.373 27.9809 73.583 26.4609 74.063C26.0109 74.213 25.5609 74.283 25.1109 74.283ZM30.2509 43.173C29.8909 43.173 29.5309 43.2331 29.1809 43.3431L6.52089 50.523C5.06089 50.983 4.08089 52.3231 4.08089 53.8631C4.08089 54.8431 4.4809 55.753 5.2209 56.423L22.7709 72.4531C23.6909 73.2931 24.9909 73.5831 26.1809 73.2031C27.3809 72.8231 28.2609 71.8631 28.5309 70.6231L33.6409 47.413C33.7009 47.153 33.7209 46.903 33.7209 46.643C33.7209 45.543 33.1809 44.4931 32.2809 43.8431C31.6909 43.4031 30.9809 43.173 30.2509 43.173ZM25.1109 72.4931C24.4609 72.4931 23.8409 72.253 23.3509 71.803L5.80089 55.773C5.25089 55.273 4.9509 54.5931 4.9509 53.8531C4.9509 52.8931 5.5109 51.7431 6.7809 51.3431L29.4409 44.163C30.2409 43.913 31.1009 44.053 31.7709 44.543C32.6109 45.153 33.0109 46.2131 32.7809 47.2231L27.6709 70.433C27.4709 71.353 26.8109 72.0831 25.9009 72.3631C25.6509 72.4531 25.3809 72.4931 25.1109 72.4931ZM30.2409 44.9631C30.0609 44.9631 29.8909 44.993 29.7209 45.043L7.0609 52.2231C6.2409 52.4831 5.8709 53.2331 5.8709 53.8531C5.8709 54.3331 6.07089 54.7731 6.43089 55.0931L23.9809 71.1231C24.3009 71.4131 24.7009 71.5731 25.1209 71.5731C25.3009 71.5731 25.4709 71.5431 25.6409 71.4931C26.2309 71.3031 26.6509 70.8331 26.7909 70.2331L31.9009 47.023C32.0409 46.363 31.7909 45.683 31.2409 45.283C30.9409 45.073 30.6009 44.9631 30.2409 44.9631Z" fill="#D5E0E4"/>
<path d="M74.0404 92.3323L68.9304 115.542C68.4204 117.842 65.6204 118.722 63.8904 117.142L46.3404 101.112C44.6104 99.5224 45.2404 96.6623 47.4804 95.9523L70.1404 88.7723C72.3704 88.0523 74.5404 90.0323 74.0404 92.3323Z" fill="#FFE3E2"/>
<path d="M65.9308 118.402C65.0608 118.402 64.2208 118.072 63.5708 117.482L46.0208 101.452C45.0808 100.592 44.6908 99.3424 44.9608 98.1024C45.2308 96.8624 46.1208 95.8924 47.3308 95.5124L69.9908 88.3324C71.3808 87.8924 72.8908 88.3624 73.7908 89.4824C74.4608 90.3124 74.7108 91.3824 74.4808 92.4324L69.3708 115.642C69.0108 117.262 67.6008 118.402 65.9308 118.402ZM71.0708 89.0724C70.8008 89.0724 70.5408 89.1124 70.2708 89.1924L47.6108 96.3724C46.7208 96.6524 46.0608 97.3723 45.8608 98.2923C45.6608 99.2123 45.9508 100.132 46.6408 100.762L64.1908 116.792C64.6808 117.242 65.2808 117.472 65.9308 117.472C67.1608 117.472 68.2108 116.632 68.4808 115.432L73.5908 92.2224C73.7608 91.4424 73.5808 90.6623 73.0808 90.0423C72.5808 89.4323 71.8508 89.0724 71.0708 89.0724Z" fill="#FFE3E2"/>
<path d="M75.0014 91.6624C75.0014 91.9524 74.9714 92.2424 74.9014 92.5224L69.7914 115.732C69.4814 117.122 68.4914 118.212 67.1314 118.642C65.7714 119.072 64.3314 118.752 63.2814 117.792L45.7314 101.762C44.9014 101.002 44.4414 99.9725 44.4414 98.8625C44.4414 97.1225 45.5514 95.6124 47.2014 95.0924L69.8614 87.9124C71.0714 87.5324 72.3614 87.7325 73.3814 88.4825C74.4014 89.2325 75.0014 90.4124 75.0014 91.6624ZM46.2414 98.8625C46.2414 99.4725 46.4914 100.032 46.9414 100.442L64.4914 116.472C65.0714 117.002 65.8514 117.172 66.6014 116.932C67.3414 116.692 67.8914 116.102 68.0614 115.342L73.1714 92.1325C73.3614 91.2925 73.0214 90.4224 72.3314 89.9224C71.7714 89.5124 71.0714 89.4025 70.4114 89.6125L47.7514 96.7924C46.7014 97.1224 46.2414 98.0725 46.2414 98.8625Z" fill="#FFE3E2"/>
<path d="M65.9312 119.293C64.8412 119.293 63.7912 118.883 62.9712 118.133L45.4212 102.103C44.4912 101.253 43.9912 100.103 43.9912 98.8628C43.9912 96.9228 45.2312 95.2328 47.0712 94.6528L69.7312 87.4728C71.0712 87.0528 72.5312 87.2828 73.6612 88.1128C74.7912 88.9428 75.4712 90.2628 75.4712 91.6528C75.4712 91.9728 75.4312 92.3028 75.3612 92.6128L70.2512 115.823C69.9112 117.383 68.8012 118.593 67.2812 119.073C66.8312 119.223 66.3812 119.293 65.9312 119.293ZM71.0712 88.1828C70.7112 88.1828 70.3512 88.2428 70.0012 88.3528L47.3412 95.5328C45.8812 95.9928 44.9012 97.3329 44.9012 98.8729C44.9012 99.8529 45.3012 100.763 46.0412 101.433L63.5912 117.463C64.5112 118.303 65.8112 118.593 67.0012 118.213C68.2012 117.833 69.0812 116.873 69.3512 115.633L74.4612 92.4228C74.5212 92.1728 74.5412 91.9128 74.5412 91.6528C74.5412 90.5528 74.0012 89.5028 73.1012 88.8528C72.5112 88.4128 71.8012 88.1828 71.0712 88.1828ZM65.9312 117.503C65.2812 117.503 64.6612 117.263 64.1712 116.813L46.6212 100.783C46.0712 100.283 45.7712 99.6028 45.7712 98.8628C45.7712 97.9028 46.3312 96.7528 47.6012 96.3528L70.2612 89.1728C71.0612 88.9228 71.9212 89.0628 72.5912 89.5528C73.4312 90.1628 73.8312 91.2228 73.6012 92.2328L68.4912 115.443C68.2912 116.363 67.6312 117.093 66.7212 117.373C66.4712 117.463 66.2012 117.503 65.9312 117.503ZM71.0612 89.9728C70.8812 89.9728 70.7112 90.0028 70.5412 90.0528L47.8812 97.2328C47.0612 97.4928 46.6912 98.2428 46.6912 98.8628C46.6912 99.3428 46.8912 99.7828 47.2412 100.103L64.7912 116.133C65.2412 116.543 65.8712 116.683 66.4512 116.503C67.0412 116.313 67.4612 115.853 67.6012 115.243L72.7112 92.0328C72.8512 91.3728 72.6012 90.6928 72.0512 90.2928C71.7612 90.0828 71.4212 89.9728 71.0612 89.9728Z" fill="#FFE3E2"/>
<path d="M345.291 56.8918L340.181 80.1019C339.671 82.3919 336.871 83.2818 335.141 81.7018L317.591 65.6718C315.861 64.0818 316.491 61.2219 318.731 60.5119L341.391 53.3319C343.631 52.6119 345.801 54.5918 345.291 56.8918Z" fill="#FFE3E2"/>
<path d="M337.192 82.962C336.322 82.962 335.481 82.632 334.831 82.042L317.282 66.0121C316.342 65.1521 315.952 63.902 316.222 62.662C316.492 61.422 317.381 60.452 318.591 60.072L341.252 52.892C342.642 52.452 344.151 52.922 345.051 54.042C345.721 54.872 345.971 55.942 345.741 56.992L340.632 80.202C340.272 81.822 338.862 82.962 337.192 82.962ZM342.322 53.6321C342.052 53.6321 341.791 53.6721 341.521 53.7521L318.861 60.932C317.971 61.212 317.311 61.932 317.111 62.852C316.911 63.772 317.201 64.692 317.891 65.322L335.442 81.352C335.932 81.802 336.531 82.032 337.181 82.032C338.411 82.032 339.461 81.192 339.731 79.992L344.841 56.782C345.011 56.002 344.831 55.222 344.331 54.602C343.841 53.992 343.102 53.6321 342.322 53.6321Z" fill="#FFE3E2"/>
<path d="M346.261 56.222C346.261 56.512 346.231 56.802 346.161 57.082L341.051 80.2919C340.741 81.6819 339.751 82.772 338.391 83.202C337.031 83.632 335.591 83.312 334.541 82.352L316.991 66.322C316.161 65.562 315.701 64.5319 315.701 63.4219C315.701 61.6919 316.811 60.1719 318.461 59.6519L341.121 52.472C342.331 52.092 343.621 52.2919 344.641 53.0419C345.651 53.7919 346.261 54.972 346.261 56.222ZM317.491 63.4219C317.491 64.0319 317.741 64.592 318.191 65.002L335.741 81.0319C336.321 81.5619 337.101 81.732 337.851 81.492C338.591 81.252 339.141 80.6619 339.311 79.9019L344.421 56.692C344.611 55.852 344.271 54.982 343.581 54.482C343.021 54.072 342.321 53.9619 341.661 54.1719L319.001 61.352C317.961 61.682 317.491 62.6319 317.491 63.4219Z" fill="#FFE3E2"/>
<path d="M337.181 83.8525C336.091 83.8525 335.041 83.4424 334.221 82.6924L316.671 66.6624C315.741 65.8124 315.241 64.6624 315.241 63.4224C315.241 61.4824 316.481 59.7925 318.321 59.2125L340.981 52.0324C342.321 51.6124 343.781 51.8424 344.911 52.6724C346.041 53.5024 346.721 54.8225 346.721 56.2125C346.721 56.5325 346.681 56.8624 346.611 57.1724L341.501 80.3825C341.161 81.9425 340.051 83.1525 338.531 83.6325C338.091 83.7825 337.641 83.8525 337.181 83.8525ZM342.331 52.7425C341.971 52.7425 341.611 52.8024 341.261 52.9124L318.601 60.0925C317.141 60.5525 316.161 61.8924 316.161 63.4324C316.161 64.4124 316.561 65.3225 317.301 65.9925L334.851 82.0224C335.771 82.8624 337.071 83.1524 338.261 82.7724C339.461 82.3924 340.341 81.4324 340.611 80.1924L345.721 56.9825C345.781 56.7325 345.801 56.4725 345.801 56.2125C345.801 55.1125 345.261 54.0624 344.361 53.4124C343.771 52.9724 343.061 52.7425 342.331 52.7425ZM337.191 82.0624C336.541 82.0624 335.921 81.8225 335.431 81.3725L317.881 65.3425C317.331 64.8425 317.031 64.1624 317.031 63.4224C317.031 62.4624 317.591 61.3124 318.861 60.9124L341.521 53.7325C342.321 53.4825 343.181 53.6225 343.851 54.1125C344.691 54.7225 345.091 55.7824 344.861 56.7924L339.751 80.0025C339.551 80.9225 338.891 81.6524 337.981 81.9324C337.731 82.0224 337.461 82.0624 337.191 82.0624ZM342.321 54.5324C342.141 54.5324 341.971 54.5625 341.801 54.6125L319.141 61.7924C318.321 62.0524 317.951 62.8024 317.951 63.4224C317.951 63.9024 318.151 64.3424 318.501 64.6624L336.051 80.6924C336.501 81.1024 337.131 81.2424 337.711 81.0624C338.301 80.8724 338.721 80.4124 338.861 79.8024L343.971 56.5925C344.111 55.9325 343.861 55.2525 343.311 54.8525C343.021 54.6425 342.681 54.5324 342.321 54.5324Z" fill="#FFE3E2"/>
</svg>
